<?xml version="1.0" encoding="utf-8"?>
<!-- Generator: Adobe Illustrator 27.0.0, SVG Export Plug-In . SVG Version: 6.00 Build 0)  -->
<svg version="1.1" id="Capa_1" xmlns="http://www.w3.org/2000/svg" xmlns:xlink="http://www.w3.org/1999/xlink" x="0px" y="0px"
	 viewBox="0 0 222 211" style="enable-background:new 0 0 222 211;" xml:space="preserve">
<style type="text/css">
	.st0{fill:#E9A644;}
</style>
<g>
	<g>
		<path class="st0" d="M213.1,103.8c-0.1,56.9-45,101.5-102.3,101.5C55,205.2,10.3,159.6,10.4,102.8C10.5,46.8,56.3,1.8,112.7,2
			C168.1,2.3,213.1,47.9,213.1,103.8z M198.7,104.1c0.1-48.9-38.3-87.1-88-87.6c-46.5-0.5-85.9,39.4-86,86.9
			c-0.1,48.5,38.8,87.6,87.1,87.6C159.7,190.9,198.6,152,198.7,104.1z"/>
		<path class="st0" d="M111.6,126.9c9.8,0,19.6,0,29.4,0c5.1,0,9.1,1.8,8.9,7.5c-0.1,5.1-3.9,6.9-8.6,6.8c-19.6,0-39.2,0-58.8,0
			c-5.2,0-9.1-1.8-8.9-7.4c0.2-5.7,4.6-6.9,9.5-6.8C92.6,127,102.1,126.9,111.6,126.9L111.6,126.9z"/>
		<path class="st0" d="M159.1,76.9c0,8.6-7.2,15.9-15.7,16c-9.3,0.1-16.5-6.9-16.5-16.1c0-8.8,7.8-16.4,16.6-16.1
			C151.9,60.9,159.1,68.4,159.1,76.9z"/>
		<path class="st0" d="M81.1,60.8c9,0.4,16,8.2,15.4,17.2c-0.5,8.6-7.9,15.2-16.7,14.8c-9.1-0.4-16-8-15.4-17.1
			C65,67.1,72.6,60.3,81.1,60.8z"/>
	</g>
</g>
</svg>
