<?xml version="1.0" encoding="utf-8"?>
<!-- Generator: Adobe Illustrator 27.0.0, SVG Export Plug-In . SVG Version: 6.00 Build 0)  -->
<svg version="1.1" id="Capa_1" xmlns="http://www.w3.org/2000/svg" xmlns:xlink="http://www.w3.org/1999/xlink" x="0px" y="0px"
	 viewBox="0 0 229 222" style="enable-background:new 0 0 229 222;" xml:space="preserve">
<style type="text/css">
	.st0{fill:#78C567;}
</style>
<g>
	<g>
		<path class="st0" d="M114.1,210.2c-56.4,0.3-103.5-46.1-103.7-102C10.2,50.5,56.2,3.9,113.5,3.8c56.9-0.1,103.4,46.1,103.5,103
			C217.2,163.8,171.3,209.9,114.1,210.2z M25.3,109c3,51.3,43.9,89.4,92.8,86.5c49.1-2.9,86.9-44.7,84.3-93.3
			c-2.5-47-44.5-86.1-90.1-83.9C62,20.7,22.5,62,25.3,109z"/>
		<path class="st0" d="M113.9,162.9C96.6,163,80.5,152.4,74,136.5c-2-5-2.7-9.9,3-12.4c5.2-2.2,8.5,1.1,10.5,5.9
			c4.8,11.4,13.5,18,25.8,18.1c12.6,0.2,21.9-6.1,26.9-17.9c2-4.6,4.8-8.4,10.2-6.2c5.8,2.4,5.2,7.1,3.3,12.2
			C147.7,151.6,131.3,162.7,113.9,162.9z"/>
		<path class="st0" d="M82.5,95.9C72.7,96.1,66,89.5,66,79.6c0-9.4,6.5-16.1,15.7-16.3c9.3-0.1,17,7.4,16.9,16.4
			C98.6,88.4,91.3,95.7,82.5,95.9z"/>
		<path class="st0" d="M162.1,79.4c0.2,8.7-7,16.3-15.7,16.6c-9.3,0.4-17-6.8-17.1-16c-0.2-8.9,6.7-16.3,15.6-16.7
			C153.8,62.9,161.9,70.5,162.1,79.4z"/>
	</g>
</g>
</svg>
