<?xml version="1.0" encoding="utf-8"?>
<!-- Generator: Adobe Illustrator 27.0.0, SVG Export Plug-In . SVG Version: 6.00 Build 0)  -->
<svg version="1.1" id="Capa_1" xmlns="http://www.w3.org/2000/svg" xmlns:xlink="http://www.w3.org/1999/xlink" x="0px" y="0px"
	 viewBox="0 0 181 182" style="enable-background:new 0 0 181 182;" xml:space="preserve">
<style type="text/css">
	.st0{fill:#ED232A;}
</style>
<g>
	<g>
		<path class="st0" d="M75.8,10.2c35.4-6.7,70.5,9.7,88.3,41.3c17.7,31.4,12.9,70.5-11.9,97.4C128,175.2,89.4,183,56.5,168.2
			C24,153.6,4.3,119.6,7.8,84.3C11.4,47.8,39,16.6,72.6,10.9C73.8,10.7,74.8,10.5,75.8,10.2z M162.8,92.7
			c0.3-39.4-31.5-71.9-70.7-72.4c-39.6-0.5-72.2,31.4-72.7,71.2C19,130.7,51,163.4,90.1,163.8C129.9,164.3,162.5,132.3,162.8,92.7z"
			/>
		<path class="st0" d="M75.8,10.2c-1,0.3-2,0.5-3.1,0.8C73.8,10.7,74.8,10.5,75.8,10.2z"/>
		<path class="st0" d="M91.4,130.2c-8.1,0-16.1,0.1-24.2,0c-6.5-0.1-8.8-3.2-7.1-9.4c3.5-13.2,17-23.1,31.4-22.9
			c14.1,0.2,27.1,10,30.5,23.1c1.6,6.2-0.5,9.1-7.2,9.3C107,130.3,99.2,130.2,91.4,130.2z"/>
		<path class="st0" d="M130.1,69.7c0.1,7.1-5.6,13.2-12.7,13.5c-7.6,0.3-13.6-5.3-13.8-12.9c-0.2-7.5,5.8-13.6,13.2-13.5
			C124,56.8,130,62.6,130.1,69.7z"/>
		<path class="st0" d="M78.7,69.9c0.1,7.4-6.1,13.5-13.5,13.4c-7.2-0.1-12.9-5.9-13-13.1c-0.1-7.1,5.6-13.2,12.7-13.4
			C72.3,56.5,78.6,62.6,78.7,69.9z"/>
	</g>
</g>
</svg>
