<?xml version="1.0" encoding="utf-8"?>
<!-- Generator: Adobe Illustrator 24.1.3, SVG Export Plug-In . SVG Version: 6.00 Build 0)  -->
<svg version="1.1" id="Capa_1" xmlns="http://www.w3.org/2000/svg" xmlns:xlink="http://www.w3.org/1999/xlink" x="0px" y="0px"
	 viewBox="0 0 277.1 277.1" style="enable-background:new 0 0 277.1 277.1;" xml:space="preserve">
<style type="text/css">
	.st0{fill:#E9A644;}
</style>
<g>
	<g>
		<path class="st0" d="M237.1,103.8c-0.1,56.9-45,101.5-102.3,101.5C79,205.2,34.3,159.6,34.4,102.8C34.5,46.8,80.3,1.8,136.7,2
			C192.1,2.3,237.1,47.9,237.1,103.8z M222.7,104.1c0.1-48.9-38.3-87.1-88-87.6c-46.5-0.5-85.9,39.4-86,86.9
			c-0.1,48.5,38.8,87.6,87.1,87.6C183.7,190.9,222.6,152,222.7,104.1z"/>
		<path class="st0" d="M135.6,126.9c9.8,0,19.6,0,29.4,0c5.1,0,9.1,1.8,8.9,7.5c-0.1,5.1-3.9,6.9-8.6,6.8c-19.6,0-39.2,0-58.8,0
			c-5.2,0-9.1-1.8-8.9-7.4c0.2-5.7,4.6-6.9,9.5-6.8C116.6,127,126.1,126.9,135.6,126.9C135.6,126.9,135.6,126.9,135.6,126.9z"/>
		<path class="st0" d="M183.1,76.9c0,8.6-7.2,15.9-15.7,16c-9.3,0.1-16.5-6.9-16.5-16.1c0-8.8,7.8-16.4,16.6-16.1
			C175.9,60.9,183.1,68.4,183.1,76.9z"/>
		<path class="st0" d="M105.1,60.8c9,0.4,16,8.2,15.4,17.2c-0.5,8.6-7.9,15.2-16.7,14.8c-9.1-0.4-16-8-15.4-17.1
			C89,67.1,96.6,60.3,105.1,60.8z"/>
	</g>
	<g>
		<path class="st0" d="M89.5,236.1v29c0,1.5-1.3,2.7-2.8,2.7c-1.5,0-2.7-1.2-2.7-2.7v-20.7l-7.1,9.8c-0.5,0.7-1.3,1.1-2.2,1.1h0h0
			c-0.9,0-1.7-0.4-2.3-1.1l-7-9.8v20.7c0,1.5-1.2,2.7-2.8,2.7c-1.5,0-2.7-1.2-2.7-2.7v-29c0-1.5,1.2-2.7,2.7-2.7c0,0,0,0,0.1,0
			c0.8,0,1.7,0.4,2.2,1.1l9.8,13.6l9.8-13.6c0.5-0.7,1.3-1.1,2.2-1.1c0,0,0,0,0,0C88.2,233.5,89.5,234.7,89.5,236.1z"/>
		<path class="st0" d="M103.1,264.3c-2.1-2.2-3.4-5.2-3.4-8.7c0-3.3,1.3-6.2,3.4-8.6c2.2-2.3,5.1-3.7,8.5-3.7c3.2,0,6.2,1.4,8.2,3.7
			c2.2,2.4,3.4,5.3,3.4,8.6c0,3.4-1.2,6.5-3.4,8.7c-2,2.3-5,3.7-8.2,3.7C108.2,268,105.3,266.6,103.1,264.3z M105.1,255.6
			c0,2.1,0.6,3.8,1.8,5.2c1.2,1.2,2.9,1.8,4.7,1.8c1.7,0,3.3-0.6,4.5-1.8c1.2-1.4,1.9-3.1,1.9-5.2c0-2-0.7-3.8-1.9-5.1
			c-1.2-1.1-2.8-1.9-4.5-1.9c-1.9,0-3.5,0.8-4.7,1.9C105.7,251.8,105.1,253.6,105.1,255.6z"/>
		<path class="st0" d="M152.3,245.9v11.6v7c0,6.6-5.2,11.8-11.8,11.8c-1.8,0-3.6-0.5-5.1-1.2c-1.4-0.6-1.9-2.1-1.3-3.5
			c0.6-1.2,2.3-1.7,3.5-1.1c0.9,0.4,1.9,0.7,2.9,0.7c2.9,0,5.4-1.9,6.1-4.5c-1.4,0.8-3,1.2-4.7,1.2c-5.7,0-10.3-4.7-10.3-10.3v-11.6
			c0-1.5,1.2-2.6,2.6-2.6c1.5,0,2.6,1.1,2.6,2.6v11.6c0,2.9,2.3,5,5.1,5c2.8,0,5.1-2.2,5.1-5v-11.6c0-1.5,1.1-2.6,2.6-2.6
			C151.1,243.3,152.3,244.4,152.3,245.9z"/>
		<path class="st0" d="M159.5,255.6c0-6.7,5.3-12.3,12-12.3c6.4,0,11.5,4.8,11.8,11.4c0,0,0,0.1,0,0.2c0,0.1,0,0.3,0,0.4
			c-0.1,1.2-1.2,2-2.6,2h-15.6c0.2,1.1,0.8,2.4,1.7,3.2c1,1.2,3,2.1,4.7,2.2c1.8,0.1,3.9-0.3,5.1-1.2c1-1.1,3-0.9,3.7-0.1
			c0.6,0.7,1.1,2.2,0,3.2c-2.4,2.2-5.3,3.2-8.8,3.2C164.7,267.8,159.5,262.3,159.5,255.6z M164.8,253.2h13.9c-0.5-2-3-4.9-7.3-5.2
			C167.3,248.1,165.2,251.1,164.8,253.2z"/>
		<path class="st0" d="M211.7,253.5v11.7c0,1.4-1.1,2.6-2.6,2.6c-1.4,0-2.6-1.2-2.6-2.6v-11.7c0-2.8-2.3-5-5.1-5
			c-2.8,0-4.9,2.2-4.9,5v11.7c0,0.1,0,0.3-0.1,0.5c-0.2,1.2-1.3,2.1-2.6,2.1c-1.5,0-2.6-1.2-2.6-2.6v-11.7v-7.6
			c0-1.4,1.1-2.6,2.6-2.6c1,0,2,0.6,2.4,1.5c1.5-0.9,3.3-1.5,5.2-1.5C207.1,243.3,211.7,247.9,211.7,253.5z"/>
	</g>
</g>
</svg>
