<?xml version="1.0" encoding="utf-8"?>
<!-- Generator: Adobe Illustrator 27.0.0, SVG Export Plug-In . SVG Version: 6.00 Build 0)  -->
<svg version="1.1" id="Capa_1" xmlns="http://www.w3.org/2000/svg" xmlns:xlink="http://www.w3.org/1999/xlink" x="0px" y="0px"
	 viewBox="0 0 225 217" style="enable-background:new 0 0 225 217;" xml:space="preserve">
<style type="text/css">
	.st0{fill:#E75B49;}
</style>
<g>
	<g>
		<path class="st0" d="M9.4,104.3C9.2,47.6,55.7,1.2,112.7,1.2c56.4,0,102.8,46.4,102.9,102.6c0.1,57-45.8,103.2-102.9,103.5
			C56,207.7,9.5,161.3,9.4,104.3z M200.9,103.2c-1.7-49.6-41.7-88.7-89.3-87.5C61.5,17,22.1,58.3,24,107.6
			c1.8,48.4,43.1,86.7,91.6,85.1C163.2,191,202.6,149.8,200.9,103.2z"/>
		<path class="st0" d="M113,113.6c17,0.1,33.6,11.5,39.5,27.1c1.8,4.7,2.3,9.2-3,11.6c-5.3,2.4-8.4-0.6-10.4-5.4
			c-4.9-11.8-13.8-18.2-26.6-18.2s-21.6,6.4-26.6,18.2c-2,4.8-5.2,7.9-10.5,5.4c-5.2-2.5-4.7-6.9-2.8-11.6
			C79.1,124.3,95.2,113.5,113,113.6z"/>
		<path class="st0" d="M80.8,60.7c8.8-0.1,16.1,7.1,16.3,15.9c0.2,9.2-7,16.7-16.3,16.7c-8.9,0-16.1-7-16.4-15.8
			C64.1,68.5,71.7,60.7,80.8,60.7z"/>
		<path class="st0" d="M144.4,60.6c9.3,0.2,16.2,7.7,15.9,17.1c-0.3,9-7.4,15.6-16.5,15.5c-9-0.1-16.6-8.1-16.1-17
			C128.1,67.7,135.8,60.5,144.4,60.6z"/>
	</g>
</g>
</svg>
