<?xml version="1.0" encoding="utf-8"?>
<!-- Generator: Adobe Illustrator 27.0.0, SVG Export Plug-In . SVG Version: 6.00 Build 0)  -->
<svg version="1.1" id="Capa_1" xmlns="http://www.w3.org/2000/svg" xmlns:xlink="http://www.w3.org/1999/xlink" x="0px" y="0px"
	 viewBox="0 0 224 213.8" style="enable-background:new 0 0 224 213.8;" xml:space="preserve">
<style type="text/css">
	.st0{fill:#3EAE77;}
</style>
<g>
	<g>
		<path class="st0" d="M9.1,104.8C9.4,48,56.2,1.8,112.9,2.4C169,3,215.3,49.3,215.2,104.7c-0.1,57.6-46.3,103.9-103.6,103.7
			C54.6,208.2,8.9,161.9,9.1,104.8z M200.2,105.7c0.2-48.5-39.2-88.5-87.7-88.7c-48.4-0.2-88.6,39.5-88.8,87.7
			c-0.2,48.7,39.3,88.9,87.4,89.1C160.4,193.9,200,154.8,200.2,105.7z"/>
		<path class="st0" d="M112,122.8c9.7,0,19.3-0.2,29,0c8.8,0.2,11.4,3.8,9,12c-4.7,16-21.1,27.8-38.4,27.8
			c-16.8,0-33.3-12.5-37.7-28.7c-2-7.2,0.7-10.9,8.3-11.1C92.1,122.5,102.1,122.7,112,122.8C112,122.7,112,122.7,112,122.8z"/>
		<path class="st0" d="M96.5,77.8c0.2,9.5-6.8,16.7-16.2,16.6c-8.8-0.1-16.2-7.1-16.4-15.8c-0.2-9,7.4-16.7,16.4-16.7
			C89.3,61.9,96.4,68.9,96.5,77.8z"/>
		<path class="st0" d="M143,61.8c9.2-0.3,16.8,7,16.9,16.2c0.1,8.9-6.7,16-15.7,16.4s-16.9-7-17-16.1
			C127.2,69.7,134.5,62.1,143,61.8z"/>
	</g>
</g>
</svg>
