<?xml version="1.0" encoding="utf-8"?>
<!-- Generator: Adobe Illustrator 25.2.3, SVG Export Plug-In . SVG Version: 6.00 Build 0)  -->
<svg version="1.1" id="Calque_1" xmlns="http://www.w3.org/2000/svg" xmlns:xlink="http://www.w3.org/1999/xlink" x="0px" y="0px"
	 viewBox="0 0 511.9 554.1" style="enable-background:new 0 0 511.9 554.1;" xml:space="preserve">
<style type="text/css">
	.st0{fill:#FFFFFF;}
</style>
<g>
	<g>
		<path class="st0" d="M325.5,526.5c-9.5-1.3-19.1-2.4-28.5-4c-81.2-14-139.1-58.1-171.8-134.1c-5.3-12.3-8.8-25.3-13.1-38
			c-0.5-1.4-0.9-2.8-1.4-4.6c-16.2,0-32.3,0-48.4,0c-13.1,0-19.1-6-19.1-19.3c0-10,0-20,0-29.9c0.1-10.9,6.6-17.4,17.4-17.5
			c13.6-0.1,27.2,0,41.1,0c0-9.4,0-18.5,0-28.1c-11.5,0-23-0.5-34.4,0.1c-19.5,1.1-25.3-7-24.2-24.3c0.5-8.1,0.1-16.3,0.1-24.5
			c0-11.5,6.4-18,17.9-18.1c17.3-0.1,34.6,0,52.4,0c2.2-6.3,4.3-12.7,6.6-19c19.7-52.7,52.8-94.2,102.6-121.4
			c25.2-13.7,52.4-21.4,80.7-25.5c52.9-7.7,103.9-0.3,153.4,19c5.2,2,10.3,4.7,14.8,7.9c8,5.8,10.6,13.3,7,22.4
			c-6.5,16.5-13.5,32.8-21.1,48.9c-4.4,9.4-12.3,11.8-23.8,9.1c-19.4-4.6-38.6-10-58.1-13.8c-35.2-6.9-70.1-5.8-103.7,8.4
			C243,132.5,225.1,155.1,213,183c-0.1,0.3,0.1,0.6,0.2,1.3c1.8,0,3.6,0,5.4,0c32.3,0,64.6,0,96.8,0c12.8,0,19,6.2,19,18.9
			c0,10.1,0,20.3,0,30.4c-0.1,10.8-6.7,17.3-17.5,17.4c-37.8,0-75.5,0-113.3,0c-2,0-3.9,0-6.2,0c0,9.5,0,18.4,0,28.1
			c2,0,3.9,0,5.9,0c37.3,0,74.6,0,111.8,0c13.2,0,19.3,6,19.3,19.1c0,10.1,0.1,20.3,0,30.4c-0.1,10.5-6.7,17.1-17.2,17.2
			c-34.3,0-68.6,0-102.8,0c-1.8,0-3.6,0-6,0c0.4,1.5,0.6,2.8,1,3.9c10.2,27.7,25.5,51.5,51.8,66.6c16.7,9.6,34.9,14.2,53.9,16.5
			c35.1,4.2,68.7-3.3,102.2-12.4c7-1.9,14.2-3.5,21.4-4.8c8.3-1.4,15.2,1.7,18.7,9.3c7.6,16.4,15,32.9,21.5,49.8
			c4.2,10.9-0.6,19.7-11.9,25.1c-19.1,9.1-39.1,15.7-59.9,19.7c-13.7,2.7-27.5,4.2-41.3,6.2c-1.1,0.2-2.2,0.6-3.3,0.9
			C350.1,526.5,337.8,526.5,325.5,526.5z"/>
	</g>
</g>
</svg>
