<?xml version="1.0" encoding="utf-8"?>
<!-- Generator: Adobe Illustrator 27.0.0, SVG Export Plug-In . SVG Version: 6.00 Build 0)  -->
<svg version="1.1" id="OBJECTS" xmlns="http://www.w3.org/2000/svg" xmlns:xlink="http://www.w3.org/1999/xlink" x="0px" y="0px"
	 viewBox="0 0 83.76 35.44" style="enable-background:new 0 0 83.76 35.44;" xml:space="preserve">
<style type="text/css">
	.st0{fill:#EFD581;}
	.st1{fill:#16A752;}
	.st2{fill:#20B0ED;}
	.st3{fill:#2D328C;}
	.st4{fill:#D92232;}
	.st5{fill:#F9C10E;}
	.st6{fill:#8ABB51;}
	.st7{fill:#982885;}
	.st8{fill:#EF802E;}
	.st9{fill:#98C040;}
	.st10{fill:#253794;}
	.st11{fill:#1E1C1C;}
</style>
<g>
	<g id="XMLID_00000029766094632119614600000000194208312851006886_">
		<path id="XMLID_00000121272463729105342800000006708729762697794209_" class="st0" d="M10.15,5.17c0.4-0.18,0.75,0.33,0.44,0.63
			C9.4,6.99,7.11,8.59,6.58,8.4c-0.1-0.03-0.11-0.11-0.12-0.17l0,0c1-0.16,3.24-2.28,3.48-2.86c0.04-0.09,0.11-0.16,0.2-0.2
			C10.14,5.17,10.15,5.17,10.15,5.17z"/>
		<path id="XMLID_00000166654635021831343400000001986410692804319926_" class="st1" d="M16.87,4.18c-0.26-0.03-0.5,0.1-0.64,0.32
			c-1.16,1.89-7.83,7.26-10.51,6.82c-1.4-0.23-0.57-2.09,0.73-3.07L6.17,8.37C4.82,9.31,3.59,11.65,4.7,12.4
			c1.07,0.72,3.75-0.3,5.92-1.63c2.71-1.67,5.52-4.12,6.7-5.5c0.35-0.41,0.1-1.03-0.43-1.09C16.89,4.18,16.88,4.18,16.87,4.18z"/>
		<path id="XMLID_00000033363454159677783710000006277999368821197742_" class="st2" d="M20.44,5.08c0.46,0.2,0.62,0.78,0.32,1.18
			C18.34,9.44,6.69,18.2,3.49,15.33c-1.07-0.96-0.58-3.31,1.23-5.85c0.16-0.17,0.37-0.39,0.55-0.54c-2.01,2.35-2.85,5.61,0.42,5.37
			c4.54-0.33,12.34-6.83,13.8-8.97c0.21-0.3,0.6-0.42,0.94-0.27C20.43,5.08,20.44,5.08,20.44,5.08z"/>
		<path id="XMLID_00000001640965746884584030000013327179246517960877_" class="st3" d="M23.57,6.95c-0.35-0.27-0.85-0.22-1.13,0.12
			c-1.25,1.53-5.14,5.15-9.35,7.66C6.95,18.39,1.24,19.2,2.76,13.49c-0.08,0.27-0.16,0.63-0.23,0.9c-0.08,0.42-0.16,0.98-0.22,1.4
			c-0.04,0.48-0.12,1.48,0.39,2.29c1.3,2.06,5.4,0.98,8.82-0.71c5.68-2.82,10.72-7.42,12.22-9.25C24,7.76,23.95,7.25,23.6,6.97
			C23.59,6.96,23.58,6.95,23.57,6.95z"/>
		<path id="XMLID_00000082360232754644634960000000530989458498331306_" class="st4" d="M4.18,24.07c-0.2-0.36-0.47-0.83-0.65-1.2
			l-0.22-0.48c3.5,6.73,20.16-5.09,23.56-9.28c0.32-0.39,0.95-0.26,1.08,0.23c0,0.01,0,0.01,0.01,0.02
			c0.04,0.14,0.02,0.29-0.05,0.42C26.21,17.23,8.56,30.22,4.18,24.07z"/>
		<path id="XMLID_00000081645470386616073130000015245348351482860976_" class="st5" d="M28.04,20.56
			c-0.01,0.02-0.01,0.05-0.02,0.07c-0.93,1.93-11.82,10.74-17.24,8.85l-0.5-0.19c-0.37-0.17-0.86-0.39-1.22-0.58
			c5.32,2.41,15.43-5.23,18.43-8.44C27.72,20.03,28.11,20.24,28.04,20.56C28.04,20.56,28.04,20.56,28.04,20.56z"/>
		<g id="XMLID_00000129180459582469533040000004466417108467802755_">
			<path id="XMLID_00000072268326766610489690000008086220061949158060_" class="st6" d="M5.96,9.87c-0.1-0.07-0.53-0.5,0.5-1.63
				C5.88,9.24,6.72,9.11,7,9.05c0.97-0.22,2.38-1.16,3.6-2.15c0.13-0.1,0.3-0.12,0.45-0.05c0,0,0.01,0,0.01,0.01
				c0.27,0.14,0.3,0.51,0.06,0.7C9.06,9.1,6.72,10.43,5.96,9.87z"/>
			<path id="XMLID_00000106827105088663714680000011495252598087560862_" class="st7" d="M2.98,21.16C2.89,21,2.73,20.75,2.56,20.1
				c-0.08-0.4-0.18-0.93-0.23-1.33l-0.06-0.58c0.78,6.11,10.5,1.37,17.31-3.71c0.38-0.28,0.92-0.21,1.21,0.16
				c0,0.01,0.01,0.01,0.01,0.02c0.29,0.39,0.21,0.94-0.19,1.23C14.45,20.34,5.37,24.87,2.98,21.16z"/>
			<path id="XMLID_00000076572892587439745580000015335558629851259535_" class="st8" d="M5.65,26.02c3.71,3.48,11.75-1.1,17.2-5.27
				c0.4-0.31,0.97-0.09,1.09,0.39c0,0.01,0,0.01,0,0.02c0.06,0.26-0.04,0.54-0.26,0.7c-5.23,3.98-13.25,8.24-16.63,5.5
				c-0.3-0.27-0.71-0.63-1-0.91L5.65,26.02z"/>
		</g>
		<g id="XMLID_00000028306942471777036180000016271240707958618796_">
			<path id="XMLID_00000168075969922806246780000017777926881904812218_" class="st9" d="M26.59,23.73
				c0.05,0.07,0.04,0.16-0.01,0.23c-1.56,2-7.36,6.35-11.53,6.35l-0.61-0.03c-0.4-0.04-0.93-0.09-1.33-0.16
				c4.49,0.5,10.66-3.98,13.18-6.41C26.38,23.62,26.52,23.63,26.59,23.73L26.59,23.73z"/>
		</g>
	</g>
	<g>
		<g>
			<path class="st10" d="M29.95,18.54v-1.4h5.14v1.4h-1.8v3c-0.01,1.63-0.51,3.09-1.54,3.16v-6.16H29.95z"/>
			<path class="st10" d="M40.18,22.57h-3.37v0.07c0,0.82,0.63,1.1,1.05,1.1c0.5,0,0.76-0.11,1.12-0.52l1.08,0.54
				c-0.54,0.84-1.34,1.15-2.32,1.15c-1.34,0-2.49-1.14-2.49-2.53c0-1.4,1.15-2.54,2.49-2.54c1.36,0,2.43,0.86,2.43,2.56
				C40.18,22.45,40.18,22.53,40.18,22.57z M36.85,21.69h1.88l-0.01-0.08c-0.08-0.54-0.44-0.84-0.93-0.84
				c-0.57,0-0.91,0.36-0.94,0.84L36.85,21.69z"/>
			<path class="st10" d="M43.12,21.06c-0.62,0-1.12,0.59-1.12,1.32c0,0.74,0.5,1.33,1.12,1.33c0.37,0,0.65-0.13,0.76-0.19l0.5,1.03
				c-0.15,0.1-0.66,0.38-1.49,0.38c-1.25,0-2.47-1.13-2.47-2.52c0-1.41,1.22-2.55,2.47-2.55c0.83,0,1.34,0.3,1.49,0.4l-0.5,1.01
				C43.76,21.18,43.49,21.06,43.12,21.06z"/>
			<path class="st10" d="M44.75,24.64v-5.58c0.03-1.79,1.14-2.23,1.49-2.3v3.74h0.11l0.02-0.02c0.35-0.36,0.78-0.62,1.26-0.62
				c0.82,0,1.99,0.43,1.99,1.7v3.09h-1.49V22c0-0.51-0.33-1-0.88-1c-0.51,0-1,0.48-1,1v2.64H44.75z"/>
			<path class="st10" d="M51.55,24.64h-1.49v-2.61c0-1.57,0.76-2.18,2.46-2.18c1.7,0,2.46,0.61,2.46,2.18v2.61h-1.49v-2.21
				c0-0.96-0.26-1.38-0.96-1.38c-0.7,0-0.96,0.42-0.96,1.38V24.64z"/>
			<path class="st10" d="M55.31,22.38c0-1.49,1.23-2.54,2.75-2.54c1.49,0,2.72,1.05,2.72,2.54c0,1.47-1.16,2.53-2.72,2.53
				C56.43,24.92,55.31,23.86,55.31,22.38z M56.9,22.38c0,0.73,0.46,1.26,1.14,1.26c0.65,0,1.13-0.53,1.13-1.26
				c0-0.74-0.51-1.27-1.13-1.27C57.41,21.11,56.9,21.64,56.9,22.38z"/>
			<path class="st10" d="M61.18,24.64v-7.89h1.51v7.89H61.18z"/>
			<path class="st10" d="M63.09,22.38c0-1.49,1.23-2.54,2.75-2.54c1.49,0,2.72,1.05,2.72,2.54c0,1.47-1.16,2.53-2.72,2.53
				C64.21,24.92,63.09,23.86,63.09,22.38z M64.69,22.38c0,0.73,0.46,1.26,1.14,1.26c0.65,0,1.13-0.53,1.13-1.26
				c0-0.74-0.51-1.27-1.13-1.27C65.19,21.11,64.69,21.64,64.69,22.38z"/>
			<path class="st10" d="M69.02,26.06l1.23-0.61c0.2,0.3,0.6,0.6,1.27,0.6c0.46,0,1.18-0.29,1.18-1.19v-0.54l-0.12,0.13
				c-0.32,0.37-0.83,0.46-1.45,0.46c-1.31,0-2.26-1.12-2.26-2.53s0.95-2.54,2.26-2.54c0.59,0,1.07,0.2,1.43,0.57l0.02,0.02h0.12
				v-0.44c0.69,0,1.43-0.04,1.5,1.41v3.58c0,1.56-1.14,2.37-2.68,2.37C70.57,27.35,69.51,27.12,69.02,26.06z M70.46,22.38
				c0,0.73,0.46,1.26,1.14,1.26c0.65,0,1.13-0.53,1.13-1.26c0-0.74-0.5-1.27-1.13-1.27C70.96,21.11,70.46,21.64,70.46,22.38z
				 M74.19,21.42L74.19,21.42L74.19,21.42L74.19,21.42z"/>
			<path class="st9" d="M78.61,20.12h1.72l-3.6,7.08h-1.7l1.58-3.11l-2.19-3.97h1.72l1.33,2.54L78.61,20.12z"/>
		</g>
	</g>
	<g>
		<g>
			<path class="st10" d="M31.77,11.25v3.37c0,1.33-0.76,1.4-1.6,1.41V8.46h1.63l2.96,4.78h0.12V8.46h1.6v7.57h-1.63l-2.96-4.78
				H31.77z"/>
			<path class="st10" d="M39.33,8.46v5.84c0,1.05-0.65,1.69-1.6,1.73V8.46H39.33z M39.49,12.18L42,8.46h1.92l-2.66,3.73l3.14,3.84
				h-2.2L39.49,12.18z"/>
		</g>
	</g>
	<g>
		<g>
			<path class="st11" d="M32.54,31.93h0.1l-0.03,0.13h-0.91l0.03-0.13h0.19c0.07,0,0.09-0.04,0.08-0.13l-0.11-0.65h-1.02l-0.32,0.64
				c-0.05,0.09-0.04,0.14,0.03,0.14h0.2l-0.02,0.13h-0.66l0.03-0.13h0.12c0.05,0,0.08-0.01,0.1-0.02c0.02-0.01,0.04-0.05,0.07-0.11
				l1.38-2.74h0.12l0.49,2.74c0.01,0.06,0.02,0.09,0.04,0.11C32.45,31.92,32.49,31.93,32.54,31.93z M30.95,30.99h0.92l-0.23-1.38
				L30.95,30.99z"/>
			<path class="st11" d="M33.8,29.87l-0.26,1.5c-0.06,0.36,0.02,0.54,0.24,0.54c0.15,0,0.29-0.11,0.41-0.34
				c0.12-0.23,0.22-0.54,0.29-0.95l0.13-0.75h0.39l-0.32,1.79c-0.03,0.14,0,0.21,0.07,0.21c0.08,0,0.13-0.07,0.16-0.22h0.11
				c-0.03,0.15-0.08,0.26-0.17,0.34c-0.08,0.07-0.18,0.11-0.28,0.11c-0.12,0-0.2-0.04-0.25-0.11c-0.05-0.08-0.06-0.18-0.03-0.31
				l0.04-0.19c-0.08,0.22-0.19,0.38-0.32,0.47c-0.13,0.09-0.25,0.14-0.38,0.14c-0.19,0-0.33-0.07-0.42-0.2
				c-0.09-0.13-0.11-0.32-0.06-0.56l0.21-1.21c0.01-0.05,0.01-0.09,0-0.11C33.36,30.01,33.33,30,33.29,30h-0.12l0.02-0.13H33.8z"/>
			<path class="st11" d="M37.6,29.82c0.18,0,0.32,0.05,0.43,0.14c0.11,0.09,0.16,0.2,0.16,0.32c0,0.08-0.02,0.15-0.06,0.2
				c-0.04,0.05-0.09,0.08-0.15,0.08c-0.05,0-0.08-0.01-0.11-0.04c-0.03-0.03-0.04-0.07-0.04-0.12c0-0.01,0-0.04,0.01-0.08
				c0.01-0.04,0.01-0.07,0.01-0.1c0-0.18-0.09-0.27-0.28-0.27c-0.14,0-0.27,0.07-0.38,0.22c-0.11,0.15-0.2,0.32-0.26,0.53
				c-0.06,0.2-0.09,0.41-0.09,0.61c0,0.2,0.04,0.35,0.12,0.46c0.08,0.1,0.19,0.16,0.34,0.16c0.22,0,0.43-0.12,0.62-0.36l0.06,0.09
				c-0.22,0.3-0.48,0.45-0.79,0.45c-0.24,0-0.42-0.07-0.55-0.22c-0.12-0.15-0.18-0.35-0.18-0.6c0-0.41,0.11-0.76,0.33-1.04
				C36.99,29.96,37.27,29.82,37.6,29.82z"/>
			<path class="st11" d="M39.62,29.82c0.23,0,0.41,0.07,0.53,0.22c0.12,0.15,0.18,0.35,0.18,0.6c0,0.41-0.1,0.75-0.31,1.04
				c-0.21,0.29-0.47,0.43-0.79,0.43c-0.23,0-0.41-0.07-0.53-0.22c-0.12-0.15-0.18-0.35-0.18-0.6c0-0.4,0.1-0.75,0.32-1.03
				C39.04,29.96,39.31,29.82,39.62,29.82z M39.6,29.95c-0.14,0-0.27,0.08-0.38,0.24s-0.2,0.35-0.25,0.57
				c-0.05,0.22-0.08,0.44-0.08,0.66c0,0.36,0.12,0.54,0.36,0.54c0.14,0,0.27-0.08,0.38-0.24c0.11-0.16,0.2-0.35,0.25-0.57
				c0.05-0.22,0.08-0.44,0.08-0.66C39.96,30.13,39.84,29.95,39.6,29.95z"/>
			<path class="st11" d="M41.56,31.12c-0.12,0-0.23-0.01-0.34-0.04c-0.01,0.08-0.01,0.16-0.01,0.24c0,0.2,0.04,0.35,0.12,0.45
				c0.08,0.1,0.19,0.16,0.34,0.16c0.22,0,0.43-0.12,0.62-0.36l0.06,0.09c-0.22,0.3-0.48,0.45-0.79,0.45c-0.24,0-0.42-0.07-0.55-0.22
				c-0.12-0.15-0.18-0.35-0.18-0.6c0-0.4,0.1-0.75,0.31-1.03c0.21-0.29,0.47-0.43,0.78-0.43c0.21,0,0.36,0.05,0.45,0.16
				c0.09,0.11,0.14,0.25,0.14,0.42c0,0.2-0.08,0.38-0.25,0.51C42.09,31.05,41.86,31.12,41.56,31.12z M41.89,29.95
				c-0.16,0-0.29,0.1-0.41,0.29c-0.12,0.19-0.2,0.43-0.24,0.7c0.1,0.02,0.19,0.03,0.27,0.03c0.23,0,0.39-0.06,0.49-0.19
				s0.15-0.28,0.15-0.46C42.15,30.08,42.06,29.95,41.89,29.95z"/>
			<path class="st11" d="M43.65,29.87l-0.26,1.5c-0.06,0.36,0.02,0.54,0.24,0.54c0.15,0,0.29-0.11,0.41-0.34
				c0.12-0.23,0.22-0.54,0.29-0.95l0.13-0.75h0.39l-0.32,1.79c-0.03,0.14,0,0.21,0.07,0.21c0.08,0,0.13-0.07,0.16-0.22h0.11
				c-0.03,0.15-0.08,0.26-0.17,0.34c-0.08,0.07-0.18,0.11-0.28,0.11c-0.12,0-0.2-0.04-0.25-0.11c-0.05-0.08-0.06-0.18-0.03-0.31
				l0.04-0.19c-0.08,0.22-0.19,0.38-0.32,0.47c-0.13,0.09-0.25,0.14-0.38,0.14c-0.19,0-0.33-0.07-0.42-0.2
				c-0.09-0.13-0.11-0.32-0.06-0.56l0.21-1.21c0.01-0.05,0.01-0.09,0-0.11C43.2,30.01,43.17,30,43.13,30h-0.12l0.02-0.13H43.65z"/>
			<path class="st11" d="M46.58,29.82c0.07,0,0.12,0.02,0.16,0.06c0.04,0.04,0.07,0.1,0.07,0.17c0,0.08-0.02,0.16-0.07,0.21
				c-0.05,0.06-0.1,0.09-0.16,0.09c-0.1,0-0.14-0.06-0.14-0.17c0-0.03,0-0.05,0-0.06c0-0.01-0.01-0.02-0.01-0.04
				s-0.02-0.02-0.04-0.02c-0.08,0-0.18,0.1-0.29,0.3c-0.11,0.2-0.19,0.44-0.25,0.74l-0.18,0.96h-0.39l0.34-1.93
				c0.01-0.05,0.01-0.09,0-0.11C45.61,30.01,45.58,30,45.54,30h-0.12l0.02-0.13h0.58l-0.06,0.56c0.08-0.2,0.17-0.35,0.29-0.45
				C46.36,29.87,46.47,29.82,46.58,29.82z"/>
			<path class="st11" d="M49.7,31.87c0.08,0,0.13-0.07,0.16-0.22h0.11c-0.03,0.15-0.08,0.26-0.16,0.34
				c-0.08,0.07-0.18,0.11-0.28,0.11c-0.22,0-0.31-0.13-0.28-0.39l0.02-0.14c-0.16,0.36-0.39,0.54-0.67,0.54
				c-0.17,0-0.3-0.06-0.39-0.19c-0.1-0.13-0.14-0.31-0.14-0.55c0-0.25,0.04-0.49,0.11-0.72c0.07-0.23,0.18-0.42,0.33-0.58
				c0.15-0.16,0.31-0.23,0.5-0.23c0.13,0,0.24,0.04,0.33,0.13c0.09,0.09,0.14,0.22,0.16,0.41l0.2-1.1c0.01-0.05,0.01-0.09,0-0.11
				c-0.01-0.02-0.04-0.03-0.09-0.03h-0.12l0.02-0.13h0.62l-0.47,2.67C49.61,31.8,49.63,31.87,49.7,31.87z M48.73,31.91
				c0.14,0,0.27-0.09,0.39-0.26c0.11-0.17,0.2-0.39,0.24-0.65c0.06-0.3,0.06-0.54,0-0.71c-0.06-0.18-0.16-0.27-0.3-0.27
				c-0.1,0-0.19,0.05-0.27,0.14c-0.08,0.09-0.15,0.21-0.2,0.35c-0.05,0.14-0.09,0.29-0.12,0.45c-0.03,0.16-0.04,0.32-0.04,0.47
				C48.43,31.75,48.53,31.91,48.73,31.91z"/>
			<path class="st11" d="M51.19,31.12c-0.12,0-0.23-0.01-0.34-0.04c-0.01,0.08-0.01,0.16-0.01,0.24c0,0.2,0.04,0.35,0.12,0.45
				c0.08,0.1,0.19,0.16,0.34,0.16c0.22,0,0.43-0.12,0.62-0.36l0.06,0.09c-0.22,0.3-0.48,0.45-0.79,0.45c-0.24,0-0.42-0.07-0.55-0.22
				c-0.12-0.15-0.18-0.35-0.18-0.6c0-0.4,0.1-0.75,0.31-1.03c0.21-0.29,0.47-0.43,0.78-0.43c0.21,0,0.36,0.05,0.45,0.16
				c0.09,0.11,0.14,0.25,0.14,0.42c0,0.2-0.08,0.38-0.25,0.51C51.71,31.05,51.48,31.12,51.19,31.12z M51.51,29.95
				c-0.16,0-0.29,0.1-0.41,0.29c-0.12,0.19-0.2,0.43-0.24,0.7c0.1,0.02,0.19,0.03,0.27,0.03c0.23,0,0.39-0.06,0.49-0.19
				c0.1-0.12,0.15-0.28,0.15-0.46C51.77,30.08,51.69,29.95,51.51,29.95z"/>
			<path class="st11" d="M54.97,29.82c0.08,0,0.14,0.04,0.18,0.12c0.04,0.08,0.06,0.18,0.06,0.3c0,0.14-0.03,0.28-0.08,0.41
				c-0.05,0.13-0.12,0.25-0.2,0.36c-0.08,0.11-0.17,0.22-0.26,0.32c-0.09,0.11-0.18,0.22-0.27,0.36c-0.09,0.13-0.16,0.27-0.22,0.4
				h-0.14c0.03-0.09,0.05-0.19,0.05-0.28c0-0.1-0.02-0.21-0.06-0.32s-0.09-0.21-0.14-0.3c-0.05-0.09-0.09-0.19-0.14-0.3
				c-0.04-0.12-0.06-0.23-0.06-0.33c0-0.24,0.12-0.48,0.36-0.75l0.08,0.08c-0.09,0.13-0.14,0.27-0.14,0.39
				c0,0.08,0.02,0.16,0.05,0.25c0.03,0.09,0.07,0.17,0.11,0.24c0.04,0.07,0.08,0.16,0.11,0.27c0.03,0.11,0.05,0.22,0.05,0.32
				c0,0.1-0.02,0.21-0.06,0.35c0.05-0.1,0.12-0.21,0.21-0.33c0.09-0.12,0.18-0.23,0.25-0.32c0.07-0.09,0.14-0.19,0.2-0.3
				c0.06-0.11,0.09-0.22,0.09-0.32c0-0.07-0.02-0.13-0.05-0.19c-0.03-0.05-0.07-0.1-0.1-0.14c-0.03-0.04-0.05-0.09-0.05-0.14
				c0-0.05,0.02-0.1,0.05-0.13C54.9,29.84,54.94,29.82,54.97,29.82z"/>
			<path class="st11" d="M56.74,29.82c0.23,0,0.41,0.07,0.53,0.22c0.12,0.15,0.18,0.35,0.18,0.6c0,0.41-0.1,0.75-0.31,1.04
				c-0.21,0.29-0.47,0.43-0.79,0.43c-0.23,0-0.41-0.07-0.53-0.22c-0.12-0.15-0.18-0.35-0.18-0.6c0-0.4,0.1-0.75,0.32-1.03
				S56.42,29.82,56.74,29.82z M56.72,29.95c-0.14,0-0.27,0.08-0.38,0.24c-0.11,0.16-0.2,0.35-0.25,0.57
				C56.03,30.99,56,31.21,56,31.43c0,0.36,0.12,0.54,0.36,0.54c0.14,0,0.27-0.08,0.38-0.24c0.11-0.16,0.2-0.35,0.25-0.57
				s0.08-0.44,0.08-0.66C57.08,30.13,56.96,29.95,56.72,29.95z"/>
			<path class="st11" d="M58.62,30l-0.28,1.6c-0.01,0.06-0.01,0.1-0.01,0.14c0,0.1,0.04,0.15,0.12,0.15c0.05,0,0.09-0.02,0.12-0.07
				c0.04-0.04,0.06-0.1,0.07-0.17h0.11c-0.03,0.15-0.08,0.26-0.17,0.34s-0.19,0.11-0.3,0.11c-0.11,0-0.19-0.03-0.25-0.09
				c-0.06-0.06-0.09-0.14-0.09-0.25c0-0.03,0-0.08,0.01-0.14L58.23,30h-0.22l0.02-0.13h0.22l0.37-0.57h0.13l-0.1,0.57h0.42L59.04,30
				H58.62z"/>
			<path class="st11" d="M60.48,29.82c0.07,0,0.12,0.02,0.16,0.06c0.04,0.04,0.07,0.1,0.07,0.17c0,0.08-0.02,0.16-0.07,0.21
				c-0.05,0.06-0.1,0.09-0.16,0.09c-0.1,0-0.14-0.06-0.14-0.17c0-0.03,0-0.05,0-0.06c0-0.01-0.01-0.02-0.01-0.04
				s-0.02-0.02-0.04-0.02c-0.08,0-0.18,0.1-0.29,0.3c-0.11,0.2-0.19,0.44-0.25,0.74l-0.18,0.96h-0.39l0.34-1.93
				c0.01-0.05,0.01-0.09,0-0.11C59.52,30.01,59.49,30,59.44,30h-0.12l0.02-0.13h0.58l-0.06,0.56c0.08-0.2,0.17-0.35,0.29-0.45
				C60.27,29.87,60.38,29.82,60.48,29.82z"/>
			<path class="st11" d="M61.58,31.12c-0.12,0-0.23-0.01-0.34-0.04c-0.01,0.08-0.01,0.16-0.01,0.24c0,0.2,0.04,0.35,0.12,0.45
				c0.08,0.1,0.19,0.16,0.34,0.16c0.22,0,0.43-0.12,0.62-0.36l0.06,0.09c-0.22,0.3-0.48,0.45-0.79,0.45c-0.24,0-0.42-0.07-0.55-0.22
				c-0.12-0.15-0.18-0.35-0.18-0.6c0-0.4,0.1-0.75,0.31-1.03c0.21-0.29,0.47-0.43,0.78-0.43c0.21,0,0.36,0.05,0.45,0.16
				c0.09,0.11,0.14,0.25,0.14,0.42c0,0.2-0.08,0.38-0.25,0.51C62.11,31.05,61.88,31.12,61.58,31.12z M61.91,29.95
				c-0.16,0-0.29,0.1-0.41,0.29c-0.12,0.19-0.2,0.43-0.24,0.7c0.1,0.02,0.19,0.03,0.27,0.03c0.23,0,0.39-0.06,0.49-0.19
				s0.15-0.28,0.15-0.46C62.17,30.08,62.08,29.95,61.91,29.95z"/>
			<path class="st11" d="M65.55,31.87c0.08,0,0.13-0.07,0.16-0.22h0.11c-0.03,0.15-0.08,0.26-0.16,0.34
				c-0.08,0.07-0.18,0.11-0.28,0.11c-0.22,0-0.31-0.13-0.28-0.39l0.02-0.14c-0.16,0.36-0.39,0.54-0.67,0.54
				c-0.17,0-0.3-0.06-0.39-0.19c-0.1-0.13-0.14-0.31-0.14-0.55c0-0.25,0.04-0.49,0.11-0.72c0.07-0.23,0.18-0.42,0.33-0.58
				c0.15-0.16,0.31-0.23,0.5-0.23c0.13,0,0.24,0.04,0.33,0.13c0.09,0.09,0.14,0.22,0.16,0.41l0.27-0.49h0.21l-0.32,1.79
				C65.46,31.8,65.48,31.87,65.55,31.87z M64.57,31.91c0.13,0,0.25-0.07,0.35-0.22c0.11-0.14,0.19-0.31,0.24-0.51
				c0.05-0.2,0.08-0.39,0.08-0.58c0-0.18-0.03-0.32-0.09-0.43c-0.06-0.1-0.14-0.15-0.25-0.15c-0.1,0-0.19,0.05-0.27,0.14
				c-0.08,0.09-0.15,0.21-0.2,0.35c-0.05,0.14-0.09,0.29-0.12,0.45c-0.03,0.16-0.04,0.32-0.04,0.47
				C64.28,31.75,64.38,31.91,64.57,31.91z"/>
			<path class="st11" d="M67.44,29.82c0.18,0,0.32,0.05,0.43,0.14c0.11,0.09,0.16,0.2,0.16,0.32c0,0.08-0.02,0.15-0.06,0.2
				c-0.04,0.05-0.09,0.08-0.15,0.08c-0.05,0-0.08-0.01-0.11-0.04c-0.03-0.03-0.04-0.07-0.04-0.12c0-0.01,0-0.04,0.01-0.08
				c0.01-0.04,0.01-0.07,0.01-0.1c0-0.18-0.09-0.27-0.28-0.27c-0.14,0-0.27,0.07-0.38,0.22c-0.11,0.15-0.2,0.32-0.26,0.53
				c-0.06,0.2-0.09,0.41-0.09,0.61c0,0.2,0.04,0.35,0.12,0.46c0.08,0.1,0.19,0.16,0.34,0.16c0.22,0,0.43-0.12,0.62-0.36l0.06,0.09
				c-0.22,0.3-0.48,0.45-0.79,0.45c-0.24,0-0.42-0.07-0.55-0.22c-0.12-0.15-0.18-0.35-0.18-0.6c0-0.41,0.11-0.76,0.33-1.04
				C66.84,29.96,67.11,29.82,67.44,29.82z"/>
			<path class="st11" d="M69.11,30l-0.28,1.6c-0.01,0.06-0.01,0.1-0.01,0.14c0,0.1,0.04,0.15,0.12,0.15c0.05,0,0.09-0.02,0.12-0.07
				c0.04-0.04,0.06-0.1,0.07-0.17h0.11c-0.03,0.15-0.08,0.26-0.17,0.34c-0.09,0.07-0.19,0.11-0.3,0.11c-0.11,0-0.19-0.03-0.25-0.09
				c-0.06-0.06-0.09-0.14-0.09-0.25c0-0.03,0-0.08,0.01-0.14L68.72,30H68.5l0.02-0.13h0.22l0.37-0.57h0.13l-0.1,0.57h0.42L69.53,30
				H69.11z"/>
			<path class="st11" d="M70.36,31.66h0.11c-0.03,0.15-0.08,0.26-0.17,0.34c-0.08,0.07-0.18,0.11-0.28,0.11
				c-0.24,0-0.33-0.15-0.28-0.46l0.27-1.51c0.01-0.06,0.01-0.1,0-0.11S69.97,30,69.93,30h-0.12l0.02-0.13h0.62l-0.32,1.79
				c-0.03,0.14,0,0.21,0.07,0.21C70.28,31.87,70.33,31.8,70.36,31.66z M70.41,29.02c0.05,0,0.1,0.02,0.13,0.06
				c0.03,0.04,0.05,0.09,0.05,0.15c0,0.08-0.03,0.16-0.09,0.23c-0.06,0.07-0.12,0.1-0.19,0.1c-0.05,0-0.1-0.02-0.13-0.06
				c-0.03-0.04-0.05-0.09-0.05-0.15c0-0.08,0.03-0.16,0.09-0.23C70.28,29.05,70.34,29.02,70.41,29.02z"/>
			<path class="st11" d="M72.22,29.82c0.08,0,0.14,0.04,0.18,0.12c0.04,0.08,0.06,0.18,0.06,0.3c0,0.14-0.03,0.28-0.08,0.41
				c-0.05,0.13-0.12,0.25-0.2,0.36c-0.08,0.11-0.17,0.22-0.26,0.32c-0.09,0.11-0.18,0.22-0.27,0.36c-0.09,0.13-0.16,0.27-0.22,0.4
				H71.3c0.03-0.09,0.05-0.19,0.05-0.28c0-0.1-0.02-0.21-0.06-0.32s-0.09-0.21-0.14-0.3c-0.05-0.09-0.09-0.19-0.14-0.3
				c-0.04-0.12-0.06-0.23-0.06-0.33c0-0.24,0.12-0.48,0.36-0.75l0.08,0.08c-0.09,0.13-0.14,0.27-0.14,0.39
				c0,0.08,0.02,0.16,0.05,0.25c0.03,0.09,0.07,0.17,0.11,0.24c0.04,0.07,0.08,0.16,0.11,0.27c0.03,0.11,0.05,0.22,0.05,0.32
				c0,0.1-0.02,0.21-0.06,0.35c0.05-0.1,0.12-0.21,0.21-0.33c0.09-0.12,0.18-0.23,0.25-0.32c0.07-0.09,0.14-0.19,0.2-0.3
				c0.06-0.11,0.09-0.22,0.09-0.32c0-0.07-0.02-0.13-0.05-0.19c-0.03-0.05-0.07-0.1-0.1-0.14c-0.03-0.04-0.05-0.09-0.05-0.14
				c0-0.05,0.02-0.1,0.05-0.13C72.15,29.84,72.18,29.82,72.22,29.82z"/>
			<path class="st11" d="M73.56,31.66h0.11c-0.03,0.15-0.08,0.26-0.17,0.34c-0.08,0.07-0.18,0.11-0.28,0.11
				c-0.24,0-0.33-0.15-0.28-0.46l0.27-1.51c0.01-0.06,0.01-0.1,0-0.11C73.2,30.01,73.17,30,73.13,30h-0.12l0.02-0.13h0.62
				l-0.32,1.79c-0.03,0.14,0,0.21,0.07,0.21C73.48,31.87,73.54,31.8,73.56,31.66z M73.61,29.02c0.05,0,0.1,0.02,0.13,0.06
				c0.03,0.04,0.05,0.09,0.05,0.15c0,0.08-0.03,0.16-0.09,0.23c-0.06,0.07-0.12,0.1-0.19,0.1c-0.05,0-0.1-0.02-0.13-0.06
				c-0.03-0.04-0.05-0.09-0.05-0.15c0-0.08,0.03-0.16,0.09-0.23C73.48,29.05,73.54,29.02,73.61,29.02z"/>
			<path class="st11" d="M74.85,30l-0.28,1.6c-0.01,0.06-0.01,0.1-0.01,0.14c0,0.1,0.04,0.15,0.12,0.15c0.05,0,0.09-0.02,0.12-0.07
				c0.04-0.04,0.06-0.1,0.07-0.17h0.11c-0.03,0.15-0.08,0.26-0.17,0.34c-0.09,0.07-0.19,0.11-0.3,0.11c-0.11,0-0.19-0.03-0.25-0.09
				c-0.06-0.06-0.09-0.14-0.09-0.25c0-0.03,0-0.08,0.01-0.14L74.45,30h-0.22l0.02-0.13h0.22l0.37-0.57h0.13l-0.1,0.57h0.42L75.26,30
				H74.85z"/>
			<path class="st11" d="M76.49,29.82c0.21,0,0.36,0.05,0.45,0.16c0.09,0.11,0.14,0.25,0.14,0.42c0,0.2-0.08,0.38-0.25,0.51
				c-0.17,0.14-0.4,0.2-0.69,0.2c-0.12,0-0.23-0.01-0.34-0.04c-0.01,0.08-0.01,0.16-0.01,0.24c0,0.2,0.04,0.35,0.12,0.45
				c0.08,0.1,0.19,0.16,0.34,0.16c0.22,0,0.43-0.12,0.62-0.36l0.06,0.09c-0.22,0.3-0.48,0.45-0.79,0.45c-0.24,0-0.42-0.07-0.55-0.22
				c-0.12-0.15-0.18-0.35-0.18-0.6c0-0.4,0.1-0.75,0.31-1.03C75.92,29.96,76.18,29.82,76.49,29.82z M76.08,30.97
				c0.23,0,0.39-0.06,0.49-0.19c0.1-0.12,0.15-0.28,0.15-0.46c0-0.25-0.09-0.37-0.26-0.37c-0.16,0-0.29,0.1-0.41,0.29
				c-0.12,0.19-0.2,0.43-0.24,0.7C75.91,30.96,76,30.97,76.08,30.97z M77.06,28.9c0.09,0,0.13,0.05,0.13,0.14
				c0,0.09-0.05,0.19-0.15,0.27c-0.1,0.09-0.2,0.16-0.31,0.21c-0.1,0.05-0.21,0.09-0.32,0.13l-0.02-0.1c0.18-0.07,0.32-0.2,0.41-0.4
				C76.87,28.98,76.96,28.9,77.06,28.9z"/>
		</g>
	</g>
	<path class="st10" d="M49.76,14.32c0,0-0.17,1.62,1.7,1.58c0-5.31,0-5.31,0-5.31s0.04-1.13,1.36-1.13c1.32,0,1.32,1.62,1.32,1.62
		V15c0,0,0.21,0.95,1.83,0.95l-0.04-5.23c0,0,0.47-2.66-2.76-2.66c-1.74-0.05-2.38,0.77-2.38,0.77l-0.34,0.04
		c0,0-0.64-0.81-2.38-0.77c-3.23,0-2.76,2.66-2.76,2.66l-0.04,5.23c1.62,0,1.83-0.95,1.83-0.95v-3.92c0,0,0-1.62,1.32-1.62
		c1.32,0,1.36,1.13,1.36,1.13V14.32z"/>
</g>
</svg>
