<?xml version="1.0" encoding="utf-8"?>
<!-- Generator: Adobe Illustrator 25.2.3, SVG Export Plug-In . SVG Version: 6.00 Build 0)  -->
<svg version="1.1" id="Calque_12" xmlns="http://www.w3.org/2000/svg" xmlns:xlink="http://www.w3.org/1999/xlink" x="0px" y="0px"
	 viewBox="0 0 150 150" style="enable-background:new 0 0 150 150;" xml:space="preserve">
<style type="text/css">
	.st0{fill:#EF7D00;}
	.st1{fill:#FFFFFF;}
	.st2{fill:#00559B;}
</style>
<g>
	<g>
		<g>
			<g>
				<g>
					<g>
						<g>
							<g>
								<g>
									<g>
										<path class="st0" d="M85.04,41.24c-6.55,0-11.86,5.31-11.86,11.86c0,6.55,5.31,11.86,11.86,11.86
											c6.55,0,11.86-5.31,11.86-11.86C96.9,46.55,91.59,41.24,85.04,41.24z"/>
									</g>
								</g>
							</g>
						</g>
					</g>
				</g>
				<path class="st1" d="M96.8,51.58c-0.31-0.56-0.69-1.07-1.16-1.53c-3.37-3.3-9.63-2.4-14,2.02c-2.99,3.02-4.31,6.91-3.76,10.13
					c0.09-2.8,1.42-5.88,3.88-8.37c4.37-4.42,10.64-5.32,14-2.02c0.46,0.45,0.84,0.96,1.14,1.51c0-0.07,0.01-0.14,0.01-0.21
					C96.9,52.59,96.86,52.08,96.8,51.58z M79.49,49.68c4.68-4.74,11.79-5.31,15.88-1.28c0.36,0.36,0.69,0.74,0.98,1.14
					c-0.45-1.44-1.18-2.77-2.11-3.92c-4.18-3.17-10.65-2.38-15.01,2.04c-3.21,3.25-4.43,7.6-3.57,11.32
					C75.56,55.77,76.86,52.35,79.49,49.68z"/>
			</g>
			<g>
				<g>
					<path class="st2" d="M69.23,62.8c-0.36-1.34-1.09-2.43-2.19-3.28c-1.1-0.85-2.55-1.46-4.34-1.84
						c-1.79-0.38-3.87-0.56-6.24-0.56l-27.02,0L29,58.88c0,0,2.32,0.66,1.62,3.66l-8.68,34.03h15.14l3.41-13.39h3.39
						c0.94,0,1.75,0.11,2.43,0.34c0.68,0.23,1.13,0.79,1.35,1.7c0.15,0.6,0.2,1.39,0.16,2.37c-0.04,0.98-0.14,2.02-0.29,3.14
						c-0.15,1.11-0.3,2.19-0.43,3.22c-0.13,1.04-0.22,1.91-0.25,2.63l17.05,0l0.44-1.74c0,0-1.72-0.35-1.74-2.34
						c0.06-1,0.13-1.78,0.21-2.84c0.1-1.26,0.14-2.52,0.14-3.76c-0.01-1.24-0.15-2.39-0.45-3.45c-0.45-1.05-1.1-1.95-1.94-2.68
						c-0.85-0.73-2.06-1.25-3.64-1.55l0.03-0.12c3-0.68,5.57-1.83,7.72-3.47c2.15-1.64,3.61-3.96,4.38-6.98
						C69.52,65.75,69.59,64.14,69.23,62.8z M53.3,70.01c-0.26,1.02-0.64,1.81-1.14,2.37c-0.5,0.57-1.08,1-1.72,1.3
						c-0.64,0.3-1.34,0.49-2.09,0.57c-0.75,0.08-1.52,0.11-2.32,0.11h-3.28l2.15-8.42h3.51c0.75,0,1.48,0.04,2.17,0.14
						c0.69,0.1,1.27,0.28,1.75,0.57c0.47,0.28,0.81,0.69,1.02,1.21C53.54,68.39,53.53,69.11,53.3,70.01z"/>
					<path class="st2" d="M124.13,78.38c2.61-10.93-7.1-12.42-15.38-12.42c-5.64,0-8.2,0.49-12.8,1.7l-2.15,8.43
						c3.22-1.44,7.16-2.53,10.61-2.53c3.62,0,7.48,0.46,6.62,4.31c-1.3-0.12-3.53-0.4-5.54-0.4c-7.19,0-15.91,1.84-18.11,11.04
						c-1.5,6.27,3.3,8.8,8.88,8.8c4.08,0,8.23-1.61,11.05-5h0.12l-1.09,4.27l15.9,0l0.43-1.68c0,0-2.14-0.76-1.71-3.21L124.13,78.38
						z M109.44,84.36c-0.62,2.59-2.75,5.35-5.74,5.35c-2.24,0-3.2-0.81-2.71-2.88c0.74-3.11,4.26-3.39,7.25-3.39h1.41L109.44,84.36z
						"/>
					<path class="st2" d="M83.2,91.12c0.01-0.08,0.04-0.16,0.06-0.23l5.81-22.75c-1.76,1.42-3.99,2.29-6.42,2.31
						c-2.98,0.02-5.67-1.23-7.58-3.24l-7.49,29.36h16.79l0.45-1.77C84.83,94.8,82.67,94.46,83.2,91.12z"/>
				</g>
				<g>
					<defs>
						<path id="SVGID_1_" d="M69.23,62.8c-0.36-1.34-1.09-2.43-2.19-3.28c-1.1-0.85-2.55-1.46-4.34-1.84
							c-1.79-0.38-3.87-0.56-6.24-0.56l-27.02,0L29,58.88c0,0,2.32,0.66,1.62,3.66l-8.68,34.03h15.14l3.41-13.39h3.39
							c0.94,0,1.75,0.11,2.43,0.34c0.68,0.23,1.13,0.79,1.35,1.7c0.15,0.6,0.2,1.39,0.16,2.37c-0.04,0.98-0.14,2.02-0.29,3.14
							c-0.15,1.11-0.3,2.19-0.43,3.22c-0.13,1.04-0.22,1.91-0.25,2.63l17.05,0l0.44-1.74c0,0-1.72-0.35-1.74-2.34
							c0.06-1,0.13-1.78,0.21-2.84c0.1-1.26,0.14-2.52,0.14-3.76c-0.01-1.24-0.15-2.39-0.45-3.45c-0.45-1.05-1.1-1.95-1.94-2.68
							c-0.85-0.73-2.06-1.25-3.64-1.55l0.03-0.12c3-0.68,5.57-1.83,7.72-3.47c2.15-1.64,3.61-3.96,4.38-6.98
							C69.52,65.75,69.59,64.14,69.23,62.8z M53.3,70.01c-0.26,1.02-0.64,1.81-1.14,2.37c-0.5,0.57-1.08,1-1.72,1.3
							c-0.64,0.3-1.34,0.49-2.09,0.57c-0.75,0.08-1.52,0.11-2.32,0.11h-3.28l2.15-8.42h3.51c0.75,0,1.48,0.04,2.17,0.14
							c0.69,0.1,1.27,0.28,1.75,0.57c0.47,0.28,0.81,0.69,1.02,1.21C53.54,68.39,53.53,69.11,53.3,70.01z M124.13,78.38
							c2.61-10.93-7.1-12.42-15.38-12.42c-5.64,0-8.2,0.49-12.8,1.7l-2.15,8.43c3.22-1.44,7.16-2.53,10.61-2.53
							c3.62,0,7.48,0.46,6.62,4.31c-1.3-0.12-3.53-0.4-5.54-0.4c-7.19,0-15.91,1.84-18.11,11.04c-1.5,6.27,3.3,8.8,8.88,8.8
							c4.08,0,8.23-1.61,11.05-5h0.12l-1.09,4.27l15.9,0l0.43-1.68c0,0-2.14-0.76-1.71-3.21L124.13,78.38z M109.44,84.36
							c-0.62,2.59-2.75,5.35-5.74,5.35c-2.24,0-3.2-0.81-2.71-2.88c0.74-3.11,4.26-3.39,7.25-3.39h1.41L109.44,84.36z M83.2,91.12
							c0.01-0.08,0.04-0.16,0.06-0.23l5.81-22.75c-1.76,1.42-3.99,2.29-6.42,2.31c-2.98,0.02-5.67-1.23-7.58-3.24l-7.49,29.36h16.79
							l0.45-1.77C84.83,94.8,82.67,94.46,83.2,91.12z"/>
					</defs>
					<clipPath id="SVGID_2_">
						<use xlink:href="#SVGID_1_"  style="overflow:visible;"/>
					</clipPath>
				</g>
			</g>
		</g>
	</g>
	<g>
		<g>
			<g>
				<g>
					<path class="st2" d="M123.68,90.93c0-1.03,0.82-1.86,1.87-1.86c1.05,0,1.87,0.83,1.87,1.86c0,1.03-0.82,1.86-1.87,1.86
						C124.5,92.79,123.68,91.96,123.68,90.93z M127.13,90.93c0-0.88-0.73-1.57-1.58-1.57c-0.85,0-1.58,0.69-1.58,1.57
						c0,0.88,0.73,1.57,1.58,1.57C126.39,92.5,127.13,91.81,127.13,90.93z"/>
				</g>
			</g>
		</g>
		<g>
			<path class="st2" d="M124.86,89.92h0.44c0.43,0,0.95-0.01,0.95,0.55c0,0.24-0.16,0.43-0.42,0.47v0.01
				c0.11,0.01,0.17,0.12,0.21,0.21l0.32,0.79h-0.45l-0.24-0.63c-0.06-0.15-0.11-0.21-0.28-0.21h-0.13v0.84h-0.4V89.92z
				 M125.26,90.78h0.13c0.2,0,0.43-0.03,0.43-0.28c0-0.24-0.23-0.26-0.43-0.26h-0.13V90.78z"/>
		</g>
	</g>
</g>
</svg>
