<?xml version="1.0" encoding="utf-8"?>
<!-- Generator: Adobe Illustrator 27.0.0, SVG Export Plug-In . SVG Version: 6.00 Build 0)  -->
<svg version="1.1" id="Calque_1" xmlns="http://www.w3.org/2000/svg" xmlns:xlink="http://www.w3.org/1999/xlink" x="0px" y="0px"
	 viewBox="0 0 321.9 407.3" style="enable-background:new 0 0 321.9 407.3;" xml:space="preserve">
<style type="text/css">
	.st0{fill:#EB3A48;}
	.st1{fill:#F9A117;}
	.st2{fill:#31B791;}
	.st3{fill:#EFECEF;}
	.st4{fill:#EFF0F0;}
	.st5{fill:#ECF0F2;}
</style>
<g>
	<path class="st0" d="M159.2,122.6c-39.6,0-79.3,0-118.9,0c-13.3,0-21.2-7.8-21.2-21.1c0-19.9,0-39.9,0-59.8
		c0-13.4,7.7-21.1,21.1-21.1c79.7,0,159.3,0,239,0c13.3,0,21,7.8,21,21.2c0,19.9,0,39.9,0,59.8c0,13.1-7.9,21-20.9,21
		C239.3,122.6,199.2,122.6,159.2,122.6z M153.2,62.5c0,7.5,0,15.1,0,22.6c0,5.2,0,5.2-5.3,5.5c-4.6,0.2-7.6,2.8-7.4,6.6
		c0.1,3.7,2.9,6.2,7.4,6.3c5.1,0.1,10.2,0,15.3,0c3.2,0,6.5,0.1,9.7-0.2c3.5-0.3,5.8-2.9,6-6.1c0.1-3.3-2.3-6.1-5.9-6.6
		c-1.2-0.2-2.5-0.2-3.7-0.1c-2.5,0.3-3.1-0.8-3.1-3.2c0.1-11.2,0.1-22.4,0-33.6c0-2.9,0.2-5.8-0.2-8.6c-0.8-5.3-6.4-7.6-10.4-4
		c-4.7,4.2-9.2,8.8-13.4,13.5c-2.3,2.5-2.1,5.5,0.1,8.2c2.1,2.5,5.5,2.9,8.4,1C151.3,63.5,151.7,62.5,153.2,62.5z"/>
	<path class="st1" d="M159.4,256.7c-35.3,0-70.6-0.3-105.9,0.2c-12.5,0.2-22-8.3-21.8-21.9c0.4-19.6,0.3-39.2,0-58.7
		c-0.2-13.7,9.5-21.8,21.5-21.7c70.9,0.3,141.9,0.1,212.8,0.1c13.6,0,21.3,7.7,21.3,21.3c0,19.8,0,39.6,0,59.5
		c0,13.4-7.7,21.2-21.1,21.2C230.7,256.7,195,256.7,159.4,256.7z M162.2,224.7c3.4-3.2,6.1-5.5,8.6-8.2c6.5-7,9.2-15.3,7.6-24.8
		c-1.8-10.6-12.2-18.8-22.8-18.1c-11.4,0.7-20.6,9.6-21.3,20.3c-0.3,4.9,1.9,8.1,5.8,8.5c3.7,0.3,6.3-2.4,6.9-7.2
		c0.7-5.5,4.9-9,10.3-8.6c5.2,0.4,8.6,4.3,8.7,9.8c0.1,6.6-3.6,11.2-8.4,15.1c-6.1,5-12.8,9.1-19.4,13.4c-3,2-4.9,4.5-3.8,8.1
		c1.1,3.6,4.1,4.7,7.7,4.6c4.6-0.1,9.2,0,13.8,0c7.5,0,15,0.1,22.4,0c4-0.1,6.6-2.6,6.7-6.1c0.2-3.8-2.3-6.3-6.5-6.7
		c-1.6-0.1-3.2-0.1-4.9-0.1C170.2,224.7,166.6,224.7,162.2,224.7z"/>
	<path class="st2" d="M159.4,390.7c-31,0-62.1-0.3-93.1,0.1c-13.2,0.2-22-8.7-21.8-21.8c0.3-19.6,0.1-39.1,0.1-58.7
		c0-14.1,7.6-21.6,21.8-21.6c62.2,0,124.4,0,186.6,0c14.1,0,21.7,7.6,21.7,21.7c0,19.4-0.3,38.9,0.1,58.3
		c0.3,13.4-8.6,22.3-21.9,22.1C221.7,390.4,190.6,390.7,159.4,390.7z M158.5,371.7c15.5,0,24.9-15.3,18.1-27.9
		c-1.7-3.1-1.9-5.1-0.1-8.2c4.8-8.4,2-18.8-6-24.4c-7.6-5.4-18.6-4.2-24.9,2.7c-3.8,4.2-4.3,8.4-1.3,11.2c3.2,2.9,6.3,2.2,10.5-2.1
		c0.2-0.2,0.3-0.4,0.5-0.5c2.1-1.9,4.5-2.2,6.9-1.1c2.5,1.1,3.7,3.2,3.6,6c-0.2,3.4-2.2,5.5-6.3,6.1c-2.8,0.4-4.7,1.5-5.7,4.1
		c-1.6,4.1,0.9,8,5.9,8.7c3.2,0.5,5.5,1.7,6.1,5c0.5,3.1-0.5,5.7-3.6,7c-3.5,1.5-5.9,0.1-8.1-2.6c-2.7-3.3-6.3-3.8-9.2-1.7
		c-2.9,2.2-3.4,5.8-1,9.3C147.6,368.8,153,371.5,158.5,371.7z"/>
	<path class="st3" d="M153.2,62.5c-1.4,0-1.8,0.9-2.5,1.4c-2.9,1.8-6.3,1.5-8.4-1c-2.2-2.6-2.4-5.7-0.1-8.2
		c4.3-4.7,8.7-9.2,13.4-13.5c3.9-3.6,9.6-1.3,10.4,4c0.4,2.8,0.2,5.7,0.2,8.6c0,11.2,0.1,22.4,0,33.6c0,2.4,0.6,3.5,3.1,3.2
		c1.2-0.1,2.5-0.1,3.7,0.1c3.6,0.5,6,3.3,5.9,6.6c-0.1,3.2-2.4,5.8-6,6.1c-3.2,0.3-6.5,0.2-9.7,0.2c-5.1,0-10.2,0.1-15.3,0
		c-4.5-0.1-7.3-2.6-7.4-6.3c-0.1-3.8,2.9-6.4,7.4-6.6c5.3-0.2,5.3-0.2,5.3-5.5C153.2,77.6,153.2,70.1,153.2,62.5z"/>
	<path class="st4" d="M162.2,224.7c4.4,0,8,0,11.6,0c1.6,0,3.2-0.1,4.9,0.1c4.2,0.4,6.6,2.9,6.5,6.7c-0.1,3.5-2.8,6-6.7,6.1
		c-7.5,0.1-15,0-22.4,0c-4.6,0-9.2-0.1-13.8,0c-3.6,0.1-6.6-1-7.7-4.6c-1.1-3.6,0.7-6.1,3.8-8.1c6.6-4.3,13.3-8.4,19.4-13.4
		c4.8-3.9,8.4-8.5,8.4-15.1c-0.1-5.5-3.5-9.5-8.7-9.8c-5.4-0.4-9.5,3.1-10.3,8.6c-0.6,4.8-3.2,7.5-6.9,7.2c-3.9-0.3-6.1-3.6-5.8-8.5
		c0.7-10.8,9.9-19.6,21.3-20.3c10.7-0.7,21,7.5,22.8,18.1c1.6,9.5-1.1,17.7-7.6,24.8C168.3,219.2,165.6,221.5,162.2,224.7z"/>
	<path class="st5" d="M158.5,371.7c-5.4-0.3-10.8-2.9-14.6-8.4c-2.4-3.5-1.9-7.1,1-9.3c2.9-2.2,6.5-1.6,9.2,1.7
		c2.2,2.7,4.6,4.1,8.1,2.6c3.1-1.4,4.1-3.9,3.6-7c-0.6-3.3-2.9-4.6-6.1-5c-5-0.7-7.6-4.7-5.9-8.7c1-2.5,3-3.7,5.7-4.1
		c4.2-0.6,6.2-2.7,6.3-6.1c0.1-2.8-1-4.9-3.6-6c-2.5-1.1-4.9-0.8-6.9,1.1c-0.2,0.2-0.4,0.4-0.5,0.5c-4.2,4.4-7.3,5-10.5,2.1
		c-3-2.7-2.5-7,1.3-11.2c6.3-6.9,17.3-8,24.9-2.7c8,5.6,10.8,16.1,6,24.4c-1.8,3.1-1.6,5.1,0.1,8.2
		C183.4,356.4,173.9,371.7,158.5,371.7z"/>
</g>
</svg>
