<?xml version="1.0" encoding="utf-8"?>
<!-- Generator: Adobe Illustrator 25.2.3, SVG Export Plug-In . SVG Version: 6.00 Build 0)  -->
<svg version="1.1" id="Calque_2" xmlns="http://www.w3.org/2000/svg" xmlns:xlink="http://www.w3.org/1999/xlink" x="0px" y="0px"
	 viewBox="0 0 150 150" style="enable-background:new 0 0 150 150;" xml:space="preserve">
<g id="Q0etlh.tif">
	<g>
		<path d="M71.66,124.43c-1.16-0.73-2.41-1.35-3.46-2.21c-2.4-1.98-5.16-3.08-8.23-3.71c-0.07,0.29-0.12,0.55-0.19,0.81
			c-0.34,1.36-1.45,2.33-2.86,2.33c-5.29,0.02-10.58,0.03-15.86,0c-1.69-0.01-2.98-1.34-2.98-3.04c-0.01-10.39-0.01-20.79,0-31.18
			c0-1.72,1.34-3.08,3.05-3.09c5.23-0.02,10.45-0.02,15.68,0c1.61,0.01,2.46,0.84,3.21,3.07c0.29-0.26,0.55-0.5,0.81-0.73
			c2.04-1.75,4-3.62,6.16-5.19c1.42-1.04,2.9-1.96,4.01-3.36c2.22-2.8,3.2-6.01,3.26-9.54c0.02-1.08,0.11-2.16,0.2-3.24
			c0.13-1.63,2.18-3.59,4.17-4.02c2.92-0.63,5.72,0.88,6.76,3.68c2.22,5.97,2.23,11.95,0.11,17.95c-0.08,0.23-0.17,0.46-0.25,0.7
			c-0.02,0.05,0.02,0.12,0.05,0.26c0.31,0,0.64,0,0.97,0c5.75,0,11.5-0.01,17.26,0.01c3.59,0.01,6.1,2.21,6.42,5.73
			c0.23,2.53-0.9,4.48-3.06,5.82c-0.26,0.16-0.54,0.29-0.86,0.46c0.95,1.57,1.38,3.23,0.89,5.03c-0.48,1.78-1.58,3.11-3.09,4.1
			c2.06,3.99,1.56,6.27-1.92,9.22c0.37,0.86,0.85,1.68,1.07,2.55c0.77,3.2-0.99,6.27-4.12,7.34c-0.23,0.08-0.44,0.18-0.66,0.27
			C89.35,124.43,80.51,124.43,71.66,124.43z M84.88,121.46c0.8,0,1.61,0,2.41,0c3.19,0,6.37,0.02,9.56-0.01
			c1.66-0.02,2.97-1.09,3.22-2.53c0.29-1.64-0.51-3.09-2.02-3.63c-0.4-0.14-0.84-0.15-1.26-0.24c-0.87-0.19-1.42-0.88-1.33-1.63
			c0.1-0.81,0.82-1.4,1.71-1.36c0.4,0.02,0.79,0.12,1.19,0.15c2.05,0.16,3.95-1.97,3.57-3.98c-0.27-1.43-1.39-2.38-3.01-2.54
			c-0.98-0.1-1.64-0.75-1.59-1.58c0.05-0.86,0.72-1.41,1.74-1.39c0.37,0.01,0.74,0.04,1.1,0.12c1.7,0.36,3.56-1.06,3.9-2.98
			c0.28-1.6-1.01-3.29-2.71-3.48c-0.8-0.09-1.61-0.04-2.41-0.07c-1.14-0.04-1.85-0.63-1.83-1.53c0.02-0.89,0.75-1.5,1.87-1.5
			c1.64-0.01,3.28,0.01,4.92-0.01c1.18-0.02,2.06-0.59,2.64-1.61c1.21-2.14-0.31-4.72-2.82-4.72c-6.86-0.02-13.73,0-20.59-0.01
			c-1.59,0-2.27-1.05-1.56-2.46c1.39-2.8,2.21-5.74,2.43-8.86c0.23-3.39-0.29-6.65-1.54-9.79c-0.48-1.2-1.82-1.8-3.16-1.51
			c-1.19,0.25-1.84,1.12-1.9,2.47c-0.05,1.02-0.14,2.04-0.19,3.05c-0.27,5.2-2.48,9.44-6.39,12.79c-0.9,0.77-2.09,1.21-2.99,1.99
			c-2.55,2.2-5.03,4.49-7.5,6.78c-0.25,0.23-0.39,0.69-0.39,1.05c-0.02,7.39-0.01,14.79-0.03,22.18c0,0.59,0.13,0.85,0.78,0.98
			c3.88,0.79,7.38,2.35,10.33,5.09c0.52,0.49,1.44,0.76,2.18,0.77C77.08,121.5,80.98,121.46,84.88,121.46z M41.13,87.39
			c0,10.49,0,20.86,0,31.24c5.26,0,10.44,0,15.66,0c0-10.43,0-20.81,0-31.24C51.55,87.39,46.37,87.39,41.13,87.39z"/>
		<path d="M122.7,51.64c-1.18,1.13-2.34,2.26-3.53,3.37c-0.68,0.63-1.38,1.25-2.1,1.83c-0.44,0.36-0.55,0.7-0.41,1.28
			c0.51,2.13,0.94,4.28,1.44,6.41c0.17,0.72,0.05,1.42-0.58,1.68c-0.51,0.22-1.31,0.23-1.79-0.03c-1.93-1.03-3.8-2.19-5.67-3.33
			c-0.46-0.28-0.8-0.27-1.26,0.01c-1.82,1.11-3.67,2.17-5.49,3.27c-0.66,0.4-1.31,0.59-1.98,0.11c-0.68-0.48-0.7-1.16-0.52-1.91
			c0.48-2.07,0.91-4.16,1.41-6.22c0.14-0.57,0-0.91-0.43-1.28c-1.62-1.39-3.21-2.82-4.81-4.22c-0.54-0.47-0.94-0.99-0.69-1.77
			c0.24-0.75,0.79-1.03,1.54-1.09c2.21-0.2,4.43-0.42,6.64-0.69c0.31-0.04,0.7-0.35,0.84-0.63c0.89-1.93,1.72-3.89,2.56-5.85
			c0.31-0.72,0.69-1.33,1.59-1.32c0.89,0.01,1.26,0.63,1.57,1.35c0.81,1.9,1.65,3.79,2.45,5.7c0.21,0.5,0.46,0.77,1.06,0.81
			c2.09,0.16,4.18,0.43,6.27,0.58c0.9,0.06,1.51,0.42,1.91,1.2C122.7,51.15,122.7,51.39,122.7,51.64z M104.45,61.94
			c1.19-0.7,2.27-1.23,3.24-1.93c1.19-0.86,2.25-0.9,3.45-0.02c0.97,0.71,2.07,1.24,3.28,1.95c-0.26-1.2-0.37-2.23-0.72-3.17
			c-0.65-1.77-0.26-3.07,1.31-4.14c0.87-0.59,1.6-1.38,2.5-2.17c-1.6-0.16-2.98-0.35-4.37-0.42c-1-0.05-1.59-0.48-1.96-1.39
			c-0.54-1.33-1.13-2.63-1.76-4.08c-0.65,1.51-1.24,2.86-1.82,4.22c-0.34,0.8-0.91,1.18-1.78,1.23c-1.43,0.1-2.86,0.27-4.47,0.42
			c1.09,0.97,2,1.88,3.02,2.66c1.02,0.79,1.31,1.66,0.94,2.91C104.96,59.23,104.76,60.51,104.45,61.94z"/>
		<path d="M69.2,62.97c-1.26,0-1.94-0.85-1.71-1.88c0.71-3.22,1.41-6.44,2.17-9.65c0.13-0.55,0-0.84-0.39-1.17
			c-2.38-2.07-4.74-4.17-7.11-6.25c-0.59-0.51-1.08-1.05-0.8-1.91c0.28-0.83,0.94-1.02,1.75-1.09c3.14-0.27,6.27-0.6,9.41-0.87
			c0.58-0.05,0.85-0.28,1.07-0.8c1.22-2.9,2.5-5.77,3.74-8.67c0.31-0.72,0.67-1.32,1.58-1.32c0.9,0,1.27,0.61,1.58,1.33
			c1.23,2.86,2.48,5.72,3.7,8.58c0.22,0.52,0.45,0.83,1.11,0.88c3.23,0.26,6.46,0.6,9.69,0.89c0.73,0.07,1.23,0.39,1.47,1.07
			c0.26,0.76-0.12,1.31-0.67,1.78c-2.3,2.02-4.57,4.07-6.92,6.04c-0.68,0.58-0.85,1.09-0.64,1.96c0.73,2.99,1.34,6.02,2.05,9.02
			c0.18,0.76,0.09,1.47-0.58,1.76c-0.51,0.22-1.31,0.22-1.79-0.05c-2.8-1.57-5.56-3.22-8.3-4.89c-0.53-0.32-0.9-0.29-1.41,0.02
			c-2.67,1.61-5.36,3.19-8.05,4.77C69.78,62.74,69.38,62.89,69.2,62.97z M86.53,58.36c-0.03-0.33-0.02-0.52-0.06-0.69
			c-0.51-2.26-1-4.51-1.54-6.76c-0.2-0.85-0.01-1.49,0.65-2.06c1.64-1.41,3.26-2.85,4.88-4.28c0.26-0.23,0.51-0.48,0.9-0.84
			c-2.45-0.23-4.68-0.49-6.92-0.62c-1.35-0.08-2.23-0.53-2.73-1.87c-0.72-1.93-1.61-3.8-2.43-5.7c-0.1-0.23-0.23-0.44-0.42-0.79
			c-1.03,2.38-2.02,4.58-2.93,6.8c-0.39,0.95-0.99,1.43-2,1.5c-0.92,0.06-1.85,0.15-2.77,0.24c-1.52,0.14-3.03,0.29-4.75,0.46
			c2.01,1.77,3.85,3.42,5.72,5.03c0.71,0.61,0.96,1.29,0.71,2.21c-0.31,1.16-0.55,2.34-0.8,3.52c-0.27,1.24-0.53,2.48-0.84,3.92
			c2.27-1.34,4.36-2.53,6.4-3.81c0.9-0.56,1.66-0.58,2.56-0.02C82.21,55.85,84.3,57.04,86.53,58.36z"/>
		<path d="M61.6,51.49c-0.16,0.24-0.38,0.73-0.75,1.06c-1.55,1.42-3.13,2.81-4.73,4.17c-0.5,0.43-0.69,0.8-0.51,1.5
			c0.51,1.97,0.91,3.97,1.36,5.95c0.18,0.79,0.25,1.56-0.53,2.08c-0.72,0.49-1.4,0.21-2.07-0.19c-1.75-1.05-3.52-2.06-5.25-3.13
			c-0.54-0.33-0.93-0.38-1.5-0.02c-1.73,1.08-3.5,2.08-5.25,3.13c-0.7,0.42-1.39,0.72-2.15,0.18c-0.76-0.55-0.65-1.31-0.47-2.1
			c0.45-1.98,0.85-3.98,1.36-5.95c0.17-0.66-0.01-1.01-0.48-1.42c-1.6-1.37-3.16-2.77-4.74-4.16c-0.54-0.47-0.94-0.99-0.68-1.77
			c0.25-0.75,0.8-1.02,1.55-1.09c2.21-0.2,4.43-0.42,6.63-0.69c0.31-0.04,0.7-0.35,0.83-0.64c0.89-1.93,1.72-3.89,2.56-5.85
			c0.31-0.72,0.69-1.33,1.59-1.32c0.89,0.01,1.26,0.63,1.57,1.35c0.81,1.9,1.65,3.79,2.45,5.7c0.21,0.5,0.46,0.77,1.05,0.82
			c2.25,0.18,4.49,0.42,6.73,0.67C61.01,49.87,61.58,50.48,61.6,51.49z M53.37,61.95c-0.24-1.05-0.45-1.86-0.61-2.67
			c-0.68-3.38-1.02-2.66,1.7-5.08c0.63-0.56,1.24-1.12,1.95-1.76c-1.54-0.16-2.89-0.36-4.24-0.41c-1.08-0.04-1.7-0.5-2.09-1.49
			c-0.51-1.3-1.11-2.57-1.73-3.98c-0.65,1.51-1.25,2.86-1.82,4.22c-0.34,0.8-0.91,1.17-1.78,1.23c-1.43,0.1-2.86,0.27-4.47,0.42
			c1.12,0.99,2.06,1.91,3.1,2.72c0.96,0.75,1.21,1.59,0.88,2.76c-0.36,1.26-0.57,2.56-0.89,4.01c1.37-0.81,2.58-1.47,3.74-2.22
			c0.86-0.56,1.63-0.55,2.49,0C50.77,60.46,51.98,61.13,53.37,61.95z"/>
		<path d="M48.85,92.26c0.02-0.84,0.7-1.56,1.5-1.58c0.85-0.01,1.54,0.73,1.52,1.64c-0.01,0.87-0.67,1.56-1.49,1.57
			C49.54,93.9,48.84,93.15,48.85,92.26z"/>
	</g>
</g>
</svg>
