<?xml version="1.0" encoding="utf-8"?>
<!-- Generator: Adobe Illustrator 27.0.0, SVG Export Plug-In . SVG Version: 6.00 Build 0)  -->
<svg version="1.1" id="Calque_1" xmlns="http://www.w3.org/2000/svg" xmlns:xlink="http://www.w3.org/1999/xlink" x="0px" y="0px"
	 viewBox="0 0 500.9 495.3" style="enable-background:new 0 0 500.9 495.3;" xml:space="preserve">
<style type="text/css">
	.st0{fill:#78C5E7;}
	.st1{fill:#6AA341;}
	.st2{fill:#4DB7E4;}
	.st3{fill:#FDC8A2;}
	.st4{fill:#2B71AD;}
	.st5{fill:#7FB458;}
	.st6{fill:#48ADD8;}
	.st7{fill:#4CAFDA;}
	.st8{fill:#348ED8;}
	.st9{fill:#3186CC;}
	.st10{fill:#FCB432;}
	.st11{fill:#FDB431;}
	.st12{fill:#FEA812;}
	.st13{fill:#E6780E;}
	.st14{fill:#3386CA;}
</style>
<g>
	<path class="st0" d="M218.6,64.6c4.1,4.9,7,10.3,9.4,16.2c-8.9,0-17.7,0.1-26.6,0.1c-6.4,0-12.7,0.1-19.1-0.1
		c-3.8-0.1-5.4,0.8-4.1,4.9c0.8,2.4,0.8,5.1,1.4,7.5c1.5,6.1,0.9,12.5,2.7,18.6c0,1.1,0,2.1,0,3.2c0,5.9,0,5.9,5.9,5.9
		c16.8,0,33.6,0,50.4,0c0.4,5.2,0.4,10.4,0,15.6c-17.3,0-34.5,0.1-51.8-0.1c-3.3,0-4.4,0.7-4.5,4.2c-0.5,10.7-1.6,21.3-3.9,31.8
		c-0.9,4.1,0.1,5,4,5c15.1-0.1,30.3,0,45.4,0c-1.2,2.4-2.3,4.8-3.5,7.2c-1.8,2.7-3.7,5.5-5.5,8.2c-13.8,0-27.6,0.1-41.3-0.1
		c-2.8,0-4.3,0.7-5.2,3.6c-4.4,14.4-10.5,28-18,41c-7.4,2.3-14.9,3.5-22.6,3.5c2-2.3,4.4-4.3,5.9-6.8c7.1-11.8,13.3-24,17.7-37.1
		c1.1-3.3,0.5-4.2-3-4.2c-17.1,0.1-34.2,0.2-51.3,0c-4.1,0-4.1,1.5-3,4.6c4,11.1,9,21.8,14.9,32c2.1,3.8,5.1,7.2,5.9,11.6
		c-6.9,0.1-13.4-1.7-19.9-3.6C92,225,86.2,212.3,81.4,199.1c-0.3-5.3-3-6.7-8.3-6.5c-11.1,0.5-22.3,0.1-33.5,0.2
		c-1.6,0-3.4-0.6-4.7,0.9c-4.3-4.9-7.3-10.5-9.8-16.4c15.1,0,30.3-0.1,45.4,0.1c4.1,0.1,5-1.4,4.2-5.1c-2.5-10.6-3.3-21.4-4.2-32.1
		c-0.3-3-1.2-3.8-4-3.8c-16,0.1-32.1,0.1-48.1,0c-1.8,0-3.2,0.6-4.3,1.8c0-6.4,0-12.7,0-19.1c1.2,1.3,2.5,1.9,4.3,1.9
		c16.2-0.1,32.3-0.1,48.5,0c2.8,0,3.4-1.1,3.6-3.7c0.8-10.6,1.6-21.3,4-31.7c0.9-3.8-0.1-4.8-3.8-4.8C55.5,81,40.3,80.9,25,80.9
		c2.2-6.1,5.4-11.5,9.6-16.4c13.7,0,27.4,0,41.2,0.1c1.9,0,4,0.3,4.7-2.3c4.3-14.8,11.1-28.5,18.1-42.2c5.2-2.4,11-2,16.4-3.7
		c2.7,0,5.5,0,8.2,0c-1.2,1.7-3.6,0.3-5,2.5c-8.3,13.4-15.5,27.2-20.5,42.2c-1,3-0.1,3.6,2.8,3.5c17.2-0.1,34.5-0.1,51.7,0
		c3.8,0,3.9-1.3,2.8-4.3c-3.7-10.7-8.5-21-14.1-30.8c-2.9-5-4.5-11.4-11.3-13.1c3,0,6.1,0,9.1,0c5,1.9,10.6,1.2,15.5,3.7
		c6.9,13.4,13.8,26.8,17.9,41.3c0.8,2.9,2.5,3.2,5,3.2c10.9-0.1,21.7,0,32.6-0.1C212.6,64.5,215.6,64.5,218.6,64.6z M163.2,137.2
		c-0.8-0.9-1.9-0.8-2.9-0.8c-23.3,0-46.6,0-69.9,0c-2.8,0-3.8,0.9-3.6,3.7c0.5,11,2,21.8,4.2,32.6c0.8,4,2.3,4.9,5.9,4.7
		c7.6-0.2,15.1-0.1,22.7-0.1c8,0,16,0.1,24,0c5.1,0,10.2,0.5,15.3-0.8c1.2-0.3,2.2-0.4,2.6-1.9c2.6-11.4,4.6-22.9,4.6-34.7
		C166,137.9,165.1,137.1,163.2,137.2z M125.9,120.9c12,0,23.9-0.1,35.9,0.1c3.1,0,4.3-0.7,4.2-4c-0.1-11.2-2-22.1-4.4-33
		c-0.5-2.1-1.2-3-3.5-3c-21,0.1-42.1,0.1-63.1,0c-2.1,0-3.2,0.7-3.7,3c-2.3,10.9-4.1,21.8-4.5,33c-0.1,3.3,1.1,4.1,4.2,4.1
		C102.6,120.8,114.3,120.9,125.9,120.9z"/>
	<path class="st1" d="M411.5,27.5c17.2,0.2,33.7-3.1,49.4-10.2c0.5-0.2,1-0.6,1.5-0.9c0.6,0,1.2,0,1.8,0c-0.1,4.2-0.3,8.5-0.3,12.7
		c0,18.5-0.1,37,0,55.4c0,3-0.7,4.4-3.7,5.7c-15.2,6.5-30.9,10.2-47.6,9.7c-10.2-0.3-20-3.1-29.9-4.7c-4.9-0.8-9.9-1.1-14.9-1.7
		c0.3-0.5,0.5-1.1,0.8-1.6c12.8-18.7,25.6-37.4,38.3-56.2C408.7,33.1,411.2,30.9,411.5,27.5z"/>
	<path class="st2" d="M14.1,138.2c1.2-1.3,2.5-1.9,4.3-1.8c16,0.1,32.1,0.1,48.1,0c2.9,0,3.8,0.8,4,3.8c0.9,10.8,1.7,21.6,4.2,32.1
		c0.9,3.7,0,5.1-4.2,5.1c-15.1-0.2-30.3-0.1-45.4-0.1c-5.2-10.5-8.3-21.6-10.1-33.1c-0.1-0.9,0.1-1.9-1-2.3
		C14.1,140.6,14.1,139.4,14.1,138.2z"/>
	<path class="st2" d="M14.1,116.4c1.5-6.4,2.9-12.8,4.5-19.1c1.5-5.7,3.5-11.2,6.3-16.4c15.3,0,30.5,0.1,45.8-0.1
		c3.7,0,4.7,1,3.8,4.8c-2.4,10.4-3.2,21-4,31.7c-0.2,2.6-0.8,3.7-3.6,3.7c-16.2-0.1-32.3-0.1-48.5,0c-1.8,0-3.2-0.6-4.3-1.9
		C14.1,118.2,14.1,117.3,14.1,116.4z"/>
	<path class="st2" d="M129.6,16.4c6.9,1.7,8.5,8.2,11.3,13.1c5.7,9.8,10.4,20.1,14.1,30.8c1,3,1,4.4-2.8,4.3
		c-17.2-0.1-34.5-0.1-51.7,0c-2.8,0-3.8-0.5-2.8-3.5c5-15,12.1-28.9,20.5-42.2c1.4-2.2,3.8-0.8,5-2.5
		C125.3,16.4,127.5,16.4,129.6,16.4z"/>
	<path class="st3" d="M447.8,389.2c2.1-4.3,4.6-8.1,9.2-10.1c10.4-4.7,22.5,2.7,22.6,14.4c0.2,28.3,0,56.7,0.1,85
		c0,3.4-1.7,3.5-4.2,3.5c-23.8-0.1-47.6,0-71.4,0c-15.9,0-31.8-0.1-47.7,0.1c-3.7,0-6.6-1-9.6-3.2c-13.1-9.5-26.3-18.9-39.4-28.3
		c-0.5-0.3-1.1-0.5-1.7-0.7c-1.9-1.5-3.8-3-5.6-4.5c-5.2-4.4-6.5-11.7-3.3-17.7c4-7.4,13.6-10.1,21.2-5.7
		c10.1,5.8,20,11.9,29.9,17.9c2.2,1.3,3.5,1.8,3.4-1.7c-0.2-6.6-0.2-13.3-0.3-19.9c0-10.9,0.1-21.8,0.1-32.8c0-10.6,0-21.2,0-31.9
		c0-8.2,0-16.3,0.1-24.5c0-5.7,2.6-10.2,7.4-13.3c10.8-6.7,24.3,0.9,24.5,14c0.2,18.2,0.1,36.3,0.1,54.5c0,1.5,0,3.1,0,4.6
		c3.2-6.9,8.1-11.1,15.4-11.4c8.6-0.3,13.9,4.8,17,13.8c0.2-1.9,0.2-2.4,0.3-3c0.3-0.5,0.7-1,0.9-1.5c3.1-6.1,8.2-9.4,14.9-9.2
		c6.5,0.1,11.4,3.5,14.3,9.5C446.4,387.8,446.4,389.1,447.8,389.2z"/>
	<path class="st4" d="M351.1,418.3c0.1,6.6,0.1,13.3,0.3,19.9c0.1,3.4-1.2,3-3.4,1.7c-9.9-6-19.9-12.1-29.9-17.9
		c-7.6-4.4-17.2-1.7-21.2,5.7c-3.3,5.9-1.9,13.3,3.3,17.7c1.8,1.6,3.7,3,5.6,4.5c-70.1,0-140.3,0.1-210.4,0c-19.1,0-33-14-33-33
		c0-64.1,0-128.2,0-192.3c0-0.9,0.1-1.8,0.1-2.7c4.3,1.1,7.5,4.3,11.3,6.3c6.6,3.5,13.9,5.6,20.5,9c0,0.5-0.1,0.9-0.1,1.4
		c0,58.3,0,116.5-0.1,174.8c0,3.3,1.1,4.1,4.2,4.1c17.7-0.1,35.4,0,53.1,0c1.7,1.6,3.8,0.8,5.6,0.8
		C221.7,418.3,286.4,418.3,351.1,418.3z"/>
	<path class="st4" d="M447.8,389.2c-1.4-0.1-1.3-1.3-1.7-2.1c-2.9-6-7.8-9.3-14.3-9.5c-6.7-0.1-11.8,3.2-14.9,9.2
		c-0.3,0.5-0.6,1-0.9,1.5c0-2.3,0-4.5,0-6.8c0-63.7,0-127.4,0-191.1c0-5.8,0-5.8-6-5.8c-9.2,0-18.5,0-27.7,0.1
		c-52.7,0-105.4-0.1-158.1-0.1c1.2-2.4,2.3-4.8,3.5-7.2c4.4-7.7,6.2-16.3,9.1-24.6c58.4,0,116.9,0,175.3,0
		c22.3,0,35.5,13.2,35.5,35.6c0,65,0,129.9,0,194.9C447.6,385.2,447.7,387.2,447.8,389.2z"/>
	<path class="st5" d="M411.5,27.5c-0.2,3.4-2.7,5.6-4.5,8.2c-12.7,18.8-25.5,37.5-38.3,56.2c-0.3,0.5-0.6,1.1-0.8,1.6
		c-15.7,0-30.6,3.3-44.9,9.7c-2.9,1.3-4.1,1.3-4.1-2.5c0.2-21.5,0.1-43,0-64.5c0-3,1.2-4.1,3.7-5.2c24.5-11.1,49.6-12,75.4-5.3
		C402.4,26.8,407,26.9,411.5,27.5z"/>
	<path class="st6" d="M236.8,152.8c-2.9,8.2-4.7,16.9-9.1,24.6c-15.1,0-30.3-0.1-45.4,0c-3.9,0-5-0.9-4-5
		c2.3-10.4,3.4-21.1,3.9-31.8c0.2-3.5,1.3-4.3,4.5-4.2c17.3,0.1,34.5,0.1,51.8,0.1C238.9,142,236.8,147.3,236.8,152.8z"/>
	<path class="st6" d="M238.5,120.9c-16.8,0-33.6,0-50.4,0c-5.9,0-5.9,0-5.9-5.9c0-1.1,0-2.1,0-3.2c0.7-0.3,1.7-0.3,2-0.9
		c6.3-9.7,12.9-19.2,17.1-30.1c8.9,0,17.7-0.1,26.6-0.1C234.4,93.4,237.8,106.8,238.5,120.9z"/>
	<path class="st2" d="M209.6,64.5c-10.9,0-21.7,0-32.6,0.1c-2.5,0-4.2-0.3-5-3.2c-4.1-14.6-11-28-17.9-41.3
		c23,5.6,42,17.5,57.3,35.5C211.9,58.7,209.5,61.4,209.6,64.5z"/>
	<path class="st6" d="M94.3,237.2c-6.7-3.4-13.9-5.5-20.5-9c-3.8-2-7-5.2-11.3-6.3c-3.4-3-6.8-6-10.2-9c0.2-0.4,0.4-0.9,0.8-1.1
		c9.4-4.2,18.9-8.4,28.4-12.6c4.8,13.2,10.6,25.9,17.3,38.2C97.2,237.3,95.7,237.3,94.3,237.2z"/>
	<path class="st2" d="M81.4,199.1c-9.5,4.2-18.9,8.4-28.4,12.6c-0.3,0.2-0.5,0.7-0.8,1.1c-6.6-5.6-12.5-11.9-17.2-19.2
		c1.3-1.5,3.1-0.9,4.7-0.9c11.2-0.1,22.3,0.3,33.5-0.2C78.3,192.4,81.1,193.8,81.4,199.1z"/>
	<path class="st2" d="M255,64.5c8.1,0,8.1,0,8.1,8.1c0,8.1,0,8.1-8.2,8.1c-8,0-8,0-8-8.2C246.9,64.5,246.9,64.5,255,64.5z"/>
	<path class="st2" d="M278.8,72.3c0-7.7,0-7.7,7.5-7.7c8.7,0,8.7,0,8.7,8.8c0,7.3,0,7.3-7.5,7.3c-0.2,0-0.3,0-0.5,0
		C278.8,80.7,278.8,80.7,278.8,72.3z"/>
	<path class="st2" d="M375.2,120.9c0,8,0,8-8.2,8c-9-0.1-7.9,1.3-8-7.8c-0.1-8.3,0-8.3,8.2-8.3C375.2,112.7,375.2,112.7,375.2,120.9
		z"/>
	<path class="st7" d="M209.6,64.5c-0.1-3.1,2.3-5.8,1.8-9c3,2.5,5.2,5.7,7.2,9C215.6,64.5,212.6,64.5,209.6,64.5z"/>
	<path class="st8" d="M94.3,237.2c1.5,0,2.9,0.1,4.4,0.1c6.5,1.9,13.1,3.7,19.9,3.6c4.3,0,8.6,0,12.9,0c7.7,0,15.3-1.2,22.6-3.5
		c1-0.1,2.1,0,3.1-0.3c13.1-3.8,25.3-9.7,36.3-17.9c9.9-7.3,18.4-15.9,25.1-26.3c1.8-2.7,3.7-5.5,5.5-8.2
		c52.7,0,105.4,0.1,158.1,0.1c0,2.1-1.8,3.1-3,4.3c-14.3,14.3-28.6,28.6-42.8,42.9c-3,3-5.8,6.1-8.7,9.2c-1-0.2-2.1-0.4-3.1-0.7
		c-16.6-5.5-33.6-10.2-49.7-16.8c-13.9-5.7-26.3-5.3-40.3,0c-23.8,9.1-48.2,16.5-72.5,24.4c-2.8,0.9-3.8,2.1-3.7,5
		c0.2,8.3,0.2,16.6,0,25c0,2.5,0.7,3.5,3.3,3.4c4.1-0.2,8.2-0.1,12.2-0.1c0.8,8.1-0.6,16.3,0.7,24.4c0,15.8,0.1,31.5,0.1,47.3
		c-4.1,1.7-8.3,0.7-12.5,0.7c-3.3,0-4,1-3.9,4.1c0.2,8.1,0.2,16.3,0,24.4c-0.1,3.1,1.1,3.7,3.9,3.7c6.6-0.1,13.2,0,19.9,0.1
		c-1.8,1.9-3.5,3.7-5.3,5.6c-8.5,8.8-17.5,16.9-25.6,26.1c-17.7,0-35.4-0.1-53.1,0c-3.1,0-4.2-0.8-4.2-4.1
		c0.1-58.3,0.1-116.5,0.1-174.8C94.2,238.1,94.2,237.7,94.3,237.2z"/>
	<path class="st2" d="M125.9,120.9c-11.7,0-23.3-0.1-35,0.1c-3.1,0-4.3-0.8-4.2-4.1c0.4-11.2,2.3-22.1,4.5-33c0.5-2.3,1.6-3,3.7-3
		c21,0,42.1,0,63.1,0c2.3,0,3.1,0.9,3.5,3c2.4,10.9,4.2,21.8,4.4,33c0,3.3-1.2,4.1-4.2,4C149.9,120.8,137.9,120.9,125.9,120.9z"/>
	<path class="st2" d="M119.6,177.2c-7.6,0-15.1-0.1-22.7,0.1c-3.6,0.1-5.1-0.8-5.9-4.7c-2.2-10.8-3.7-21.6-4.2-32.6
		c-0.1-2.8,0.9-3.7,3.6-3.7c23.3,0.1,46.6,0,69.9,0c1.1,0,2.1-0.1,2.9,0.8c-10.9,12.4-23.3,23-36.5,32.9
		C124.1,172.1,120.4,173.3,119.6,177.2z"/>
	<path class="st6" d="M131.5,240.9c-4.3,0-8.6,0-12.9,0c-0.9-4.4-3.8-7.9-5.9-11.6c-5.9-10.3-10.8-20.9-14.9-32
		c-1.1-3.1-1.1-4.6,3-4.6c17.1,0.2,34.2,0.1,51.3,0c3.5,0,4.1,0.9,3,4.2c-4.4,13.1-10.5,25.4-17.7,37.1
		C135.9,236.6,133.5,238.6,131.5,240.9z"/>
	<path class="st6" d="M218.7,192.8c-6.6,10.4-15.2,19-25.1,26.3c-11,8.2-23.2,14.1-36.3,17.9c-1,0.3-2.1,0.2-3.1,0.3
		c7.5-13,13.6-26.6,18-41c0.9-2.9,2.4-3.7,5.2-3.6C191.1,192.8,204.9,192.8,218.7,192.8z"/>
	<path class="st2" d="M34.6,64.5C47,46,64,33,84.4,24.5c4.6-1.9,9.3-3.6,14.2-4.5c-7,13.6-13.9,27.4-18.1,42.2
		c-0.8,2.6-2.8,2.3-4.7,2.3C62.1,64.5,48.3,64.5,34.6,64.5z"/>
	<path class="st6" d="M119.6,177.2c0.8-3.9,4.5-5.1,7.2-7.1c13.1-9.9,25.6-20.5,36.5-32.9c1.8-0.1,2.7,0.6,2.8,2.6
		c0.1,11.8-2,23.3-4.6,34.7c-0.3,1.5-1.3,1.6-2.6,1.9c-5.1,1.3-10.2,0.7-15.3,0.8C135.6,177.3,127.6,177.2,119.6,177.2z"/>
	<path class="st2" d="M201.4,80.9c-4.2,10.9-10.8,20.4-17.1,30.1c-0.3,0.5-1.3,0.6-2,0.9c-1.8-6.1-1.2-12.5-2.7-18.6
		c-0.6-2.5-0.6-5.1-1.4-7.5c-1.4-4.1,0.3-5,4.1-4.9C188.7,81.1,195.1,80.9,201.4,80.9z"/>
	<path class="st9" d="M327.8,241c2.9-3.1,5.7-6.2,8.7-9.2c14.3-14.3,28.6-28.6,42.8-42.9c1.2-1.2,3-2.2,3-4.3c9.2,0,18.5,0,27.7-0.1
		c6,0,6,0,6,5.8c0,63.7,0,127.4,0,191.1c0,2.3,0,4.5,0,6.8c-0.1,0.6-0.1,1.2-0.3,3c-3.1-9-8.4-14-17-13.8
		c-7.3,0.2-12.3,4.4-15.4,11.4c0-1.5,0-3.1,0-4.6c0-18.2,0.1-36.3-0.1-54.5c-0.2-13.1-13.7-20.8-24.5-14c-4.8,3-7.3,7.5-7.4,13.3
		c-0.1,8.2-0.1,16.3-0.1,24.5c-5.4-0.6-10.9,0.9-16.3-0.8c0-15.8,0-31.5,0-47.3c0.1-8.1,0.2-16.2,0.3-24.3c4.2,0,8.4-0.1,12.7,0
		c2.5,0.1,3.4-0.7,3.4-3.3c-0.1-8.6-0.1-17.2,0-25.8c0-2.5-1-3.3-3.2-4C341.3,245.8,334.6,243.4,327.8,241z"/>
	<path class="st10" d="M334.9,352.8c5.3,1.7,10.9,0.2,16.3,0.8c0,10.6,0,21.2,0,31.9c-51.5,0-102.9,0-154.4,0.1
		c-4.8,0-9.7,0.1-14.5,0.2c-6.6-0.1-13.2-0.2-19.9-0.1c-2.8,0.1-4-0.5-3.9-3.7c0.2-8.1,0.2-16.3,0-24.4c-0.1-3.1,0.7-4.1,3.9-4.1
		c4.1,0,8.4,1,12.5-0.7c10.6,0,21.1,0,31.7,0c3,1.5,6.2,0.6,9.3,0.6c7.7,0,15.4,1.1,23-0.6c10.5,0,21.1,0,31.6,0
		c8.5,1.7,17.1,0.4,25.7,0.7c2.3,0.1,4.8,0.8,7-0.7C313.9,352.8,324.4,352.8,334.9,352.8z"/>
	<path class="st9" d="M182.3,385.7c4.8-0.1,9.7-0.2,14.5-0.2c51.5,0,102.9,0,154.4-0.1c-0.1,10.9-0.1,21.8-0.2,32.8
		c-64.7,0-129.4,0-194-0.1c-1.9,0-4,0.7-5.6-0.8c8.1-9.2,17.1-17.3,25.6-26.1C178.8,389.4,180.5,387.6,182.3,385.7z"/>
	<path class="st11" d="M327.8,241c6.8,2.4,13.6,4.8,20.4,7.1c2.1,0.7,3.2,1.5,3.2,4c-0.1,8.6-0.1,17.2,0,25.8c0,2.6-0.8,3.4-3.4,3.3
		c-4.2-0.2-8.4,0-12.7,0c-10.8,0-21.6,0-32.4,0c-5.6,0.1-11.3,0.1-16.9,0.2c-4.8-0.1-9.7-0.2-14.5-0.3c-11,0-21.9,0-32.9,0
		c-10.5,0-21,0-31.5,0c-11,0-21.9,0-32.9,0c-4.1,0-8.2-0.1-12.2,0.1c-2.6,0.1-3.3-0.8-3.3-3.4c0.1-8.3,0.2-16.6,0-25
		c-0.1-2.9,0.9-4.1,3.7-5c24.2-7.9,48.7-15.3,72.5-24.4c13.9-5.3,26.4-5.7,40.3,0c16.1,6.6,33.1,11.3,49.7,16.8
		C325.7,240.6,326.8,240.7,327.8,241z M254.7,257.3c8.5,0,8.5,0,8.5-8.1c0-8.2,0-8.2-8-8.2c-8.3,0-8.3,0-8.3,8.4
		C246.9,257.3,246.9,257.3,254.7,257.3z"/>
	<path class="st12" d="M206.6,352.8c-10.6,0-21.1,0-31.7,0c0-15.8-0.1-31.5-0.1-47.3c10.4,0,20.8,0,31.2,0c0.2,0.3,0.4,0.5,0.7,0.8
		C206.6,321.8,206.6,337.3,206.6,352.8z"/>
	<path class="st13" d="M206,305.6c-10.4,0-20.8,0-31.2-0.1c-1.3-8.1,0-16.3-0.7-24.4c11,0,21.9,0,32.9,0c-0.1,8.1-0.2,16.3-0.3,24.4
		C206.4,305.5,206.2,305.5,206,305.6z"/>
	<path class="st12" d="M334.9,352.8c-10.5,0-21.1,0-31.6,0c0-15.8,0-31.5,0-47.3c10.6,0,21.1,0,31.7,0
		C335,321.3,334.9,337,334.9,352.8z"/>
	<path class="st13" d="M335,305.5c-10.6,0-21.1,0-31.7,0c-0.1-8.1-0.2-16.2-0.4-24.3c10.8,0,21.6,0,32.4,0
		C335.2,289.3,335.1,297.4,335,305.5z"/>
	<path class="st14" d="M302.9,281.2c0.1,8.1,0.2,16.2,0.4,24.3c0,15.8,0,31.5,0,47.3c-2.2,1.5-4.7,0.8-7,0.7
		c-8.6-0.3-17.2,1-25.7-0.7c0.1-15.8,0.1-31.5,0.2-47.3c1.2-3,0-6.1,0.7-9.1c5.1-4.7,10.5-9.2,14.5-15
		C291.6,281.3,297.3,281.3,302.9,281.2z"/>
	<path class="st8" d="M206.7,305.5c0.1-8.1,0.2-16.3,0.3-24.4c10.5,0,21,0,31.5,0c0.1,8.1,0.2,16.2,0.4,24.4
		c-0.1,8.2-0.2,16.4-0.3,24.6c-5.1,5-10.3,9.8-15.2,14.9c-2.6,2.7-5.9,4.8-7.4,8.4c-3.1,0-6.3,1-9.3-0.6c0-15.5,0-30.9,0-46.4
		C206.8,306.1,206.8,305.8,206.7,305.5z"/>
	<path class="st12" d="M238.6,330.1c0.1-8.2,0.2-16.4,0.3-24.6c10.6,0,21.2,0,31.9,0c-0.1,15.8-0.1,31.5-0.2,47.3
		c-10.5,0-21.1,0-31.6,0C238.8,345.2,238.7,337.6,238.6,330.1z"/>
	<path class="st14" d="M238.6,330.1c0.1,7.6,0.2,15.2,0.4,22.7c-7.6,1.6-15.4,0.5-23,0.6c1.5-3.6,4.8-5.7,7.4-8.4
		C228.3,339.9,233.5,335,238.6,330.1z"/>
	<path class="st13" d="M270.8,305.5c-10.6,0-21.2,0-31.9,0c-0.1-8.1-0.2-16.2-0.4-24.4c11,0,21.9,0,32.9,0c0,5.1,0,10.2,0,15.3
		C270.8,299.4,271.9,302.6,270.8,305.5z"/>
	<path class="st13" d="M254.7,257.3c-7.8,0-7.8,0-7.8-8c0-8.4,0-8.4,8.3-8.4c8,0,8,0,8,8.2C263.2,257.3,263.2,257.3,254.7,257.3z"/>
	<path class="st8" d="M271.5,296.4c0-5.1,0-10.2,0-15.3c4.8,0.1,9.7,0.2,14.5,0.3C282,287.2,276.6,291.7,271.5,296.4z"/>
	<path class="st10" d="M206.7,305.5c0.1,0.3,0.1,0.6,0,0.8c-0.2-0.3-0.4-0.5-0.7-0.8C206.2,305.5,206.4,305.5,206.7,305.5z"/>
</g>
</svg>
