<?xml version="1.0" encoding="utf-8"?>
<!-- Generator: Adobe Illustrator 25.2.3, SVG Export Plug-In . SVG Version: 6.00 Build 0)  -->
<svg version="1.1" id="Capa_1" xmlns="http://www.w3.org/2000/svg" xmlns:xlink="http://www.w3.org/1999/xlink" x="0px" y="0px"
	 viewBox="0 0 277.1 277.1" style="enable-background:new 0 0 277.1 277.1;" xml:space="preserve">
<style type="text/css">
	.st0{fill:#606060;}
</style>
<path class="st0" d="M261.4,104.6c-3.1-3.1-4.8-7.2-4.8-11.5c0-4.4,1.7-8.4,4.8-11.5l5.3-5.3l-65.8-65.8l-5.3,5.3
	c-3.1,3.1-7.2,4.8-11.5,4.8c-4.4,0-8.4-1.7-11.5-4.8l-5.3-5.3l-22.8,22.8L155,43.9l-10.6,10.6l-10.6-10.6L10.5,167.3l5.3,5.3
	c3.1,3.1,4.8,7.2,4.8,11.5c0,4.4-1.7,8.4-4.8,11.5l-5.3,5.3l65.8,65.8l5.3-5.3c3.1-3.1,7.2-4.8,11.5-4.8c4.4,0,8.4,1.7,11.5,4.8
	l5.3,5.3l123.4-123.4l-10.6-10.6l10.6-10.6l10.6,10.6l22.8-22.8L261.4,104.6z M77.1,218.1L64,205l-5.2,5.2l-4.6-4.6l16.4-16.4
	l4.6,4.6L70,199l13.1,13.1L77.1,218.1z M91.7,203.5L74,185.7l6-6l17.7,17.7L91.7,203.5z M112.1,183.9c-5.7,5.7-13.7,6.1-19.2,0.6
	c-5.5-5.5-5.1-13.5,0.6-19.2c3.5-3.5,7.5-4.9,11.5-4.4l-0.4,7.1c-2.4-0.3-4.4,0.2-6,1.8c-2.5,2.5-2.4,5.9,0.3,8.6
	c2.7,2.7,6.1,2.8,8.6,0.3c1.6-1.6,2.1-3.6,1.8-6l7.1-0.4C117,176.5,115.5,180.5,112.1,183.9z M134.9,160.3l-10.3-1.4l0.2,2.8
	l4.4,4.4l-5.9,5.9l-17.7-17.7l5.9-5.9l6.4,6.4l-0.6-12.3l6.5-6.5l0.7,14.9l17.4,2.5L134.9,160.3z M144.5,150.7L126.8,133l14.4-14.4
	l4.5,4.5l-8.5,8.5l2.1,2.1l7.5-7.5l4.3,4.3l-7.5,7.5l2.3,2.3l8.9-8.9l4.5,4.5L144.5,150.7z M167.3,127.9l-13.1-13.1L149,120
	l-4.6-4.6L160.8,99l4.6,4.6l-5.2,5.2l13.1,13.1L167.3,127.9z M166.8,76.8l-11.2-11.2L166.2,55l11.2,11.2L166.8,76.8z M189.2,99.1
	L178,88l10.6-10.6l11.2,11.2L189.2,99.1z M211.5,121.5l-11.2-11.2l10.6-10.6l11.2,11.2L211.5,121.5z"/>
</svg>
