<?xml version="1.0" encoding="utf-8"?>
<!-- Generator: Adobe Illustrator 25.2.3, SVG Export Plug-In . SVG Version: 6.00 Build 0)  -->
<svg version="1.1" id="Versement" xmlns="http://www.w3.org/2000/svg" xmlns:xlink="http://www.w3.org/1999/xlink" x="0px" y="0px"
	 viewBox="0 0 150 150" style="enable-background:new 0 0 150 150;" xml:space="preserve">
<style type="text/css">
	.st0{fill:#B481B8;}
	.st1{fill:#E9C4DF;}
	.st2{fill:#9BC585;}
	.st3{fill:#064A5A;}
	.st4{fill:#3BA674;}
	.st5{fill:#F5CCAB;}
</style>
<g>
	<path class="st0" d="M103.83,115.87l-6.2,1.94l-5.36,1.68H64.14l-5.47-17.47L40.69,44.57l17.98-5.63l19.2-6.01l19.76,63.13
		L103.83,115.87z"/>
	<path class="st1" d="M90.68,109l1.34,4.29l-17.16,5.37l-1.34-4.29l-4.29,1.34L49.54,52.79l4.29-1.34l-1.34-4.29l17.16-5.37
		l1.34,4.29l4.29-1.34l19.69,62.92L90.68,109z"/>
	<path class="st2" d="M58.67,32.59h38.96v86.9H58.67V32.59z"/>
	<path class="st3" d="M87.14,109v4.5H69.16V109h-4.5V43.07h4.5v-4.5h17.98v4.5h4.5V109H87.14z"/>
	<circle class="st4" cx="78.15" cy="76.04" r="7.49"/>
	<path class="st5" d="M109.61,83.53v35.96H99.12c-8.28,0-14.98-6.71-14.98-14.98h0.03l-9.72-14.39c-1.85-2.74-1.13-6.47,1.61-8.32
		c2.74-1.85,6.47-1.13,8.32,1.61l8.75,12.11h4.5V59.56l11.28,21.15C109.37,81.58,109.61,82.55,109.61,83.53L109.61,83.53z"/>
</g>
</svg>
