<?xml version="1.0" encoding="utf-8"?>
<!-- Generator: Adobe Illustrator 25.2.3, SVG Export Plug-In . SVG Version: 6.00 Build 0)  -->
<svg version="1.1" id="Calque_1" xmlns="http://www.w3.org/2000/svg" xmlns:xlink="http://www.w3.org/1999/xlink" x="0px" y="0px"
	 viewBox="0 0 511.9 554.1" style="enable-background:new 0 0 511.9 554.1;" xml:space="preserve">
<style type="text/css">
	.st0{fill:#FFFFFF;}
</style>
<g>
	<g>
		<path class="st0" d="M251.4,533.1c-12.5-2.9-23.3-8.7-28.7-20.7c-3.7-8.4-6.8-17.4-7.8-26.5c-1.6-13.5-1.3-27.2-1.8-40.8
			c-0.1-2.1,0-4.3,0-7.1c-2.4,0-4.3,0-6.2,0c-26.6-0.2-53.2-0.3-79.8-0.8c-9.5-0.2-18.8-2.4-26.8-8.1c-10-7.2-12.1-17.6-10.2-28.9
			c1.9-11.5,9.7-18.8,20.5-21.4c9.9-2.4,20.3-3.6,30.5-3.8c21.8-0.6,43.6-0.2,65.4-0.2c2,0,3.9,0,6.3,0c0-16.1,0-31.8,0-48.1
			c-1.6-0.1-3.4-0.2-5.1-0.2c-25.6,0-51.2,0.4-76.8-0.4c-8.4-0.2-17.2-2.3-25-5.5c-12.8-5.3-17.6-15.3-15.9-30.5
			c1.3-11.9,8.9-19.4,19.9-22.3c9.4-2.4,19.2-3.5,28.9-4c13.1-0.7,26.3-0.2,39.4-0.2c0.3,0,0.6-0.2,1.3-0.5
			c-1.1-1.9-2.1-3.7-3.3-5.4c-35-54.9-70-109.8-104.8-164.8C66.2,84.6,61.3,76.2,60.1,66C58,48.2,65.7,32.8,80.9,25.5
			c14.9-7.2,35.3-3.8,46.4,8.7c6.7,7.5,12.8,15.7,18.3,24.2c37.2,57.9,74.1,115.9,111.1,173.8c0.8,1.2,1.7,2.4,2.8,4
			c1.2-1.9,2.2-3.4,3.1-4.9c36.5-60.4,73-120.8,109.5-181.2c5.5-9,11.9-17.2,21.2-22.7c15.8-9.4,45.4-8.2,56.4,15.1
			c6,12.8,4.2,25.8-1.7,38c-5.2,10.7-11.3,21.1-17.4,31.3c-29.5,48.9-59.2,97.7-88.8,146.6c-0.9,1.4-1.6,2.8-3,5.3
			c2.4,0,4.1,0,5.7,0c17.1,0.3,34.3,0.2,51.3,1.2c10.4,0.6,20.4,3.8,27.3,12.5c9.7,12.3,8.5,37.9-14.1,45
			c-7.2,2.3-14.9,3.8-22.4,3.9c-25.1,0.5-50.2,0.2-75.3,0.2c-1.8,0-3.6,0-5.7,0c0,16.1,0,31.8,0,48.3c2,0,3.9,0,5.8,0
			c26.4,0.2,52.9,0.2,79.3,0.7c9.7,0.2,19.2,2.4,27.2,8.3c10.2,7.5,12.2,18.2,10.1,29.8c-2,10.9-9.6,17.7-19.8,20.2
			c-9.9,2.4-20.3,3.7-30.5,3.9c-21.9,0.6-43.9,0.2-65.9,0.2c-2,0-3.9,0-6.6,0c0,2.5,0.1,4.6,0,6.6c-0.9,16.2-1.1,32.6-3.1,48.7
			c-1.6,12.8-6.6,25-18.1,32.5c-5,3.3-11,4.9-16.6,7.3C262.1,533.1,256.8,533.1,251.4,533.1z"/>
	</g>
</g>
</svg>
