<?xml version="1.0" encoding="utf-8"?>
<!-- Generator: Adobe Illustrator 25.2.3, SVG Export Plug-In . SVG Version: 6.00 Build 0)  -->
<svg version="1.1" id="Calque_1" xmlns="http://www.w3.org/2000/svg" xmlns:xlink="http://www.w3.org/1999/xlink" x="0px" y="0px"
	 viewBox="0 0 150 150" style="enable-background:new 0 0 150 150;" xml:space="preserve">
<g id="iuNcRK.tif">
	<g>
		<path d="M26.77,124.7c-0.75-0.49-1.01-1.15-0.99-2.06c0.05-2.83,0.02-5.67,0.02-8.5c0-1.44,0.5-1.95,1.92-1.95
			c5.73,0,11.46,0,17.19,0c0.36,0,0.71,0,1.14,0c0-3.64,0-7.23,0-10.95c-0.35,0-0.69,0-1.04,0c-4.79,0-9.57,0-14.36,0
			c-2.86,0-4.85-1.98-4.85-4.84c0-7.2,0-14.39,0-21.59c0-2.85,1.99-4.83,4.85-4.83c13.41,0,26.83,0,40.24,0
			c2.94,0,4.91,1.95,4.91,4.87c0,0.91,0,1.81,0,2.82c2.14-0.41,4.17-0.8,6.25-1.2c0-1.21,0.02-2.35-0.02-3.49
			c-0.01-0.23-0.22-0.53-0.42-0.66c-4.67-3.09-7.17-7.4-7.39-13.02c0-0.06-0.04-0.12-0.07-0.18c-2.69-0.46-4.37-1.99-4.59-4.16
			c-0.25-2.44,0.94-4.19,3.67-5.29c-0.46-0.93-0.91-1.85-1.36-2.77c-2.84-5.76-0.38-11.83,5.63-14.04c0.97-0.36,1.81-1.12,2.66-1.76
			c3.11-2.33,6.6-3.45,10.48-3.3c1.09,0.04,2.26,0.12,3.25,0.52c2.91,1.17,5.93,2.23,8.6,3.84c5.22,3.13,7.07,9.75,4.7,15.52
			c-0.26,0.63-0.53,1.25-0.83,1.95c2.74,0.95,4.23,2.75,3.73,5.69c-0.37,2.15-2.01,3.43-4.28,3.75c-0.48,1.96-0.78,3.89-1.43,5.7
			c-1.12,3.12-3.21,5.56-6,7.35c-0.54,0.34-0.74,0.7-0.71,1.33c0.05,0.97,0.01,1.95,0.01,3.01c1.62,0.32,3.21,0.64,4.79,0.94
			c3.86,0.73,7.74,1.34,11.57,2.22c4.53,1.03,7.34,3.96,8.44,8.49c0.05,0.22,0.14,0.42,0.2,0.64c0,11.99,0,23.97,0,35.96
			C90.73,124.7,58.75,124.7,26.77,124.7z M72.69,98.08c0-0.33,0-0.58,0-0.84c0-7.33,0-14.65,0-21.98c0-1.61-0.55-2.15-2.18-2.15
			c-13.12,0-26.24,0-39.36,0c-1.7,0-2.22,0.52-2.22,2.2c0,6.87,0,13.74,0,20.61c0,1.68,0.53,2.2,2.23,2.2c4.66,0,9.31,0,13.97,0
			c0.31,0,0.63-0.03,1-0.05c0-0.43,0-0.79,0-1.14c0-3.71-0.01-7.42,0-11.14c0-1.18,0.56-1.73,1.73-1.74c1.92-0.01,3.84-0.01,5.76,0
			c1.36,0,1.88,0.52,1.88,1.89c0,3.68,0,7.36,0,11.04c0,0.35,0,0.7,0,1.09C61.24,98.08,66.9,98.08,72.69,98.08z M79.51,45.9
			c-1.1,2.17-2.46,4.13-2.17,6.75c0.21,1.9,0.01,3.84,0.05,5.76c0.03,1.07,0.07,2.16,0.3,3.2c1.46,6.53,7.22,10.57,13.89,9.78
			c5.42-0.64,10.08-5.21,10.6-10.65c0.26-2.71-0.01-5.48,0.25-8.19c0.25-2.6-1.15-4.49-2.15-6.66
			C93.35,50.96,86.49,50.96,79.51,45.9z M110.16,115.39c-27.11,0-54.14,0-81.15,0c0,2.1,0,4.13,0,6.14c27.09,0,54.1,0,81.15,0
			C110.16,119.47,110.16,117.46,110.16,115.39z M75.84,98.06c9.41,0,18.73,0,28.06,0c0-5.74,0-11.42,0-17.16
			c-2.32-0.44-4.61-0.88-6.88-1.32c-3.2,6.01-11.12,5.94-14.27,0.01c-2.29,0.44-4.6,0.88-6.91,1.32
			C75.84,86.68,75.84,92.33,75.84,98.06z M110.13,112.15c0-3.68,0-7.27,0-10.83c-13.56,0-27.05,0-40.51,0c0,3.65,0,7.22,0,10.83
			C83.14,112.15,96.6,112.15,110.13,112.15z M104.19,46.58c2.06-4.83,0.16-10.08-4.37-12.37c-1.36-0.69-2.73-1.4-4.16-1.89
			c-1.64-0.57-3.34-1.11-5.05-1.29c-2.51-0.26-4.91,0.39-7.14,1.74c4.02,2.22,5.4,3.4,6.05,5.17c-0.82,0.54-1.64,1.08-2.47,1.63
			c-3.14-4.8-7.97-4.61-10.57-2.63c-3.03,2.31-3.48,6.33-1,9.81c0.66-1.31,1.28-2.58,1.93-3.84c0.61-1.18,1.57-1.41,2.65-0.64
			c0.95,0.68,1.86,1.42,2.83,2.08c4.21,2.87,9.72,2.87,13.94,0.02c0.94-0.64,1.83-1.35,2.75-2.02c1.22-0.88,2.13-0.66,2.82,0.7
			C102.99,44.18,103.55,45.3,104.19,46.58z M119.55,121.53c0.01-0.24,0.03-0.39,0.03-0.55c0-10.19,0.01-20.38-0.02-30.57
			c0-0.83-0.16-1.69-0.4-2.49c-0.82-2.69-3.43-4.94-5.78-5.07c0,12.88,0,25.76,0,38.69C115.43,121.53,117.44,121.53,119.55,121.53z
			 M49.31,87.22c0,8.36,0,16.64,0,24.89c1.06,0,2.05,0,3.01,0c0-8.34,0-16.59,0-24.89C51.3,87.22,50.34,87.22,49.31,87.22z
			 M60.25,101.29c0,3.67,0,7.26,0,10.82c2.1,0,4.13,0,6.14,0c0-3.65,0-7.21,0-10.82C64.33,101.29,62.33,101.29,60.25,101.29z
			 M107.12,81.5c0,5.56,0,11.04,0,16.57c1.03,0,2.02,0,3.03,0c0-5.35,0-10.64,0-15.97C109.16,81.9,108.21,81.71,107.12,81.5z
			 M85.12,73.98c0.08,1.19,0.04,2.27,0.26,3.3c0.58,2.79,3.52,4.32,6.18,3.29c2.4-0.94,3.58-3.58,2.85-6.54
			C91.38,74.92,88.34,74.89,85.12,73.98z M56.99,112.15c0-3.67,0-7.27,0-10.86c-0.51,0-0.96,0-1.45,0c0,3.63,0,7.23,0,10.86
			C56.04,112.15,56.48,112.15,56.99,112.15z M74.19,55.89c0-1.06,0-2.04,0-3.06c-0.92,0.13-1.44,0.65-1.47,1.47
			C72.69,55.17,73.22,55.71,74.19,55.89z M105.54,55.88c0.98-0.15,1.52-0.69,1.5-1.56c-0.02-0.86-0.54-1.41-1.5-1.48
			C105.54,53.85,105.54,54.82,105.54,55.88z"/>
	</g>
</g>
</svg>
