<?xml version="1.0" encoding="utf-8"?>
<!-- Generator: Adobe Illustrator 25.2.3, SVG Export Plug-In . SVG Version: 6.00 Build 0)  -->
<svg version="1.1" id="Calque_1" xmlns="http://www.w3.org/2000/svg" xmlns:xlink="http://www.w3.org/1999/xlink" x="0px" y="0px"
	 viewBox="0 0 150 150" style="enable-background:new 0 0 150 150;" xml:space="preserve">
<g id="hiC6qI.tif">
	<g>
		<path d="M14.63,131.02c0-2.64,0-5.28,0-8c35.02,0,69.94,0,105.05,0c0,2.66,0,5.33,0,8C84.66,131.02,49.64,131.02,14.63,131.02z"/>
		<path d="M123.72,131.02c0-16.7,0-33.41,0-50.27c2.63,0.54,4.7,1.81,6.11,3.94c0.84,1.26,1.32,2.76,1.97,4.16
			c0,14.06,0,28.12,0,42.18C129.1,131.02,126.41,131.02,123.72,131.02z"/>
		<path d="M71.19,100.71c-7.33,0-14.48,0-21.62,0c-0.16,0-0.32-0.04-0.6-0.07c0-0.66,0-1.27,0-1.89c0-4.46,0-8.92,0-13.38
			c0-2.13-0.68-2.83-2.76-2.83c-2.27-0.01-4.54-0.01-6.81,0c-1.77,0.01-2.53,0.77-2.54,2.54c-0.01,4.71,0,9.42,0,14.14
			c0,0.45,0,0.91,0,1.44c-0.51,0.02-0.92,0.06-1.32,0.06c-6.06,0-12.12,0-18.17,0c-2.12,0-2.72-0.58-2.72-2.66c0-9,0-18.01,0-27.01
			c0-2.03,0.61-2.65,2.6-2.65c17.12,0,34.24,0,51.36,0c1.94,0,2.6,0.64,2.6,2.53c0,9.55,0,19.1,0,28.65
			C71.19,99.9,71.19,100.23,71.19,100.71z"/>
		<path d="M80.01,33.1c8.37,6.68,18.78,6.45,26.88-0.06c0.87,2.45,2.8,4.34,2.71,7.16c-0.11,3.49-0.01,6.98-0.03,10.47
			c-0.05,7.89-6.59,14.93-14.51,15.66c-8.35,0.76-16.28-5-17.47-13.03c-0.49-3.26-0.08-6.64-0.37-9.93
			c-0.31-3.56,0.58-6.7,2.43-9.66C79.74,33.53,79.85,33.36,80.01,33.1z"/>
		<path d="M75.29,100.62c0-7.44,0-14.79,0-22.23c2.83-0.55,5.62-1.11,8.42-1.59c0.28-0.05,0.75,0.27,0.94,0.55
			c4.51,6.92,13,6.91,17.55,0c0.2-0.31,0.82-0.58,1.18-0.52c2.68,0.46,5.35,1.01,8.12,1.56c0,7.38,0,14.76,0,22.23
			C99.48,100.62,87.44,100.62,75.29,100.62z"/>
		<path d="M67.15,118.81c0-4.5,0-8.91,0-13.33c0-0.2,0.03-0.4,0.05-0.66c17.47,0,34.87,0,52.37,0c0,4.62,0,9.26,0,13.99
			C102.17,118.81,84.74,118.81,67.15,118.81z"/>
		<path d="M74.81,34.46c-3.25-4.55-2.66-9.88,1.22-12.84c3.44-2.63,9.84-2.76,13.74,3.36c1.04-0.69,2.07-1.38,3.2-2.13
			c-1.8-3.23-4.49-5.26-8.09-6.47c2.48-1.63,5.04-2.3,7.73-2.49c2.64-0.19,5.19,0.3,7.61,1.4c2.06,0.94,4.16,1.82,6.17,2.85
			c5.57,2.84,8.09,9.3,5.96,15.11c-0.1,0.27-0.23,0.52-0.44,0.99c-0.79-1.57-1.51-2.98-2.22-4.39c-1.07-2.12-2.08-2.38-3.95-0.96
			c-2.58,1.96-5.13,3.93-8.4,4.69c-4.78,1.11-9.17,0.3-13.21-2.45c-1.18-0.8-2.29-1.72-3.45-2.55c-1.38-0.98-2.53-0.71-3.32,0.8
			C76.51,31.01,75.7,32.67,74.81,34.46z"/>
		<path d="M44.84,118.84c-1.33,0-2.57,0-3.88,0c0-10.72,0-21.39,0-32.16c1.24,0,2.52,0,3.88,0
			C44.84,97.34,44.84,108.03,44.84,118.84z"/>
		<path d="M55.12,104.75c2.48,0,4.87,0,7.26,0c0.2,0,0.4,0.03,0.73,0.05c0,2.36,0,4.66,0,6.96c0,2.31,0,4.62,0,7.03
			c-2.66,0-5.28,0-7.99,0C55.12,114.19,55.12,109.55,55.12,104.75z"/>
		<path d="M87.36,69.45c4.11,1.22,8.04,1.23,12.23-0.04c-0.14,1.73-0.04,3.36-0.43,4.85c-0.74,2.86-3.67,4.59-6.65,4.19
			c-2.89-0.39-5.12-2.97-5.15-5.95C87.35,71.54,87.36,70.58,87.36,69.45z"/>
		<path d="M119.48,100.65c-1.17,0-2.42,0-3.75,0c0-7.12,0-14.23,0-21.46c1.2,0.21,2.35,0.39,3.48,0.65c0.2,0.05,0.45,0.48,0.45,0.74
			c0.01,6.64,0,13.28-0.02,19.91C119.63,100.53,119.58,100.56,119.48,100.65z"/>
		<path d="M74.39,39.79c0,2.92,0,5.75,0,8.59c-2.27,0.22-4.27-1.6-4.43-3.98C69.79,41.97,71.67,39.95,74.39,39.79z"/>
		<path d="M112.45,39.84c2.44-0.04,4.37,1.82,4.42,4.22c0.05,2.42-1.87,4.37-4.42,4.39C112.45,45.58,112.45,42.71,112.45,39.84z"/>
		<path d="M49.06,104.81c0.66,0,1.23,0,1.87,0c0,4.69,0,9.33,0,14.03c-0.64,0-1.21,0-1.87,0C49.06,114.19,49.06,109.55,49.06,104.81
			z"/>
	</g>
</g>
</svg>
