<?xml version="1.0" encoding="utf-8"?>
<!-- Generator: Adobe Illustrator 25.2.3, SVG Export Plug-In . SVG Version: 6.00 Build 0)  -->
<svg version="1.1" id="Calque_19" xmlns="http://www.w3.org/2000/svg" xmlns:xlink="http://www.w3.org/1999/xlink" x="0px" y="0px"
	 viewBox="0 0 150 150" style="enable-background:new 0 0 150 150;" xml:space="preserve">
<style type="text/css">
	.st0{fill:#040404;}
	.st1{fill:#F6F6F6;}
	.st2{fill:#F4C951;}
	.st3{fill:#FB6C83;}
	.st4{fill:#6FD5F8;}
	.st5{fill:#EBF2FA;}
	.st6{fill:#F7CEB2;}
	.st7{fill:#808081;}
	.st8{fill:#85CE46;}
	.st9{fill:#0A0A0A;}
	.st10{fill:#040604;}
	.st11{fill:#010101;}
	.st12{fill:#070605;}
	.st13{fill:#E7EEF6;}
</style>
<g id="ovfB5y.tif">
	<g>
		<path class="st0" d="M27.02,117.22c0.41-0.6,0.27-1.3,0.33-1.95c0.48-5.93,0.93-11.87,1.39-17.81c0.28-3.66,2.28-5.95,5.85-6.81
			c3.48-0.84,6.96-1.72,10.42-2.63c2.03-0.54,3.82-1.64,5.64-2.64c1.33-0.73,2.04-2.87,1.62-4.3c-0.07-0.24-0.25-0.34-0.43-0.46
			c-3.54-2.43-5.74-5.74-6.51-9.97c-0.08-0.45-0.25-0.66-0.76-0.71c-2.83-0.26-4.89-1.7-5.9-4.35c-1-2.63-0.51-5.09,1.41-7.19
			c0.31-0.34,0.37-0.68,0.37-1.1c-0.01-1.71-0.01-3.43,0-5.15c0.07-8.98,6.87-15.76,15.86-15.78c1.87,0,3.75-0.18,5.61,0.15
			c2.04,0.37,3.74,1.37,5.09,2.91c0.35,0.4,0.62,0.59,1.16,0.32c0.64-0.33,1.36-0.48,2.07-0.53c0.48-0.04,0.61-0.19,0.63-0.67
			c0.07-2.23,1.08-3.17,3.36-3.17c8.28,0,16.56,0,24.84,0.01c0.52,0,0.87-0.03,1.13-0.64c2.09-4.91,7.07-7.88,12.11-7.3
			c5.4,0.62,9.47,4.42,10.5,9.79c0.02,0.13,0.03,0.24,0.18,0.28c0,1.18,0,2.37,0,3.55c-0.33,0.22-0.25,0.61-0.33,0.92
			c-0.63,2.53-1.94,4.65-3.95,6.3c-0.55,0.45-0.73,0.89-0.73,1.57c0.02,16.03,0.01,32.05,0.01,48.08c0,2.67-0.98,3.63-3.68,3.63
			c-7.03,0-14.06-0.01-21.09,0c-1.37,0-1.25-0.26-1.14,1.26c0.39,5.1,0.8,10.19,1.24,15.28c0.26,2.98-0.2,3.95-2.58,5.09
			c-20.37,0-40.74,0-61.11,0c-1.23-0.52-2.11-1.39-2.62-2.62C27.02,119.46,27.02,118.34,27.02,117.22z M116.09,50.02
			c-2.28,0.99-4.54,1.33-6.86,0.92c-6.43-1.13-10.53-6.91-9.86-12.8c0.07-0.65-0.02-0.91-0.79-0.9c-4.93,0.04-9.87,0.02-14.8,0.02
			c-3.25,0-6.5-0.01-9.74,0c-1.05,0-1.28,0.24-1.29,1.27c-0.01,0.81,0.02,1.62,0.02,2.43c0,19.08,0,38.15,0,57.23
			c0,1.33,0.13,1.45,1.44,1.46c6.03,0.05,12.05-0.02,18.08,0.07c7.37,0.11,14.74,0.03,22.11,0.02c1.52,0,1.7-0.18,1.7-1.72
			c0-15.65,0-31.3,0-46.95C116.09,50.77,116.09,50.46,116.09,50.02z M70.86,90.86c-0.32,0.29-0.46,0.41-0.6,0.53
			c-3.7,3.18-7.95,4.44-12.78,3.59c-3.72-0.65-6.75-2.51-9.09-5.46c-0.38-0.49-0.66-0.58-1.21-0.31c-0.61,0.3-1.27,0.51-1.93,0.68
			c-3.47,0.89-6.95,1.76-10.43,2.62c-2.49,0.62-3.86,2.1-4.15,4.66c-0.17,1.55-0.25,3.11-0.37,4.66
			c-0.46,5.84-0.93,11.68-1.38,17.52c-0.1,1.32,0.55,1.97,1.88,1.98c2.25,0.01,4.5-0.02,6.75,0.02c0.7,0.01,0.94-0.12,0.93-0.89
			c-0.04-4.33-0.02-8.67-0.02-13c0-0.22-0.01-0.44,0-0.65c0.02-0.58,0.32-0.97,0.91-0.98c0.64-0.01,0.95,0.39,0.96,1.02
			c0.01,0.22,0,0.44,0,0.65c0,4.33,0.02,8.67-0.02,13c-0.01,0.72,0.2,0.85,0.88,0.85c12.81-0.02,25.61-0.02,38.42,0
			c0.74,0,0.85-0.22,0.85-0.89c-0.03-4.36-0.02-8.73-0.01-13.09c0-0.25-0.02-0.5,0.02-0.75c0.08-0.49,0.38-0.79,0.88-0.81
			c0.55-0.02,0.87,0.3,0.96,0.83c0.04,0.24,0.02,0.5,0.02,0.75c0,4.4,0.01,8.79-0.01,13.19c0,0.61,0.16,0.78,0.77,0.77
			c2.25-0.04,4.5,0,6.75-0.02c1.21-0.01,1.86-0.71,1.77-1.9c-0.44-5.65-0.91-11.31-1.33-16.96c-0.05-0.71-0.28-0.84-0.94-0.84
			c-5.03,0.03-10.06-0.01-15.09,0.03c-1.87,0.02-3.51-1.13-3.4-3.4C70.95,95.87,70.86,93.47,70.86,90.86z M70.86,65.67
			c0-3.21-0.03-6.42,0.02-9.63c0.01-0.74-0.21-1.01-0.93-1.14c-2.36-0.43-4.53-1.32-6.38-2.87c-0.51-0.42-0.73-0.3-1.1,0.12
			c-1.45,1.62-3.17,2.87-5.19,3.73c-3.01,1.28-6.12,1.56-9.33,1.1c-0.72-0.1-0.97,0.08-0.95,0.83c0.05,1.78,0,3.55,0.02,5.33
			c0.01,2.27-0.22,4.59,0.12,6.81c0.85,5.48,4.06,9.2,9.4,10.73c5.39,1.54,10.04-0.02,13.84-4.12c0.36-0.39,0.48-0.82,0.48-1.35
			C70.85,72.02,70.86,68.84,70.86,65.67z M42.36,56.71c0.62-0.15,1.1-0.28,1.59-0.37c0.63-0.11,1.21-0.16,1.59-0.87
			c0.32-0.59,1.03-0.63,1.68-0.54c0.52,0.07,1.05,0.16,1.57,0.22c4.94,0.54,9.18-0.79,12.52-4.59c1.15-1.31,1.91-1.34,3.23-0.18
			c1.61,1.41,3.54,2.17,5.6,2.65c0.38,0.09,0.73,0.13,0.73-0.48c-0.02-3.65-0.01-7.29,0-10.94c0-0.43-0.15-0.54-0.56-0.46
			c-0.77,0.15-1.53,0.33-2.2,0.75c-0.8,0.5-1.34,0.35-1.87-0.45c-1.14-1.73-2.78-2.78-4.82-3.09c-1.76-0.27-3.56-0.14-5.33-0.09
			c-5.87,0.14-10.04,2.93-12.59,8.19C41.93,49.71,42.42,53.2,42.36,56.71z M111.1,49.12c5.6,0.01,10.03-4.36,10.02-9.9
			c0-5.46-4.48-9.93-9.95-9.94c-5.52,0-9.92,4.38-9.93,9.89C101.24,44.71,105.6,49.11,111.1,49.12z M49.71,88
			c0.06,0.15,0.07,0.21,0.1,0.25c4.88,6.6,15.44,6.77,20.59,0.36c0.43-0.54,0.24-0.7-0.25-0.91c-2.3-0.95-3.71-2.58-3.82-5.14
			c-0.03-0.64-0.31-0.5-0.71-0.35c-1.88,0.72-3.82,1-5.84,0.97c-1.92-0.02-3.72-0.52-5.55-1.17C54.21,85.17,52.46,86.99,49.71,88z
			 M45.03,63.15c0-1.46-0.01-2.93,0.01-4.39c0.01-0.43-0.08-0.58-0.57-0.54c-2.38,0.19-4.32,2.31-4.34,4.81
			c-0.02,2.53,1.93,4.79,4.27,5c0.48,0.04,0.66-0.05,0.65-0.57C45.01,66.02,45.03,64.59,45.03,63.15z M70.87,78.94
			c-0.86,0.64-1.6,1.2-2.35,1.74c-0.13,0.09-0.24,0.17-0.29,0.33c-0.56,1.65,0.46,3.89,2.07,4.65c0.49,0.23,0.58,0.11,0.57-0.37
			C70.86,83.22,70.87,81.14,70.87,78.94z"/>
		<path class="st1" d="M27.02,120.58c0.51,1.23,1.39,2.1,2.62,2.62c-0.87,0-2.09,0.34-2.53-0.1
			C26.68,122.67,27.02,121.46,27.02,120.58z"/>
		<path class="st2" d="M40.61,34.48c0.49,1.66,1.48,2.61,3.23,3.07c-1.76,0.45-2.73,1.39-3.2,3.01c-0.55-1.55-1.43-2.59-3.3-2.98
			C39.14,37.12,40.15,36.16,40.61,34.48z"/>
		<path class="st3" d="M40.57,78.86c0.98-0.35,1.52-1.03,1.9-2.03c0.38,1,0.96,1.67,2.11,2c-1.11,0.42-1.78,1-2.1,2.09
			C42.1,79.91,41.55,79.23,40.57,78.86z"/>
		<path class="st4" d="M47.91,31.35c-0.6-0.03-0.96-0.48-1.01-1.19c-0.04-0.59,0.62-1.21,1.21-1.2c0.58,0.01,1.19,0.64,1.19,1.24
			C49.3,30.83,48.75,31.34,47.91,31.35z"/>
		<path class="st5" d="M116.09,50.02c0,0.44,0,0.75,0,1.06c0,15.65,0,31.3,0,46.95c0,1.54-0.18,1.72-1.7,1.72
			c-7.37,0-14.74,0.08-22.11-0.02c-6.03-0.09-12.05-0.02-18.08-0.07c-1.31-0.01-1.44-0.13-1.44-1.46c0-19.08,0-38.15,0-57.23
			c0-0.81-0.02-1.62-0.02-2.43c0.01-1.03,0.24-1.26,1.29-1.27c3.25-0.01,6.5,0,9.74,0c4.93,0,9.87,0.02,14.8-0.02
			c0.77-0.01,0.87,0.25,0.79,0.9c-0.67,5.89,3.42,11.67,9.86,12.8C111.54,51.35,113.81,51.02,116.09,50.02z M96.67,84.16
			c-3.87,0-7.74,0-11.6,0c-0.31,0-0.63,0.01-0.92,0.08c-0.46,0.11-0.67,0.47-0.65,0.91c0.02,0.43,0.26,0.77,0.73,0.85
			c0.27,0.04,0.56,0.04,0.84,0.04c7.67,0,15.35,0,23.02,0c0.28,0,0.56,0,0.84-0.04c0.47-0.07,0.71-0.41,0.73-0.84
			c0.03-0.44-0.19-0.8-0.64-0.91c-0.3-0.07-0.61-0.09-0.92-0.09C104.28,84.15,100.47,84.16,96.67,84.16z M96.55,71.82
			c3.96,0,7.92,0,11.89,0c0.68,0,1.22-0.21,1.2-0.97c-0.02-0.69-0.54-0.92-1.18-0.92c-0.12,0-0.25,0-0.37,0c-7.67,0-15.35,0-23.02,0
			c-0.34,0-0.68-0.03-1.02,0.1c-0.36,0.15-0.54,0.43-0.57,0.79c-0.03,0.37,0.14,0.67,0.46,0.86c0.31,0.18,0.67,0.13,1.01,0.13
			C88.82,71.82,92.69,71.82,96.55,71.82z M96.54,62.34c3.84,0,7.67,0,11.51,0c0.34,0,0.69-0.02,1.01-0.11
			c0.41-0.11,0.6-0.46,0.58-0.86c-0.02-0.43-0.24-0.78-0.71-0.87c-0.24-0.04-0.5-0.04-0.74-0.04c-7.77,0-15.54,0-23.3,0
			c-0.19,0-0.37,0-0.56,0.02c-0.51,0.05-0.81,0.36-0.84,0.84c-0.04,0.54,0.27,0.88,0.8,0.99c0.27,0.05,0.56,0.04,0.84,0.04
			C88.93,62.34,92.74,62.34,96.54,62.34z M96.57,74.72c-3.97,0-7.93,0.01-11.9-0.01c-0.66,0-1.15,0.22-1.17,0.91
			c-0.02,0.68,0.46,0.97,1.12,0.97c0.09,0,0.19,0,0.28,0c7.78,0,15.56,0,23.33,0c0.72,0,1.41-0.12,1.4-0.98
			c-0.01-0.89-0.75-0.91-1.44-0.91C104.32,74.73,100.44,74.72,96.57,74.72z M96.5,67.07c4,0,8,0,12,0c0.66,0,1.14-0.26,1.14-0.94
			c0-0.68-0.48-0.96-1.14-0.94c-0.5,0.01-1,0-1.5,0c-7.25,0-14.49,0-21.74,0c-0.19,0-0.38,0.01-0.56,0
			c-0.65-0.04-1.16,0.21-1.19,0.89c-0.03,0.74,0.49,0.99,1.19,0.99C88.62,67.07,92.56,67.07,96.5,67.07z M96.47,81.29
			c3.94,0,7.87-0.01,11.81,0.01c0.69,0,1.33-0.11,1.35-0.92c0.02-0.8-0.59-0.96-1.3-0.96c-7.84,0.01-15.68,0.01-23.52,0
			c-0.71,0-1.32,0.16-1.3,0.96c0.02,0.81,0.66,0.92,1.35,0.92C88.73,81.29,92.6,81.29,96.47,81.29z M94.41,54.86
			c0.62,0,1.25,0,1.87,0c1.44,0,2.87,0,4.31,0c0.71,0,1.4-0.08,1.4-0.98c0-0.84-0.67-0.93-1.34-0.91c-0.28,0.01-0.56,0-0.84,0
			c-3.84,0-7.68,0-11.52,0c-0.44,0-0.88,0-1.14,0.46c-0.19,0.33-0.18,0.65,0.03,0.97c0.28,0.43,0.71,0.45,1.16,0.45
			C90.35,54.85,92.38,54.86,94.41,54.86z M79.87,71.82c0.69,0.04,1.29-0.14,1.28-0.96c-0.02-0.75-0.61-0.92-1.27-0.92
			c-0.69,0-1.31,0.16-1.29,0.99C78.6,71.7,79.2,71.84,79.87,71.82z M79.88,60.46c-0.66-0.03-1.26,0.1-1.29,0.88
			c-0.02,0.83,0.59,0.99,1.28,1c0.66,0,1.25-0.16,1.28-0.91C81.17,60.61,80.57,60.42,79.88,60.46z M79.85,86.04
			c0.66,0.05,1.29-0.11,1.3-0.93c0.01-0.75-0.57-0.95-1.23-0.95c-0.68,0-1.31,0.12-1.33,0.95C78.58,85.88,79.15,86.06,79.85,86.04z
			 M79.93,76.6c0.61,0.03,1.19-0.19,1.21-0.92c0.03-0.81-0.58-0.98-1.29-0.97c-0.66,0.01-1.25,0.12-1.26,0.9
			C78.57,76.43,79.18,76.61,79.93,76.6z M79.87,65.2c-0.68-0.04-1.26,0.14-1.28,0.9c-0.02,0.82,0.58,0.98,1.29,0.98
			c0.68,0.01,1.25-0.17,1.27-0.91C81.16,65.37,80.57,65.15,79.87,65.2z M79.86,81.3c0.64,0.06,1.26-0.11,1.29-0.92
			c0.02-0.74-0.51-0.97-1.21-0.97c-0.68,0-1.32,0.09-1.34,0.92C78.57,81.09,79.11,81.32,79.86,81.3z"/>
		<path class="st4" d="M70.86,90.86c0,2.62,0.09,5.01-0.03,7.39c-0.11,2.27,1.54,3.42,3.4,3.4c5.03-0.04,10.06,0,15.09-0.03
			c0.66,0,0.89,0.13,0.94,0.84c0.42,5.66,0.89,11.31,1.33,16.96c0.09,1.19-0.56,1.89-1.77,1.9c-2.25,0.02-4.5-0.02-6.75,0.02
			c-0.61,0.01-0.77-0.15-0.77-0.77c0.03-4.4,0.01-8.79,0.01-13.19c0-0.25,0.02-0.5-0.02-0.75c-0.09-0.53-0.41-0.84-0.96-0.83
			c-0.5,0.01-0.8,0.32-0.88,0.81c-0.04,0.24-0.02,0.5-0.02,0.75c0,4.36-0.02,8.73,0.01,13.09c0,0.66-0.11,0.89-0.85,0.89
			c-12.81-0.03-25.61-0.02-38.42,0c-0.68,0-0.89-0.13-0.88-0.85c0.04-4.33,0.02-8.67,0.02-13c0-0.22,0-0.44,0-0.65
			c-0.02-0.62-0.32-1.03-0.96-1.02c-0.59,0.01-0.89,0.39-0.91,0.98c-0.01,0.22,0,0.44,0,0.65c0,4.33-0.02,8.67,0.02,13
			c0.01,0.77-0.24,0.91-0.93,0.89c-2.25-0.04-4.5-0.01-6.75-0.02c-1.33-0.01-1.98-0.66-1.88-1.98c0.45-5.84,0.92-11.68,1.38-17.52
			c0.12-1.55,0.2-3.11,0.37-4.66c0.29-2.56,1.66-4.04,4.15-4.66c3.48-0.86,6.96-1.73,10.43-2.62c0.66-0.17,1.32-0.38,1.93-0.68
			c0.55-0.27,0.83-0.18,1.21,0.31c2.34,2.95,5.37,4.8,9.09,5.46c4.82,0.85,9.08-0.4,12.78-3.59C70.4,91.27,70.54,91.14,70.86,90.86z
			"/>
		<path class="st6" d="M70.86,65.67c0,3.18-0.01,6.36,0.01,9.54c0,0.53-0.11,0.96-0.48,1.35c-3.8,4.11-8.46,5.67-13.84,4.12
			c-5.33-1.53-8.55-5.25-9.4-10.73c-0.34-2.22-0.11-4.54-0.12-6.81c-0.01-1.78,0.03-3.55-0.02-5.33c-0.02-0.75,0.23-0.93,0.95-0.83
			c3.2,0.46,6.32,0.18,9.33-1.1c2.01-0.86,3.74-2.11,5.19-3.73c0.37-0.42,0.59-0.54,1.1-0.12c1.85,1.55,4.03,2.44,6.38,2.87
			c0.72,0.13,0.94,0.4,0.93,1.14C70.84,59.25,70.86,62.46,70.86,65.67z M60.23,75.43c2.52-0.1,4.55-1.09,6.08-3.06
			c0.43-0.56,0.76-1.17,0.03-1.69c-0.68-0.49-1.12-0.03-1.54,0.52c-2.42,3.15-6.7,3.14-9.1-0.03c-0.41-0.55-0.87-1-1.54-0.48
			c-0.64,0.5-0.4,1.1,0.01,1.64C55.69,74.37,57.75,75.35,60.23,75.43z M66.66,65.41c0.94,0,1.65-0.72,1.65-1.66
			c0-0.92-0.73-1.68-1.63-1.71c-0.92-0.02-1.75,0.8-1.72,1.73C64.98,64.69,65.74,65.41,66.66,65.41z M55.81,63.7
			c-0.02-0.89-0.82-1.66-1.7-1.65c-0.94,0.01-1.69,0.82-1.64,1.78c0.04,0.93,0.78,1.61,1.73,1.58
			C55.12,65.37,55.84,64.61,55.81,63.7z"/>
		<path class="st7" d="M42.36,56.71c0.06-3.51-0.43-7,1.15-10.26c2.54-5.25,6.72-8.04,12.59-8.19c1.78-0.04,3.57-0.17,5.33,0.09
			c2.04,0.31,3.68,1.36,4.82,3.09c0.52,0.8,1.07,0.95,1.87,0.45c0.67-0.42,1.43-0.6,2.2-0.75c0.41-0.08,0.56,0.03,0.56,0.46
			c-0.01,3.65-0.01,7.29,0,10.94c0,0.61-0.35,0.57-0.73,0.48c-2.05-0.48-3.98-1.24-5.6-2.65c-1.32-1.16-2.08-1.13-3.23,0.18
			c-3.34,3.81-7.58,5.14-12.52,4.59c-0.53-0.06-1.05-0.15-1.57-0.22c-0.65-0.08-1.37-0.05-1.68,0.54c-0.38,0.71-0.96,0.75-1.59,0.87
			C43.46,56.42,42.98,56.56,42.36,56.71z"/>
		<path class="st8" d="M111.1,49.12c-5.5-0.01-9.86-4.41-9.85-9.94c0.01-5.52,4.41-9.9,9.93-9.89c5.47,0,9.94,4.48,9.95,9.94
			C121.12,44.76,116.7,49.13,111.1,49.12z M106.27,36.22c-0.67,0.05-1.55,0.53-2.06,1.59c-0.55,1.14-0.35,2.21,0.49,3.11
			c1.06,1.14,2.18,2.23,3.3,3.31c1.37,1.32,2.92,1.29,4.3-0.06c1.76-1.73,3.5-3.47,5.23-5.22c1.24-1.26,1.31-2.93,0.2-4.09
			c-1.16-1.2-2.84-1.17-4.16,0.1c-0.94,0.91-1.9,1.81-2.77,2.78c-0.53,0.59-0.87,0.57-1.37-0.02
			C108.71,36.92,107.94,36.18,106.27,36.22z"/>
		<path class="st6" d="M49.71,88c2.74-1.01,4.5-2.83,4.51-5.99c1.83,0.65,3.63,1.15,5.55,1.17c2.02,0.03,3.96-0.25,5.84-0.97
			c0.4-0.15,0.68-0.29,0.71,0.35c0.12,2.56,1.53,4.19,3.82,5.14c0.49,0.2,0.68,0.37,0.25,0.91c-5.14,6.41-15.71,6.24-20.59-0.36
			C49.78,88.21,49.77,88.14,49.71,88z"/>
		<path class="st6" d="M45.03,63.15c0,1.43-0.02,2.87,0.01,4.3c0.01,0.52-0.17,0.61-0.65,0.57c-2.35-0.2-4.3-2.47-4.27-5
			c0.02-2.5,1.97-4.62,4.34-4.81c0.5-0.04,0.58,0.11,0.57,0.54C45.02,60.22,45.03,61.69,45.03,63.15z"/>
		<path class="st4" d="M105.38,107.92c-0.07,0.64-0.41,1.09-1.12,1.08c-0.6-0.02-0.8,0.18-0.82,0.8c-0.02,0.7-0.45,1.22-1.18,1.19
			c-0.72-0.03-1.1-0.53-1.04-1.28c0.04-0.53-0.22-0.73-0.73-0.7c-0.76,0.05-1.24-0.35-1.25-1.06c-0.01-0.72,0.52-1.13,1.22-1.15
			c0.54-0.02,0.8-0.15,0.77-0.74c-0.04-0.65,0.31-1.08,0.96-1.16c0.72-0.08,1.18,0.39,1.21,1.02c0.04,0.81,0.33,1.05,1.11,1.03
			C105.04,106.93,105.32,107.36,105.38,107.92z"/>
		<path class="st2" d="M117.55,108.81c-0.78-0.01-1.3-0.54-1.29-1.2c0.01-0.61,0.62-1.2,1.22-1.19c0.6,0.01,1.22,0.63,1.17,1.24
			C118.59,108.39,118.16,108.77,117.55,108.81z"/>
		<path class="st8" d="M98.31,117.05c-0.73-0.06-1.13-0.47-1.17-1.19c-0.03-0.62,0.57-1.2,1.19-1.19c0.61,0,1.23,0.59,1.18,1.21
			C99.47,116.59,99.06,116.99,98.31,117.05z"/>
		<path class="st9" d="M96.67,84.16c3.81,0,7.61,0,11.42,0c0.31,0,0.63,0.01,0.92,0.09c0.45,0.11,0.67,0.47,0.64,0.91
			c-0.03,0.43-0.26,0.77-0.73,0.84c-0.28,0.04-0.56,0.04-0.84,0.04c-7.67,0-15.35,0-23.02,0c-0.28,0-0.56,0-0.84-0.04
			c-0.47-0.07-0.71-0.41-0.73-0.85c-0.02-0.44,0.19-0.8,0.65-0.91c0.3-0.07,0.62-0.08,0.92-0.08C88.93,84.15,92.8,84.16,96.67,84.16
			z"/>
		<path class="st9" d="M96.55,71.82c-3.87,0-7.74,0-11.6,0c-0.34,0-0.7,0.05-1.01-0.13c-0.32-0.19-0.49-0.49-0.46-0.86
			c0.03-0.36,0.21-0.64,0.57-0.79c0.33-0.14,0.67-0.1,1.02-0.1c7.67,0,15.35,0,23.02,0c0.12,0,0.25,0,0.37,0
			c0.63,0,1.16,0.23,1.18,0.92c0.02,0.75-0.52,0.97-1.2,0.97C104.48,71.82,100.52,71.82,96.55,71.82z"/>
		<path class="st9" d="M96.54,62.34c-3.81,0-7.61,0-11.42,0c-0.28,0-0.57,0.02-0.84-0.04c-0.53-0.1-0.84-0.45-0.8-0.99
			c0.04-0.48,0.33-0.8,0.84-0.84c0.19-0.02,0.37-0.02,0.56-0.02c7.77,0,15.54,0,23.3,0c0.25,0,0.5,0,0.74,0.04
			c0.47,0.09,0.69,0.43,0.71,0.87c0.02,0.39-0.17,0.75-0.58,0.86c-0.32,0.09-0.67,0.11-1.01,0.11
			C104.22,62.34,100.38,62.34,96.54,62.34z"/>
		<path class="st10" d="M96.57,74.72c3.87,0,7.75,0.01,11.62-0.01c0.7,0,1.43,0.02,1.44,0.91c0.01,0.86-0.68,0.98-1.4,0.98
			c-7.78-0.01-15.56,0-23.33,0c-0.09,0-0.19,0-0.28,0c-0.66,0-1.14-0.29-1.12-0.97c0.02-0.69,0.51-0.91,1.17-0.91
			C88.63,74.73,92.6,74.72,96.57,74.72z"/>
		<path class="st11" d="M96.5,67.07c-3.94,0-7.87,0-11.81,0c-0.7,0-1.21-0.25-1.19-0.99c0.02-0.68,0.54-0.93,1.19-0.89
			c0.19,0.01,0.37,0,0.56,0c7.25,0,14.49,0,21.74,0c0.5,0,1,0.01,1.5,0c0.67-0.02,1.14,0.26,1.14,0.94c0,0.68-0.48,0.94-1.14,0.94
			C104.49,67.07,100.49,67.07,96.5,67.07z"/>
		<path class="st11" d="M96.47,81.29c-3.87,0-7.75-0.01-11.62,0.01c-0.69,0-1.33-0.11-1.35-0.92c-0.02-0.81,0.6-0.96,1.3-0.96
			c7.84,0.01,15.68,0.01,23.52,0c0.71,0,1.32,0.16,1.3,0.96c-0.02,0.81-0.66,0.92-1.35,0.92C104.35,81.29,100.41,81.29,96.47,81.29z
			"/>
		<path class="st9" d="M94.41,54.86c-2.03,0-4.06,0-6.09,0c-0.45,0-0.88-0.03-1.16-0.45c-0.2-0.32-0.21-0.64-0.03-0.97
			c0.26-0.46,0.7-0.46,1.14-0.46c3.84,0,7.68,0,11.52,0c0.28,0,0.56,0.01,0.84,0c0.67-0.02,1.34,0.07,1.34,0.91
			c0,0.89-0.69,0.98-1.4,0.98c-1.44-0.01-2.87,0-4.31,0C95.66,54.86,95.03,54.86,94.41,54.86z"/>
		<path class="st9" d="M79.87,71.82c-0.67,0.03-1.27-0.12-1.28-0.9c-0.02-0.83,0.6-0.98,1.29-0.99c0.66,0,1.25,0.17,1.27,0.92
			C81.17,71.67,80.56,71.86,79.87,71.82z"/>
		<path class="st9" d="M79.88,60.46c0.69-0.04,1.3,0.15,1.27,0.97c-0.02,0.75-0.62,0.92-1.28,0.91c-0.69-0.01-1.3-0.17-1.28-1
			C78.61,60.56,79.21,60.43,79.88,60.46z"/>
		<path class="st9" d="M79.85,86.04c-0.7,0.02-1.27-0.15-1.26-0.93c0.01-0.83,0.64-0.95,1.33-0.95c0.67,0,1.24,0.21,1.23,0.95
			C81.14,85.93,80.51,86.08,79.85,86.04z"/>
		<path class="st9" d="M79.93,76.6c-0.76,0.01-1.36-0.17-1.34-0.99c0.02-0.78,0.61-0.89,1.26-0.9c0.71-0.01,1.32,0.16,1.29,0.97
			C81.12,76.41,80.55,76.63,79.93,76.6z"/>
		<path class="st9" d="M79.87,65.2c0.7-0.05,1.29,0.17,1.28,0.97c-0.02,0.74-0.59,0.92-1.27,0.91c-0.7-0.01-1.3-0.16-1.29-0.98
			C78.61,65.34,79.19,65.16,79.87,65.2z"/>
		<path class="st9" d="M79.86,81.3c-0.74,0.02-1.29-0.2-1.27-0.96c0.02-0.83,0.66-0.92,1.34-0.92c0.69,0,1.23,0.23,1.21,0.97
			C81.12,81.18,80.5,81.35,79.86,81.3z"/>
		<path class="st12" d="M60.23,75.43c-2.48-0.08-4.54-1.06-6.06-3.1c-0.41-0.55-0.65-1.15-0.01-1.64c0.67-0.52,1.13-0.07,1.54,0.48
			c2.4,3.17,6.68,3.18,9.1,0.03c0.42-0.54,0.86-1,1.54-0.52c0.73,0.53,0.4,1.13-0.03,1.69C64.78,74.34,62.75,75.33,60.23,75.43z"/>
		<path class="st12" d="M66.66,65.41c-0.92,0-1.68-0.72-1.7-1.63c-0.02-0.92,0.8-1.75,1.72-1.73c0.9,0.02,1.63,0.79,1.63,1.71
			C68.31,64.69,67.6,65.41,66.66,65.41z"/>
		<path class="st12" d="M55.81,63.7c0.02,0.91-0.7,1.67-1.62,1.71c-0.94,0.03-1.69-0.64-1.73-1.58c-0.04-0.96,0.71-1.77,1.64-1.78
			C55,62.04,55.79,62.81,55.81,63.7z"/>
		<path class="st10" d="M106.27,36.22c1.67-0.04,2.45,0.7,3.14,1.51c0.5,0.59,0.84,0.61,1.37,0.02c0.87-0.97,1.83-1.87,2.77-2.78
			c1.32-1.27,3-1.3,4.16-0.1c1.12,1.16,1.05,2.83-0.2,4.09c-1.73,1.75-3.47,3.49-5.23,5.22c-1.38,1.35-2.92,1.38-4.3,0.06
			c-1.12-1.08-2.24-2.17-3.3-3.31c-0.83-0.9-1.04-1.96-0.49-3.11C104.72,36.75,105.6,36.27,106.27,36.22z M110.1,43.31
			c0.3,0,0.55-0.14,0.75-0.34c1.81-1.8,3.63-3.61,5.43-5.42c0.4-0.41,0.5-0.89,0.05-1.32c-0.42-0.4-0.91-0.35-1.35,0.01
			c-0.17,0.14-0.31,0.31-0.47,0.46c-1.17,1.17-2.35,2.33-3.5,3.51c-0.59,0.61-1.14,0.67-1.75,0.01c-0.53-0.57-1.1-1.11-1.65-1.66
			c-0.46-0.45-0.99-0.61-1.48-0.11c-0.46,0.46-0.31,0.95,0.13,1.39c1.02,1.01,2.02,2.04,3.03,3.06
			C109.51,43.13,109.75,43.33,110.1,43.31z"/>
		<path class="st13" d="M110.1,43.31c-0.35,0.02-0.59-0.18-0.81-0.4c-1.01-1.02-2.01-2.05-3.03-3.06c-0.44-0.44-0.59-0.93-0.13-1.39
			c0.49-0.49,1.02-0.34,1.48,0.11c0.56,0.55,1.12,1.08,1.65,1.66c0.61,0.66,1.15,0.59,1.75-0.01c1.16-1.18,2.34-2.34,3.5-3.51
			c0.15-0.15,0.3-0.32,0.47-0.46c0.44-0.36,0.92-0.41,1.35-0.01c0.45,0.43,0.35,0.91-0.05,1.32c-1.8,1.82-3.61,3.62-5.43,5.42
			C110.65,43.17,110.4,43.31,110.1,43.31z"/>
	</g>
</g>
</svg>
