<?xml version="1.0" encoding="utf-8"?>
<!-- Generator: Adobe Illustrator 25.2.3, SVG Export Plug-In . SVG Version: 6.00 Build 0)  -->
<svg version="1.1" id="demande_chequier" xmlns="http://www.w3.org/2000/svg" xmlns:xlink="http://www.w3.org/1999/xlink" x="0px"
	 y="0px" viewBox="0 0 150 150" style="enable-background:new 0 0 150 150;" xml:space="preserve">
<style type="text/css">
	.st0{fill:#EBF0F3;}
	.st1{fill:#54B99D;}
	.st2{fill:#657A8A;}
	.st3{fill:#E56454;}
	.st4{fill:#D6D7DB;}
	.st5{fill:#DC8844;}
	.st6{fill:#FDD562;}
	.st7{fill:#F6C359;}
	.st8{fill:#FFFFFF;}
	.st9{font-family:'MyriadPro-Bold';}
	.st10{font-size:3.3317px;}
</style>
<g>
	<rect x="19.73" y="48.72" class="st0" width="110.85" height="64.35"/>
	<rect x="19.73" y="67.59" class="st1" width="110.85" height="36.4"/>
	<g>
		<rect x="50.11" y="107.19" class="st2" width="50.08" height="2.01"/>
		<rect x="40.71" y="60.45" class="st2" width="38.51" height="2.01"/>
		<rect x="40.71" y="54.4" class="st2" width="27.08" height="2.01"/>
	</g>
	<polygon class="st3" points="34.95,51.07 27.32,51.07 23.51,57.67 27.32,64.28 34.95,64.28 38.76,57.67 	"/>
	<g>
		<rect x="92.51" y="55.34" class="st4" width="4.62" height="7.11"/>
		<rect x="97.74" y="55.34" class="st4" width="4.62" height="7.11"/>
		<rect x="102.97" y="55.34" class="st4" width="4.62" height="7.11"/>
		<rect x="108.2" y="55.34" class="st4" width="4.62" height="7.11"/>
		<rect x="113.43" y="55.34" class="st4" width="4.62" height="7.11"/>
		<rect x="118.65" y="55.34" class="st4" width="4.62" height="7.11"/>
	</g>
	<g>
		<rect x="25.27" y="75.55" class="st0" width="62.32" height="2.01"/>
		<rect x="25.27" y="84.83" class="st0" width="62.32" height="2.01"/>
		<rect x="95.93" y="94" class="st0" width="29.1" height="2.01"/>
		<rect x="95.93" y="75.55" class="st0" width="29.1" height="9.48"/>
	</g>
	
		<rect x="94.25" y="50.61" transform="matrix(0.521 -0.8536 0.8536 0.521 -15.6117 115.6491)" class="st5" width="1.96" height="42.24"/>
	<path class="st2" d="M109.39,59.91c-0.36-0.93-0.17-1.97,0.4-2.78l11.14-15.23c2.16-3.03,1.51-7.38-1.63-9.38
		c-3.19-2.02-7.41-0.87-9.14,2.47l-8.58,17.12c-0.46,0.88-1.3,1.52-2.29,1.63c-2.89,0.31-5.62,1.92-7.25,4.6l16.59,10.12
		C110.25,65.78,110.44,62.63,109.39,59.91z"/>
	<path class="st6" d="M117.96,72.72L83.97,51.98c-1.18-0.72-2.72-0.35-3.44,0.83l-4.22,6.92l38.26,23.35l4.22-6.92
		C119.51,74.98,119.14,73.44,117.96,72.72z"/>
	
		<ellipse transform="matrix(0.521 -0.8536 0.8536 0.521 -10.0329 115.8594)" class="st7" cx="98.21" cy="66.87" rx="3.18" ry="3.18"/>
	<ellipse class="st8" cx="98.21" cy="66.87" rx="2.91" ry="2.91"/>
	<path class="st0" d="M100.51,66.56c-0.05,0.29-0.15,0.58-0.31,0.85c-0.67,1.1-2.11,1.45-3.21,0.78c-0.62-0.38-1-1.01-1.09-1.68
		c-0.14,0.91,0.26,1.85,1.09,2.35c1.1,0.67,2.54,0.32,3.21-0.78C100.49,67.62,100.58,67.08,100.51,66.56z"/>
	<path class="st3" d="M86.46,86.9c-5.28,2.54-7.5,8.89-4.96,14.17c2.54,5.28,8.89,7.5,14.17,4.96c5.27-2.54,7.5-8.89,4.96-14.17
		C98.09,86.59,91.73,84.37,86.46,86.9z M86.8,87.62c4.24-2.04,9.22-0.75,12,2.82l-1.78,0.86c-2.28-2.62-6.11-3.52-9.39-1.95
		c-3.28,1.58-4.97,5.13-4.34,8.55l-1.78,0.86C80.46,94.36,82.57,89.66,86.8,87.62z M84.04,97.54c-0.46-3.01,1.06-6.09,3.94-7.48
		c2.88-1.38,6.24-0.65,8.3,1.58L84.04,97.54z M98.08,95.4c0.46,3.01-1.06,6.09-3.94,7.48c-2.88,1.39-6.24,0.65-8.3-1.58L98.08,95.4z
		 M95.32,105.32c-4.24,2.04-9.22,0.75-12-2.82l1.78-0.86c2.28,2.62,6.11,3.52,9.39,1.95s4.97-5.13,4.34-8.55l1.78-0.86
		C101.66,98.58,99.55,103.28,95.32,105.32z"/>
	<text transform="matrix(0.8768 -0.4193 0.4315 0.9021 83.8167 101.1052)" class="st0 st9 st10">APPROUVÉ</text>
</g>
</svg>
