<?xml version="1.0" encoding="utf-8"?>
<!-- Generator: Adobe Illustrator 25.2.3, SVG Export Plug-In . SVG Version: 6.00 Build 0)  -->
<svg version="1.1" id="Calque_6" xmlns="http://www.w3.org/2000/svg" xmlns:xlink="http://www.w3.org/1999/xlink" x="0px" y="0px"
	 viewBox="0 0 150 150" style="enable-background:new 0 0 150 150;" xml:space="preserve">
<style type="text/css">
	.st0{fill:#F2F2F2;stroke:#383838;stroke-width:0.25;stroke-miterlimit:10;}
	.st1{fill:#EA5044;}
	.st2{fill:#A7A9AB;}
	.st3{fill:#33536F;}
	.st4{fill:#FDC510;}
	.st5{fill:#DDE8F0;}
	.st6{fill:#D3A891;}
	.st7{fill:#DFB79D;}
	.st8{fill:#EDCEB4;}
	.st9{fill:#E6C1A4;}
	.st10{fill:#F6E8E2;}
	.st11{fill:#E8C3A8;}
	.st12{fill:#485651;}
	.st13{fill:#FFFFFF;}
	.st14{fill:#231F20;}
	.st15{fill:#282929;}
	.st16{fill:#323232;}
	.st17{fill:#C49A6C;}
</style>
<g>
	<g>
		<g>
			<polygon class="st0" points="124.97,44.33 121.77,46.64 119.45,43.44 119.43,43.44 116.22,45.76 113.91,42.56 110.71,44.87 
				108.4,41.66 108.33,41.65 105.12,43.97 102.8,40.77 99.83,42.92 97.68,39.94 97.54,39.92 94.42,42.17 92.17,39.06 92.16,39.06 
				81.12,107.83 113.93,113.1 124.97,44.33 			"/>
			<path class="st1" d="M111.1,109.22l-14.17-2.28c-0.28-0.04-0.47-0.31-0.42-0.58l0.65-4.07c0.04-0.28,0.31-0.47,0.58-0.42
				l14.17,2.28c0.28,0.04,0.47,0.31,0.42,0.58l-0.65,4.07C111.64,109.08,111.38,109.27,111.1,109.22z"/>
			
				<rect x="89.14" y="70.47" transform="matrix(0.9873 0.1586 -0.1586 0.9873 12.4447 -14.6022)" class="st2" width="17.13" height="0.4"/>
			
				<rect x="111.25" y="63.62" transform="matrix(0.9873 0.1586 -0.1586 0.9873 11.6305 -17.4983)" class="st3" width="8.39" height="0.99"/>
			
				<rect x="111.58" y="61.62" transform="matrix(0.9873 0.1586 -0.1586 0.9873 11.3169 -17.5746)" class="st3" width="8.39" height="0.99"/>
			
				<rect x="111.9" y="59.62" transform="matrix(0.9873 0.1586 -0.1586 0.9873 11.0033 -17.651)" class="st3" width="8.39" height="0.99"/>
			
				<rect x="112.22" y="57.61" transform="matrix(0.9873 0.1586 -0.1586 0.9873 10.6897 -17.7274)" class="st3" width="8.39" height="0.99"/>
			
				<rect x="112.54" y="55.61" transform="matrix(0.9873 0.1586 -0.1586 0.9873 10.3761 -17.8038)" class="st3" width="8.39" height="0.99"/>
			
				<rect x="112.86" y="53.61" transform="matrix(0.9873 0.1586 -0.1586 0.9873 10.0625 -17.8802)" class="st3" width="8.39" height="0.99"/>
			
				<rect x="92.88" y="57.26" transform="matrix(0.9873 0.1586 -0.1586 0.9873 10.5681 -14.6507)" class="st3" width="8.39" height="3.25"/>
			
				<rect x="93.67" y="51.29" transform="matrix(0.9873 0.1586 -0.1586 0.9873 9.9105 -15.5585)" class="st3" width="17.52" height="6.04"/>
			<path class="st2" d="M90.74,92.67l-3.41-0.55c-0.56-0.09-1.08,0.29-1.17,0.85l-0.42,2.61c-0.09,0.56,0.29,1.08,0.85,1.17
				l3.41,0.55L90.74,92.67z"/>
			<path class="st2" d="M91.62,87.15l-3.41-0.55c-0.56-0.09-1.08,0.29-1.17,0.85l-0.42,2.61c-0.09,0.56,0.29,1.08,0.85,1.17
				l3.41,0.55L91.62,87.15z"/>
			<path class="st2" d="M92.51,81.63l-3.41-0.55c-0.56-0.09-1.08,0.29-1.17,0.85l-0.42,2.61c-0.09,0.56,0.29,1.08,0.85,1.17
				l3.41,0.55L92.51,81.63z"/>
			<path class="st2" d="M93.4,76.11l-3.41-0.55c-0.56-0.09-1.08,0.29-1.17,0.85l-0.42,2.61c-0.09,0.56,0.29,1.08,0.85,1.17
				l3.41,0.55L93.4,76.11z"/>
			
				<rect x="95.92" y="89.15" transform="matrix(0.1586 -0.9873 0.9873 0.1586 -12.352 178.0119)" class="st2" width="4.69" height="14.21"/>
			
				<rect x="104.95" y="96.56" transform="matrix(0.1586 -0.9873 0.9873 0.1586 -6.1857 188.149)" class="st2" width="4.69" height="2.28"/>
			<path class="st2" d="M112.68,96.19l-2.99-0.48l-0.74,4.63l2.99,0.48c0.56,0.09,1.08-0.29,1.17-0.85l0.42-2.61
				C113.61,96.81,113.23,96.28,112.68,96.19z"/>
			
				<rect x="105.84" y="91.04" transform="matrix(0.1586 -0.9873 0.9873 0.1586 0.0112 184.3798)" class="st2" width="4.69" height="2.28"/>
			<path class="st2" d="M113.56,90.67l-2.99-0.48l-0.74,4.63l2.99,0.48c0.56,0.09,1.08-0.29,1.17-0.85l0.42-2.61
				C114.5,91.29,114.12,90.76,113.56,90.67z"/>
			
				<rect x="96.81" y="83.63" transform="matrix(0.1586 -0.9873 0.9873 0.1586 -6.1552 174.2424)" class="st2" width="4.69" height="14.21"/>
			
				<rect x="97.7" y="78.11" transform="matrix(0.1586 -0.9873 0.9873 0.1586 0.0416 170.473)" class="st2" width="4.69" height="14.21"/>
			
				<rect x="106.73" y="85.52" transform="matrix(0.1586 -0.9873 0.9873 0.1586 6.208 180.6104)" class="st2" width="4.69" height="2.28"/>
			<path class="st2" d="M114.45,85.15l-2.99-0.48l-0.74,4.63l2.99,0.48c0.56,0.09,1.08-0.29,1.17-0.85l0.42-2.61
				C115.39,85.77,115.01,85.24,114.45,85.15z"/>
			
				<rect x="98.58" y="72.59" transform="matrix(0.1586 -0.9873 0.9873 0.1586 6.2383 166.7036)" class="st2" width="4.69" height="14.21"/>
			
				<rect x="107.61" y="80" transform="matrix(0.1586 -0.9873 0.9873 0.1586 12.4046 176.8409)" class="st2" width="4.69" height="2.28"/>
			<path class="st2" d="M115.34,79.63l-2.99-0.48l-0.74,4.63l2.99,0.48c0.56,0.09,1.08-0.29,1.17-0.85l0.42-2.61
				C116.27,80.25,115.89,79.72,115.34,79.63z"/>
			
				<rect x="87.2" y="94.13" transform="matrix(0.9873 0.1586 -0.1586 0.9873 16.1274 -12.7983)" class="st3" width="2.1" height="1.02"/>
			
				<rect x="88.08" y="88.61" transform="matrix(0.9873 0.1586 -0.1586 0.9873 15.263 -13.0088)" class="st3" width="2.1" height="1.02"/>
			
				<rect x="88.97" y="83.09" transform="matrix(0.9873 0.1586 -0.1586 0.9873 14.3987 -13.2193)" class="st3" width="2.1" height="1.02"/>
			
				<rect x="92.63" y="95.44" transform="matrix(0.9873 0.1586 -0.1586 0.9873 16.4378 -14.0727)" class="st3" width="7.52" height="1.02"/>
			
				<rect x="93.49" y="90.23" transform="matrix(0.9873 0.1586 -0.1586 0.9873 15.6464 -14.5829)" class="st3" width="11.39" height="1.02"/>
			
				<rect x="94.42" y="84.22" transform="matrix(0.9873 0.1586 -0.1586 0.9873 14.6662 -14.3172)" class="st3" width="5.23" height="1.02"/>
			
				<rect x="95.27" y="79.1" transform="matrix(0.9873 0.1586 -0.1586 0.9873 13.8966 -14.9168)" class="st3" width="10.27" height="1.02"/>
			
				<rect x="89.86" y="77.57" transform="matrix(0.9873 0.1586 -0.1586 0.9873 13.5344 -13.4298)" class="st3" width="2.1" height="1.02"/>
			<path class="st4" d="M105.1,75.61L105.1,75.61c-0.23-0.04-0.39-0.26-0.35-0.49l0.21-1.3c0.04-0.23,0.26-0.39,0.49-0.35l0,0
				c0.23,0.04,0.39,0.26,0.35,0.49l-0.21,1.3C105.55,75.49,105.33,75.64,105.1,75.61z"/>
			<path class="st4" d="M103.55,75.36L103.55,75.36c-0.23-0.04-0.39-0.26-0.35-0.49l0.21-1.3c0.04-0.23,0.26-0.39,0.49-0.35l0,0
				c0.23,0.04,0.39,0.26,0.35,0.49l-0.21,1.3C104,75.24,103.78,75.39,103.55,75.36z"/>
			<path class="st4" d="M100.45,74.86L100.45,74.86c-0.23-0.04-0.39-0.26-0.35-0.49l0.21-1.3c0.04-0.23,0.26-0.39,0.49-0.35l0,0
				c0.23,0.04,0.39,0.26,0.35,0.49l-0.21,1.3C100.9,74.74,100.68,74.9,100.45,74.86z"/>
			<path class="st4" d="M98.9,74.61L98.9,74.61c-0.23-0.04-0.39-0.26-0.35-0.49l0.21-1.3c0.04-0.23,0.26-0.39,0.49-0.35h0
				c0.23,0.04,0.39,0.26,0.35,0.49l-0.21,1.3C99.35,74.49,99.13,74.65,98.9,74.61z"/>
			
				<rect x="97.36" y="71.22" transform="matrix(0.8232 0.5677 -0.5677 0.8232 58.8413 -42.4046)" class="st4" width="0.31" height="4.13"/>
			<path class="st4" d="M95.79,74.11L95.79,74.11c-0.23-0.04-0.39-0.26-0.35-0.49l0.21-1.3c0.04-0.23,0.26-0.39,0.49-0.35l0,0
				c0.23,0.04,0.39,0.26,0.35,0.49l-0.21,1.3C96.24,73.99,96.03,74.15,95.79,74.11z"/>
			<path class="st4" d="M94.24,73.86L94.24,73.86c-0.23-0.04-0.39-0.26-0.35-0.49l0.21-1.3c0.04-0.23,0.26-0.39,0.49-0.35l0,0
				c0.23,0.04,0.39,0.26,0.35,0.49l-0.21,1.3C94.69,73.74,94.47,73.9,94.24,73.86z"/>
			<path class="st4" d="M92.69,73.61L92.69,73.61c-0.23-0.04-0.39-0.26-0.35-0.49l0.21-1.3c0.04-0.23,0.26-0.39,0.49-0.35h0
				c0.23,0.04,0.39,0.26,0.35,0.49l-0.21,1.3C93.14,73.49,92.92,73.65,92.69,73.61z"/>
			<path class="st4" d="M91.14,73.36L91.14,73.36c-0.23-0.04-0.39-0.26-0.35-0.49l0.21-1.3c0.04-0.23,0.26-0.39,0.49-0.35h0
				c0.23,0.04,0.39,0.26,0.35,0.49l-0.21,1.3C91.59,73.24,91.37,73.4,91.14,73.36z"/>
			
				<rect x="102.03" y="71.97" transform="matrix(0.8232 0.5677 -0.5677 0.8232 60.0922 -44.9224)" class="st4" width="0.31" height="4.13"/>
		</g>
		<g>
			<path class="st5" d="M64.09,70.21c0,0-1.2-6.13-4.23-2.31s-1.89,23.91-1.89,23.91S63.84,87.04,64.09,70.21z"/>
			<path class="st5" d="M50.5,90.24c2.36-3.99,5.19-11.14,6.08-23.15c0,0-0.1-0.74-0.36-1.64c-0.59-2.07-2.01-4.98-4.96-1.69
				c-0.15,0.17-0.29,0.36-0.43,0.58c-2.44,3.82-3.35,15.21-3.69,22.89c-0.19,4.3-0.2,7.45-0.2,7.45S48.57,93.51,50.5,90.24z"/>
			<path class="st6" d="M85.8,78.7l-0.85,5.27c0,0-0.01,0-0.01-0.01c0,0-0.01,0-0.01-0.01c-0.01,0-0.01-0.01-0.01-0.01
				c-0.01-0.01-0.03-0.02-0.04-0.03c-0.01-0.01-0.02-0.01-0.02-0.02c-0.01-0.01-0.03-0.02-0.04-0.03c0,0,0,0,0,0
				c0,0-0.01-0.01-0.01-0.01c-0.01-0.01-0.02-0.01-0.03-0.02c0,0,0,0,0,0c0,0,0,0-0.01,0c0,0-0.01,0-0.01-0.01
				c-0.01-0.01-0.01-0.01-0.02-0.02c-0.01,0-0.01-0.01-0.02-0.01c-0.01,0-0.01-0.01-0.02-0.01c-0.01,0-0.01-0.01-0.02-0.01
				c0,0,0,0,0,0c0,0,0,0,0,0c0,0,0,0,0,0c-0.01-0.01-0.03-0.02-0.04-0.03c0,0-0.01-0.01-0.01-0.01c0,0-0.01,0-0.01-0.01
				c-0.01-0.01-0.02-0.01-0.03-0.02c0,0-0.01-0.01-0.02-0.01c-0.01,0-0.01-0.01-0.01-0.01c0,0,0,0,0,0
				c-0.01-0.01-0.02-0.02-0.03-0.03c-0.01-0.01-0.02-0.01-0.03-0.02c0,0,0,0-0.01-0.01c0,0-0.01-0.01-0.01-0.01
				c-0.01-0.01-0.01-0.01-0.02-0.02c0,0,0,0-0.01-0.01c-0.01-0.01-0.03-0.02-0.04-0.04c0,0,0,0,0,0c-0.01-0.01-0.03-0.02-0.04-0.04
				c0,0,0,0,0,0c-0.01-0.01-0.02-0.02-0.03-0.03c-0.01-0.01-0.02-0.02-0.04-0.04c0,0,0,0,0,0c-0.01-0.01-0.03-0.03-0.04-0.04
				c-0.01-0.01-0.02-0.02-0.02-0.02c0,0-0.01-0.01-0.01-0.01c-0.01-0.01-0.01-0.01-0.02-0.02c0,0,0,0,0,0
				c-0.01-0.01-0.01-0.01-0.02-0.02c0,0,0,0,0,0c-0.01-0.01-0.02-0.02-0.02-0.03c0,0,0,0,0,0c0,0-0.01-0.01-0.01-0.01
				c-0.01-0.01-0.02-0.02-0.02-0.03c0,0,0,0,0,0c0,0,0-0.01-0.01-0.01c0,0,0,0-0.01-0.01c0-0.01-0.01-0.01-0.01-0.02c0,0,0,0,0,0
				c0,0,0,0,0,0l0,0c-0.01-0.01-0.01-0.02-0.02-0.03c0,0,0-0.01-0.01-0.01c0,0,0,0,0,0c-0.01-0.01-0.02-0.03-0.03-0.04
				c-0.01-0.01-0.01-0.02-0.02-0.02c0-0.01-0.01-0.01-0.01-0.02c-0.01-0.01-0.02-0.03-0.03-0.04c0,0,0,0,0,0
				c0-0.01-0.01-0.01-0.01-0.02c0-0.01-0.01-0.01-0.01-0.02c0,0,0,0,0,0c-0.01-0.01-0.02-0.02-0.02-0.03
				c-0.02-0.03-0.04-0.07-0.06-0.1c-0.01-0.01-0.01-0.02-0.02-0.03c0,0,0,0,0,0c0-0.01-0.01-0.01-0.01-0.02
				c0-0.01-0.01-0.01-0.01-0.02c0,0,0,0,0,0c-0.01-0.01-0.02-0.03-0.02-0.04l0,0c-0.01-0.01-0.01-0.03-0.02-0.04c0,0,0,0,0,0
				c0,0,0,0,0,0c0,0,0,0,0-0.01c-0.01-0.01-0.01-0.02-0.02-0.03c-0.01-0.01-0.01-0.03-0.02-0.04l0,0c-0.01-0.01-0.01-0.02-0.01-0.03
				c0,0,0,0,0-0.01c0,0,0,0,0,0c0,0,0-0.01-0.01-0.01c0-0.01-0.01-0.02-0.01-0.03c0,0,0,0,0,0c-0.01-0.01-0.01-0.03-0.02-0.04l0,0
				c0,0,0,0,0,0c0,0,0,0,0-0.01c0,0,0-0.01,0-0.01c0,0,0-0.01,0-0.01c0,0,0,0,0,0c0,0,0,0,0,0c0,0,0,0,0,0c0,0,0,0,0,0
				c-0.01-0.01-0.01-0.02-0.02-0.04c-0.01-0.01-0.01-0.03-0.02-0.04l0,0c0-0.01-0.01-0.02-0.01-0.03c0,0,0-0.01,0-0.01
				c0-0.01-0.01-0.03-0.01-0.04c0-0.01-0.01-0.03-0.01-0.04c0,0,0,0,0,0c0-0.01-0.01-0.03-0.01-0.04l0,0c0-0.01-0.01-0.02-0.01-0.03
				c0-0.01-0.01-0.03-0.01-0.04c-0.01-0.04-0.02-0.09-0.03-0.14c0-0.02-0.01-0.05-0.01-0.07c0-0.02-0.01-0.05-0.01-0.07
				c0-0.02-0.01-0.04-0.01-0.06c0-0.01,0-0.02,0-0.03c0,0,0,0,0,0c0-0.02,0-0.04,0-0.06c0-0.03,0-0.05,0-0.08c0-0.03,0-0.05,0-0.08
				c0-0.02,0-0.05,0-0.07c0-0.01,0-0.01,0-0.02c0,0,0,0,0,0c0-0.02,0-0.04,0-0.05c0,0,0-0.01,0-0.01c0,0,0-0.01,0-0.01
				c0-0.03,0-0.05,0-0.08c0-0.03,0-0.05,0-0.08c0,0,0,0,0-0.01c0-0.03,0-0.06,0.01-0.09c0-0.03,0.01-0.05,0.01-0.08l0,0
				c0-0.01,0-0.01,0-0.02c0-0.02,0.01-0.05,0.01-0.07c0,0,0-0.01,0-0.01c0-0.03,0.01-0.06,0.01-0.09c0.01-0.05,0.02-0.09,0.02-0.14
				c0-0.02,0.01-0.05,0.01-0.07c0-0.02,0.01-0.05,0.01-0.07c0-0.01,0.01-0.02,0.01-0.04c0-0.01,0.01-0.02,0.01-0.04
				c0-0.02,0.01-0.04,0.01-0.06c0-0.02,0.01-0.04,0.01-0.06c0,0,0,0,0,0c0.01-0.03,0.02-0.07,0.03-0.1
				c0.01-0.02,0.01-0.04,0.02-0.07c0-0.01,0.01-0.02,0.01-0.03c0-0.01,0.01-0.02,0.01-0.03c0,0,0,0,0,0
				c0.01-0.02,0.01-0.05,0.02-0.07c0-0.01,0.01-0.02,0.01-0.03c0-0.01,0.01-0.03,0.01-0.04c0-0.01,0.01-0.02,0.01-0.04
				c0.03-0.11,0.07-0.21,0.11-0.33c0.02-0.05,0.04-0.1,0.06-0.15c0.01-0.03,0.02-0.05,0.03-0.08c0.01-0.03,0.02-0.05,0.03-0.08
				c0-0.01,0-0.01,0.01-0.02c0,0,0-0.01,0.01-0.01c0.01-0.02,0.02-0.05,0.03-0.07c0.01-0.03,0.02-0.05,0.03-0.07
				c0.01-0.02,0.01-0.03,0.02-0.05c0.03-0.06,0.05-0.12,0.08-0.18c0.01-0.02,0.02-0.05,0.03-0.07c0.01-0.01,0.01-0.02,0.01-0.03
				c0.02-0.03,0.03-0.07,0.05-0.1c0,0,0-0.01,0-0.01c0.01-0.03,0.03-0.06,0.05-0.1c0.01-0.03,0.03-0.06,0.04-0.08
				c0.01-0.03,0.02-0.05,0.04-0.07c0,0,0-0.01,0-0.01c0,0,0-0.01,0.01-0.01c0.01-0.02,0.02-0.05,0.04-0.07
				c0-0.01,0.01-0.01,0.01-0.02c0.01-0.03,0.03-0.05,0.04-0.08c0,0,0-0.01,0.01-0.01c0-0.01,0.01-0.02,0.01-0.03
				c0.01-0.02,0.02-0.04,0.03-0.06c0.01-0.02,0.03-0.05,0.04-0.07c0-0.01,0.01-0.01,0.01-0.02c0,0,0-0.01,0.01-0.01
				c0.01-0.01,0.01-0.03,0.02-0.04c0.01-0.01,0.01-0.02,0.02-0.04c0-0.01,0.01-0.01,0.01-0.01c0.01-0.02,0.02-0.04,0.04-0.06
				c0.01-0.01,0.01-0.02,0.02-0.03c0.01-0.01,0.01-0.02,0.02-0.04l0,0C85,78.12,85.46,78.45,85.8,78.7z"/>
			<path class="st7" d="M85.63,79.77l-0.52,3.21c-0.05-0.04-0.09-0.1-0.14-0.16c-0.38-0.48-0.93-1.72-1-1.9
				c-0.07-0.18-0.07-0.74,0.53-1.1c0,0,0.4-0.27,0.76-0.17C85.36,79.67,85.49,79.71,85.63,79.77z"/>
			<path class="st8" d="M98.08,90.92c-0.4,0.76-1.64,1.8-3.36,2.14c-1.72,0.34-2.31,0.05-2.82,0.03c-0.51-0.02-1.98-0.11-2.98-0.39
				c-0.47-0.13-1.24-0.31-2.1-0.48c-0.05-0.01-0.1-0.02-0.15-0.03c-0.03-0.01-0.06-0.01-0.09-0.02c-0.08-0.02-0.16-0.03-0.24-0.05
				c-0.1-0.02-0.19-0.04-0.29-0.05c-0.05-0.01-0.1-0.02-0.16-0.03c-0.17-0.03-0.34-0.06-0.51-0.08c-0.02,0-0.04-0.01-0.05-0.01
				c-0.02,0-0.03-0.01-0.05-0.01c-0.08-0.01-0.15-0.02-0.23-0.03c-0.06-0.01-0.12-0.02-0.18-0.02c-0.03,0-0.06-0.01-0.09-0.01
				c-0.18-0.02-0.35-0.04-0.52-0.06c-0.06-0.01-0.11-0.01-0.16-0.01c-0.03,0-0.05,0-0.08-0.01c-0.03,0-0.05,0-0.08-0.01
				c-0.04,0-0.08-0.01-0.12-0.01c-0.04,0-0.08,0-0.13-0.01c-0.05,0-0.09,0-0.14,0c0,0,0,0,0,0c-0.02,0-0.03,0-0.05,0
				c-0.02,0-0.04,0-0.07,0c-0.01,0-0.03,0-0.04,0c0,0-0.01,0-0.01,0c-0.06,0-0.12,0-0.17,0c0,0,0,0,0,0c-0.05,0-0.1,0-0.15,0
				c-0.05,0-0.1,0-0.15,0c-0.05,0-0.1,0-0.14,0.01c-0.05,0-0.1,0-0.14,0.01c-0.1,0.01-0.19,0.01-0.28,0.02
				c-0.09,0.01-0.19,0.02-0.28,0.02c-0.14,0.01-0.27,0.03-0.4,0.04c-0.09,0.01-0.17,0.02-0.26,0.03c-0.04,0.01-0.08,0.01-0.12,0.02
				c-0.02,0-0.04,0.01-0.06,0.01c-0.04,0.01-0.08,0.01-0.12,0.02c-0.04,0.01-0.08,0.01-0.12,0.02c-0.02,0-0.04,0.01-0.06,0.01
				C80.9,92,80.86,92,80.83,92.01c-0.05,0.01-0.11,0.02-0.16,0.03c-0.03,0.01-0.07,0.01-0.1,0.02c-0.04,0.01-0.07,0.01-0.1,0.02
				c-0.05,0.01-0.09,0.02-0.14,0.03c-0.06,0.01-0.13,0.02-0.18,0.04c-0.04,0.01-0.07,0.02-0.11,0.02c0,0,0,0,0,0
				c-0.01,0-0.02,0.01-0.04,0.01c-0.01,0-0.02,0-0.03,0.01c-0.02,0-0.04,0.01-0.07,0.01c-0.02,0-0.03,0.01-0.05,0.01c0,0,0,0,0,0
				c-0.01,0-0.03,0-0.05,0.01c0,0-0.01,0-0.02,0c-0.01,0-0.02,0-0.03,0c-0.01,0-0.03,0-0.04,0.01c-0.01,0-0.01,0-0.02,0
				c-0.02,0-0.05,0.01-0.07,0.01c-0.02,0-0.05,0.01-0.07,0.01c-0.02,0-0.05,0.01-0.08,0.01c-0.04,0.01-0.08,0.01-0.13,0.02
				c-0.02,0-0.04,0.01-0.07,0.01c-0.02,0-0.05,0.01-0.07,0.01c-0.02,0-0.03,0-0.05,0.01c-0.21,0.03-0.45,0.05-0.7,0.08
				c-0.02,0-0.05,0-0.07,0.01c-0.16,0.02-0.33,0.03-0.49,0.05c-0.02,0-0.04,0-0.06,0.01c-0.03,0-0.06,0.01-0.09,0.01
				c-0.08,0.01-0.16,0.01-0.25,0.02c-0.01,0-0.02,0-0.02,0c-0.02,0-0.05,0-0.07,0.01c-0.03,0-0.07,0.01-0.1,0.01
				c-0.06,0.01-0.13,0.01-0.19,0.01c-0.02,0-0.04,0-0.06,0c-0.05,0-0.1,0.01-0.15,0.01c-0.08,0.01-0.16,0.01-0.24,0.02
				c-0.05,0-0.1,0.01-0.14,0.01c-0.08,0-0.16,0.01-0.23,0.01c-0.02,0-0.05,0-0.07,0c-0.2,0.01-0.39,0.02-0.57,0.02
				c-0.03,0-0.05,0-0.08,0c0,0-0.01,0-0.01,0c-0.02,0-0.04,0-0.06,0c-0.05,0-0.09,0-0.14,0c-0.18,0-0.33-0.01-0.44-0.03
				c-0.27-0.04-0.69-0.11-1.18-0.19c-0.04-0.01-0.08-0.01-0.12-0.02c-0.1-0.02-0.2-0.03-0.3-0.05c-0.03,0-0.06-0.01-0.08-0.01
				c-0.03-0.01-0.07-0.01-0.1-0.02c-0.12-0.02-0.24-0.04-0.35-0.06c-0.03-0.01-0.06-0.01-0.09-0.02c-0.07-0.01-0.14-0.03-0.21-0.04
				c-0.04-0.01-0.08-0.02-0.12-0.02c-0.19-0.03-0.37-0.07-0.55-0.11C71.78,92.01,71.75,92,71.73,92c-0.01,0-0.03-0.01-0.04-0.01
				c-0.04-0.01-0.08-0.02-0.12-0.03c-0.04-0.01-0.08-0.02-0.12-0.03c-0.03-0.01-0.06-0.01-0.09-0.02c-0.03-0.01-0.05-0.01-0.08-0.02
				c-0.02,0-0.04-0.01-0.06-0.01c-0.03-0.01-0.06-0.01-0.08-0.02c-0.02-0.01-0.05-0.01-0.07-0.02c-0.06-0.01-0.12-0.03-0.17-0.04
				c-0.02-0.01-0.04-0.01-0.06-0.02c-0.02-0.01-0.04-0.01-0.05-0.02c-0.04-0.01-0.07-0.02-0.1-0.03c-0.01,0-0.02-0.01-0.03-0.01
				c-0.04-0.01-0.09-0.03-0.13-0.04c-0.02-0.01-0.03-0.01-0.05-0.02c-0.04-0.01-0.07-0.02-0.11-0.04c-0.03-0.01-0.05-0.02-0.08-0.03
				c-0.03-0.01-0.06-0.02-0.09-0.03c0,0-0.01,0-0.01,0c-0.04-0.01-0.07-0.03-0.11-0.04c-0.04-0.01-0.07-0.03-0.11-0.04
				c0,0-0.01,0-0.01,0c-0.04-0.02-0.09-0.04-0.13-0.06c-0.04-0.02-0.08-0.03-0.12-0.05c-0.03-0.01-0.05-0.03-0.08-0.04
				c-0.04-0.02-0.09-0.04-0.13-0.06c-0.04-0.02-0.08-0.04-0.12-0.06c0,0,0,0,0,0c-0.08-0.04-0.16-0.08-0.24-0.13
				c-0.15-0.08-0.29-0.16-0.44-0.24l-0.15-0.08c-0.08-0.04-0.16-0.08-0.25-0.13c-0.02-0.01-0.04-0.02-0.07-0.03
				c-0.18-0.09-0.37-0.18-0.56-0.27c-0.06-0.03-0.12-0.06-0.18-0.08c-0.06-0.03-0.12-0.05-0.18-0.08c-0.03-0.02-0.07-0.03-0.1-0.04
				c-0.01,0-0.01-0.01-0.02-0.01c-0.03-0.01-0.05-0.02-0.08-0.03c-0.08-0.03-0.15-0.06-0.22-0.09c-0.03-0.01-0.06-0.02-0.09-0.04
				c0,0-0.01,0-0.01,0c-0.02-0.01-0.04-0.02-0.06-0.02c-0.01,0-0.01,0-0.02-0.01c-0.06-0.02-0.11-0.04-0.16-0.06
				s-0.1-0.03-0.15-0.05c-0.06-0.02-0.11-0.03-0.18-0.06c-0.02-0.01-0.04-0.01-0.06-0.02c-0.01,0-0.02-0.01-0.03-0.01
				c-0.02-0.01-0.03-0.01-0.05-0.02c-0.02-0.01-0.03-0.01-0.05-0.02c-0.07-0.03-0.14-0.06-0.21-0.09c-0.03-0.01-0.06-0.03-0.09-0.04
				c-0.04-0.02-0.08-0.04-0.13-0.06c-0.03-0.02-0.07-0.03-0.1-0.05c-0.08-0.04-0.15-0.07-0.22-0.11c-0.02-0.01-0.05-0.02-0.07-0.04
				c-0.01-0.01-0.02-0.01-0.04-0.02c-0.02-0.01-0.04-0.02-0.06-0.03c-0.05-0.03-0.1-0.05-0.14-0.08c-0.02-0.01-0.04-0.02-0.06-0.03
				c-0.01-0.01-0.02-0.01-0.03-0.02c-0.02-0.01-0.04-0.02-0.06-0.03c0,0,0,0,0,0c-0.02-0.01-0.04-0.02-0.06-0.03c0,0,0,0-0.01,0
				c-0.01-0.01-0.02-0.01-0.03-0.02c-0.01,0-0.01-0.01-0.02-0.01c-0.03-0.02-0.05-0.03-0.07-0.04c-0.02-0.01-0.04-0.02-0.06-0.03
				c-0.02-0.01-0.04-0.02-0.05-0.03c-0.02-0.01-0.03-0.02-0.05-0.03c-0.02-0.01-0.03-0.02-0.05-0.03c-0.01,0-0.01-0.01-0.02-0.01
				c0,0-0.01,0-0.01-0.01c-0.02-0.01-0.04-0.03-0.07-0.05c-0.01-0.01-0.03-0.02-0.05-0.03c-0.02-0.01-0.03-0.02-0.05-0.03
				c-0.04-0.02-0.07-0.04-0.11-0.07c-0.01-0.01-0.02-0.01-0.03-0.02c-0.07-0.04-0.15-0.09-0.23-0.13c-0.05-0.03-0.1-0.05-0.15-0.08
				c-0.01-0.01-0.03-0.01-0.04-0.02c-0.01-0.01-0.02-0.01-0.04-0.02c-0.09-0.05-0.18-0.09-0.27-0.14c-0.02-0.01-0.05-0.02-0.07-0.03
				c0,0-0.01,0-0.01,0c-0.03-0.01-0.05-0.03-0.08-0.04c-0.01,0-0.01-0.01-0.02-0.01c-0.03-0.02-0.07-0.03-0.1-0.05
				c0,0-0.01,0-0.01,0c-0.02-0.01-0.04-0.02-0.07-0.03c-0.01-0.01-0.03-0.01-0.04-0.02c-0.03-0.01-0.05-0.02-0.07-0.03
				c-0.02-0.01-0.05-0.02-0.07-0.03c-0.02-0.01-0.05-0.02-0.07-0.03c-0.06-0.03-0.11-0.05-0.17-0.07c-0.02-0.01-0.04-0.02-0.06-0.02
				c-0.02-0.01-0.04-0.02-0.06-0.02c-0.02-0.01-0.04-0.01-0.06-0.02c-0.02-0.01-0.03-0.01-0.05-0.02c-0.02-0.01-0.03-0.01-0.05-0.01
				c-0.03-0.01-0.06-0.02-0.11-0.03c0,0,0,0,0,0c-0.02-0.01-0.04-0.01-0.07-0.02c-0.02-0.01-0.05-0.01-0.08-0.02
				c-0.01,0-0.02,0-0.03-0.01c-0.01,0-0.03-0.01-0.04-0.01c-0.05-0.01-0.11-0.03-0.17-0.04c-0.03-0.01-0.07-0.02-0.11-0.03
				c0,0,0,0,0,0c-0.04-0.01-0.08-0.02-0.11-0.03c-0.15-0.03-0.33-0.07-0.51-0.11c-0.04-0.01-0.08-0.01-0.12-0.02
				c-0.04-0.01-0.07-0.01-0.11-0.02c-0.03-0.01-0.05-0.01-0.08-0.01c-0.02,0-0.04-0.01-0.06-0.01c-0.33-0.06-0.69-0.11-1.06-0.15
				c-0.02,0-0.04,0-0.06-0.01c-0.03,0-0.05-0.01-0.08-0.01c-0.07-0.01-0.14-0.01-0.21-0.02c-0.04,0-0.07-0.01-0.11-0.01
				c-0.03,0-0.06,0-0.09-0.01c-0.03,0-0.06,0-0.09-0.01c-0.03,0-0.07,0-0.1,0c-0.1,0-0.21-0.01-0.31-0.01c-0.08,0-0.15,0-0.23,0
				c-0.04,0-0.08,0-0.12,0c-0.01,0-0.03,0-0.04,0c-0.02,0-0.04,0-0.07,0c-0.11,0-0.23,0.01-0.34,0.02l0,0c0-0.04,0-0.07,0-0.11
				c0-0.04,0-0.07,0-0.11c0,0,0-0.01,0-0.01c0,0,0-0.01,0-0.01c0-0.01,0-0.01,0-0.02c0,0,0,0,0-0.01c0,0,0,0,0-0.01
				c0-0.02,0-0.04,0-0.06c0-0.01,0-0.03,0-0.04c0-0.02,0-0.03,0-0.05c0-0.01,0-0.01,0-0.02c0-0.02,0-0.04,0-0.06
				c0-0.03,0-0.06,0-0.09c0-0.01,0-0.02,0-0.02c0-0.02,0-0.04,0-0.06c0-0.06,0-0.11,0-0.17c0-0.01,0-0.02,0-0.03
				c0-0.01,0-0.01,0-0.02c0-0.01,0-0.02,0-0.02c0-0.01,0-0.01,0-0.02c0-0.03,0-0.06,0-0.09c0-0.02,0-0.04,0-0.06
				c0-0.01,0-0.03,0-0.04c0,0,0,0,0-0.01c0,0,0-0.01,0-0.01c0-0.02,0-0.04,0-0.06l0-0.08c0-0.01,0-0.02,0-0.02c0-0.02,0-0.04,0-0.07
				c0,0,0,0,0,0c0-0.06,0-0.12,0-0.18c0-0.02,0-0.04,0-0.06c0-0.01,0-0.02,0-0.03c0-0.02,0-0.03,0-0.05c0-0.01,0-0.01,0-0.02
				c0,0,0,0,0,0c0,0,0,0,0,0c0-0.04,0-0.07,0-0.11c0,0,0,0,0,0c0-0.01,0-0.02,0-0.03c0-0.01,0-0.02,0-0.03c0-0.01,0-0.02,0-0.03
				c0-0.03,0-0.06,0-0.08c0-0.03,0-0.07,0-0.1c0-0.06,0-0.12,0-0.19c0-0.03,0-0.05,0-0.08c0-0.01,0-0.03,0-0.04
				c0-0.11,0-0.22,0-0.33c0-0.01,0-0.02,0-0.02c0-0.04,0-0.08,0-0.12c0-0.02,0-0.04,0-0.06c0-0.03,0-0.06,0-0.1
				c0-0.03,0-0.05,0-0.08c0,0,0-0.01,0-0.01c0-0.04,0-0.07,0-0.11c0,0,0-0.01,0-0.01c0-0.02,0-0.04,0-0.06c0-0.06,0-0.13,0-0.19
				c0-0.04,0-0.08,0-0.11c0-0.04,0-0.08,0-0.12c0-0.08,0-0.17,0-0.25c0-0.03,0-0.06,0-0.1c0-0.01,0-0.01,0-0.01
				c0-0.09,0-0.18,0-0.27c0-0.07,0-0.14,0-0.21c0-0.48,0.01-0.96,0.02-1.45c0-0.05,0-0.1,0-0.15c0-0.08,0-0.16,0-0.25
				c0-0.07,0-0.15,0.01-0.22c0-0.08,0-0.17,0.01-0.25c0-0.07,0-0.14,0.01-0.2c0-0.12,0.01-0.24,0.01-0.36c0,0,0-0.01,0-0.01
				c0-0.08,0-0.16,0.01-0.25c0-0.06,0-0.12,0.01-0.19c0-0.02,0-0.03,0-0.05c0-0.08,0.01-0.17,0.01-0.25c0-0.08,0.01-0.16,0.01-0.25
				c0-0.06,0-0.13,0.01-0.19c0-0.02,0-0.04,0-0.07c0-0.01,0-0.02,0-0.03c0-0.03,0-0.05,0-0.08c0-0.04,0-0.08,0.01-0.12
				c0-0.04,0-0.09,0.01-0.13c0-0.09,0.01-0.18,0.01-0.27c0-0.08,0.01-0.15,0.01-0.23c0.01-0.11,0.01-0.21,0.02-0.32
				c0-0.06,0.01-0.12,0.01-0.19c0.01-0.17,0.02-0.34,0.03-0.5c0-0.03,0-0.05,0.01-0.08c0.01-0.1,0.01-0.19,0.02-0.29c0,0,0,0,0,0
				c0.01-0.13,0.02-0.26,0.03-0.39c0-0.03,0-0.06,0.01-0.09c0-0.03,0.01-0.07,0.01-0.1c0-0.07,0.01-0.13,0.02-0.19
				c0.01-0.1,0.02-0.2,0.03-0.3c0-0.01,0-0.03,0-0.04c0.01-0.08,0.01-0.16,0.02-0.24c0.01-0.06,0.01-0.13,0.02-0.19
				c0.01-0.06,0.01-0.11,0.02-0.17c0-0.01,0-0.01,0-0.02c0-0.04,0.01-0.09,0.01-0.13c0.01-0.09,0.02-0.18,0.03-0.27
				c0.01-0.05,0.01-0.1,0.02-0.16c0-0.04,0.01-0.07,0.01-0.11c0-0.04,0.01-0.08,0.01-0.12c0-0.01,0-0.02,0-0.03c0,0,0,0,0-0.01
				c0-0.01,0-0.02,0-0.03c0-0.03,0.01-0.05,0.01-0.08c0.01-0.05,0.01-0.09,0.02-0.14l0,0c0.01-0.07,0.02-0.15,0.03-0.22
				c0,0,0-0.01,0-0.01c0-0.01,0-0.02,0-0.03c0.01-0.04,0.01-0.09,0.02-0.13l0-0.01c0,0,0-0.01,0-0.01c0-0.03,0.01-0.06,0.01-0.09
				c0-0.02,0.01-0.05,0.01-0.07c0.01-0.06,0.02-0.12,0.02-0.17c0-0.01,0-0.01,0-0.02c0.01-0.1,0.03-0.19,0.04-0.29
				c0-0.02,0-0.03,0.01-0.05c0-0.02,0-0.03,0.01-0.05c0.01-0.05,0.02-0.11,0.03-0.16l0.01-0.07c0-0.02,0.01-0.05,0.01-0.07
				l0.01-0.04c0.01-0.05,0.02-0.1,0.02-0.14c0-0.02,0.01-0.04,0.01-0.06c0-0.01,0-0.01,0-0.02l0-0.02c0.01-0.06,0.02-0.11,0.03-0.17
				c0-0.01,0-0.02,0.01-0.03c0.01-0.03,0.01-0.06,0.02-0.08c0-0.01,0-0.02,0.01-0.03c0.01-0.04,0.02-0.09,0.03-0.13
				c0,0,0-0.01,0-0.01c0-0.01,0-0.02,0-0.03c0,0,0-0.01,0-0.01c0-0.03,0.01-0.05,0.02-0.08c0-0.01,0-0.03,0.01-0.04
				c0-0.01,0-0.02,0.01-0.04c0.01-0.02,0.01-0.05,0.02-0.07c0-0.02,0.01-0.04,0.01-0.06c0-0.01,0.01-0.03,0.01-0.04
				c0-0.01,0-0.01,0-0.02c0,0,0-0.01,0-0.01c0,0,0-0.01,0-0.01c0.01-0.03,0.01-0.06,0.02-0.08c0.01-0.03,0.01-0.05,0.02-0.08
				c0,0,0,0,0-0.01c0.01-0.03,0.01-0.05,0.02-0.08c0.01-0.03,0.01-0.05,0.02-0.08c0,0,0,0,0,0c0.01-0.03,0.01-0.05,0.02-0.08
				c0-0.01,0.01-0.03,0.01-0.04c0-0.01,0.01-0.02,0.01-0.04c0-0.02,0.01-0.04,0.01-0.06c0-0.01,0-0.01,0-0.02
				c0.01-0.03,0.01-0.05,0.02-0.07c0,0,0,0,0,0c0.01-0.03,0.01-0.05,0.02-0.08c0-0.01,0-0.02,0.01-0.03c0-0.02,0.01-0.03,0.01-0.05
				c0-0.01,0-0.02,0.01-0.03c0.01-0.04,0.02-0.08,0.03-0.12c0.01-0.02,0.01-0.04,0.02-0.06c0-0.01,0-0.01,0-0.02
				c0.01-0.02,0.01-0.05,0.02-0.07c0.01-0.03,0.02-0.06,0.03-0.09c0.01-0.02,0.01-0.04,0.02-0.06c0-0.01,0.01-0.02,0.01-0.03
				c0-0.01,0.01-0.03,0.01-0.04c0-0.01,0-0.01,0.01-0.02c0.01-0.04,0.02-0.07,0.04-0.11c0.02-0.06,0.04-0.11,0.06-0.16
				c0.02-0.05,0.04-0.11,0.06-0.16c1.36-0.02,3.08-0.07,3.82-0.22c0.19-0.04,0.43-0.09,0.71-0.15c1.7-0.38,4.82-1.13,5.62-1.31
				c0.92-0.22,3.9-0.97,4.91-1.14c1.01-0.17,2.07-0.41,2.4-0.52c0.33-0.11,0.74-0.35,1.35-0.53c0.6-0.18,1.13-0.34,1.49-0.38
				c0.36-0.04,1.09-0.25,1.41-0.33c0.32-0.08,1.44-0.38,1.77-0.42c0.33-0.03,1.79-0.16,2.11-0.13c0.31,0.03,1.72,0.21,2.07,0.27
				c0.19,0.03,0.72,0.22,1.23,0.42l-1.87,11.64c0,0-0.01,0-0.01,0.01c0,0-0.01,0.01-0.01,0.01c0,0,0,0-0.01,0c0,0,0,0,0,0
				c-0.01,0-0.01,0.01-0.02,0.01c-0.01,0-0.01,0.01-0.02,0.01c0,0,0,0-0.01,0c0,0,0,0-0.01,0c-0.01,0.01-0.03,0.02-0.04,0.03
				c0,0,0,0,0,0c-0.01,0-0.01,0.01-0.02,0.01c-0.02,0.01-0.04,0.03-0.07,0.04c-0.01,0.01-0.03,0.02-0.04,0.03
				c-0.01,0.01-0.02,0.02-0.04,0.03c-0.08,0.06-0.16,0.12-0.24,0.19c-0.01,0.01-0.03,0.02-0.04,0.04c-0.02,0.02-0.05,0.04-0.07,0.06
				c-0.02,0.02-0.04,0.03-0.06,0.05c-0.02,0.02-0.04,0.04-0.06,0.05c-0.01,0.01-0.03,0.03-0.04,0.04c-0.08,0.08-0.16,0.17-0.24,0.26
				c-0.02,0.02-0.04,0.04-0.05,0.06c-0.03,0.03-0.06,0.07-0.08,0.1c-0.02,0.02-0.04,0.05-0.05,0.07c-0.01,0.01-0.01,0.01-0.01,0.02
				c-0.02,0.03-0.04,0.06-0.06,0.09c-0.02,0.03-0.05,0.06-0.07,0.1c-0.01,0.02-0.03,0.04-0.05,0.07c0,0,0,0,0,0
				c-0.02,0.04-0.05,0.07-0.07,0.11c-0.01,0.01-0.02,0.02-0.02,0.04c-0.01,0.01-0.01,0.02-0.02,0.03c-0.01,0.02-0.02,0.04-0.04,0.06
				c0,0-0.01,0.01-0.01,0.01c-0.01,0.01-0.01,0.02-0.02,0.04c0,0,0,0.01-0.01,0.01c-0.01,0.01-0.01,0.02-0.02,0.03
				c0,0,0,0.01-0.01,0.01c0,0.01-0.01,0.01-0.01,0.02c-0.01,0.02-0.03,0.05-0.04,0.07c-0.01,0.02-0.02,0.04-0.03,0.06
				c0,0.01-0.01,0.02-0.01,0.03c0,0,0,0.01-0.01,0.01c-0.01,0.03-0.03,0.05-0.04,0.08c0,0.01-0.01,0.01-0.01,0.02
				c-0.01,0.02-0.02,0.05-0.04,0.07c0,0,0,0.01-0.01,0.01c0,0,0,0.01,0,0.01c-0.01,0.02-0.02,0.05-0.04,0.07
				c-0.01,0.03-0.03,0.06-0.04,0.08c-0.02,0.03-0.03,0.06-0.05,0.1c0,0,0,0.01,0,0.01c-0.02,0.03-0.03,0.07-0.05,0.1
				c-0.01,0.01-0.01,0.02-0.01,0.03c-0.01,0.02-0.02,0.05-0.03,0.07c-0.03,0.06-0.05,0.12-0.08,0.18c-0.01,0.02-0.01,0.04-0.02,0.05
				c-0.02,0.04-0.03,0.08-0.05,0.12c0,0.01-0.01,0.02-0.01,0.03c0,0,0,0.01-0.01,0.01c0,0.01-0.01,0.01-0.01,0.02
				c-0.01,0.03-0.02,0.05-0.03,0.08c-0.01,0.03-0.02,0.05-0.03,0.08c-0.02,0.05-0.04,0.1-0.06,0.15c-0.04,0.11-0.08,0.22-0.11,0.33
				c0,0.01-0.01,0.02-0.01,0.04c0,0.01-0.01,0.03-0.01,0.04c0,0.01-0.01,0.02-0.01,0.03c0,0.02-0.01,0.03-0.02,0.05
				c0,0.01,0,0.01-0.01,0.02c0,0,0,0,0,0c-0.01,0.02-0.01,0.04-0.02,0.06c0,0,0,0.01,0,0.01c-0.01,0.02-0.01,0.05-0.02,0.07
				c-0.01,0.03-0.02,0.07-0.03,0.1c0,0,0,0,0,0c0,0.02-0.01,0.04-0.01,0.06c-0.01,0.02-0.01,0.04-0.01,0.06
				c0,0.01-0.01,0.02-0.01,0.04c0,0.01-0.01,0.02-0.01,0.04c-0.01,0.02-0.01,0.05-0.01,0.07c-0.01,0.02-0.01,0.05-0.01,0.07
				c-0.01,0.05-0.02,0.09-0.02,0.14c0,0.03-0.01,0.06-0.01,0.09c0,0,0,0.01,0,0.01c0,0.02-0.01,0.05-0.01,0.07c0,0.01,0,0.01,0,0.02
				l0,0c0,0.03-0.01,0.05-0.01,0.08c0,0.03-0.01,0.06-0.01,0.09c0,0,0,0,0,0.01c0,0.03,0,0.05,0,0.08c0,0.03,0,0.05,0,0.08
				c0,0,0,0.01,0,0.01c0,0,0,0.01,0,0.01c0,0.02,0,0.04,0,0.05c0,0,0,0,0,0c0,0.01,0,0.01,0,0.02c0,0.02,0,0.05,0,0.07
				c0,0.03,0,0.05,0,0.08c0,0.03,0,0.05,0,0.08c0,0.02,0,0.04,0,0.06c0,0,0,0,0,0c0,0.01,0,0.02,0,0.03c0,0.02,0,0.04,0.01,0.06
				c0,0.02,0.01,0.05,0.01,0.07c0,0.02,0.01,0.05,0.01,0.07c0.01,0.05,0.02,0.09,0.03,0.14c0,0.01,0.01,0.03,0.01,0.04
				c0,0.01,0.01,0.02,0.01,0.03l0,0c0,0.01,0.01,0.02,0.01,0.04c0,0,0,0,0,0c0,0,0,0,0,0c0,0.01,0.01,0.03,0.01,0.04
				c0,0.01,0.01,0.03,0.01,0.04c0,0,0,0.01,0,0.01c0,0.01,0,0.01,0.01,0.02c0,0,0,0,0,0.01l0,0c0,0.01,0.01,0.03,0.02,0.04
				c0,0.01,0.01,0.02,0.01,0.04c0,0,0,0,0,0c0,0,0,0,0,0c0,0,0,0,0,0c0,0,0,0,0,0c0,0,0,0,0,0c0,0,0,0.01,0,0.01c0,0,0,0.01,0,0.01
				c0,0,0,0,0,0.01c0,0,0,0,0,0c0,0,0,0,0,0c0.01,0.01,0.01,0.03,0.02,0.04c0,0,0,0,0,0c0,0.01,0.01,0.02,0.01,0.03
				c0,0,0,0.01,0.01,0.01c0,0,0,0,0,0c0,0,0,0,0,0.01c0,0.01,0.01,0.02,0.01,0.03l0,0c0.01,0.01,0.01,0.03,0.02,0.04
				c0.01,0.01,0.01,0.02,0.02,0.03c0,0,0,0,0,0.01c0,0,0,0,0,0c0,0,0,0,0,0c0.01,0.01,0.01,0.03,0.02,0.04l0,0
				c0.01,0.01,0.01,0.03,0.02,0.04c0,0,0,0,0,0c0,0.01,0.01,0.01,0.01,0.02c0,0.01,0.01,0.01,0.01,0.02c0,0,0,0,0,0
				c0.01,0.01,0.01,0.02,0.02,0.03c0.02,0.03,0.04,0.07,0.06,0.1c0.01,0.01,0.01,0.02,0.02,0.03c0,0,0,0,0,0
				c0.01,0.01,0.01,0.02,0.02,0.03c0,0,0,0,0,0.01c0.01,0.01,0.02,0.03,0.03,0.04c0,0.01,0.01,0.01,0.01,0.02c0,0,0,0,0,0
				c0.01,0.01,0.01,0.01,0.02,0.02l0,0c0.01,0.01,0.02,0.03,0.03,0.04c0,0,0,0,0,0c0,0,0,0.01,0.01,0.01
				c0.01,0.01,0.01,0.02,0.02,0.03l0,0c0,0,0,0,0,0c0,0,0,0,0,0c0,0.01,0.01,0.01,0.01,0.02c0,0,0,0,0.01,0.01c0,0,0,0.01,0.01,0.01
				c0,0,0,0,0,0l0,0c0.01,0.01,0.01,0.02,0.02,0.03c0,0,0.01,0.01,0.01,0.01c0,0,0,0,0,0c0.01,0.01,0.02,0.02,0.03,0.03
				c0.01,0.01,0.01,0.01,0.02,0.02c0,0,0,0,0,0c0.01,0.01,0.01,0.01,0.02,0.02l0,0c0,0,0.01,0.01,0.01,0.01
				c0,0.01,0.01,0.01,0.01,0.02c0,0,0.01,0.01,0.01,0.01l0,0c0.01,0.01,0.03,0.03,0.04,0.04l0,0c0,0,0,0,0,0
				c0.01,0.01,0.02,0.02,0.04,0.04l0,0c0.01,0.01,0.01,0.01,0.02,0.02c0.01,0.01,0.01,0.01,0.02,0.01c0,0,0,0,0,0
				c0.01,0.01,0.03,0.02,0.04,0.04c0,0,0,0,0,0l0,0c0.01,0.01,0.03,0.02,0.04,0.04l0,0c0,0,0,0,0.01,0.01
				c0.01,0.01,0.01,0.01,0.02,0.02c0,0,0.01,0.01,0.01,0.01c0,0,0,0,0.01,0.01c0.01,0.01,0.02,0.01,0.03,0.02
				c0.01,0.01,0.02,0.02,0.03,0.03c0,0,0,0,0,0c0,0,0.01,0.01,0.01,0.01c0,0,0.01,0.01,0.02,0.01l0,0c0.01,0.01,0.02,0.01,0.03,0.02
				c0,0,0.01,0,0.01,0.01c0,0,0.01,0.01,0.01,0.01c0.01,0.01,0.02,0.01,0.03,0.02c0,0,0.01,0.01,0.01,0.01c0,0,0,0,0,0c0,0,0,0,0,0
				c0,0,0,0,0,0l0,0c0.01,0,0.01,0.01,0.02,0.01c0.01,0,0.01,0.01,0.02,0.01c0.01,0,0.01,0.01,0.02,0.01
				c0.01,0.01,0.01,0.01,0.02,0.02c0,0,0.01,0.01,0.01,0.01c0,0,0,0,0.01,0c0,0,0,0,0,0l0,0c0.01,0.01,0.02,0.01,0.03,0.02
				c0,0,0.01,0.01,0.01,0.01c0,0,0,0,0,0c0.01,0.01,0.03,0.02,0.04,0.03c0.01,0.01,0.02,0.01,0.02,0.02
				c0.01,0.01,0.03,0.02,0.04,0.03c0,0,0.01,0.01,0.01,0.01c0.01,0,0.01,0.01,0.02,0.01c0.01,0.01,0.02,0.01,0.03,0.02
				c0.03,0.02,0.06,0.03,0.09,0.05c0,0,0.01,0,0.01,0.01c0.02,0.01,0.04,0.02,0.06,0.03c0.03,0.02,0.07,0.04,0.11,0.05
				c0.03,0.01,0.05,0.02,0.08,0.04c0.01,0,0.02,0.01,0.03,0.01c0.01,0,0.02,0.01,0.03,0.01c0,0,0.01,0,0.01,0c0,0,0,0,0,0
				c0,0,0.01,0,0.01,0c0,0,0.01,0,0.02,0.01c0.02,0.01,0.04,0.01,0.05,0.02c0,0,0,0,0,0c0.01,0,0.02,0.01,0.03,0.01
				c0,0,0.01,0,0.01,0c0,0,0.01,0,0.01,0c0,0,0.01,0,0.01,0.01c0.02,0.01,0.04,0.02,0.06,0.02c0.02,0.01,0.04,0.01,0.06,0.02
				c0.01,0,0.01,0,0.02,0.01c0,0,0,0,0,0c0.01,0,0.01,0,0.02,0.01c0.01,0,0.03,0.01,0.04,0.01c0,0,0,0,0,0c0,0,0,0,0,0
				c0.02,0.01,0.05,0.01,0.07,0.02c0,0,0.01,0,0.01,0c0.02,0.01,0.04,0.01,0.06,0.02c0.02,0.01,0.04,0.01,0.05,0.01c0,0,0,0,0,0
				c0.02,0.01,0.04,0.01,0.06,0.02c0,0,0.01,0,0.01,0c0.01,0,0.02,0,0.02,0.01c0.1,0.02,0.19,0.05,0.29,0.07
				c0.02,0,0.04,0.01,0.06,0.01c0.02,0,0.04,0.01,0.06,0.01c0,0,0.01,0,0.01,0c0.01,0,0.02,0,0.03,0.01
				c0.03,0.01,0.05,0.01,0.08,0.02c0.04,0.01,0.07,0.02,0.11,0.02c0.07,0.02,0.14,0.03,0.22,0.05c0.02,0,0.04,0.01,0.06,0.01
				c0.1,0.02,0.21,0.04,0.31,0.07c0.1,0.02,0.21,0.04,0.31,0.06c0.06,0.01,0.12,0.02,0.17,0.03c0.09,0.02,0.18,0.04,0.27,0.05
				c0.09,0.02,0.18,0.03,0.26,0.05c0.04,0.01,0.07,0.01,0.11,0.02c0.06,0.01,0.13,0.02,0.19,0.04c0,0,0.01,0,0.01,0
				c0.03,0.01,0.07,0.01,0.1,0.02c0.03,0.01,0.06,0.01,0.1,0.02c0.01,0,0.03,0,0.04,0.01C88.86,84.99,88.9,85,88.94,85
				c0.02,0,0.05,0.01,0.07,0.01c0.01,0,0.02,0,0.03,0.01l0,0c0.01,0,0.02,0,0.04,0.01c0.01,0,0.01,0,0.02,0c0.01,0,0.02,0,0.03,0.01
				c0.01,0,0.01,0,0.02,0l0.01,0c0.01,0,0.02,0,0.03,0.01c0.01,0,0.02,0,0.03,0.01c0,0,0,0,0,0c0.02,0,0.05,0.01,0.07,0.01
				c0.04,0.01,0.07,0.01,0.11,0.02l0.01,0c0.01,0,0.01,0,0.02,0c0.03,0.01,0.06,0.01,0.09,0.02c0.01,0,0.03,0.01,0.04,0.01
				c0.02,0,0.04,0.01,0.06,0.01c0.01,0,0.01,0,0.02,0c0.04,0.01,0.07,0.01,0.11,0.02c0.02,0,0.04,0.01,0.05,0.01c0,0,0.01,0,0.01,0
				c0.01,0,0.02,0,0.03,0c0.01,0,0.02,0,0.03,0l0.01,0c0,0,0,0,0,0c0,0,0,0,0,0l0,0c0.01,0,0.03,0,0.04,0.01c0.01,0,0.01,0,0.02,0
				c0,0,0.01,0,0.01,0c0,0,0,0,0.01,0l0.01,0c0,0,0.01,0,0.01,0c0,0,0.01,0,0.01,0l0,0c0.01,0,0.01,0,0.02,0c0,0,0.01,0,0.01,0
				c0,0,0.01,0,0.01,0l0.01,0c0,0,0,0,0,0c0,0,0,0,0,0c0.02,0,0.04,0.01,0.06,0.01c0.01,0,0.03,0.01,0.04,0.01
				c0.01,0,0.02,0,0.03,0.01c0.01,0,0.02,0,0.02,0c0.01,0,0.02,0,0.02,0c0.02,0,0.03,0.01,0.05,0.01l0,0c0,0,0.01,0,0.01,0
				c0.01,0,0.02,0,0.02,0c0,0,0,0,0.01,0c0.01,0,0.02,0,0.03,0.01l0,0c0,0,0,0,0.01,0c0,0,0,0,0.01,0c0,0,0.01,0,0.01,0
				c0,0,0.01,0,0.01,0c0.01,0,0.01,0,0.02,0c0,0,0.01,0,0.01,0c0,0,0.01,0,0.01,0c0.01,0,0.02,0,0.04,0.01
				c0.02,0,0.05,0.01,0.08,0.01l0,0c0.01,0,0.02,0,0.03,0l0.01,0c0.01,0,0.02,0,0.03,0.01c0.03,0,0.05,0.01,0.08,0.01
				c0.01,0,0.02,0,0.03,0c0.02,0,0.04,0,0.05,0.01l0.01,0c0.01,0,0.01,0,0.02,0c0,0,0,0,0.01,0c0.01,0,0.01,0,0.02,0
				c0,0,0.01,0,0.01,0c0.01,0,0.03,0,0.04,0s0.03,0,0.04,0c0,0,0.01,0,0.01,0c0.01,0,0.03,0,0.04,0.01l0,0c0,0,0,0,0.01,0
				c0,0,0,0,0.01,0c0.01,0,0.01,0,0.02,0c0.01,0,0.02,0,0.02,0l0,0c0.01,0,0.02,0,0.04,0c0,0,0.01,0,0.01,0c0.01,0,0.02,0,0.03,0
				c0.01,0,0.03,0,0.04,0c0.01,0,0.02,0,0.02,0c0,0,0.01,0,0.01,0c0.03,0,0.05,0.01,0.08,0.01c0.17,0.02,0.35,0.04,0.54,0.06
				c0.92,0.1,2.02,0.25,2.89,0.62c1.38,0.59,2.38,1.23,2.88,2.02C98.1,88.9,98.49,90.16,98.08,90.92z"/>
			<path class="st9" d="M77.55,91.79c-2.33,0.36-6.03-1.41-7.43-2.14c-1.4-0.73-4.04-2.74-8.15-3.65c-1.66-0.37-3.09-0.51-4.21-0.55
				c0.01,0.65,0.02,1.27,0.03,1.85c1.84-0.16,4.05,0.41,4.5,0.53c0.48,0.13,1.73,0.8,2.09,1.04c0.37,0.25,1.41,0.8,2,0.96
				c0.59,0.16,1.53,0.61,2.15,0.94s1.22,0.69,2.09,0.96c0.87,0.28,3.42,0.68,4.29,0.81c0.88,0.13,4.28-0.21,5.07-0.38
				c0.78-0.16,2.39-0.48,3.95-0.37c0.83,0.06,1.91,0.23,2.88,0.42C84.01,90.4,79.89,91.43,77.55,91.79z"/>
			<path class="st10" d="M94.01,87.01c0,0,1.98,0.56,2.45,1.06c0.47,0.5,1.43,2.28,0.03,3.51c-1.4,1.22-4.13,0.78-4.41,0.78
				s-0.86-0.03-1-0.84s0.44-2.63,0.49-3.61C91.62,86.92,92.58,86.53,94.01,87.01z"/>
			<path class="st11" d="M89.51,87.26c0,0,0.02,0.06,0.05,0.16c0.01,0.05,0.03,0.12,0.05,0.19c0.02,0.07,0.03,0.16,0.05,0.25
				c0.01,0.05,0.02,0.09,0.02,0.14c0.01,0.05,0.02,0.1,0.02,0.15c0.01,0.05,0.01,0.11,0.02,0.16c0.01,0.06,0.01,0.11,0.02,0.17
				c0.01,0.06,0.01,0.12,0.01,0.18c0,0.06,0,0.12,0,0.18c0,0.06,0,0.12,0,0.19c0,0.03,0,0.06,0,0.09l-0.01,0.09
				c-0.01,0.13-0.02,0.25-0.04,0.37c-0.01,0.06-0.02,0.12-0.03,0.18c-0.01,0.03-0.01,0.06-0.02,0.09c-0.01,0.03-0.01,0.06-0.02,0.09
				c-0.03,0.11-0.08,0.22-0.12,0.32c-0.05,0.1-0.1,0.19-0.15,0.27c-0.03,0.04-0.06,0.08-0.08,0.11c-0.03,0.03-0.06,0.06-0.08,0.09
				c-0.02,0.03-0.05,0.05-0.08,0.08c-0.02,0.02-0.05,0.04-0.07,0.06c-0.02,0.02-0.04,0.03-0.06,0.05c-0.02,0.01-0.03,0.02-0.04,0.03
				C88.91,90.99,88.9,91,88.9,91l-0.01-0.01c0,0,0.01-0.01,0.03-0.04c0.02-0.02,0.04-0.06,0.07-0.1c0.01-0.02,0.03-0.05,0.05-0.07
				c0.02-0.03,0.04-0.05,0.06-0.09c0.02-0.03,0.04-0.07,0.06-0.1c0.02-0.04,0.04-0.08,0.06-0.11c0.04-0.08,0.08-0.17,0.12-0.26
				c0.04-0.1,0.07-0.2,0.1-0.3c0.02-0.05,0.03-0.11,0.05-0.16c0.01-0.06,0.03-0.11,0.04-0.17c0.03-0.12,0.05-0.23,0.06-0.36
				l0.01-0.09c0-0.03,0.01-0.06,0.01-0.09c0.01-0.06,0.01-0.12,0.01-0.18c0-0.06,0-0.12,0.01-0.18c0-0.06,0-0.12,0-0.17
				c0-0.06,0-0.11,0-0.17c0-0.06-0.01-0.11-0.01-0.16c0-0.05-0.01-0.1-0.01-0.15c0-0.05-0.01-0.1-0.01-0.14
				c-0.01-0.09-0.02-0.18-0.03-0.25c-0.01-0.07-0.02-0.14-0.03-0.19c-0.02-0.11-0.03-0.17-0.03-0.17L89.51,87.26z"/>
			<path class="st11" d="M87.16,87.02c0,0,0.01,0.06,0.02,0.17c0,0.06,0.01,0.12,0.01,0.2c0,0.08,0.01,0.16,0.01,0.26
				c0,0.1,0,0.2,0,0.31c0,0.03,0,0.06,0,0.08c0,0.03,0,0.06,0,0.09c0,0.06-0.01,0.12-0.01,0.18c-0.01,0.06-0.01,0.12-0.02,0.18
				c0,0.03-0.01,0.06-0.01,0.09c0,0.02,0,0.03-0.01,0.05l-0.01,0.05c0,0.03-0.01,0.06-0.01,0.09c0,0.03-0.01,0.06-0.02,0.09
				c-0.01,0.03-0.01,0.06-0.02,0.09l-0.02,0.09c-0.01,0.06-0.03,0.12-0.04,0.19c-0.02,0.06-0.03,0.12-0.05,0.19
				c-0.01,0.03-0.02,0.06-0.03,0.09c-0.01,0.03-0.02,0.06-0.03,0.09c-0.01,0.03-0.02,0.06-0.03,0.09c-0.01,0.01-0.01,0.03-0.02,0.04
				c-0.01,0.01-0.01,0.03-0.02,0.04c-0.03,0.05-0.05,0.11-0.08,0.16c-0.03,0.05-0.06,0.1-0.09,0.15c-0.03,0.05-0.06,0.09-0.09,0.13
				c-0.02,0.02-0.03,0.04-0.05,0.06c-0.01,0.01-0.02,0.02-0.02,0.03c-0.01,0.01-0.02,0.02-0.02,0.03c-0.03,0.04-0.06,0.07-0.09,0.1
				c-0.03,0.03-0.06,0.06-0.09,0.09c-0.03,0.03-0.06,0.05-0.08,0.07c-0.03,0.02-0.05,0.04-0.07,0.06c-0.02,0.02-0.05,0.03-0.06,0.04
				c-0.02,0.01-0.03,0.02-0.05,0.03c-0.03,0.02-0.04,0.02-0.04,0.02l-0.01-0.02c0,0,0.01-0.01,0.03-0.03
				c0.02-0.02,0.05-0.05,0.09-0.1c0.02-0.02,0.04-0.04,0.06-0.07c0.02-0.03,0.04-0.05,0.07-0.08c0.02-0.03,0.05-0.06,0.07-0.1
				c0.02-0.04,0.05-0.07,0.07-0.11c0.01-0.01,0.01-0.02,0.02-0.03c0.01-0.01,0.01-0.02,0.02-0.03c0.01-0.02,0.02-0.04,0.04-0.06
				c0.03-0.04,0.05-0.09,0.08-0.13c0.03-0.05,0.05-0.09,0.07-0.14c0.03-0.05,0.05-0.1,0.07-0.15c0.01-0.01,0.01-0.03,0.02-0.04
				c0.01-0.01,0.01-0.03,0.02-0.04c0.01-0.03,0.02-0.05,0.04-0.08c0.02-0.05,0.05-0.11,0.07-0.17c0.02-0.06,0.04-0.11,0.06-0.17
				c0.01-0.03,0.02-0.06,0.03-0.09l0.01-0.04l0.01-0.05l0.02-0.09c0.01-0.03,0.01-0.06,0.02-0.09c0.01-0.03,0.01-0.06,0.02-0.09
				c0.01-0.03,0.01-0.06,0.02-0.09c0.01-0.06,0.02-0.12,0.03-0.18c0.01-0.06,0.02-0.12,0.03-0.18c0.02-0.12,0.03-0.23,0.04-0.34
				c0.01-0.11,0.02-0.21,0.02-0.3c0-0.09,0.01-0.18,0.01-0.26c0-0.08,0-0.14,0-0.2c0-0.11,0-0.17,0-0.17L87.16,87.02z"/>
			<path class="st11" d="M84.92,87.33c0,0-0.02,0.14-0.06,0.34c-0.01,0.05-0.02,0.11-0.03,0.16c-0.01,0.06-0.03,0.12-0.04,0.18
				c-0.01,0.06-0.03,0.13-0.05,0.19c-0.02,0.07-0.03,0.13-0.05,0.2c-0.02,0.07-0.04,0.13-0.05,0.2c-0.02,0.07-0.04,0.13-0.06,0.19
				c-0.02,0.06-0.05,0.12-0.08,0.17c-0.01,0.03-0.03,0.05-0.04,0.08c-0.01,0.02-0.03,0.05-0.05,0.07c-0.01,0.01-0.01,0.02-0.02,0.03
				c-0.01,0.01-0.02,0.02-0.02,0.03c-0.01,0.02-0.03,0.04-0.05,0.05c-0.01,0.01-0.01,0.02-0.02,0.02c-0.01,0.01-0.01,0.01-0.02,0.02
				c-0.01,0.01-0.03,0.03-0.04,0.03c-0.01,0.01-0.02,0.02-0.03,0.03c-0.01,0.01-0.02,0.01-0.03,0.02c-0.02,0.01-0.02,0.01-0.02,0.01
				l-0.01-0.01c0,0,0-0.01,0.01-0.02c0-0.01,0.01-0.02,0.01-0.03c0.01-0.01,0.01-0.02,0.02-0.04c0.01-0.01,0.01-0.03,0.02-0.04
				c0.01-0.02,0.01-0.03,0.02-0.05c0-0.01,0.01-0.02,0.01-0.03c0-0.01,0.01-0.02,0.01-0.03c0.01-0.02,0.02-0.04,0.03-0.07
				c0-0.01,0.01-0.02,0.01-0.04c0-0.01,0.01-0.02,0.01-0.04c0-0.01,0.01-0.03,0.01-0.04c0-0.01,0.01-0.03,0.01-0.04
				c0.02-0.05,0.04-0.11,0.06-0.17c0.02-0.06,0.05-0.12,0.08-0.18c0.01-0.03,0.03-0.06,0.04-0.09c0.01-0.03,0.03-0.06,0.04-0.09
				c0.02-0.06,0.05-0.13,0.07-0.19c0.02-0.06,0.04-0.13,0.07-0.19c0.02-0.06,0.04-0.12,0.06-0.17c0.02-0.06,0.04-0.11,0.05-0.16
				c0.03-0.1,0.06-0.18,0.08-0.24c0.02-0.06,0.03-0.09,0.03-0.09L84.92,87.33z"/>
			<path class="st12" d="M53.43,62.3l-0.3,0.07v0c-0.03,0.01-0.07,0.02-0.1,0.04h0c0,0,0,0,0,0c-0.02,0.01-0.04,0.02-0.06,0.03
				c0,0,0,0,0,0c-0.03,0.01-0.06,0.03-0.1,0.04c0,0-0.01,0-0.01,0.01c-0.03,0.01-0.06,0.03-0.09,0.04
				c-0.01,0.01-0.02,0.01-0.03,0.02c-0.07,0.04-0.14,0.07-0.21,0.12c-0.01,0.01-0.02,0.01-0.03,0.02c0,0,0,0,0,0c0,0,0,0,0,0
				c0,0-0.01,0-0.01,0.01c-0.03,0.02-0.07,0.04-0.1,0.07c-0.02,0.01-0.04,0.03-0.06,0.04c-0.02,0.01-0.04,0.03-0.06,0.04
				c-0.02,0.01-0.04,0.03-0.06,0.04c-0.01,0.01-0.03,0.02-0.04,0.03c-0.01,0.01-0.01,0.01-0.02,0.02c0,0-0.01,0-0.01,0.01
				c0,0-0.01,0.01-0.01,0.01c-0.01,0.01-0.03,0.02-0.04,0.03c0,0,0,0,0,0c-0.02,0.02-0.04,0.03-0.06,0.05
				c-0.01,0.01-0.02,0.02-0.04,0.03c-0.04,0.03-0.07,0.06-0.11,0.1c-0.02,0.02-0.05,0.04-0.07,0.07c-0.01,0.01-0.01,0.01-0.02,0.02
				c-0.02,0.02-0.03,0.03-0.05,0.05c-0.01,0.01-0.02,0.02-0.03,0.03c-0.01,0.01-0.02,0.02-0.04,0.04c0,0,0,0-0.01,0.01
				c-0.01,0.01-0.03,0.03-0.04,0.04c-0.04,0.04-0.08,0.08-0.13,0.13c-0.02,0.02-0.03,0.03-0.05,0.05c-0.06,0.06-0.12,0.12-0.18,0.19
				c-0.06,0.06-0.11,0.13-0.17,0.2c-0.02,0.02-0.04,0.05-0.05,0.07c-0.02,0.02-0.04,0.05-0.05,0.07c-0.02,0.02-0.03,0.05-0.05,0.07
				c-0.01,0.01-0.02,0.03-0.03,0.05c-0.02,0.03-0.03,0.05-0.05,0.08c-0.01,0.01-0.02,0.03-0.03,0.04c-0.01,0.01-0.02,0.03-0.03,0.04
				c-0.01,0.01-0.01,0.02-0.02,0.03c0,0-0.01,0.01-0.01,0.01c0,0.01-0.01,0.01-0.01,0.02c0,0.01-0.01,0.02-0.01,0.02
				c-0.01,0.01-0.02,0.03-0.02,0.04c-0.01,0.02-0.02,0.03-0.03,0.05c0,0,0,0.01-0.01,0.01c0,0,0,0,0,0
				c-0.01,0.01-0.02,0.03-0.02,0.04c0,0,0,0,0,0c0,0,0,0,0,0c-0.01,0.01-0.01,0.02-0.02,0.03c-0.01,0.01-0.01,0.03-0.02,0.04
				c-0.01,0.01-0.02,0.03-0.02,0.04c-0.01,0.01-0.01,0.02-0.02,0.03c0,0.01-0.01,0.02-0.01,0.03c-0.01,0.01-0.01,0.02-0.02,0.03
				c-0.01,0.01-0.01,0.02-0.02,0.03c0,0-0.01,0.01-0.01,0.02c-0.01,0.02-0.02,0.03-0.03,0.05c-0.03,0.05-0.05,0.11-0.08,0.16
				c-0.01,0.02-0.02,0.04-0.03,0.05c-0.01,0.02-0.02,0.04-0.03,0.06c-0.04,0.09-0.08,0.18-0.13,0.28c-0.01,0.03-0.02,0.06-0.04,0.08
				c-0.01,0.02-0.02,0.04-0.02,0.05c-0.01,0.02-0.01,0.03-0.02,0.05c-0.01,0.03-0.02,0.06-0.03,0.09c-0.01,0.03-0.03,0.07-0.04,0.1
				c0,0.01-0.01,0.01-0.01,0.02c-0.01,0.02-0.02,0.05-0.03,0.07c0,0,0,0.01-0.01,0.01c-0.03,0.07-0.05,0.14-0.08,0.21
				c-0.01,0.02-0.01,0.04-0.02,0.06c0,0,0,0.01,0,0.01c-0.01,0.02-0.02,0.04-0.02,0.06c-0.01,0.02-0.02,0.04-0.02,0.07
				c-0.02,0.04-0.03,0.09-0.05,0.14c0,0,0,0.01,0,0.01c0,0,0,0.01,0,0.01c-0.01,0.03-0.02,0.05-0.03,0.08
				c0,0.01-0.01,0.03-0.01,0.04c-0.01,0.02-0.01,0.04-0.02,0.06c-0.02,0.06-0.04,0.12-0.06,0.18c0,0,0,0.01,0,0.01
				c0,0.01-0.01,0.02-0.01,0.03c-0.01,0.04-0.03,0.08-0.04,0.12c0,0.01-0.01,0.02-0.01,0.04c-0.01,0.04-0.02,0.08-0.04,0.12
				c-0.01,0.02-0.01,0.05-0.02,0.07c0,0,0,0.01,0,0.01c0,0.01-0.01,0.02-0.01,0.03c-0.01,0.02-0.01,0.04-0.02,0.05
				c-0.01,0.03-0.02,0.06-0.02,0.09c-0.01,0.03-0.02,0.06-0.02,0.09c-0.01,0.03-0.02,0.07-0.03,0.1c-0.02,0.05-0.03,0.11-0.05,0.16
				c-0.01,0.05-0.03,0.1-0.04,0.16c-0.05,0.18-0.09,0.36-0.14,0.54c-0.03,0.11-0.05,0.22-0.08,0.33c-0.01,0.04-0.02,0.07-0.03,0.11
				c-0.01,0.02-0.01,0.05-0.02,0.07c0,0.01-0.01,0.03-0.01,0.04c0,0,0,0.01,0,0.01c-0.01,0.03-0.01,0.07-0.02,0.1
				c-0.01,0.03-0.01,0.06-0.02,0.09c-0.01,0.02-0.01,0.05-0.02,0.07c-0.01,0.03-0.01,0.06-0.02,0.09c-0.01,0.05-0.02,0.09-0.03,0.14
				c-0.01,0.05-0.02,0.1-0.03,0.15c-0.01,0.03-0.01,0.06-0.02,0.09c0,0.02-0.01,0.04-0.01,0.07c0,0.01-0.01,0.03-0.01,0.04
				c-0.01,0.03-0.01,0.05-0.02,0.08c0,0.01-0.01,0.03-0.01,0.04c-0.01,0.03-0.01,0.05-0.02,0.08c0,0.01,0,0.01,0,0.02
				c-0.01,0.03-0.01,0.05-0.02,0.08c0,0,0,0,0,0.01c-0.01,0.03-0.01,0.07-0.02,0.1c0,0.02-0.01,0.04-0.01,0.07
				c-0.01,0.03-0.01,0.06-0.02,0.09c-0.02,0.09-0.03,0.18-0.05,0.27c0,0,0,0,0,0.01c0,0.02-0.01,0.04-0.01,0.07
				c0,0.02-0.01,0.05-0.01,0.07c0,0.01,0,0.03-0.01,0.04c-0.01,0.07-0.03,0.14-0.04,0.21c0,0.01-0.01,0.03-0.01,0.04
				c-0.01,0.03-0.01,0.06-0.02,0.09c-0.01,0.05-0.02,0.1-0.03,0.16c-0.01,0.08-0.03,0.16-0.04,0.24c0,0,0,0.01,0,0.01
				c-0.01,0.08-0.03,0.16-0.04,0.24c0,0,0,0.01,0,0.01c0,0.01,0,0.03-0.01,0.04c0,0.03-0.01,0.06-0.01,0.09
				c-0.01,0.05-0.02,0.09-0.02,0.14c-0.01,0.04-0.01,0.09-0.02,0.13c-0.01,0.05-0.02,0.11-0.03,0.16c-0.01,0.04-0.01,0.07-0.02,0.11
				c-0.01,0.04-0.01,0.07-0.02,0.11c-0.01,0.05-0.02,0.11-0.02,0.16c-0.01,0.05-0.01,0.09-0.02,0.14c0,0.02-0.01,0.04-0.01,0.06
				c0,0.03-0.01,0.06-0.01,0.09c0,0.01,0,0.02,0,0.03c0,0.01,0,0.02,0,0.03c0,0.01,0,0.01,0,0.02c-0.01,0.1-0.03,0.19-0.04,0.29
				c0,0.01,0,0.02,0,0.03c-0.01,0.07-0.02,0.14-0.03,0.21c-0.01,0.04-0.01,0.08-0.02,0.13c0,0.03-0.01,0.05-0.01,0.08
				c-0.01,0.05-0.01,0.09-0.02,0.14l-0.02,0.12c-0.01,0.04-0.01,0.08-0.02,0.12c-0.01,0.06-0.02,0.12-0.02,0.19
				c0,0.02,0,0.04-0.01,0.05c-0.02,0.18-0.05,0.36-0.07,0.54c0,0.02,0,0.03-0.01,0.05c-0.01,0.1-0.02,0.19-0.04,0.29
				c0,0.02,0,0.03-0.01,0.05c0,0.02,0,0.03-0.01,0.05c-0.01,0.09-0.02,0.18-0.03,0.27C48.01,75.86,48,75.91,48,75.96
				c-0.01,0.07-0.02,0.14-0.02,0.21c-0.01,0.05-0.01,0.11-0.02,0.16c0,0.01,0,0.03,0,0.04c0,0,0,0,0,0.01
				c-0.02,0.17-0.04,0.35-0.06,0.52c0,0.03-0.01,0.06-0.01,0.09c-0.01,0.07-0.01,0.14-0.02,0.21c0,0.04-0.01,0.07-0.01,0.11
				c0,0.03-0.01,0.06-0.01,0.09c0,0,0,0.01,0,0.01c0,0.03-0.01,0.06-0.01,0.1c0,0,0,0.01,0,0.01c0,0.01,0,0.02,0,0.03
				c-0.01,0.09-0.02,0.19-0.03,0.28c0,0.01,0,0.03,0,0.04c-0.02,0.19-0.04,0.39-0.06,0.58c0,0.02,0,0.04-0.01,0.06
				c0,0.05-0.01,0.1-0.01,0.15c0,0.02,0,0.03,0,0.05c0,0.04-0.01,0.08-0.01,0.13c0,0.01,0,0.02,0,0.03
				c-0.01,0.1-0.02,0.19-0.03,0.29c-0.01,0.11-0.02,0.22-0.03,0.32c-0.01,0.07-0.01,0.15-0.02,0.22c0,0.03-0.01,0.07-0.01,0.1
				c0,0.03,0,0.05-0.01,0.08c0,0.01,0,0.02,0,0.03c-0.01,0.07-0.01,0.13-0.02,0.2c0,0,0,0.01,0,0.01c-0.01,0.1-0.02,0.2-0.02,0.3
				c0,0.04-0.01,0.07-0.01,0.11c0,0.03,0,0.05-0.01,0.08c0,0.01,0,0.02,0,0.03c-0.01,0.07-0.01,0.14-0.02,0.21
				c-0.01,0.13-0.02,0.26-0.03,0.39c-0.01,0.11-0.02,0.22-0.02,0.33c0,0.02,0,0.04,0,0.07c-0.01,0.09-0.01,0.18-0.02,0.28
				c-0.01,0.08-0.01,0.16-0.02,0.23c0,0.02,0,0.04,0,0.05c0,0.05-0.01,0.1-0.01,0.14c0,0.01,0,0.02,0,0.03c0,0.04,0,0.07-0.01,0.11
				c0,0.04,0,0.07-0.01,0.11c0,0.01,0,0.02,0,0.03c-0.01,0.09-0.01,0.18-0.02,0.27c0,0.04-0.01,0.09-0.01,0.13c0,0.01,0,0.02,0,0.03
				c0,0.04,0,0.08-0.01,0.11c0,0.05-0.01,0.09-0.01,0.14c0,0.03,0,0.05,0,0.08c-0.01,0.1-0.01,0.2-0.02,0.3c0,0,0,0.01,0,0.01
				c0,0.02,0,0.04,0,0.06c0,0.05-0.01,0.1-0.01,0.15c0,0.01,0,0.02,0,0.03c0,0.07-0.01,0.14-0.01,0.21
				c-0.03,0.47-0.05,0.93-0.08,1.39c0,0,0,0.01,0,0.01c0,0.02,0,0.03,0,0.05c0,0.06-0.01,0.11-0.01,0.17
				c-0.01,0.12-0.01,0.24-0.02,0.36c0,0.03,0,0.06,0,0.09c0,0.03,0,0.06,0,0.1c-0.01,0.13-0.01,0.25-0.02,0.38c0,0.02,0,0.04,0,0.06
				c0,0.08-0.01,0.16-0.01,0.24c0,0.03,0,0.05,0,0.08c0,0.06-0.01,0.12-0.01,0.18c0,0,0,0,0,0c0,0,0,0,0,0c0,0,0,0,0,0.01
				c0,0.03,0,0.06,0,0.09c0,0.07-0.01,0.13-0.01,0.2c0,0.03,0,0.05,0,0.08c0,0.02,0,0.03,0,0.05c0,0.06,0,0.12-0.01,0.18
				c0,0.06,0,0.12-0.01,0.18c0,0,0,0,0,0v0c0,0.05,0,0.1-0.01,0.15c0,0.01,0,0.03,0,0.04c0,0.03,0,0.06,0,0.09c0,0.01,0,0.01,0,0.02
				c0,0.02,0,0.04,0,0.06c0,0.01,0,0.02,0,0.02v0c0,0.03,0,0.06,0,0.08c0,0.01,0,0.01,0,0.02c0,0.03,0,0.06,0,0.08
				c0,0.11-0.01,0.22-0.01,0.33c0,0.05,0,0.09,0,0.14c0,0.01,0,0.01,0,0.02c0,0.09-0.01,0.18-0.01,0.26c0,0.04,0,0.09,0,0.13
				c0,0.01,0,0.02,0,0.03c0,0.01,0,0.01,0,0.02c0,0.1-0.01,0.2-0.01,0.3c-0.01,0.26-0.02,0.52-0.02,0.77c0,0.09,0,0.17-0.01,0.26
				c0,0.03,0,0.06,0,0.08c0,0.02,0,0.03,0,0.05c0,0.06,0,0.12,0,0.18c0,0.07,0,0.14-0.01,0.21c0,0.01,0,0.02,0,0.02
				c0,0.04,0,0.09,0,0.13c0,0,0,0.01,0,0.01c0,0.01,0,0.02,0,0.03c0,0.04,0,0.09,0,0.13c0,0.03,0,0.05,0,0.08
				c0,0.08,0,0.16-0.01,0.23c-0.01,0.27-0.01,0.52-0.02,0.76c0,0.03,0,0.05,0,0.08c0,0.03,0,0.05,0,0.08c0,0.03,0,0.07,0,0.1
				c0,0.03,0,0.06,0,0.09c0,0.04,0,0.08,0,0.11c0,0.16,0,0.3-0.01,0.43c0,0.01,0,0.03,0,0.04v0c0,0.01,0,0.02,0,0.03
				c0,0.02,0,0.03,0,0.05c0,0.04,0,0.09,0,0.13c0,0.02,0,0.04,0,0.06v0.01c0,0,0,0,0,0.01c0,0.01,0,0.02,0,0.03
				c0,0.01,0,0.02,0,0.03c0,0.01,0,0.03,0,0.04c0,0.01,0,0.03,0,0.04c0,0.01,0,0.03,0,0.04c0,0.06,0,0.11,0,0.16
				c0,0.01,0,0.01,0,0.02c0,0.01,0,0.01,0,0.02c0,0.01,0,0.02,0,0.03v0.06c0,0.01,0,0.02,0,0.03v0c0,0.01,0,0.01,0,0.02
				c0,0,0,0.01,0,0.01c0,0.03,0,0.05,0,0.07c0,0.02,0,0.03,0,0.04c0,0,0,0,0,0.01v0.01l-23.23-3.04V58.97L53.43,62.3z"/>
			<path class="st13" d="M50.17,65.64c-0.06,0.14-0.11,0.28-0.17,0.42c-0.04,0.11-0.08,0.21-0.12,0.32
				c-0.06,0.17-0.12,0.34-0.17,0.52c-0.03,0.1-0.06,0.2-0.09,0.3c-0.04,0.15-0.09,0.3-0.13,0.45c-0.15,0.55-0.3,1.13-0.43,1.74
				c-0.01,0.03-0.01,0.06-0.02,0.09c-1.13,5.14-1.65,12.35-1.89,17.74c0,0,0,0,0,0c0,0.28-0.02,0.55-0.03,0.79
				c-0.02,0.52-0.04,1.03-0.06,1.51l3.44,0.71l7.46,1.56c0,0-0.28-5.02-0.19-10.53c0.1-5.5,0.57-11.48,2.08-13.39
				c0.8-1.01,1.48-1.32,2.03-1.24l-5.66-1.21l-2.58-0.55l-2.81-0.56c-0.18,0.28-0.35,0.61-0.52,0.97
				C50.27,65.42,50.22,65.53,50.17,65.64z"/>
			<path class="st14" d="M41.17,86.91L41.17,86.91c-0.01-0.14-0.02-0.27-0.04-0.42c0,0,0,0,0,0c-0.06-0.57-0.18-1.19-0.35-1.85
				c0,0-0.75,0.49-1.22,1.68v0c-0.05,0.13-0.09,0.26-0.14,0.4c-0.25,0.86-0.33,2.01,0.03,3.51c0.03,0.13,0.06,0.26,0.1,0.39v0
				c0.12,0.42,0.27,0.86,0.46,1.33c0,0,0.35-0.45,0.67-1.32c0.05-0.13,0.09-0.26,0.14-0.4v0C41.08,89.4,41.27,88.29,41.17,86.91z
				 M40.46,87.73L40.46,87.73c0,0.16-0.01,0.31-0.01,0.45v0c0,0.08-0.01,0.16-0.02,0.23c0,0.05-0.01,0.09-0.01,0.14c0,0,0,0,0,0
				c0,0.03-0.01,0.06-0.01,0.09l0,0c0,0,0,0,0,0c0,0.02,0,0.04-0.01,0.06v0c-0.06,0.46-0.14,0.87-0.25,1.22
				c-0.05-0.23-0.09-0.45-0.12-0.65v0c-0.01-0.06-0.02-0.13-0.02-0.19c-0.01-0.12-0.02-0.23-0.03-0.34c0-0.06-0.01-0.12-0.01-0.17v0
				c0,0,0-0.01,0-0.01v0c0-0.1,0-0.2,0-0.29c0-0.69,0.13-1.24,0.29-1.67c0.04-0.09,0.07-0.18,0.11-0.27
				c0.01,0.1,0.02,0.19,0.03,0.28C40.44,87.01,40.46,87.38,40.46,87.73z"/>
			<path class="st14" d="M36.16,85.62L36.16,85.62c-0.01-0.13-0.03-0.27-0.05-0.41v0c-0.07-0.49-0.17-1-0.31-1.54
				c0,0-0.63,0.41-1.09,1.4l0,0c-0.06,0.13-0.11,0.26-0.17,0.41c-0.29,0.83-0.44,1.97-0.13,3.48v0c0.03,0.13,0.06,0.26,0.09,0.4
				c0,0,0,0,0,0c0.13,0.5,0.3,1.05,0.54,1.63c0,0,0.43-0.55,0.77-1.61c0.04-0.13,0.08-0.26,0.12-0.4v0
				C36.16,88.11,36.3,86.99,36.16,85.62z M35.47,86.46C35.47,86.46,35.47,86.46,35.47,86.46c0,0.07,0,0.14,0,0.21v0
				c0,0.05,0,0.11,0,0.16v0c0,0.04,0,0.08,0,0.12v0c0,0.07,0,0.14-0.01,0.21v0c-0.01,0.1-0.01,0.2-0.02,0.29v0
				c-0.05,0.58-0.15,1.08-0.27,1.49c-0.07-0.32-0.12-0.63-0.15-0.91v0C35.01,87.96,35,87.89,35,87.82
				c-0.01-0.11-0.01-0.21-0.02-0.31v0c0-0.01,0-0.02,0-0.02v0c0-0.06,0-0.11,0-0.16v0c0-0.1,0-0.2,0.01-0.3
				c0.04-0.7,0.2-1.24,0.4-1.65c0,0,0,0,0,0c0,0,0,0,0,0.01C35.44,85.75,35.47,86.11,35.47,86.46z"/>
			<path class="st14" d="M31.15,84.36L31.15,84.36c-0.02-0.13-0.04-0.27-0.06-0.4v0c-0.06-0.4-0.15-0.82-0.27-1.26
				c0,0-0.52,0.34-0.96,1.14c-0.07,0.12-0.13,0.26-0.2,0.4v0l0,0c-0.34,0.79-0.55,1.92-0.29,3.45v0c0.02,0.13,0.05,0.27,0.08,0.41v0
				c0.13,0.58,0.32,1.22,0.6,1.91c0,0,0.5-0.64,0.85-1.86v0c0.04-0.13,0.07-0.26,0.1-0.4C31.22,86.86,31.33,85.73,31.15,84.36z
				 M30.02,86.81c-0.01-0.08-0.01-0.15-0.01-0.23c0-0.05,0-0.11,0-0.16v0c0-0.04,0-0.08,0-0.12c0,0,0,0,0,0c0-0.07,0-0.14,0.01-0.21
				c0-0.1,0.01-0.2,0.02-0.29c0.06-0.58,0.21-1.05,0.38-1.41c0.04,0.29,0.06,0.57,0.08,0.84v0c0,0.07,0.01,0.14,0.01,0.21
				c0,0.11,0,0.21,0,0.31c0,0,0,0.01,0,0.01l0,0c0,0,0,0,0,0c0,0.06,0,0.11,0,0.17c0,0.1-0.01,0.2-0.01,0.3v0
				c-0.04,0.65-0.14,1.21-0.27,1.67v0c-0.01,0.02-0.01,0.05-0.02,0.07c-0.01-0.02-0.01-0.05-0.02-0.07v0
				C30.09,87.51,30.04,87.14,30.02,86.81z"/>
			<g>
				<circle class="st15" cx="40.13" cy="88.48" r="2.23"/>
				<circle class="st16" cx="40.13" cy="88.48" r="1.88"/>
				<circle class="st14" cx="40.31" cy="87.95" r="0.27"/>
				<path class="st14" d="M40.53,88.4c-0.12,0.08-0.16,0.25-0.08,0.37c0.08,0.12,0.25,0.16,0.37,0.08c0.12-0.08,0.16-0.25,0.08-0.37
					C40.82,88.36,40.65,88.32,40.53,88.4z"/>
				<circle class="st14" cx="39.59" cy="88.34" r="0.27"/>
				<path class="st14" d="M39.81,88.79c-0.12,0.08-0.16,0.25-0.08,0.37c0.08,0.12,0.25,0.16,0.37,0.08s0.16-0.25,0.08-0.37
					C40.1,88.74,39.94,88.71,39.81,88.79z"/>
				<path class="st17" d="M40.32,87.88L40.32,87.88c0.08,0.02,0.12,0.1,0.1,0.18l-0.27,0.91c-0.02,0.08-0.1,0.12-0.18,0.1l0,0
					c-0.08-0.02-0.12-0.1-0.1-0.18l0.27-0.91C40.16,87.9,40.24,87.86,40.32,87.88z"/>
				<path class="st17" d="M40.73,88.65L40.73,88.65c-0.02,0.08-0.1,0.12-0.18,0.1l-0.91-0.27c-0.08-0.02-0.12-0.1-0.1-0.18v0
					c0.02-0.08,0.1-0.12,0.18-0.1l0.91,0.27C40.71,88.5,40.76,88.58,40.73,88.65z"/>
			</g>
			<g>
				<circle class="st15" cx="35.2" cy="87.24" r="2.23"/>
				<circle class="st16" cx="35.2" cy="87.24" r="1.88"/>
				<path class="st14" d="M35.23,86.48c-0.12,0.08-0.16,0.25-0.08,0.37c0.08,0.12,0.25,0.16,0.37,0.08s0.16-0.25,0.08-0.37
					S35.35,86.4,35.23,86.48z"/>
				<circle class="st14" cx="35.74" cy="87.38" r="0.27"/>
				<path class="st14" d="M34.51,86.87c-0.12,0.08-0.16,0.25-0.08,0.37c0.08,0.12,0.25,0.16,0.37,0.08s0.16-0.25,0.08-0.37
					C34.8,86.82,34.64,86.79,34.51,86.87z"/>
				<circle class="st14" cx="35.02" cy="87.77" r="0.27"/>
				<path class="st17" d="M35.38,86.64L35.38,86.64c0.08,0.02,0.12,0.1,0.1,0.18l-0.27,0.91c-0.02,0.08-0.1,0.12-0.18,0.1l0,0
					c-0.08-0.02-0.12-0.1-0.1-0.18l0.27-0.91C35.23,86.66,35.31,86.62,35.38,86.64z"/>
				<path class="st17" d="M35.8,87.41L35.8,87.41c-0.02,0.08-0.1,0.12-0.18,0.1l-0.91-0.27c-0.08-0.02-0.12-0.1-0.1-0.18l0,0
					c0.02-0.08,0.1-0.12,0.18-0.1l0.91,0.27C35.78,87.25,35.82,87.33,35.8,87.41z"/>
			</g>
			<g>
				<circle class="st15" cx="30.26" cy="86.02" r="2.23"/>
				<circle class="st16" cx="30.26" cy="86.02" r="1.88"/>
				<path class="st14" d="M30.29,85.26c-0.12,0.08-0.16,0.25-0.08,0.37c0.08,0.12,0.25,0.16,0.37,0.08
					c0.12-0.08,0.16-0.25,0.08-0.37C30.58,85.22,30.42,85.18,30.29,85.26z"/>
				<circle class="st14" cx="30.8" cy="86.16" r="0.27"/>
				<path class="st14" d="M29.58,85.65c-0.12,0.08-0.16,0.25-0.08,0.37c0.08,0.12,0.25,0.16,0.37,0.08
					c0.12-0.08,0.16-0.25,0.08-0.37C29.87,85.6,29.7,85.57,29.58,85.65z"/>
				<path class="st14" d="M29.94,86.32c-0.12,0.08-0.16,0.25-0.08,0.37c0.08,0.12,0.25,0.16,0.37,0.08
					c0.12-0.08,0.16-0.25,0.08-0.37C30.23,86.28,30.07,86.24,29.94,86.32z"/>
				<path class="st17" d="M30.45,85.42L30.45,85.42c0.08,0.02,0.12,0.1,0.1,0.18l-0.27,0.91c-0.02,0.08-0.1,0.12-0.18,0.1h0
					c-0.08-0.02-0.12-0.1-0.1-0.18l0.27-0.91C30.29,85.44,30.37,85.4,30.45,85.42z"/>
				<path class="st17" d="M30.87,86.19L30.87,86.19c-0.02,0.08-0.1,0.12-0.18,0.1l-0.91-0.27c-0.08-0.02-0.12-0.1-0.1-0.18l0,0
					c0.02-0.08,0.1-0.12,0.18-0.1l0.91,0.27C30.84,86.04,30.89,86.12,30.87,86.19z"/>
			</g>
			<path class="st14" d="M54.15,86.25c-0.01-0.08-0.02-0.17-0.03-0.25v0c-0.03-0.23-0.08-0.47-0.14-0.72c0,0-0.3,0.19-0.57,0.64
				c0,0,0,0,0,0c-0.05,0.08-0.09,0.16-0.13,0.25l0,0c-0.23,0.5-0.39,1.22-0.22,2.23v0c0.01,0.08,0.03,0.17,0.05,0.26l0,0v0
				c0.07,0.33,0.18,0.68,0.32,1.07c0,0,0.28-0.34,0.5-1.01v0c0.03-0.08,0.05-0.16,0.08-0.25c0,0,0,0,0,0
				C54.16,87.9,54.25,87.16,54.15,86.25z M53.43,87.68L53.43,87.68c0-0.03,0-0.05,0-0.08v0c0-0.03,0-0.06,0-0.1v0
				c0-0.05,0-0.09,0.01-0.14v0c0-0.06,0.01-0.13,0.02-0.19v0c0.04-0.36,0.14-0.65,0.25-0.88c0.02,0.18,0.03,0.35,0.04,0.51v0
				c0,0.04,0,0.09,0,0.13v0c0,0.07,0,0.14,0,0.21v0c0,0.02,0,0.04,0,0.06l0,0c0,0.02,0,0.03,0,0.05c0,0.06-0.01,0.13-0.01,0.19v0
				c-0.03,0.41-0.11,0.75-0.2,1.03c-0.05-0.24-0.08-0.46-0.09-0.66C53.43,87.77,53.43,87.73,53.43,87.68z"/>
			<g>
				<circle class="st15" cx="53.6" cy="87.32" r="1.43"/>
				<circle class="st16" cx="53.6" cy="87.32" r="1.21"/>
				<circle class="st14" cx="53.71" cy="86.98" r="0.17"/>
				<circle class="st14" cx="53.95" cy="87.42" r="0.17"/>
				<circle class="st14" cx="53.26" cy="87.23" r="0.17"/>
				<path class="st14" d="M53.4,87.52c-0.08,0.05-0.1,0.16-0.05,0.24c0.05,0.08,0.16,0.1,0.24,0.05s0.1-0.16,0.05-0.24
					C53.58,87.49,53.48,87.47,53.4,87.52z"/>
				<path class="st17" d="M53.72,86.94L53.72,86.94c0.05,0.01,0.08,0.07,0.06,0.11l-0.17,0.58c-0.01,0.05-0.07,0.08-0.11,0.06h0
					c-0.05-0.01-0.08-0.07-0.06-0.11L53.61,87C53.62,86.95,53.67,86.92,53.72,86.94z"/>
				<path class="st17" d="M53.99,87.43L53.99,87.43c-0.01,0.05-0.07,0.08-0.11,0.06l-0.58-0.17c-0.05-0.01-0.08-0.07-0.06-0.11l0,0
					c0.01-0.05,0.07-0.08,0.11-0.06l0.58,0.17C53.97,87.33,54,87.38,53.99,87.43z"/>
			</g>
			<path class="st9" d="M94.71,86.08c-0.83-0.27-2.03-0.4-3.21-0.45c-1.71-0.07-3.38,0.02-3.77,0.05c-0.56,0.05-1.98-0.34-2.95-0.62
				c-0.18-0.05-0.35-0.1-0.49-0.15c-0.89-0.27-1.99-1.37-2.68-1.69c-0.69-0.32-1.29-0.51-1.88-1.26c-0.58-0.75-1.26-1.43-1.26-1.43
				s0.12-0.04,0.17-0.63c0.05-0.59,0.39-0.95,0.87-1.47c0.48-0.52,0.15-0.7,1.67-1.23c1.51-0.52,1.69-0.83,2.28-1.19
				c0.58-0.37,1.79-1.51,2.54-1.56c0.15-0.01,0.32-0.03,0.5-0.05l-0.32,2.01c0,0-0.01,0-0.01,0.01c0,0-0.01,0.01-0.01,0.01
				c0,0,0,0-0.01,0c0,0,0,0,0,0c-0.01,0-0.01,0.01-0.02,0.01c-0.01,0-0.01,0.01-0.02,0.01c0,0,0,0-0.01,0c0,0,0,0-0.01,0
				c-0.01,0.01-0.03,0.02-0.04,0.03c0,0,0,0,0,0c-0.01,0-0.01,0.01-0.02,0.01c-0.02,0.01-0.04,0.03-0.07,0.04
				c-0.01,0.01-0.03,0.02-0.04,0.03c-0.01,0.01-0.02,0.02-0.04,0.03c-0.08,0.06-0.16,0.12-0.24,0.19c-0.01,0.01-0.03,0.02-0.04,0.04
				c-0.02,0.02-0.05,0.04-0.07,0.06c-0.02,0.02-0.04,0.03-0.06,0.05s-0.04,0.04-0.06,0.05c-0.01,0.01-0.03,0.03-0.04,0.04
				c-0.08,0.08-0.16,0.17-0.24,0.26c-0.02,0.02-0.04,0.04-0.05,0.06c-0.03,0.03-0.06,0.07-0.08,0.1c-0.02,0.02-0.04,0.05-0.05,0.07
				c-0.01,0.01-0.01,0.01-0.01,0.02c-0.02,0.03-0.04,0.06-0.06,0.09c-0.02,0.03-0.05,0.06-0.07,0.1c-0.01,0.02-0.03,0.04-0.05,0.07
				c0,0,0,0,0,0c-0.02,0.04-0.05,0.07-0.07,0.11c-0.01,0.01-0.02,0.02-0.02,0.04c-0.01,0.01-0.01,0.02-0.02,0.03
				c-0.01,0.02-0.02,0.04-0.04,0.06c0,0-0.01,0.01-0.01,0.01c-0.01,0.01-0.01,0.02-0.02,0.04c0,0,0,0.01-0.01,0.01
				c-0.01,0.01-0.01,0.02-0.02,0.03c0,0,0,0.01-0.01,0.01c0,0.01-0.01,0.01-0.01,0.02c-0.01,0.02-0.03,0.05-0.04,0.07
				c-0.01,0.02-0.02,0.04-0.03,0.06c0,0.01-0.01,0.02-0.01,0.03c0,0,0,0.01-0.01,0.01c-0.01,0.03-0.03,0.05-0.04,0.08
				c0,0.01-0.01,0.01-0.01,0.02c-0.01,0.02-0.02,0.05-0.04,0.07c0,0,0,0.01-0.01,0.01c0,0,0,0.01,0,0.01
				c-0.01,0.02-0.02,0.05-0.04,0.07c-0.01,0.03-0.03,0.06-0.04,0.08c-0.02,0.03-0.03,0.06-0.05,0.1c0,0,0,0.01,0,0.01
				c-0.02,0.03-0.03,0.07-0.05,0.1c-0.01,0.01-0.01,0.02-0.01,0.03c-0.01,0.02-0.02,0.05-0.03,0.07c-0.03,0.06-0.05,0.12-0.08,0.18
				l0,0c-0.01,0.02-0.01,0.04-0.02,0.05c-0.02,0.04-0.03,0.08-0.05,0.12c0,0.01-0.01,0.02-0.01,0.03c0,0,0,0.01-0.01,0.01
				c0,0.01-0.01,0.01-0.01,0.02l0,0c-0.01,0.03-0.02,0.05-0.03,0.08c-0.01,0.03-0.02,0.05-0.03,0.08c-0.02,0.05-0.04,0.1-0.06,0.15
				c-0.04,0.11-0.08,0.22-0.11,0.33c0,0.01-0.01,0.02-0.01,0.04c0,0.01-0.01,0.03-0.01,0.04c-0.01,0.03-0.02,0.05-0.02,0.08
				c-0.01,0.03-0.02,0.05-0.02,0.08c-0.01,0.03-0.01,0.05-0.02,0.08c-0.01,0.03-0.02,0.07-0.03,0.1c0,0,0,0,0,0
				c0,0.02-0.01,0.04-0.01,0.06c-0.01,0.02-0.01,0.04-0.01,0.06c0,0.01-0.01,0.02-0.01,0.04c0,0.01-0.01,0.02-0.01,0.04
				c-0.01,0.02-0.01,0.05-0.01,0.07c-0.01,0.02-0.01,0.05-0.01,0.07c-0.01,0.05-0.02,0.09-0.02,0.14c0,0.03-0.01,0.06-0.01,0.09
				c0,0,0,0.01,0,0.01c0,0.02-0.01,0.05-0.01,0.07c0,0.01,0,0.01,0,0.02l0,0c0,0.03-0.01,0.05-0.01,0.08c0,0.03-0.01,0.06-0.01,0.09
				c0,0,0,0,0,0.01c0,0.03,0,0.05,0,0.08c0,0.03,0,0.05,0,0.08c0,0,0,0.01,0,0.01c0,0,0,0.01,0,0.01c0,0.02,0,0.04,0,0.05
				c0,0,0,0,0,0c0,0.01,0,0.01,0,0.02c0,0.02,0,0.05,0,0.07c0,0.03,0,0.05,0,0.08c0,0.03,0,0.05,0,0.08c0,0.02,0,0.04,0,0.06
				c0,0,0,0,0,0c0,0.01,0,0.02,0,0.03c0,0.02,0,0.04,0.01,0.06c0,0.02,0.01,0.05,0.01,0.07c0,0.02,0.01,0.05,0.01,0.07
				c0.01,0.05,0.02,0.09,0.03,0.14c0,0.01,0.01,0.03,0.01,0.04c0,0.01,0.01,0.02,0.01,0.03l0,0c0,0.01,0.01,0.02,0.01,0.04
				c0,0,0,0,0,0c0,0,0,0,0,0c0,0.01,0.01,0.03,0.01,0.04c0,0.01,0.01,0.03,0.01,0.04c0,0,0,0.01,0,0.01c0,0.01,0,0.01,0.01,0.02
				c0,0,0,0,0,0.01l0,0c0,0.01,0.01,0.03,0.02,0.04c0,0.01,0.01,0.02,0.01,0.04c0,0,0,0,0,0c0,0,0,0,0,0c0,0,0,0,0,0c0,0,0,0,0,0
				c0,0,0,0,0,0c0,0,0,0.01,0,0.01c0,0,0,0.01,0,0.01c0,0,0,0,0,0.01c0,0,0,0,0,0l0,0c0.01,0.01,0.01,0.03,0.02,0.04c0,0,0,0,0,0
				c0,0.01,0.01,0.02,0.01,0.03c0,0,0,0.01,0.01,0.01c0,0,0,0,0,0c0,0,0,0,0,0.01c0,0.01,0.01,0.02,0.01,0.03l0,0
				c0.01,0.01,0.01,0.03,0.02,0.04c0.01,0.01,0.01,0.02,0.02,0.03c0,0,0,0,0,0.01c0,0,0,0,0,0c0,0,0,0,0,0
				c0.01,0.01,0.01,0.03,0.02,0.04l0,0c0.01,0.01,0.01,0.03,0.02,0.04c0,0,0,0,0,0c0,0.01,0.01,0.01,0.01,0.02
				c0,0.01,0.01,0.01,0.01,0.02c0,0,0,0,0,0c0.01,0.01,0.01,0.02,0.02,0.03c0.02,0.03,0.04,0.07,0.06,0.1
				c0.01,0.01,0.01,0.02,0.02,0.03c0,0,0,0,0,0c0.01,0.01,0.01,0.02,0.02,0.03c0,0,0,0,0,0.01c0,0,0,0,0,0
				c0.01,0.01,0.02,0.03,0.03,0.04c0,0.01,0.01,0.01,0.01,0.02c0,0,0,0,0,0c0.01,0.01,0.01,0.01,0.02,0.02
				c0.01,0.01,0.02,0.03,0.03,0.04c0,0,0,0,0,0c0,0,0,0.01,0.01,0.01c0.01,0.01,0.01,0.02,0.02,0.03c0,0,0,0,0,0c0,0,0,0,0,0
				c0,0.01,0.01,0.01,0.01,0.02c0,0,0,0,0.01,0.01c0,0,0,0.01,0.01,0.01c0,0,0,0,0,0c0.01,0.01,0.01,0.02,0.02,0.03
				c0,0,0.01,0.01,0.01,0.01c0,0,0,0,0,0c0.01,0.01,0.02,0.02,0.03,0.03c0.01,0.01,0.01,0.01,0.02,0.02c0,0,0,0,0,0
				c0,0.01,0.01,0.01,0.02,0.02c0,0,0.01,0.01,0.01,0.01c0,0.01,0.01,0.01,0.01,0.02c0,0,0.01,0.01,0.01,0.01
				c0.01,0.01,0.03,0.03,0.04,0.04c0,0,0,0,0,0c0.01,0.01,0.02,0.02,0.04,0.04c0.01,0.01,0.01,0.01,0.02,0.02
				c0.01,0.01,0.01,0.01,0.02,0.01c0,0,0,0,0,0c0.01,0.01,0.03,0.02,0.04,0.04c0,0,0,0,0,0c0.01,0.01,0.03,0.02,0.04,0.04
				c0,0,0,0,0.01,0.01c0.01,0.01,0.01,0.01,0.02,0.02c0,0,0.01,0.01,0.01,0.01c0,0,0,0,0.01,0.01c0.01,0.01,0.02,0.01,0.03,0.02
				c0.01,0.01,0.02,0.02,0.03,0.03c0,0,0,0,0,0c0,0,0.01,0.01,0.01,0.01c0,0,0.01,0.01,0.01,0.01c0.01,0.01,0.02,0.01,0.03,0.02
				c0,0,0.01,0,0.01,0.01c0,0,0.01,0.01,0.01,0.01c0.01,0.01,0.02,0.01,0.03,0.02c0,0,0.01,0.01,0.01,0.01c0,0,0,0,0,0c0,0,0,0,0,0
				c0,0,0,0,0,0c0.01,0,0.01,0.01,0.02,0.01c0.01,0,0.01,0.01,0.02,0.01c0.01,0,0.01,0.01,0.02,0.01c0.01,0.01,0.01,0.01,0.02,0.02
				c0,0,0.01,0.01,0.01,0.01c0,0,0.01,0,0.01,0.01c0.01,0.01,0.02,0.01,0.03,0.02c0,0,0.01,0.01,0.01,0.01c0,0,0,0,0,0
				c0.01,0.01,0.03,0.02,0.04,0.03c0.01,0.01,0.02,0.01,0.02,0.02c0.01,0.01,0.03,0.02,0.04,0.03c0,0,0.01,0.01,0.01,0.01
				c0.01,0,0.01,0.01,0.02,0.01c0.01,0.01,0.02,0.01,0.03,0.02c0.03,0.02,0.06,0.03,0.09,0.05c0,0,0.01,0,0.01,0.01
				c0.02,0.01,0.04,0.02,0.06,0.03c0.03,0.02,0.07,0.04,0.11,0.05c0.03,0.01,0.05,0.02,0.08,0.04c0.01,0,0.02,0.01,0.03,0.01
				c0.01,0,0.02,0.01,0.03,0.01c0.01,0,0.01,0.01,0.02,0.01c0,0,0.01,0,0.02,0.01c0.02,0.01,0.04,0.01,0.05,0.02c0,0,0,0,0,0
				c0.01,0,0.02,0.01,0.03,0.01c0,0,0.01,0,0.01,0c0,0,0.01,0,0.01,0c0,0,0.01,0,0.01,0.01c0.02,0.01,0.04,0.02,0.06,0.02
				c0.02,0.01,0.04,0.01,0.06,0.02c0.01,0,0.01,0,0.02,0.01c0,0,0,0,0,0c0.01,0,0.01,0,0.02,0.01c0.01,0,0.03,0.01,0.04,0.01
				c0,0,0,0,0,0c0,0,0,0,0,0c0.01,0,0.01,0,0.02,0.01c0.02,0.01,0.04,0.01,0.05,0.02c0,0,0.01,0,0.01,0
				c0.02,0.01,0.04,0.01,0.06,0.02c0.02,0.01,0.04,0.01,0.05,0.01c0,0,0,0,0,0c0.02,0.01,0.04,0.01,0.06,0.02c0,0,0.01,0,0.01,0
				c0.01,0,0.02,0,0.02,0.01c0.1,0.02,0.19,0.05,0.29,0.07c0.02,0,0.04,0.01,0.06,0.01c0.02,0,0.04,0.01,0.06,0.01
				c0.01,0,0.03,0.01,0.04,0.01c0.03,0.01,0.05,0.01,0.08,0.02c0.04,0.01,0.07,0.02,0.11,0.02c0.07,0.02,0.14,0.03,0.22,0.05
				c0.02,0,0.04,0.01,0.06,0.01c0.1,0.02,0.21,0.04,0.31,0.07c0.1,0.02,0.21,0.04,0.31,0.06c0.06,0.01,0.12,0.02,0.17,0.03
				c0.09,0.02,0.18,0.04,0.27,0.05c0.09,0.02,0.18,0.03,0.26,0.05c0.04,0.01,0.07,0.01,0.11,0.02c0.06,0.01,0.13,0.02,0.19,0.04
				c0,0,0.01,0,0.01,0c0.03,0.01,0.07,0.01,0.1,0.02c0.03,0.01,0.06,0.01,0.1,0.02c0.01,0,0.03,0,0.04,0.01
				C88.86,84.99,88.9,85,88.94,85c0.02,0,0.05,0.01,0.07,0.01c0.01,0,0.02,0,0.03,0.01l0,0c0.01,0,0.02,0,0.04,0.01
				c0.01,0,0.01,0,0.02,0c0.01,0,0.02,0,0.03,0.01c0.01,0,0.01,0,0.02,0l0.01,0c0.01,0,0.02,0,0.03,0.01c0.01,0,0.02,0,0.03,0.01
				c0,0,0,0,0,0c0.02,0,0.05,0.01,0.07,0.01c0.04,0.01,0.07,0.01,0.11,0.02l0.01,0c0.01,0,0.01,0,0.02,0
				c0.03,0.01,0.06,0.01,0.09,0.02c0.01,0,0.03,0.01,0.04,0.01c0.01,0,0.01,0,0.02,0c0.01,0,0.03,0,0.04,0.01c0.01,0,0.01,0,0.02,0
				c0.04,0.01,0.07,0.01,0.11,0.02c0.02,0,0.04,0.01,0.05,0.01l0.01,0c0.01,0,0.02,0,0.03,0.01c0.01,0,0.02,0,0.03,0l0.01,0
				c0,0,0,0,0,0c0,0,0,0,0,0l0,0c0.01,0,0.03,0,0.04,0.01c0.01,0,0.01,0,0.02,0c0,0,0.01,0,0.01,0c0,0,0,0,0.01,0l0.01,0
				c0,0,0.01,0,0.01,0c0,0,0.01,0,0.01,0l0,0c0.01,0,0.01,0,0.02,0c0,0,0.01,0,0.01,0c0,0,0.01,0,0.01,0l0.01,0c0,0,0,0,0,0
				c0,0,0,0,0,0c0.02,0,0.04,0.01,0.06,0.01c0.01,0,0.03,0.01,0.04,0.01c0.01,0,0.02,0,0.03,0.01c0.01,0,0.02,0,0.02,0
				c0.01,0,0.02,0,0.02,0c0.02,0,0.03,0.01,0.05,0.01l0,0c0,0,0.01,0,0.01,0c0.01,0,0.02,0,0.02,0c0,0,0,0,0.01,0
				c0.01,0,0.02,0,0.03,0.01l0,0c0,0,0,0,0.01,0c0,0,0,0,0.01,0c0,0,0.01,0,0.01,0c0,0,0.01,0,0.01,0c0.01,0,0.01,0,0.02,0
				c0,0,0.01,0,0.01,0c0,0,0.01,0,0.01,0c0.01,0,0.02,0,0.04,0.01c0.02,0,0.05,0.01,0.08,0.01l0,0c0.01,0,0.02,0,0.03,0l0.01,0
				c0,0,0.01,0,0.01,0l0.02,0c0.03,0,0.05,0.01,0.08,0.01c0.01,0,0.02,0,0.03,0c0.02,0,0.04,0,0.05,0.01l0.01,0
				c0.01,0,0.01,0,0.02,0c0,0,0,0,0.01,0c0.01,0,0.01,0,0.02,0c0,0,0.01,0,0.01,0c0.01,0,0.03,0,0.04,0s0.03,0,0.04,0
				c0,0,0.01,0,0.01,0c0.01,0,0.03,0,0.04,0.01l0,0c0,0,0,0,0.01,0c0,0,0,0,0.01,0c0.01,0,0.01,0,0.02,0c0,0,0,0,0,0
				c0.01,0,0.01,0,0.02,0l0,0c0.01,0,0.02,0,0.04,0c0,0,0.01,0,0.01,0c0.01,0,0.02,0,0.03,0c0.01,0,0.03,0,0.04,0
				c0.01,0,0.02,0,0.02,0c0,0,0.01,0,0.01,0c0.03,0,0.05,0.01,0.08,0.01c0.17,0.02,0.35,0.04,0.54,0.06
				C92.74,85.56,93.84,85.71,94.71,86.08z"/>
		</g>
	</g>
	<g>
		<g>
			<path class="st1" d="M97.97,67.05c-0.05,0.27-0.16,0.5-0.34,0.7c-0.18,0.19-0.41,0.33-0.71,0.4c-0.29,0.08-0.62,0.08-0.99,0.01
				c-0.44-0.08-0.8-0.23-1.06-0.45c-0.18-0.16-0.32-0.35-0.41-0.57c-0.09-0.22-0.12-0.43-0.09-0.62c0.02-0.11,0.07-0.2,0.17-0.26
				c0.09-0.07,0.19-0.09,0.31-0.07c0.1,0.02,0.17,0.06,0.23,0.14c0.06,0.07,0.1,0.17,0.12,0.3c0.03,0.15,0.07,0.28,0.12,0.39
				c0.05,0.11,0.13,0.2,0.24,0.29c0.11,0.08,0.26,0.14,0.46,0.18c0.27,0.05,0.5,0.02,0.69-0.07c0.19-0.1,0.3-0.24,0.34-0.43
				c0.03-0.15,0-0.28-0.07-0.39c-0.07-0.11-0.18-0.2-0.31-0.28c-0.14-0.07-0.32-0.16-0.55-0.26c-0.31-0.13-0.57-0.27-0.77-0.41
				c-0.2-0.14-0.35-0.31-0.45-0.51c-0.1-0.2-0.12-0.43-0.08-0.69c0.04-0.25,0.15-0.46,0.32-0.62c0.17-0.17,0.39-0.28,0.67-0.34
				c0.27-0.06,0.58-0.06,0.93,0.01c0.28,0.05,0.51,0.13,0.7,0.23c0.19,0.1,0.34,0.23,0.45,0.36c0.11,0.14,0.19,0.27,0.23,0.41
				s0.05,0.26,0.03,0.38c-0.02,0.11-0.07,0.2-0.17,0.27c-0.09,0.07-0.2,0.1-0.31,0.08c-0.1-0.02-0.18-0.06-0.22-0.12
				c-0.04-0.06-0.09-0.16-0.13-0.29c-0.05-0.19-0.13-0.34-0.22-0.45c-0.1-0.12-0.27-0.2-0.53-0.24c-0.23-0.04-0.43-0.02-0.6,0.05
				c-0.16,0.08-0.26,0.19-0.28,0.34c-0.02,0.09-0.01,0.17,0.03,0.25c0.04,0.07,0.09,0.14,0.17,0.21c0.08,0.06,0.16,0.11,0.24,0.16
				s0.22,0.11,0.42,0.19c0.24,0.1,0.46,0.21,0.66,0.32c0.19,0.11,0.35,0.23,0.48,0.35c0.13,0.13,0.22,0.28,0.27,0.45
				C98,66.62,98.01,66.82,97.97,67.05z"/>
			<path class="st1" d="M101.3,64.31c0.47,0.08,0.85,0.25,1.15,0.5s0.51,0.56,0.62,0.94c0.11,0.38,0.12,0.81,0.04,1.28
				c-0.06,0.35-0.16,0.66-0.31,0.92c-0.14,0.27-0.33,0.49-0.56,0.67c-0.23,0.18-0.49,0.29-0.78,0.36c-0.29,0.06-0.62,0.06-0.97,0
				c-0.35-0.06-0.66-0.18-0.92-0.34c-0.26-0.16-0.46-0.36-0.61-0.6c-0.15-0.24-0.25-0.51-0.29-0.82c-0.04-0.31-0.04-0.63,0.02-0.97
				c0.06-0.35,0.17-0.66,0.32-0.93c0.15-0.27,0.34-0.49,0.56-0.66c0.22-0.17,0.48-0.28,0.77-0.34
				C100.64,64.24,100.96,64.25,101.3,64.31z M102.18,66.85c0.06-0.33,0.06-0.63-0.01-0.89c-0.06-0.26-0.18-0.47-0.36-0.63
				c-0.18-0.16-0.39-0.26-0.65-0.31c-0.18-0.03-0.36-0.03-0.52,0.01c-0.17,0.04-0.32,0.12-0.45,0.23c-0.13,0.11-0.25,0.26-0.35,0.46
				c-0.1,0.19-0.17,0.42-0.22,0.67c-0.05,0.26-0.05,0.49-0.03,0.71c0.03,0.22,0.09,0.41,0.18,0.56c0.09,0.16,0.21,0.28,0.35,0.38
				c0.14,0.09,0.3,0.16,0.49,0.19c0.23,0.04,0.46,0.02,0.67-0.06c0.22-0.08,0.4-0.24,0.56-0.46
				C102.01,67.5,102.12,67.21,102.18,66.85z"/>
			<path class="st1" d="M105.1,65.55l-0.58,3.28l1.85,0.33c0.15,0.03,0.25,0.08,0.32,0.17c0.07,0.09,0.09,0.18,0.07,0.29
				c-0.02,0.11-0.08,0.19-0.16,0.25c-0.09,0.06-0.21,0.07-0.36,0.04l-2.2-0.39c-0.2-0.04-0.33-0.1-0.41-0.21
				c-0.07-0.1-0.09-0.25-0.05-0.45l0.61-3.47c0.03-0.18,0.1-0.32,0.2-0.39c0.1-0.08,0.22-0.1,0.35-0.08
				c0.14,0.02,0.24,0.09,0.31,0.2C105.11,65.22,105.13,65.36,105.1,65.55z"/>
			<path class="st1" d="M108.65,65.69l1.19,0.21c0.31,0.05,0.57,0.13,0.78,0.23c0.21,0.1,0.39,0.24,0.54,0.43
				c0.4,0.49,0.52,1.14,0.38,1.96c-0.05,0.27-0.12,0.51-0.2,0.73c-0.09,0.22-0.2,0.4-0.33,0.57c-0.13,0.16-0.29,0.3-0.46,0.41
				c-0.14,0.09-0.29,0.15-0.44,0.19c-0.15,0.04-0.32,0.06-0.49,0.06c-0.17,0-0.36-0.02-0.56-0.06l-1.19-0.21
				c-0.17-0.03-0.29-0.08-0.36-0.14c-0.07-0.06-0.12-0.15-0.13-0.24c-0.01-0.1,0-0.22,0.02-0.36l0.59-3.3
				c0.04-0.2,0.1-0.33,0.21-0.4C108.31,65.67,108.46,65.65,108.65,65.69z M108.88,66.47l-0.54,3.06l0.69,0.12
				c0.15,0.03,0.27,0.04,0.36,0.05c0.09,0.01,0.18,0,0.28-0.01c0.1-0.02,0.19-0.05,0.26-0.1c0.35-0.2,0.58-0.62,0.69-1.25
				c0.08-0.44,0.07-0.79-0.02-1.03c-0.09-0.25-0.23-0.42-0.42-0.51c-0.19-0.1-0.42-0.17-0.7-0.22L108.88,66.47z"/>
			<path class="st1" d="M115.59,67.65l-2.06-0.36l-0.2,1.11l1.89,0.34c0.14,0.02,0.24,0.07,0.3,0.15c0.06,0.07,0.08,0.16,0.06,0.27
				c-0.02,0.1-0.07,0.18-0.15,0.23c-0.08,0.05-0.19,0.07-0.33,0.04l-1.89-0.34l-0.23,1.28l2.13,0.38c0.14,0.03,0.25,0.08,0.31,0.16
				c0.06,0.08,0.08,0.17,0.06,0.29c-0.02,0.11-0.07,0.19-0.16,0.24c-0.08,0.05-0.2,0.07-0.34,0.04l-2.48-0.44
				c-0.2-0.04-0.34-0.1-0.41-0.21c-0.07-0.1-0.09-0.25-0.05-0.45l0.6-3.39c0.02-0.13,0.06-0.24,0.12-0.31
				c0.05-0.08,0.13-0.13,0.22-0.15c0.09-0.02,0.2-0.02,0.33,0l2.41,0.43c0.14,0.03,0.25,0.08,0.31,0.15
				c0.06,0.08,0.08,0.17,0.06,0.27c-0.02,0.11-0.07,0.19-0.15,0.24C115.85,67.66,115.74,67.67,115.59,67.65z"/>
		</g>
	</g>
</g>
</svg>
