<?xml version="1.0" encoding="utf-8"?>
<!-- Generator: Adobe Illustrator 25.2.3, SVG Export Plug-In . SVG Version: 6.00 Build 0)  -->
<svg version="1.1" id="Calque_1" xmlns="http://www.w3.org/2000/svg" xmlns:xlink="http://www.w3.org/1999/xlink" x="0px" y="0px"
	 viewBox="0 0 511.9 554.1" style="enable-background:new 0 0 511.9 554.1;" xml:space="preserve">
<style type="text/css">
	.st0{fill:#FFFFFF;}
</style>
<g>
	<g>
		<path class="st0" d="M304.1,145.5c0,32.1-0.1,61,0.3,89.9c0,2.1,3.6,5.2,6.1,6.1c20.4,7.2,39.7,16.2,57.5,28.8
			c60.3,42.8,65,153.1-20.6,192.5c-13.5,6.2-28,10.3-43.3,15.8c0,7.8,0.2,16.8,0,25.8c-0.5,19.2-14.6,34-33.4,35.2
			c-22.6,1.4-38.8-10.2-41.7-30.7c-1.1-7.8-1.1-15.8-1-23.7c0.1-5.6-1.7-7.7-7.3-8.9c-36.2-7.7-68.5-23.2-95.8-48.4
			c-17.2-15.8-18.9-36.9-4.4-53.5c15.1-17.3,36.9-18.6,55-3.2c18.7,15.9,35.3,24.8,52.5,27.9c0-11.7,0-23.3,0-34.9
			c0-20.1-0.3-40.3,0.2-60.4c0.1-6.2-2-8.9-7.7-10.9c-22.7-7.9-43.5-19.4-60.6-36.5c-37.7-37.6-42.5-100.2-10.4-140.6
			c16-20.2,37.5-32.5,61.9-39.7c16.2-4.8,16.3-4.6,16.7-21.4c0.4-19.3,9.4-32.7,25.6-38c26.1-8.5,50.1,8.5,50.6,35.8
			c0.1,5.4,0,10.7,0,15.3c17.9,5.6,35.2,10.6,52.2,16.5c7.4,2.6,14.5,6.5,21.3,10.4c18,10.3,23.9,30.9,14.5,49.2
			c-9.6,18.7-29,25.9-48.1,17.9C331.3,156.5,318.5,151.4,304.1,145.5z M304.5,397.4c20.7-5.8,31.3-17.6,31.6-34.9
			c0.3-19.5-10-32.7-31.6-40.1C304.5,347.2,304.5,372,304.5,397.4z M227.2,151.7c-14.7,4.7-22,13-22.5,24.8
			c-0.7,17,6.3,27.9,22.5,34.2C227.2,191.1,227.2,171.7,227.2,151.7z"/>
	</g>
</g>
</svg>
