<?xml version="1.0" encoding="utf-8"?>
<!-- Generator: Adobe Illustrator 24.1.3, SVG Export Plug-In . SVG Version: 6.00 Build 0)  -->
<svg version="1.1" id="Capa_1" xmlns="http://www.w3.org/2000/svg" xmlns:xlink="http://www.w3.org/1999/xlink" x="0px" y="0px"
	 viewBox="0 0 277.1 277.1" style="enable-background:new 0 0 277.1 277.1;" xml:space="preserve">
<style type="text/css">
	.st0{fill:#3EAE77;}
	.st1{fill:#48B17F;}
</style>
<g>
	<g>
		<path class="st0" d="M32.1,104.8C32.4,48,79.2,1.8,135.9,2.4C192,3,238.3,49.3,238.2,104.7c-0.1,57.6-46.3,103.9-103.6,103.7
			C77.6,208.2,31.9,161.9,32.1,104.8z M223.2,105.7c0.2-48.5-39.2-88.5-87.7-88.7c-48.4-0.2-88.6,39.5-88.8,87.7
			c-0.2,48.7,39.3,88.9,87.4,89.1C183.4,193.9,223,154.8,223.2,105.7z"/>
		<path class="st0" d="M135,122.8c9.7,0,19.3-0.2,29,0c8.8,0.2,11.4,3.8,9,12c-4.7,16-21.1,27.8-38.4,27.8
			c-16.8,0-33.3-12.5-37.7-28.7c-2-7.2,0.7-10.9,8.3-11.1C115.1,122.5,125.1,122.7,135,122.8C135,122.7,135,122.7,135,122.8z"/>
		<path class="st0" d="M119.5,77.8c0.2,9.5-6.8,16.7-16.2,16.6c-8.8-0.1-16.2-7.1-16.4-15.8c-0.2-9,7.4-16.7,16.4-16.7
			C112.3,61.9,119.4,68.9,119.5,77.8z"/>
		<path class="st0" d="M166,61.8c9.2-0.3,16.8,7,16.9,16.2c0.1,8.9-6.7,16-15.7,16.4c-9,0.4-16.9-7-17-16.1
			C150.2,69.7,157.5,62.1,166,61.8z"/>
	</g>
	<g>
		<path class="st1" d="M29.3,269v-29.4c0-1.5,1.2-2.7,2.7-2.7h0c0,0,0,0,0.1,0h16.1c1.4,0,2.7,1.2,2.7,2.7c0,1.5-1.3,2.8-2.7,2.8
			H34.8v9.1h11.6c1.5,0,2.7,1.3,2.7,2.7c0,1.5-1.2,2.8-2.7,2.8H34.8v9.2h13.5c1.4,0,2.7,1.2,2.7,2.8c0,1.5-1.3,2.7-2.7,2.7H32.2
			c-0.1,0-0.1,0-0.1,0l0,0C30.5,271.7,29.3,270.5,29.3,269z"/>
		<path class="st1" d="M76.3,251.2l-5.9,8.2l5.9,8.2c0.8,1.1,0.5,2.8-0.5,3.6c-0.5,0.3-1,0.5-1.6,0.5c-0.8,0-1.5-0.4-2.2-1.1l-5-6.8
			l-5,6.8c-0.5,0.6-1.2,1.1-2,1.1c-0.5,0-1.1-0.2-1.6-0.5c-1.1-0.7-1.4-2.5-0.5-3.6l6-8.2l-6-8.2c-0.8-1-0.6-2.7,0.5-3.5
			c1.2-0.8,2.7-0.6,3.6,0.5l5,6.7l5-6.7c0.9-1.1,2.5-1.4,3.8-0.5C76.8,248.5,77.1,250.2,76.3,251.2z"/>
		<path class="st1" d="M83.2,259.3c0-6.9,5.8-12.5,12.7-12.5c3,0,5.8,1.1,7.9,2.7c1.1,0.9,1.3,2.6,0.5,3.7c-1,1.2-2.6,1.4-3.7,0.5
			c-1.3-0.9-2.9-1.6-4.7-1.6c-4,0-7.4,3.3-7.4,7.2c0,3.8,3.3,7.1,7.4,7.1c1.8,0,3.4-0.6,4.7-1.6c1.1-0.8,2.7-0.6,3.7,0.5
			c0.8,1.1,0.6,2.7-0.5,3.7c-2.1,1.5-4.9,2.6-7.9,2.6C89,271.7,83.2,266.2,83.2,259.3z"/>
		<path class="st1" d="M110.9,259.3c0-6.8,5.3-12.5,12.2-12.5c6.5,0,11.6,4.8,12,11.6c0,0,0,0.1,0,0.2s0,0.3,0,0.4
			c-0.1,1.2-1.2,2-2.6,2h-15.8c0.2,1.1,0.8,2.4,1.7,3.3c1,1.2,3,2.1,4.8,2.2c1.8,0.1,3.9-0.3,5.2-1.2c1-1.1,3.1-0.9,3.7-0.1
			c0.6,0.7,1.1,2.2,0,3.2c-2.4,2.2-5.4,3.3-8.9,3.3C116.2,271.7,110.9,266.1,110.9,259.3z M116.3,256.8h14.1c-0.5-2-3-4.9-7.4-5.3
			C118.8,251.8,116.7,254.8,116.3,256.8z"/>
		<path class="st1" d="M146.1,236.9c1.5,0,2.8,1.2,2.8,2.7V269c0,1.5-1.2,2.7-2.8,2.7c-1.5,0-2.7-1.2-2.7-2.7v-29.4
			C143.3,238.1,144.6,236.9,146.1,236.9z"/>
		<path class="st1" d="M158.5,236.9c1.5,0,2.8,1.2,2.8,2.7V269c0,1.5-1.2,2.7-2.8,2.7c-1.5,0-2.7-1.2-2.7-2.7v-29.4
			C155.7,238.1,157,236.9,158.5,236.9z"/>
		<path class="st1" d="M168.3,259.3c0-6.8,5.3-12.5,12.2-12.5c6.5,0,11.6,4.8,12,11.6c0,0,0,0.1,0,0.2s0,0.3,0,0.4
			c-0.1,1.2-1.2,2-2.6,2H174c0.2,1.1,0.8,2.4,1.7,3.3c1,1.2,3,2.1,4.8,2.2c1.8,0.1,3.9-0.3,5.2-1.2c1-1.1,3.1-0.9,3.7-0.1
			c0.6,0.7,1.1,2.2,0,3.2c-2.4,2.2-5.4,3.3-8.9,3.3C173.6,271.7,168.3,266.1,168.3,259.3z M173.7,256.8h14.1c-0.5-2-3-4.9-7.4-5.3
			C176.2,251.8,174.1,254.8,173.7,256.8z"/>
		<path class="st1" d="M221.1,257.2v11.9c0,1.4-1.1,2.6-2.6,2.6c-1.4,0-2.6-1.2-2.6-2.6v-11.9c0-2.8-2.3-5-5.2-5c-2.8,0-5,2.2-5,5
			v11.9c0,0.1,0,0.3-0.1,0.5c-0.2,1.2-1.3,2.1-2.6,2.1c-1.5,0-2.6-1.2-2.6-2.6v-11.9v-7.7c0-1.4,1.1-2.6,2.6-2.6c1,0,2,0.6,2.4,1.5
			c1.5-0.9,3.3-1.5,5.3-1.5C216.5,246.8,221.1,251.6,221.1,257.2z"/>
		<path class="st1" d="M242.1,249.6c0,1.5-1.3,2.7-2.8,2.7h-1.2v13.9c1.5,0,2.7,1.2,2.7,2.8c0,1.5-1.2,2.7-2.7,2.7
			c-3,0-5.5-2.5-5.5-5.5v-13.9h-1.4c-1.5,0-2.7-1.2-2.7-2.7c0-1.5,1.2-2.7,2.7-2.7h1.4v-7.2c0-1.5,1.2-2.7,2.8-2.7
			c1.5,0,2.7,1.2,2.7,2.7v7.2h1.2C240.8,246.8,242.1,248,242.1,249.6z"/>
	</g>
</g>
</svg>
