<?xml version="1.0" encoding="utf-8"?>
<!-- Generator: Adobe Illustrator 24.1.3, SVG Export Plug-In . SVG Version: 6.00 Build 0)  -->
<svg version="1.1" id="Capa_1" xmlns="http://www.w3.org/2000/svg" xmlns:xlink="http://www.w3.org/1999/xlink" x="0px" y="0px"
	 viewBox="0 0 277.1 277.1" style="enable-background:new 0 0 277.1 277.1;" xml:space="preserve">
<style type="text/css">
	.st0{fill:#ED232A;}
</style>
<g>
	<g>
		<path class="st0" d="M121.8,27.2c35.4-6.7,70.5,9.7,88.3,41.3c17.7,31.4,12.9,70.5-11.9,97.4c-24.2,26.3-62.8,34.1-95.7,19.3
			c-32.5-14.6-52.2-48.6-48.7-83.9c3.6-36.5,31.2-67.7,64.8-73.4C119.8,27.7,120.8,27.5,121.8,27.2z M208.8,109.7
			c0.3-39.4-31.5-71.9-70.7-72.4c-39.6-0.5-72.2,31.4-72.7,71.2c-0.4,39.2,31.6,71.9,70.7,72.3C175.9,181.3,208.5,149.3,208.8,109.7
			z"/>
		<path class="st0" d="M121.8,27.2c-1,0.3-2,0.5-3.1,0.8C119.8,27.7,120.8,27.5,121.8,27.2z"/>
		<path class="st0" d="M137.4,147.2c-8.1,0-16.1,0.1-24.2,0c-6.5-0.1-8.8-3.2-7.1-9.4c3.5-13.2,17-23.1,31.4-22.9
			c14.1,0.2,27.1,10,30.5,23.1c1.6,6.2-0.5,9.1-7.2,9.3C153,147.3,145.2,147.2,137.4,147.2z"/>
		<path class="st0" d="M176.1,86.7c0.1,7.1-5.6,13.2-12.7,13.5c-7.6,0.3-13.6-5.3-13.8-12.9c-0.2-7.5,5.8-13.6,13.2-13.5
			C170,73.8,176,79.6,176.1,86.7z"/>
		<path class="st0" d="M124.7,86.9c0.1,7.4-6.1,13.5-13.5,13.4c-7.2-0.1-12.9-5.9-13-13.1c-0.1-7.1,5.6-13.2,12.7-13.4
			C118.3,73.5,124.6,79.6,124.7,86.9z"/>
	</g>
	<g>
		<path class="st0" d="M26.8,220.3h-6.4v21.6c0,1.3-1,2.2-2.2,2.2c-1.2,0-2.2-1-2.2-2.2v-21.6H9.5c-1.3,0-2.2-1.1-2.2-2.3
			c0-1.3,1-2.2,2.2-2.2h17.3c1.2,0,2.2,1,2.2,2.2C29,219.3,28,220.3,26.8,220.3z"/>
		<path class="st0" d="M43.7,226c0,1.1-0.9,2.1-2.1,2.1c-0.9,0-1.7,0.2-2.4,0.8c-0.8,0.5-1.4,1.2-1.9,1.9c-1,1.3-1.5,2.8-1.7,3.4
			v7.7c0,1.2-1,2.1-2.2,2.1c-1.2,0-2.1-1-2.1-2.1V226c0-1.2,1-2.1,2.1-2.1c1.2,0,2.2,0.9,2.2,2.1v0.3c0.2-0.3,0.6-0.6,0.8-0.8
			c1.3-0.9,3.1-1.6,5.1-1.6C42.8,223.9,43.7,224.9,43.7,226z"/>
		<path class="st0" d="M47.6,234c0-5.5,4.3-10.1,9.9-10.1c5.3,0,9.4,3.9,9.7,9.4c0,0,0,0.1,0,0.2s0,0.3,0,0.4c-0.1,1-1,1.6-2.1,1.6
			H52.2c0.2,0.9,0.6,2,1.4,2.7c0.8,1,2.5,1.7,3.9,1.8c1.5,0.1,3.2-0.2,4.2-1c0.8-0.9,2.5-0.8,3-0.1c0.5,0.6,0.9,1.8,0,2.6
			c-2,1.8-4.4,2.7-7.2,2.7C51.9,244.1,47.6,239.5,47.6,234z M52,232h11.4c-0.4-1.6-2.5-4-6-4.3C54,227.9,52.3,230.4,52,232z M58,220
			l-2.8-2.6c-0.4-0.4-0.7-0.8-0.7-1.2c0-0.8,1.6-1.6,2.9-1.6c0.8,0,1.5,0.4,1.9,1.2l2.3,3.6c0.2,0.2,0.4,0.6,0.4,0.9
			c0,0.5-0.5,0.8-1.3,0.8C59.7,221.1,59,220.9,58,220z"/>
		<path class="st0" d="M72.6,238.3c0.7-1,2.1-1.1,3-0.3c1.1,0.9,2.9,1.8,4.4,1.8c1.1,0,2.1-0.4,2.8-0.8c0.6-0.5,0.7-0.9,0.7-1.2
			c0-0.2,0-0.3-0.1-0.4c0-0.1-0.2-0.3-0.5-0.5c-0.6-0.4-1.8-0.8-3.2-1.1h0c-1.3-0.2-2.5-0.6-3.5-1.1c-1.1-0.5-2.1-1.3-2.8-2.3
			c-0.4-0.7-0.7-1.6-0.7-2.5c0-1.9,1.1-3.4,2.4-4.4c1.4-1,3.1-1.5,5-1.5c2.8,0,4.8,1.3,6.1,2.2c1,0.6,1.3,2,0.6,3
			c-0.6,1-2,1.3-3,0.6c-1.3-0.8-2.4-1.5-3.7-1.5c-1,0-1.9,0.3-2.4,0.7c-0.5,0.4-0.6,0.7-0.6,0.9c0,0.2,0,0.2,0.1,0.3
			c0,0.1,0.2,0.2,0.4,0.4c0.5,0.4,1.6,0.7,3,1l0,0h0c1.3,0.2,2.6,0.6,3.8,1.2c1.1,0.5,2.2,1.3,2.9,2.4c0.5,0.8,0.8,1.7,0.8,2.7
			c0,2-1.1,3.6-2.5,4.7c-1.5,1-3.3,1.6-5.3,1.6c-3.2,0-5.6-1.5-7.2-2.8C72,240.6,71.9,239.2,72.6,238.3z"/>
		<path class="st0" d="M122.6,232.3c0,0,0,0.1,0,0.1v9.6c0,1.2-1,2.1-2.1,2.1c-1.1,0-2.2-1-2.2-2.1v-9.6c0,0,0-0.1,0-0.1
			c0-2.2-1.9-4-4.2-4c-2.2,0-4.1,1.9-4.1,4.2v9.6c0,0.1,0,0.2,0,0.3c0,0,0,0.1,0,0.1c0,0.1,0,0.2-0.1,0.2c0,0,0,0.1,0,0.2
			c-0.4,0.7-1.2,1.3-2,1.3c-0.2,0-0.3,0-0.4,0c-1-0.2-1.7-1.1-1.7-2.1v-9.6c0,0,0,0,0,0v-6.3c0-1.3,1-2.2,2.1-2.2
			c0.8,0,1.6,0.4,1.9,1.2c1.3-0.8,2.8-1.2,4.3-1.2c2.5,0,4.8,1.1,6.4,2.8c1.5-1.7,3.8-2.8,6.4-2.8c4.7,0,8.4,3.8,8.4,8.5v9.6
			c0,1.2-1,2.1-2.1,2.1c-1.2,0-2.2-1-2.2-2.1v-9.6c0-2.3-1.9-4.2-4.1-4.2C124.5,228.2,122.6,230.1,122.6,232.3z"/>
		<path class="st0" d="M161.2,234.1v7.9c0,1.2-1,2.1-2.1,2.1c-1.1,0-1.9-0.8-2.1-1.7c-1.5,1.1-3.4,1.7-5.4,1.7c-2.8,0-5.1-1.1-6.9-3
			c-1.7-1.9-2.8-4.4-2.8-7.1c0-2.8,1-5.3,2.8-7.1c1.7-1.9,4.1-3,6.9-3c2,0,3.8,0.7,5.4,1.8c0.2-1,1.1-1.8,2.1-1.8
			c1.2,0,2.1,1,2.1,2.2V234.1z M156.9,234.1c0-1.7-0.6-3.2-1.6-4.2c-1-1.1-2.3-1.7-3.8-1.7c-1.5,0-2.8,0.6-3.8,1.7
			c-1,1-1.5,2.5-1.5,4.2c0,1.7,0.6,3.1,1.5,4.2c0.9,1,2.3,1.6,3.8,1.6c1.4,0,2.8-0.6,3.8-1.6C156.3,237.2,156.9,235.7,156.9,234.1z"
			/>
		<path class="st0" d="M177.2,244.1c-4.6,0-8.4-3.8-8.4-8.4V226c0-1.1,1-2.1,2.1-2.1c1.2,0,2.1,1,2.1,2.1v9.7c0,2.3,1.8,4.1,4.1,4.1
			c2.3,0,4.2-1.8,4.2-4.1V226c0-1.1,0.9-2.1,2.1-2.1c1.1,0,2.2,1,2.2,2.1v9.7C185.7,240.3,181.8,244.1,177.2,244.1z"/>
		<path class="st0" d="M209.9,227.1l-6.6,15.7c0,0.1-0.1,0.2-0.2,0.3c0,0,0,0,0,0c-0.1,0.1-0.2,0.2-0.2,0.3c0,0,0,0,0,0
			c-0.1,0.1-0.2,0.2-0.2,0.2c0,0,0,0,0,0c-0.1,0.1-0.2,0.2-0.3,0.2c0,0,0,0-0.1,0c0,0,0,0,0,0c-0.1,0-0.2,0-0.3,0.1c0,0,0,0-0.1,0
			c-0.2,0-0.3,0-0.4,0c-0.1,0-0.2,0-0.4,0c0,0,0,0-0.1,0c-0.1,0-0.2-0.1-0.3-0.1c0,0,0,0,0,0c-0.1,0-0.1,0-0.1,0
			c-0.1,0-0.2-0.1-0.4-0.2c0,0,0,0,0,0c-0.1-0.1-0.2-0.1-0.2-0.2c0,0,0,0-0.1,0c0-0.1-0.1-0.2-0.2-0.3c0,0,0,0,0,0
			c-0.1,0-0.1-0.2-0.2-0.3l-6.6-15.7c-0.5-1.1,0-2.3,1.2-2.8c1-0.5,2.2,0.1,2.7,1.2l4.7,11l4.7-11c0.4-1.1,1.7-1.7,2.7-1.2
			C209.9,224.9,210.4,226,209.9,227.1z"/>
		<path class="st0" d="M233.6,234.1v7.9c0,1.2-1,2.1-2.1,2.1c-1.1,0-1.9-0.8-2.1-1.7c-1.5,1.1-3.4,1.7-5.4,1.7c-2.8,0-5.1-1.1-6.9-3
			c-1.7-1.9-2.8-4.4-2.8-7.1c0-2.8,1-5.3,2.8-7.1c1.7-1.9,4.1-3,6.9-3c2,0,3.8,0.7,5.4,1.8c0.2-1,1.1-1.8,2.1-1.8
			c1.2,0,2.1,1,2.1,2.2V234.1z M229.3,234.1c0-1.7-0.6-3.2-1.6-4.2c-1-1.1-2.3-1.7-3.8-1.7c-1.5,0-2.8,0.6-3.8,1.7
			c-1,1-1.5,2.5-1.5,4.2c0,1.7,0.6,3.1,1.5,4.2c0.9,1,2.3,1.6,3.8,1.6c1.4,0,2.8-0.6,3.8-1.6C228.7,237.2,229.3,235.7,229.3,234.1z"
			/>
		<path class="st0" d="M245.9,218.8c0,1.2-0.9,2.2-2.2,2.2c-1.2,0-2.2-1-2.2-2.2V218c0-1.2,1-2.2,2.2-2.2c1.3,0,2.2,1,2.2,2.2V218.8
			z M245.9,226.2v15.8c0,1.2-0.9,2.2-2.2,2.2c-1.2,0-2.2-1-2.2-2.2v-15.8c0-1.3,1-2.2,2.2-2.2C245,223.9,245.9,224.9,245.9,226.2z"
			/>
		<path class="st0" d="M251.9,238.3c0.7-1,2.1-1.1,3-0.3c1.1,0.9,2.9,1.8,4.4,1.8c1.1,0,2.1-0.4,2.8-0.8c0.6-0.5,0.7-0.9,0.7-1.2
			c0-0.2,0-0.3-0.1-0.4c0-0.1-0.2-0.3-0.5-0.5c-0.6-0.4-1.8-0.8-3.2-1.1h0c-1.3-0.2-2.5-0.6-3.5-1.1c-1.1-0.5-2.1-1.3-2.8-2.3
			c-0.4-0.7-0.7-1.6-0.7-2.5c0-1.9,1.1-3.4,2.4-4.4c1.4-1,3.1-1.5,5-1.5c2.8,0,4.8,1.3,6.1,2.2c1,0.6,1.3,2,0.6,3
			c-0.6,1-2,1.3-3,0.6c-1.3-0.8-2.4-1.5-3.7-1.5c-1,0-1.9,0.3-2.4,0.7c-0.5,0.4-0.6,0.7-0.6,0.9c0,0.2,0,0.2,0.1,0.3
			c0,0.1,0.2,0.2,0.4,0.4c0.5,0.4,1.6,0.7,3,1l0,0h0c1.3,0.2,2.6,0.6,3.8,1.2c1.1,0.5,2.2,1.3,2.9,2.4c0.5,0.8,0.8,1.7,0.8,2.7
			c0,2-1.1,3.6-2.5,4.7c-1.5,1-3.3,1.6-5.3,1.6c-3.2,0-5.6-1.5-7.2-2.8C251.3,240.6,251.2,239.2,251.9,238.3z"/>
	</g>
</g>
</svg>
