<?xml version="1.0" encoding="utf-8"?>
<!-- Generator: Adobe Illustrator 24.1.3, SVG Export Plug-In . SVG Version: 6.00 Build 0)  -->
<svg version="1.1" id="Capa_1" xmlns="http://www.w3.org/2000/svg" xmlns:xlink="http://www.w3.org/1999/xlink" x="0px" y="0px"
	 viewBox="0 0 277.1 277.1" style="enable-background:new 0 0 277.1 277.1;" xml:space="preserve">
<style type="text/css">
	.st0{fill:#78C567;}
</style>
<g>
	<g>
		<path class="st0" d="M135.1,210.2c-56.4,0.3-103.5-46.1-103.7-102C31.2,50.5,77.2,3.9,134.5,3.8c56.9-0.1,103.4,46.1,103.5,103
			C238.2,163.8,192.3,209.9,135.1,210.2z M46.3,109c3,51.3,43.9,89.4,92.8,86.5c49.1-2.9,86.9-44.7,84.3-93.3
			c-2.5-47-44.5-86.1-90.1-83.9C83,20.7,43.5,62,46.3,109z"/>
		<path class="st0" d="M134.9,162.9c-17.3,0.1-33.4-10.5-39.9-26.4c-2-5-2.7-9.9,3-12.4c5.2-2.2,8.5,1.1,10.5,5.9
			c4.8,11.4,13.5,18,25.8,18.1c12.6,0.2,21.9-6.1,26.9-17.9c2-4.6,4.8-8.4,10.2-6.2c5.8,2.4,5.2,7.1,3.3,12.2
			C168.7,151.6,152.3,162.7,134.9,162.9z"/>
		<path class="st0" d="M103.5,95.9C93.7,96.1,87,89.5,87,79.6c0-9.4,6.5-16.1,15.7-16.3c9.3-0.1,17,7.4,16.9,16.4
			C119.6,88.4,112.3,95.7,103.5,95.9z"/>
		<path class="st0" d="M183.1,79.4c0.2,8.7-7,16.3-15.7,16.6c-9.3,0.4-17-6.8-17.1-16c-0.2-8.9,6.7-16.3,15.6-16.7
			C174.8,62.9,182.9,70.5,183.1,79.4z"/>
	</g>
	<g>
		<path class="st0" d="M88.6,271v-29.5c0-1.5,1.2-2.7,2.7-2.7c0,0,0,0,0.1,0c0,0,0,0,0,0h6.9c5.2,0,9.5,4.2,9.5,9.5
			c0,2.1-0.7,4.1-1.9,5.7c3,1.9,5,5.2,5,9c0,5.9-4.8,10.7-10.7,10.7h-8.8c0,0,0,0,0,0c-0.1,0-0.1,0-0.1,0
			C89.8,273.8,88.6,272.5,88.6,271z M94.1,252.3h4.3c2.2,0,3.9-1.8,3.9-4s-1.7-3.9-3.9-3.9h-4.3V252.3z M94.1,268.2h6.2
			c2.8,0,5.1-2.3,5.1-5.2c0-2.8-2.3-5.1-5.1-5.1h-6.2V268.2z"/>
		<path class="st0" d="M121.1,242.5c0,1.5-1.1,2.7-2.7,2.7c-1.5,0-2.7-1.2-2.7-2.7v-1c0-1.5,1.2-2.7,2.7-2.7c1.5,0,2.7,1.2,2.7,2.7
			V242.5z M121.1,251.6v19.5c0,1.5-1.1,2.7-2.7,2.7c-1.5,0-2.7-1.2-2.7-2.7v-19.5c0-1.6,1.2-2.7,2.7-2.7
			C120,248.8,121.1,250,121.1,251.6z"/>
		<path class="st0" d="M128,261.3c0.1-6.8,5.3-12.5,12.2-12.5c6.5,0,11.6,4.8,12,11.6c0,0,0,0.2,0,0.2s0,0.3,0,0.4
			c-0.2,1.2-1.2,2-2.6,2h-15.9c0.2,1.1,0.8,2.4,1.7,3.3c1,1.2,3,2.1,4.8,2.2c1.8,0.1,3.9-0.3,5.2-1.2c1-1.1,3.1-0.9,3.7-0.1
			c0.6,0.7,1.1,2.2,0,3.2c-2.4,2.2-5.4,3.3-8.9,3.3C133.3,273.7,128,268.1,128,261.3z M133.4,258.8h14.1c-0.5-2-3-4.9-7.4-5.3
			C135.9,253.7,133.8,256.8,133.4,258.8z"/>
		<path class="st0" d="M181,259.2v11.9c0,1.4-1.1,2.6-2.6,2.6c-1.4,0-2.6-1.2-2.6-2.6v-11.9c0-2.8-2.3-5-5.2-5c-2.8,0-5,2.2-5,5
			v11.9c0,0.1,0,0.3-0.1,0.5c-0.2,1.2-1.3,2.1-2.6,2.1c-1.5,0-2.6-1.2-2.6-2.6v-11.9v-7.7c0-1.4,1.1-2.6,2.6-2.6c1,0,2,0.6,2.4,1.5
			c1.5-0.9,3.3-1.5,5.3-1.5C176.3,248.8,181,253.5,181,259.2z"/>
	</g>
</g>
</svg>
