<?xml version="1.0" encoding="utf-8"?>
<!-- Generator: Adobe Illustrator 24.1.3, SVG Export Plug-In . SVG Version: 6.00 Build 0)  -->
<svg version="1.1" id="Capa_1" xmlns="http://www.w3.org/2000/svg" xmlns:xlink="http://www.w3.org/1999/xlink" x="0px" y="0px"
	 viewBox="0 0 277.1 277.1" style="enable-background:new 0 0 277.1 277.1;" xml:space="preserve">
<style type="text/css">
	.st0{fill:#E75B49;}
</style>
<g>
	<g>
		<path class="st0" d="M25.4,104.3C25.2,47.6,71.7,1.2,128.7,1.2c56.4,0,102.8,46.4,102.9,102.6c0.1,57-45.8,103.2-102.9,103.5
			C72,207.7,25.5,161.3,25.4,104.3z M216.9,103.2c-1.7-49.6-41.7-88.7-89.3-87.5C77.5,17,38.1,58.3,40,107.6
			c1.8,48.4,43.1,86.7,91.6,85.1C179.2,191,218.6,149.8,216.9,103.2z"/>
		<path class="st0" d="M129,113.6c17,0.1,33.6,11.5,39.5,27.1c1.8,4.7,2.3,9.2-3,11.6c-5.3,2.4-8.4-0.6-10.4-5.4
			c-4.9-11.8-13.8-18.2-26.6-18.2c-12.8,0-21.6,6.4-26.6,18.2c-2,4.8-5.2,7.9-10.5,5.4c-5.2-2.5-4.7-6.9-2.8-11.6
			C95.1,124.3,111.2,113.5,129,113.6z"/>
		<path class="st0" d="M96.8,60.7c8.8-0.1,16.1,7.1,16.3,15.9c0.2,9.2-7,16.7-16.3,16.7c-8.9,0-16.1-7-16.4-15.8
			C80.1,68.5,87.7,60.7,96.8,60.7z"/>
		<path class="st0" d="M160.4,60.6c9.3,0.2,16.2,7.7,15.9,17.1c-0.3,9-7.4,15.6-16.5,15.5c-9-0.1-16.6-8.1-16.1-17
			C144.1,67.7,151.8,60.5,160.4,60.6z"/>
	</g>
	<g>
		<path class="st0" d="M63.3,238.6V268c0,1.5-1.3,2.7-2.8,2.7c-1.5,0-2.7-1.2-2.7-2.7v-21l-7.2,10c-0.5,0.7-1.3,1.1-2.2,1.1h0h-0.1
			c-0.9,0-1.7-0.4-2.3-1.1l-7.1-10v21c0,1.5-1.2,2.7-2.8,2.7c-1.5,0-2.7-1.2-2.7-2.7v-29.4c0-1.5,1.2-2.7,2.7-2.7c0,0,0,0,0.1,0
			c0.8,0,1.7,0.4,2.2,1.1l9.9,13.8l9.9-13.8c0.5-0.7,1.3-1.1,2.2-1.1c0,0,0,0,0,0C62,235.9,63.3,237.1,63.3,238.6z"/>
		<path class="st0" d="M95.9,258.3v9.8c0,1.4-1.2,2.6-2.6,2.6c-1.3,0-2.3-0.9-2.6-2.1c-1.9,1.3-4.1,2.1-6.6,2.1
			c-3.4,0-6.3-1.4-8.5-3.6c-2.1-2.3-3.4-5.4-3.4-8.8c0-3.4,1.2-6.5,3.4-8.8c2.1-2.3,5.1-3.7,8.5-3.7c2.5,0,4.7,0.8,6.6,2.2
			c0.3-1.2,1.3-2.2,2.6-2.2c1.4,0,2.6,1.2,2.6,2.7V258.3z M90.7,258.3c0-2.1-0.7-3.9-1.9-5.1c-1.2-1.3-2.9-2-4.6-2
			c-1.8,0-3.5,0.7-4.6,2c-1.2,1.2-1.9,3-1.9,5.1c0,2,0.7,3.8,1.9,5.1c1.1,1.2,2.8,1.9,4.6,1.9c1.7,0,3.4-0.7,4.6-1.9
			C89.9,262.2,90.7,260.4,90.7,258.3z"/>
		<path class="st0" d="M115.6,270.7c-5.7,0-10.4-4.7-10.4-10.4v-11.9c0-1.4,1.2-2.6,2.6-2.6c1.5,0,2.6,1.2,2.6,2.6v11.9
			c0,2.8,2.2,5.1,5.1,5.1c2.9,0,5.2-2.2,5.2-5.1v-11.9c0-1.4,1.1-2.6,2.6-2.6c1.4,0,2.7,1.2,2.7,2.6v11.9
			C126.1,266.1,121.3,270.7,115.6,270.7z"/>
		<path class="st0" d="M156,249.8l-8.2,19.3c0,0.1-0.1,0.3-0.2,0.3c0,0,0,0,0,0c-0.1,0.1-0.2,0.2-0.3,0.3c0,0,0,0,0,0
			c-0.1,0.1-0.2,0.2-0.3,0.3c0,0,0,0,0,0c-0.1,0.1-0.2,0.2-0.3,0.2c0,0,0,0-0.1,0c0,0,0,0,0,0c-0.1,0-0.3,0-0.4,0.1c0,0,0,0-0.1,0
			c-0.2,0-0.3,0-0.5,0c-0.1,0-0.2,0-0.4,0c0,0,0,0-0.1,0c-0.1,0-0.2-0.1-0.4-0.1c0,0,0,0,0,0c-0.1,0-0.1,0-0.1,0
			c-0.1,0-0.2-0.1-0.4-0.2c0,0,0,0,0,0c-0.1-0.1-0.2-0.1-0.3-0.3c0,0,0,0-0.1,0c0-0.1-0.1-0.2-0.2-0.3c0,0,0,0,0,0
			c-0.1,0-0.1-0.2-0.2-0.3l-8.1-19.3c-0.6-1.3,0-2.8,1.4-3.4c1.2-0.6,2.7,0.1,3.3,1.4l5.7,13.6l5.8-13.6c0.5-1.3,2-2,3.3-1.4
			C155.9,247,156.6,248.5,156,249.8z"/>
		<path class="st0" d="M185.1,258.3v9.8c0,1.4-1.2,2.6-2.6,2.6c-1.3,0-2.3-0.9-2.6-2.1c-1.9,1.3-4.1,2.1-6.6,2.1
			c-3.4,0-6.3-1.4-8.5-3.6c-2.1-2.3-3.4-5.4-3.4-8.8c0-3.4,1.2-6.5,3.4-8.8c2.1-2.3,5.1-3.7,8.5-3.7c2.5,0,4.7,0.8,6.6,2.2
			c0.3-1.2,1.3-2.2,2.6-2.2c1.4,0,2.6,1.2,2.6,2.7V258.3z M179.9,258.3c0-2.1-0.7-3.9-1.9-5.1c-1.2-1.3-2.9-2-4.6-2
			c-1.8,0-3.5,0.7-4.6,2c-1.2,1.2-1.9,3-1.9,5.1c0,2,0.7,3.8,1.9,5.1c1.1,1.2,2.8,1.9,4.6,1.9c1.7,0,3.4-0.7,4.6-1.9
			C179.1,262.2,179.9,260.4,179.9,258.3z"/>
		<path class="st0" d="M200.4,239.6c0,1.5-1.1,2.7-2.7,2.7c-1.5,0-2.7-1.2-2.7-2.7v-1c0-1.5,1.2-2.7,2.7-2.7c1.5,0,2.7,1.2,2.7,2.7
			V239.6z M200.4,248.6V268c0,1.5-1.1,2.7-2.7,2.7c-1.5,0-2.7-1.2-2.7-2.7v-19.4c0-1.6,1.2-2.7,2.7-2.7
			C199.2,245.9,200.4,247,200.4,248.6z"/>
		<path class="st0" d="M207.7,263.6c0.9-1.2,2.6-1.3,3.7-0.4c1.3,1.1,3.5,2.2,5.5,2.2c1.3,0,2.6-0.4,3.4-0.9
			c0.7-0.6,0.9-1.1,0.9-1.5c0-0.2,0-0.3-0.1-0.5c0-0.2-0.2-0.3-0.6-0.6c-0.7-0.5-2.2-1-4-1.4h0c-1.5-0.3-3-0.7-4.3-1.3
			c-1.3-0.6-2.5-1.5-3.4-2.9c-0.5-0.9-0.8-2-0.8-3.1c0-2.3,1.3-4.2,2.9-5.5c1.7-1.2,3.8-1.8,6.1-1.8c3.4,0,5.9,1.6,7.5,2.7
			c1.2,0.8,1.5,2.4,0.8,3.7c-0.8,1.2-2.4,1.5-3.7,0.7c-1.6-1-3-1.8-4.6-1.8c-1.2,0-2.3,0.4-3,0.9c-0.6,0.4-0.8,0.9-0.8,1.1
			c0,0.2,0,0.2,0.1,0.4c0,0.1,0.2,0.3,0.5,0.5c0.6,0.4,1.9,0.9,3.6,1.2l0,0h0c1.6,0.3,3.2,0.7,4.6,1.4c1.3,0.6,2.7,1.5,3.5,2.9
			c0.6,1,0.9,2.1,0.9,3.3c0,2.4-1.3,4.5-3.1,5.8c-1.8,1.2-4,2-6.5,2c-3.9,0-6.9-1.8-8.9-3.4C207,266.4,206.8,264.7,207.7,263.6z"/>
	</g>
</g>
</svg>
