<?xml version="1.0" encoding="utf-8"?>
<!-- Generator: Adobe Illustrator 25.2.3, SVG Export Plug-In . SVG Version: 6.00 Build 0)  -->
<svg version="1.1" id="Calque_1" xmlns="http://www.w3.org/2000/svg" xmlns:xlink="http://www.w3.org/1999/xlink" x="0px" y="0px"
	 viewBox="0 0 511.9 554.1" style="enable-background:new 0 0 511.9 554.1;" xml:space="preserve">
<style type="text/css">
	.st0{fill:#FFFFFF;}
</style>
<g>
	<g>
		<path class="st0" d="M351.4,533.1c-8.9-1.6-17.9-3-26.8-4.9c-34-7.4-68-15.1-102-22.4c-22.8-4.9-45.2-5.7-67.4,4
			c-17.6,7.7-35.7,14.4-54,20.1c-18.4,5.7-38.1-6.4-44.5-24.7c-5.4-15.4-1.7-28.6,8.9-40c9.5-10.2,19.3-20.2,29.9-29.3
			c28.6-24.7,42.9-56.1,45-93.2c0.6-10.5-1.6-21.1-2.5-32.3c-2.9,0-5.1,0.1-7.4,0c-16.2-0.9-32.6-1-48.7-3.1
			c-15.5-2-22-10-22.6-26.1c-0.5-13.8,4-25.1,18.8-30.1c8-2.7,16.9-3.2,25.4-4.1c5.7-0.6,11.6-0.1,17.9-0.1c-1-3.9-2.1-7.2-2.8-10.5
			c-4.2-18.4-9.9-36.7-12.1-55.3c-6.8-56.7,16.6-113,76.2-141.8c32.4-15.6,66.7-19.1,102.1-16.4c19.3,1.5,38.1,4.8,56.2,12.1
			c22.5,9.1,40.6,23.8,55.8,42.3c14.8,18.1,24.6,38.4,28.3,61.7c3.4,21.1-4.1,40.2-20.5,49.6c-25.3,14.5-54,3.8-64.1-23.9
			c-4.2-11.5-7.9-23.3-13-34.4c-8.6-18.7-21.6-33.3-42.8-37.7c-35.5-7.5-67.7,5.1-81.8,39c-5.8,14-6.1,28.9-4.9,43.7
			c1.9,23.8,10.3,46.2,16.9,69c0.4,1.2,3.2,2.5,4.9,2.5c15,0.2,30,0,44.9,0.1c13.6,0.1,27.2,0.9,40.5,4.7
			c10.1,2.9,15.7,9.2,17.5,19.4c3.6,20.3-8,37.1-28.7,38.5c-19.4,1.3-38.9,0.7-58.3,1c-2.5,0-4.9,0-7.4,0
			c-0.8,9.3-1.2,18.2-2.3,27.1c-2.7,21.8-11.9,41.1-24.6,58.6c-11.7,16.1-24.5,31.4-36.9,47.1c-1.2,1.5-2.5,3-4.6,5.6
			c5.2-1.1,9-1.8,12.8-2.7c32.1-7.9,64.6-9.8,97.4-5.9c25.2,3,50.5,5.5,75.8,7.9c16.7,1.6,32.7-2.5,48.5-7c6.1-1.7,12.1-3.4,18.2-5
			c14.7-3.7,26.6,1.6,36,12.5c17,19.8,13.1,47.4-8.9,62.5c-16.3,11.2-34.8,16.8-54.2,20.1c-4.1,0.7-8.1,1.4-12.2,2
			C366,533.1,358.7,533.1,351.4,533.1z"/>
	</g>
</g>
</svg>
