<?xml version="1.0" encoding="utf-8"?>
<!-- Generator: Adobe Illustrator 25.2.3, SVG Export Plug-In . SVG Version: 6.00 Build 0)  -->
<svg version="1.1" id="Calque_14" xmlns="http://www.w3.org/2000/svg" xmlns:xlink="http://www.w3.org/1999/xlink" x="0px" y="0px"
	 viewBox="0 0 150 150" style="enable-background:new 0 0 150 150;" xml:space="preserve">
<style type="text/css">
	.st0{fill:#020203;}
	.st1{fill:#FFFFFF;}
	.st2{fill:#DF2228;}
</style>
<g id="XMLID_129_">
	<g id="XMLID_97_">
		<path id="XMLID_381_" class="st0" d="M55.86,69.19h-0.68c-0.66,0-0.96,0.19-1.39,0.92L50.15,76l-1.51-5.82
			c-0.18-0.7-0.37-0.97-1.13-0.97h-0.57c-0.75,0-1.22,0.44-1.36,1.22l-1.69,9.47c-0.13,0.71,0.19,1.09,0.81,1.09h0.26
			c0.65,0,0.94-0.32,1.05-1.02l1.36-7.65l1.31,5.12c0.11,0.52,0.21,0.86,1.2,0.86c0.83,0,1.02-0.29,1.31-0.76l3.21-5.27l-1.36,7.65
			C52.93,80.64,53.25,81,53.85,81h0.28c0.65,0,0.94-0.34,1.05-1.02l1.67-9.53C57,69.68,56.62,69.19,55.86,69.19L55.86,69.19z"/>
		<path id="XMLID_378_" class="st0" d="M65.99,75.97c-0.08-2.3-1.64-3.99-4.26-3.99c-3,0-4.83,2.45-4.75,5.12
			c0.1,2.45,1.78,4.02,4.26,4.02C64.32,81.11,66.07,78.64,65.99,75.97z M61.26,79.44c-1.41,0-2.3-1.02-2.35-2.42
			c-0.06-1.8,1.12-3.39,2.8-3.39c1.3,0,2.32,1.02,2.37,2.43C64.13,77.96,62.95,79.44,61.26,79.44z"/>
		<path id="XMLID_308_" class="st0" d="M72.69,71.98c-1.25,0-2.24,0.62-2.9,1.65c0.06-1.18-0.58-1.52-1.25-1.52
			c-0.31,0-0.55,0.08-0.57,0.11l-1.36,7.7c-0.13,0.79,0.31,1.02,0.89,1.02h0.24c0.63,0,0.89-0.26,1.02-1.02l0.81-4.62
			c0.58-1.02,1.23-1.51,2.24-1.51c1.01,0,1.6,0.6,1.62,1.59c0.02,0.26-0.05,0.58-0.1,0.97l-0.63,3.57
			c-0.13,0.79,0.32,1.02,0.89,1.02h0.24c0.63,0,0.89-0.26,1.02-1.02l0.7-3.94c0.08-0.44,0.13-0.83,0.11-1.18
			C75.62,73.15,74.52,71.98,72.69,71.98L72.69,71.98z"/>
		<path id="XMLID_305_" class="st0" d="M111.04,71.98c-1.02,0-1.78,0.58-2.3,1.65c0.08-1.18-0.57-1.52-1.23-1.52
			c-0.32,0-0.55,0.08-0.57,0.11l-1.38,7.7c-0.13,0.79,0.39,1.02,0.97,1.02h0.24c0.55,0,0.81-0.26,0.96-1.02l0.45-2.58
			c0.34-2.01,1.09-3.4,2.29-3.4c0.58,0,0.96,0.24,1.2,0.52c0.03,0.03,0.94-0.32,0.91-1.39C112.54,72.4,111.87,71.98,111.04,71.98
			L111.04,71.98z"/>
		<path id="XMLID_113_" class="st0" d="M121.52,72.11c-0.84,0-1.31,0.41-1.59,1.48c-0.53-1.01-1.64-1.62-2.92-1.62
			c-2.72,0-4.62,2.43-4.62,5.19c0,2.27,1.39,3.96,3.6,3.96c1.35,0,2.38-0.55,3.05-1.67c-0.1,1.17,0.13,1.52,0.97,1.52
			c0.75,0,0.99-0.28,1.07-1.1c0.1-1.52,0.62-4,1.22-7.49C122.29,72.31,121.95,72.11,121.52,72.11z M116.46,79.44
			c-1.33,0-2.09-0.84-2.09-2.33c0-1.75,1.02-3.5,2.92-3.5c1.54,0,2.19,1.13,2.19,2.38C119.47,77.56,118.4,79.44,116.46,79.44z"/>
		<path id="XMLID_112_" class="st0" d="M134.45,71.98c-1.49,0-2.48,0.76-3.18,1.88c-0.34-1.18-1.36-1.88-2.66-1.88
			c-1.13,0-2.12,0.53-2.8,1.56c0.03-1.09-0.6-1.41-1.25-1.41c-0.32,0-0.55,0.08-0.57,0.11l-1.36,7.7c-0.13,0.79,0.31,1.02,0.89,1.02
			h0.24c0.55,0,0.89-0.23,1.02-1.02l0.84-4.78c0.62-0.96,1.2-1.36,2.11-1.36c0.89,0,1.44,0.66,1.44,1.67c0,0.16-0.02,0.34-0.05,0.53
			l-0.68,3.94c-0.13,0.79,0.32,1.02,0.89,1.02h0.23c0.55,0,0.91-0.24,1.04-1.02l0.84-4.78c0.62-0.96,1.2-1.36,2.11-1.36
			c0.86,0,1.49,0.52,1.49,1.59c0,0.26-0.05,0.58-0.11,0.97l-0.63,3.57c-0.13,0.79,0.31,1.02,0.89,1.02h0.24
			c0.63,0,0.89-0.26,1.02-1.02l0.7-3.94c0.08-0.44,0.11-0.83,0.11-1.18C137.29,73.07,136.12,71.98,134.45,71.98L134.45,71.98z"/>
		<path id="XMLID_108_" class="st0" d="M85.51,75.84c0-1.2-0.24-1.99-0.78-2.69c-0.58-0.75-1.67-1.2-2.93-1.2
			c-3.83,0-5.2,2.82-5.2,5.27c0,2.33,1.69,3.89,4.28,3.89c2.59,0,4.05-1.15,4.05-2.08c0-0.62-0.44-0.83-0.94-0.88
			c-0.68,0.88-1.62,1.3-2.9,1.3c-1.13,0-2.48-0.44-2.58-2.46h5.88C85.02,77.01,85.51,76.65,85.51,75.84z M83.61,75.56H78.7
			c0.47-1.25,1.56-2.03,2.93-2.03c0.7,0,1.23,0.19,1.59,0.58C83.53,74.48,83.65,74.97,83.61,75.56z"/>
		<path id="XMLID_107_" class="st0" d="M103.78,74.66h-3.5c-0.42,0-0.62,0.1-0.75,0.23c-0.21,0.23-0.32,0.75-0.32,0.97
			c0.02,0.36,0.32,0.57,0.89,0.57h2.48c-0.34,1.73-1.44,2.93-3.34,2.93c-1.99,0-3.32-1.26-3.4-3.42c-0.1-2.71,1.7-4.94,4.25-4.94
			c1.49,0,2.66,0.79,3.13,1.85c0.06,0.08,1.44,0.08,1.39-1.1c-0.02-0.42-0.26-0.92-0.71-1.35c-0.73-0.73-2.11-1.36-3.94-1.36
			c-2.56,0-4.59,1.41-5.64,3.45c0-0.02-0.02-0.02-0.02-0.02c-0.21-0.28-0.55-0.41-0.89-0.41c-0.57,0-0.94,0.18-1.49,1.15L89.19,78
			l-1.02-4.77c-0.19-0.89-0.52-1.17-1.09-1.17c-0.66,0-1.2,0.49-1.18,0.6l1.95,7.7l-2.01,3.31c-0.21,0.36-0.23,0.83,0.53,0.83h0.42
			c0.79,0,1.05-0.49,1.44-1.15l5.48-9.27c-0.16,0.65-0.24,1.35-0.21,2.06c0.1,3.11,2.2,4.99,5.28,4.99c1.46,0,2.63-0.55,3.27-1.39
			c-0.05,0.91,0.44,1.26,1.09,1.26c0.36,0,0.62-0.11,0.62-0.18l0.89-4.99C104.8,75.05,104.51,74.66,103.78,74.66z"/>
		<g id="XMLID_99_">
			<path id="XMLID_104_" class="st0" d="M139.59,80.01c0.06,0.11,0.11,0.16,0.19,0.16c0,0,0.02,0.13-0.15,0.13
				c-0.1,0-0.16-0.05-0.26-0.23l-0.18-0.32h-0.16l-0.08,0.45c-0.02,0.06-0.05,0.1-0.11,0.1h-0.03c-0.06,0-0.1-0.03-0.08-0.11
				l0.23-1.17c0.02-0.08,0.06-0.11,0.15-0.11h0.34c0.31,0,0.49,0.13,0.49,0.36c0,0.28-0.18,0.45-0.49,0.47L139.59,80.01z
				 M139.38,79.57c0.21,0,0.32-0.11,0.31-0.29c0-0.13-0.1-0.21-0.28-0.21h-0.24l-0.1,0.49h0.31V79.57z"/>
			<path id="XMLID_101_" class="st0" d="M139.33,78.53c0.63,0,1.13,0.52,1.13,1.13c0,0.63-0.52,1.13-1.13,1.13
				c-0.63,0-1.13-0.52-1.13-1.13C138.18,79.05,138.7,78.53,139.33,78.53 M139.33,78.34c-0.73,0-1.33,0.6-1.33,1.33
				c0,0.73,0.6,1.33,1.33,1.33s1.33-0.6,1.33-1.33C140.66,78.94,140.06,78.34,139.33,78.34L139.33,78.34z"/>
		</g>
	</g>
	<circle id="XMLID_96_" class="st1" cx="26.49" cy="76.15" r="12.86"/>
	<path id="XMLID_13_" class="st2" d="M39.34,76.15c0,7.1-5.75,12.86-12.86,12.86s-12.86-5.75-12.86-12.86
		c0-1.96,0.44-3.81,1.22-5.46c-0.52,1.31-0.76,2.63-0.76,3.84c0,5.82,4.7,6.66,6.7,6.65c3.05-0.03,6.6-1.52,9.6-4.28
		c0,0-0.39,2.17-0.5,2.84c-0.11,0.65,0.31,1.22,0.96,1.22h0.26c0.66,0,1.15-0.55,1.26-1.22l1.09-6.06c0.13-0.68-0.31-1.22-0.99-1.22
		h-6.06c-0.68,0-1.3,0.36-1.41,1.04c0,0.03-0.05,0.23-0.05,0.28c-0.1,0.65,0.36,1.13,1.01,1.13h3.16c-0.05,0.05-0.1,0.1-0.15,0.15
		c-2.19,2.06-4.9,3.19-7.13,3.19c-2.22,0-4.72-1.41-4.72-4.57c0-6.57,6.16-10.38,9.39-10.38C33.57,63.29,39.34,69.05,39.34,76.15z"
		/>
</g>
</svg>
