<?xml version="1.0" encoding="utf-8"?>
<!-- Generator: Adobe Illustrator 25.2.3, SVG Export Plug-In . SVG Version: 6.00 Build 0)  -->
<svg version="1.1" id="Calque_2" xmlns="http://www.w3.org/2000/svg" xmlns:xlink="http://www.w3.org/1999/xlink" x="0px" y="0px"
	 viewBox="0 0 150 150" style="enable-background:new 0 0 150 150;" xml:space="preserve">
<g id="Em2A35.tif">
	<g>
		<path d="M36.91,57.18c0.57-1.45,0.95-3.01,1.76-4.31c2.1-3.43,5.3-5.24,9.31-5.27c9.94-0.07,19.89-0.03,29.83-0.02
			c2.02,0,3.65,1.36,3.89,3.2c0.26,1.95-0.88,3.68-2.78,4.18c-0.41,0.11-0.86,0.12-1.3,0.12c-9.65,0.01-19.31,0.04-28.96-0.02
			c-2.39-0.01-4.29,1.57-4.28,4.28c0.06,17.09,0.06,34.18,0,51.27c-0.01,2.41,1.71,4.22,4.24,4.21c17.09-0.06,34.18-0.06,51.27,0
			c2.56,0.01,4.27-1.75,4.25-4.31c-0.06-9.65,0.02-19.31-0.05-28.96c-0.02-2.56,2.04-4.12,3.75-4.07c2.21,0.06,3.78,1.66,3.78,4.04
			c0.01,9.83,0.01,19.66,0,29.48c-0.01,5.3-3.52,9.74-8.66,11c-0.36,0.09-0.75,0.12-1.12,0.12c-18.4,0.01-36.8,0.04-55.21-0.03
			c-3.04-0.01-5.37-1.73-7.27-4c-1.23-1.48-2.01-3.19-2.31-5.11c-0.02-0.11-0.1-0.2-0.15-0.31C36.91,94.16,36.91,75.67,36.91,57.18z
			"/>
		<path d="M118.64,32.67c0.46,0.14,0.93,0.27,1.39,0.42c6.22,2.02,8.6,9.62,4.43,14.69c-1.74,2.12-3.95,3.85-5.88,5.69
			c-4.23-4.23-8.59-8.59-13.05-13.05c-0.01,0.17-0.03,0.09,0,0.06c1.89-1.9,3.76-3.83,5.7-5.67c1.28-1.21,2.94-1.72,4.61-2.14
			C116.78,32.67,117.71,32.67,118.64,32.67z"/>
		<path d="M101.43,44.58c4.43,4.43,8.78,8.77,13.41,13.4c-0.27,0.15-0.63,0.26-0.87,0.5c-9.06,9.04-18.15,18.07-27.14,27.18
			c-1.47,1.49-3.03,2.35-5.08,2.68c-3.44,0.56-6.85,1.32-10.27,2.01c-1.98,0.4-3.03-0.66-2.63-2.65c0.81-3.99,1.61-7.98,2.39-11.98
			c0.16-0.83,0.49-1.5,1.11-2.11c9.5-9.47,18.99-18.96,28.47-28.45C101.01,44.96,101.22,44.77,101.43,44.58z"/>
	</g>
</g>
</svg>
