<?xml version="1.0" encoding="utf-8"?>
<!-- Generator: Adobe Illustrator 25.2.3, SVG Export Plug-In . SVG Version: 6.00 Build 0)  -->
<svg version="1.1" id="Calque_2" xmlns="http://www.w3.org/2000/svg" xmlns:xlink="http://www.w3.org/1999/xlink" x="0px" y="0px"
	 viewBox="0 0 150 150" style="enable-background:new 0 0 150 150;" xml:space="preserve">
<g id="xZQtvI.tif">
	<g>
		<path d="M43.37,121.37c-1.61-0.47-3.21-0.96-4.54-2.05c-2.38-1.95-3.74-4.42-3.74-7.52c-0.02-17.23-0.01-34.47-0.01-51.7
			c0-5.1,4.28-9.53,9.42-9.57c10.09-0.07,20.19-0.03,30.28-0.02c1.61,0,2.77,1.16,2.78,2.68c0,1.53-1.12,2.66-2.77,2.66
			c-4.76,0.02-9.51,0.01-14.27,0.01c-5.06,0-10.12,0-15.18,0c-1.22,0-2.36,0.21-3.33,1.03c-1.18,1-1.63,2.3-1.63,3.82
			c0.01,12.48,0,24.95,0,37.43c0,4.23,0,8.46,0,12.7c0,3.48,1.72,5.21,5.17,5.21c16.57,0,33.13-0.04,49.7,0.03
			c2.97,0.01,5.37-1.62,5.33-5.36c-0.11-9.49-0.04-18.98-0.03-28.46c0-0.57,0.03-1.18,0.21-1.71c0.41-1.2,1.62-1.84,2.92-1.66
			c1.14,0.16,2.1,1.22,2.22,2.46c0.03,0.27,0.01,0.55,0.01,0.83c0,9.57,0,19.14,0,28.71c0,5.52-2.85,9.1-8.23,10.36
			c-0.08,0.02-0.14,0.08-0.22,0.12C79.44,121.37,61.41,121.37,43.37,121.37z"/>
		<path d="M120.04,47.51c-0.14,0.5-0.26,1-0.42,1.49c-0.51,1.65-1.43,3.03-2.64,4.25C104.94,65.29,92.89,77.34,80.86,89.4
			c-0.73,0.73-1.6,1.03-2.56,1.22c-3.87,0.77-7.73,1.54-11.6,2.3c-1.91,0.38-3.57-1.24-3.2-3.15c0.81-4.14,1.61-8.28,2.51-12.4
			c0.15-0.67,0.63-1.36,1.14-1.86c9.82-9.86,19.66-19.69,29.49-29.52c2.15-2.15,4.31-4.29,6.45-6.45c2.81-2.84,6.18-3.87,10-2.73
			c3.78,1.13,6.06,3.78,6.82,7.69c0.01,0.07,0.09,0.13,0.13,0.2C120.04,45.63,120.04,46.57,120.04,47.51z M69.55,86.91
			c2.6-0.53,5.03-1.02,7.45-1.54c0.29-0.06,0.58-0.29,0.8-0.51c9.39-9.38,18.77-18.76,28.15-28.15c0.19-0.19,0.36-0.38,0.38-0.4
			c-2.11-2.13-4.15-4.17-6.23-6.26c-0.13,0.15-0.33,0.38-0.55,0.59c-8.91,8.92-17.81,17.85-26.76,26.72
			c-1.16,1.15-1.97,2.33-2.19,3.99C70.38,83.17,69.93,84.96,69.55,86.91z M110.36,52.26c1.05-1.04,2.14-2.06,3.16-3.15
			c1.63-1.75,1.58-4.37-0.05-6.07c-1.62-1.67-4.33-1.81-6.06-0.23c-1.14,1.04-2.18,2.19-3.25,3.27
			C106.22,48.14,108.27,50.18,110.36,52.26z"/>
	</g>
</g>
</svg>
