<?xml version="1.0" encoding="utf-8"?>
<!-- Generator: Adobe Illustrator 25.2.3, SVG Export Plug-In . SVG Version: 6.00 Build 0)  -->
<svg version="1.1" id="Operation_de_change_x0A_" xmlns="http://www.w3.org/2000/svg" xmlns:xlink="http://www.w3.org/1999/xlink"
	 x="0px" y="0px" viewBox="0 0 150 150" style="enable-background:new 0 0 150 150;" xml:space="preserve">
<style type="text/css">
	.st0{fill:#F3D65D;}
	.st1{fill:#E74D3E;}
	.st2{fill:#B29247;}
	.st3{font-family:'ArialRoundedMTBold';}
	.st4{font-size:20.1657px;}
</style>
<g id="rNaSMh.tif">
	<g>
		<path class="st0" d="M56.1,29.48c1.65,0.38,3.36,0.5,4.98,1.02c9.69,3.13,15.83,9.64,17.82,19.59c1.78,8.92-0.83,16.76-7.3,23.18
			c-3.38,3.35-7.48,5.47-12.13,6.5c-0.23,0.05-0.46,0.12-0.7,0.18c-1.45,0.18-2.9,0.37-4.37,0.38c-1.74,0.02-3.46-0.15-5.17-0.38
			c-3.28-0.7-6.38-1.85-9.18-3.73c-6.39-4.31-10.13-10.3-11.31-17.9c-0.03-0.2,0.04-0.43-0.2-0.55c0-1.8,0-3.6,0-5.41
			c0.33-0.43,0.25-0.97,0.33-1.45c1.42-9.68,8.99-18.1,18.46-20.55c1.41-0.37,2.87-0.48,4.27-0.88C53.1,29.48,54.6,29.48,56.1,29.48
			z"/>
		<path class="st1" d="M95.92,29.48c0.81,0.66,1.44,1.5,2.13,2.28c2.56,2.94,5.1,5.9,7.67,8.83c0.57,0.65,0.98,1.32,0.6,2.19
			c-0.38,0.89-1.16,1.03-2.02,1.03c-1.11-0.01-2.22,0.04-3.33-0.02c-0.73-0.04-0.9,0.22-0.89,0.91c0.02,8.85,0.01,17.7,0.01,26.55
			c-1.3-0.15-2.6-0.35-3.92-0.37c-1.89-0.04-3.76,0.1-5.62,0.38c0-8.83-0.01-17.66,0.02-26.48c0-0.8-0.2-1.04-0.99-0.99
			c-1.14,0.07-2.28,0.02-3.42,0.02c-0.81,0-1.47-0.26-1.81-1.06c-0.32-0.77-0.04-1.39,0.47-1.97c3.03-3.49,6.06-6.98,9.1-10.47
			c0.27-0.31,0.62-0.55,0.93-0.82C95.2,29.48,95.56,29.48,95.92,29.48z"/>
		<path class="st0" d="M90.55,71.26c1.86-0.28,3.73-0.41,5.62-0.38c1.32,0.03,2.61,0.22,3.92,0.37c7.02,1.48,12.61,5.13,16.56,11.15
			c6.27,9.56,5.33,22.2-2.26,30.71c-4.47,5.01-10.05,7.85-16.75,8.48c-13.32,1.25-25.39-8.13-27.45-21.36
			c-2.05-13.1,6.38-25.68,19.22-28.72C89.79,71.43,90.17,71.35,90.55,71.26z M90.82,94.71c1.41,0,2.82,0,4.23,0
			c0.65,0,1.25-0.13,1.61-0.77c0.68-1.2-0.08-2.43-1.56-2.45c-2.49-0.03-4.98-0.03-7.48,0c-0.73,0.01-0.82-0.23-0.55-0.84
			c0.57-1.29,1.5-2.31,2.52-3.24c2.71-2.48,6.85-2.9,10.02-1.05c1.27,0.74,2.27,1.74,3.13,2.92c0.55,0.75,1.41,0.91,2.14,0.46
			c0.73-0.45,0.99-1.37,0.53-2.13c-2.41-3.96-7.5-6.39-12.03-5.41c-4.89,1.06-8.14,4-9.84,8.68c-0.16,0.45-0.38,0.62-0.84,0.61
			c-1.08-0.02-2.16-0.03-3.24,0c-0.94,0.03-1.58,0.73-1.58,1.61c0,0.91,0.62,1.53,1.59,1.6c0.24,0.02,0.48,0,0.72,0
			c2.42,0,2.4,0,2.42,2.44c0.01,0.67-0.23,0.83-0.83,0.8c-0.78-0.04-1.56-0.02-2.34,0c-0.97,0.03-1.53,0.58-1.55,1.49
			c-0.02,0.96,0.55,1.57,1.55,1.59c0.9,0.02,1.81,0.07,2.7-0.01c0.89-0.08,1.29,0.21,1.58,1.1c1.58,4.74,6.54,8.41,11.35,8.46
			c4.24,0.04,7.56-1.76,10.06-5.15c0.74-1.01,0.67-1.84-0.2-2.52c-0.74-0.57-1.66-0.33-2.36,0.66c-0.95,1.32-2.15,2.34-3.62,3.02
			c-4.79,2.23-10.05-0.5-11.98-4.86c-0.27-0.6-0.11-0.7,0.48-0.7c2.58,0.02,5.16,0.02,7.75,0c1.01,0,1.79-0.69,1.75-1.54
			c-0.04-0.84-0.77-1.6-1.73-1.57c-2.34,0.07-4.68,0.06-7.03,0.01c-2.72-0.05-2.33,0.6-2.37-2.45c-0.01-0.58,0.17-0.79,0.77-0.78
			C88,94.73,89.41,94.71,90.82,94.71z"/>
		<path class="st1" d="M49.23,79.96c1.72,0.24,3.43,0.4,5.17,0.38c1.47-0.01,2.92-0.21,4.37-0.38c0,8.82,0.01,17.64-0.01,26.46
			c0,0.76,0.14,1.07,0.97,1.01c1.13-0.08,2.28-0.02,3.42-0.02c0.81,0,1.48,0.24,1.83,1.04c0.33,0.77,0.06,1.39-0.45,1.97
			c-3.05,3.51-6.09,7.03-9.15,10.53c-0.94,1.08-1.87,1.06-2.8-0.01c-3.05-3.51-6.09-7.03-9.15-10.53c-0.52-0.59-0.75-1.24-0.43-1.98
			c0.32-0.76,0.97-1.02,1.75-1.02c1.2-0.01,2.4-0.05,3.6,0.01c0.72,0.03,0.9-0.21,0.9-0.91C49.22,97.66,49.23,88.81,49.23,79.96z"/>
		<path class="st2" d="M90.82,94.71c-1.41,0-2.82,0.03-4.23-0.01c-0.6-0.02-0.78,0.2-0.77,0.78c0.04,3.05-0.35,2.4,2.37,2.45
			c2.34,0.04,4.69,0.06,7.03-0.01c0.97-0.03,1.69,0.73,1.73,1.57c0.04,0.86-0.74,1.54-1.75,1.54c-2.58,0.01-5.16,0.02-7.75,0
			c-0.58,0-0.74,0.1-0.48,0.7c1.93,4.37,7.18,7.09,11.98,4.86c1.47-0.68,2.67-1.7,3.62-3.02c0.71-0.99,1.62-1.23,2.36-0.66
			c0.87,0.67,0.94,1.51,0.2,2.52c-2.49,3.39-5.82,5.19-10.06,5.15c-4.81-0.04-9.78-3.71-11.35-8.46c-0.3-0.89-0.69-1.18-1.58-1.1
			c-0.89,0.08-1.8,0.03-2.7,0.01c-1-0.03-1.57-0.63-1.55-1.59c0.02-0.91,0.58-1.47,1.55-1.49c0.78-0.02,1.56-0.04,2.34,0
			c0.61,0.03,0.84-0.13,0.83-0.8c-0.02-2.43,0-2.43-2.42-2.44c-0.24,0-0.48,0.01-0.72,0c-0.97-0.07-1.58-0.69-1.59-1.6
			c0-0.89,0.64-1.58,1.58-1.61c1.08-0.04,2.16-0.03,3.24,0c0.46,0.01,0.67-0.16,0.84-0.61c1.7-4.68,4.96-7.62,9.84-8.68
			c4.53-0.98,9.63,1.44,12.03,5.41c0.46,0.76,0.21,1.67-0.53,2.13c-0.73,0.45-1.59,0.3-2.14-0.46c-0.86-1.18-1.85-2.18-3.13-2.92
			c-3.17-1.85-7.32-1.43-10.02,1.05c-1.02,0.94-1.94,1.95-2.52,3.24c-0.27,0.61-0.18,0.85,0.55,0.84c2.49-0.03,4.98-0.03,7.48,0
			c1.48,0.02,2.24,1.25,1.56,2.45c-0.36,0.64-0.96,0.77-1.61,0.77C93.65,94.71,92.23,94.71,90.82,94.71z"/>
	</g>
</g>
<text transform="matrix(1 0 0 1 33.2822 61.8574)" class="st2 st3 st4">CFA</text>
</svg>
