<?xml version="1.0" encoding="utf-8"?>
<!-- Generator: Adobe Illustrator 25.2.3, SVG Export Plug-In . SVG Version: 6.00 Build 0)  -->
<svg version="1.1" id="Calque_19" xmlns="http://www.w3.org/2000/svg" xmlns:xlink="http://www.w3.org/1999/xlink" x="0px" y="0px"
	 viewBox="0 0 150 150" style="enable-background:new 0 0 150 150;" xml:space="preserve">
<style type="text/css">
	.st0{fill:#48A048;}
	.st1{fill:#5EAD5D;}
	.st2{fill:#49A249;}
	.st3{fill:#73C773;}
	.st4{fill:#FDBC64;}
	.st5{fill:#EEA246;}
	.st6{fill:#E2E6EE;}
	.st7{fill:#E56271;}
	.st8{fill:#95D595;}
	.st9{fill:#D94C55;}
	.st10{fill:#D2DAE8;}
	.st11{fill:#FEDB92;}
	.st12{fill:#506270;}
</style>
<g id="fz0FGm.tif">
	<g>
		<path class="st0" d="M90.08,50.7c4.04-0.92,8.09-1.84,12.13-2.76c1.97-0.45,3.95-0.88,5.91-1.38c0.55-0.14,0.84-0.06,1.17,0.41
			c5.06,7.28,10.15,14.54,15.22,21.81c0.17,0.24,0.32,0.49,0.47,0.74c0,0.07,0,0.14,0,0.2c-2.48,0.85-5.04,1.37-7.62,1.8
			c-0.65,0.11-1.23,0.27-1.78,0.6c-2.64,1.55-5.28,3.09-7.93,4.63c-4.48,2.6-8.96,5.22-13.47,7.77c-1.84,1.04-3.56,2.31-5.57,3.04
			c-5.18-2.97-10.35-5.96-15.53-8.91c-2.05-1.17-4.03-2.45-6.16-3.47c0-0.27,0-0.54,0-0.82c2.28,1.04,4.35,2.42,6.52,3.65
			c5.07,2.87,10.12,5.81,15.17,8.72c0.88-0.19,1.57-0.76,2.32-1.19c3.95-2.26,7.87-4.56,11.81-6.85c4.49-2.6,8.99-5.2,13.47-7.82
			c0.3-0.18,1.03-0.29,0.76-0.73c-0.27-0.44-0.76,0.12-1.1,0.31c-3.16,1.81-6.29,3.66-9.44,5.48c-4.49,2.6-8.98,5.21-13.48,7.79
			c-1.43,0.82-2.78,1.78-4.31,2.4c-0.05-0.05-0.09-0.11-0.14-0.14c-7.19-4.14-14.38-8.27-21.57-12.41c0-0.27,0-0.54,0-0.81
			c0.53,0.3,1.06,0.6,1.58,0.9c5.2,3,10.4,6.01,15.61,8.99c1.49,0.85,2.91,1.83,4.51,2.47c0.28,0.02,0.53-0.06,0.77-0.2
			c1.89-1.1,3.79-2.21,5.68-3.3c4.47-2.58,8.94-5.15,13.4-7.73c2.6-1.5,5.2-3,7.78-4.53c0.32-0.19,0.86-0.31,0.73-0.97
			c-0.92,0.31-1.63,0.89-2.41,1.34c-7.56,4.38-15.1,8.77-22.68,13.11c-1.07,0.61-2.01,1.5-3.3,1.69c-4.01-2.29-8.02-4.58-12.03-6.87
			c-3.22-1.84-6.44-3.67-9.65-5.51c0-0.27,0-0.54,0-0.81c3.34,1.9,6.68,3.79,10.02,5.69c3.9,2.22,7.79,4.45,11.68,6.68
			c0.31-0.12,0.64-0.21,0.93-0.37c1.82-1.03,3.64-2.07,5.44-3.11c7.03-4.08,14.06-8.16,21.09-12.23c0.54-0.31,1.01-0.65,1.19-1.28
			c0.82-0.91,0.87-1.38,0.16-2.4c-2.58-3.71-5.17-7.41-7.76-11.11c-1.11-1.59-2.7-2.13-4.52-1.76c-3.43,0.71-6.83,1.54-10.25,2.32
			c-0.31-0.11-0.62-0.22-0.93-0.33c-1-0.87-2.25-1.34-3.34-2.06C90.39,51.21,89.88,51.22,90.08,50.7z"/>
		<path class="st0" d="M25.02,65.87c2.69-0.62,5.37-1.25,8.06-1.87c0.92-0.06,1.58,0.54,2.27,0.98c0.97,0.61,2.15,0.91,2.87,1.9
			c-1.48,0.35-2.98,0.61-4.42,1.06c-1.72,0.53-2.08,1.64-1.09,3.06c2.55,3.65,5.14,7.28,7.64,10.95c1.15,1.69,2.79,2.19,4.59,1.81
			c5.51-1.17,10.98-2.49,16.46-3.76c1.42,0.77,2.83,1.55,4.25,2.32c0.36,0.29,0.72,0.59,1.21,0.65c0,0.04,0,0.08,0.01,0.12
			c-0.15,0.07-0.29,0.17-0.44,0.2c-6.89,1.61-13.78,3.24-20.69,4.81c-1.2,0.27-2.39,0.69-3.66,0.66c-0.09-0.16-0.22-0.22-0.4-0.16
			c-0.02,0.01-0.04,0.05-0.05,0.08c0.15,0.03,0.3,0.05,0.45,0.08c-0.75,0.47-1.26,0.17-1.76-0.46c-0.48-0.61-0.61-1.51-1.49-1.78
			c0.05-0.37-0.15-0.63-0.35-0.91c-1.78-2.55-3.51-5.13-5.34-7.64c-0.41-0.56-0.59-1.39-1.42-1.58c-0.34-1.06-0.83-2.03-1.83-2.64
			c-0.2-0.87-0.58-1.61-1.42-2.03c-0.2-0.87-0.58-1.61-1.42-2.03c-0.4-1.14-0.91-2.21-2.04-2.83
			C25.02,66.55,25.02,66.21,25.02,65.87z"/>
		<path class="st1" d="M88.61,87.56c2.01-0.74,3.73-2,5.57-3.04c4.51-2.55,8.98-5.17,13.47-7.77c2.65-1.54,5.29-3.08,7.93-4.63
			c0.56-0.33,1.13-0.49,1.78-0.6c2.58-0.42,5.14-0.94,7.62-1.8c0,1.42,0,2.84,0,4.26c-0.25-0.14-0.48-0.13-0.77-0.06
			c-1.11,0.29-2.22,0.53-3.34,0.78c-1.08,0.25-2.16,0.61-3.25,0.69c-0.64,0.04-1.24-0.18-1.89,0.24c-1.5,0.96-3.07,1.83-4.61,2.73
			c-6.52,3.79-13.04,7.6-19.59,11.36c-0.86,0.49-1.64,1.22-2.71,1.3c0-0.14-0.01-0.28-0.01-0.42c2.98-1.72,5.96-3.44,8.94-5.16
			c4.87-2.82,9.71-5.71,14.63-8.45c1.85-1.03,3.52-2.45,5.85-2.61c1.89-0.14,3.75-0.77,5.61-1.22c0.32-0.08,0.92-0.06,0.83-0.51
			c-0.11-0.54-0.6-0.17-0.92-0.1c-1.38,0.32-2.75,0.65-4.13,0.96c-0.78,0.17-1.66,0.56-2.34,0.36c-0.61-0.18-0.95-0.04-1.35,0.19
			c-5.72,3.31-11.44,6.63-17.15,9.95c-3.32,1.93-6.65,3.86-9.98,5.79c-0.07,0-0.13,0-0.2,0c0-0.06-0.01-0.12,0-0.18
			c-0.01-0.2-0.01-0.41-0.02-0.61c0.57,0,1.02-0.32,1.49-0.59c2.65-1.55,5.3-3.1,7.95-4.64c4.14-2.4,8.28-4.82,12.45-7.17
			c2.8-1.58,5.37-3.65,8.78-3.97c1.66-0.16,3.28-0.71,4.92-1.08c0.22-0.05,0.55,0.01,0.52-0.33c-0.04-0.39-0.4-0.28-0.65-0.28
			c-0.2,0-0.39,0.08-0.59,0.12c-1.87,0.43-3.74,0.86-5.61,1.28c-0.22,0.05-0.61,0.16-0.66,0.08c-0.42-0.73-0.82-0.14-1.14,0.04
			c-2.31,1.32-4.61,2.68-6.91,4.02c-5.69,3.3-11.37,6.62-17.07,9.89c-1.13,0.65-2.18,1.47-3.48,1.79
			C88.61,87.97,88.61,87.76,88.61,87.56z"/>
		<path class="st1" d="M124.98,81.48c-2.46,0.38-4.86,1.07-7.28,1.61c-3.64,0.82-7.28,1.67-10.93,2.5c-0.7,0.16-1.33,0.44-1.95,0.8
			c-5.05,2.93-10.1,5.86-15.15,8.78c-0.2,0.12-0.42,0.21-0.63,0.31c-0.18-0.09-0.23-0.25-0.22-0.43c2.31-1.32,4.63-2.63,6.93-3.96
			c4.52-2.61,8.99-5.33,13.58-7.81c3.01-1.63,5.62-4.09,9.31-4.43c2.06-0.19,4.03-1.04,6.12-1.22c0,0.28-0.01,0.55-0.01,0.83
			c-3.72,0.75-7.46,1.43-11.05,2.68c0.03,0.12,0.06,0.24,0.09,0.36c3.65-0.82,7.3-1.64,10.96-2.45c0,0.28,0,0.56-0.01,0.83
			c-4.17,0.95-8.35,1.87-12.51,2.87c-1.01,0.24-2.17,0.23-2.91,1.17c-0.09,0.03-0.18,0.05-0.26,0.08c0.02,0.03,0.03,0.05,0.05,0.08
			c0.07-0.05,0.14-0.1,0.22-0.15c0.3-0.02,0.61,0,0.9-0.07c3.53-0.8,7.05-1.64,10.59-2.42c1.3-0.29,2.57-0.8,3.94-0.77
			c0.02,0.17,0.05,0.33,0.22,0.42C124.98,81.21,124.98,81.34,124.98,81.48z"/>
		<path class="st0" d="M88.83,91.02c1.07-0.08,1.85-0.81,2.71-1.3c6.55-3.75,13.06-7.56,19.59-11.36c1.54-0.9,3.11-1.76,4.61-2.73
			c0.65-0.42,1.25-0.2,1.89-0.24c1.09-0.07,2.17-0.44,3.25-0.69c1.11-0.25,2.23-0.49,3.34-0.78c0.29-0.07,0.52-0.08,0.77,0.06
			c0,0.07,0,0.14,0,0.2c-0.15,0.13-0.29,0.33-0.46,0.37c-2.32,0.55-4.63,1.15-6.97,1.55c-0.58,0.1-1.13,0.02-1.7,0.37
			c-2.22,1.34-4.48,2.61-6.72,3.91c-4.52,2.61-9.02,5.24-13.55,7.83c-2.24,1.28-4.42,2.68-6.75,3.82
			C88.82,91.68,88.83,91.35,88.83,91.02z"/>
		<path class="st0" d="M124.98,75.4c0,0.14,0,0.27,0,0.41c-0.07,0.07-0.14,0.13-0.2,0.2c-1.34,0.3-2.69,0.6-4.03,0.9
			c-1.08,0.24-2.16,0.59-3.25,0.67c-0.54,0.04-1.04,0.01-1.51,0.29c-2.82,1.65-5.65,3.29-8.47,4.93c-4.43,2.58-8.83,5.2-13.29,7.7
			c-1.79,1-3.45,2.24-5.4,2.94c0-0.27,0.01-0.53,0.01-0.8c1.1-0.3,1.96-1.03,2.92-1.58c4.48-2.56,8.94-5.15,13.4-7.73
			c3.73-2.16,7.46-4.33,11.19-6.5c0.21-0.12,0.44-0.3,0.63-0.07c0.36,0.4,0.71,0.19,1.11,0.11
			C120.39,76.39,122.64,75.67,124.98,75.4z"/>
		<path class="st1" d="M124.98,75.4c-2.34,0.28-4.59,0.99-6.9,1.46c-0.4,0.08-0.75,0.29-1.11-0.11c-0.2-0.22-0.42-0.05-0.63,0.07
			c-3.73,2.17-7.46,4.34-11.19,6.5c-4.46,2.58-8.92,5.17-13.4,7.73c-0.96,0.55-1.82,1.28-2.92,1.58c0-0.21,0-0.41,0-0.62
			c2.33-1.13,4.51-2.53,6.75-3.82c4.53-2.59,9.03-5.22,13.55-7.83c2.24-1.3,4.5-2.57,6.72-3.91c0.57-0.34,1.12-0.27,1.7-0.37
			c2.35-0.4,4.66-1,6.97-1.55c0.17-0.04,0.31-0.24,0.46-0.37C124.98,74.59,124.98,74.99,124.98,75.4z"/>
		<path class="st1" d="M25.02,66.89c1.13,0.62,1.64,1.69,2.04,2.83l-0.01,0.01c-0.81-0.48-0.95-1.54-1.85-2.08
			c0.11,1.06,0.83,1.69,1.3,2.43c0.97,1.52,2.21,2.86,2.99,4.51l-0.01,0c-0.48,0.01-0.58-0.4-0.79-0.69
			c-1.1-1.55-2.19-3.12-3.36-4.77c-0.27,0.88,0.3,1.33,0.63,1.81c2.77,3.97,5.57,7.93,8.35,11.89c0.22,0.32,0.54,0.63,0.45,1.09
			c-0.19-0.18-0.42-0.34-0.57-0.55c-2.18-3.11-4.33-6.24-6.53-9.33c-0.76-1.06-1.39-2.23-2.38-3.21c-0.17,0.66,0.29,0.96,0.49,1.36
			c0.34,0.68,1.05,1.16,1.07,2c-0.73-0.36-0.8-1.31-1.51-1.71c-0.24,0.4-0.01,0.65,0.19,0.92c2.31,3.3,4.64,6.6,6.92,9.93
			c1,1.46,2.19,2.81,2.94,4.43l-0.01,0c-0.36,0-0.5-0.27-0.68-0.52c-2.11-3.03-4.24-6.06-6.36-9.09c-0.99-1.41-1.98-2.83-3.03-4.32
			c-0.15,0.54-0.04,0.86,0.2,1.18c0.64,0.87,1.27,1.74,1.86,2.64c0.97,1.49,2.18,2.81,2.94,4.44c-1.01-0.48-1.34-1.53-1.95-2.33
			c-1.04-1.37-1.98-2.82-3.05-4.36c-0.11,0.4-0.04,0.68-0.28,0.82C25.02,73.1,25.02,69.99,25.02,66.89z"/>
		<path class="st2" d="M41.07,100.53c-2.36-3.33-4.72-6.65-7.07-9.98c-2.81-4-5.61-8.02-8.41-12.03c-0.17-0.24-0.38-0.46-0.57-0.69
			c0-0.27,0-0.54,0-0.81c0.63-0.06,0.59,0.87,1.22,0.81l0,0c-0.01,0.3-0.01,0.59,0.41,0.61l0,0c0.08,0.66,0.29,1.22,1.02,1.42l0,0
			c-0.01,0.3-0.01,0.59,0.41,0.61l0,0c0.08,0.66,0.29,1.22,1.02,1.42l0,0c-0.01,0.3-0.01,0.59,0.41,0.61l0,0
			c0.08,0.66,0.29,1.22,1.02,1.42l0,0c-0.01,0.3-0.01,0.59,0.41,0.61l0,0c0.08,0.66,0.29,1.22,1.02,1.42l0,0
			c-0.01,0.3-0.01,0.59,0.41,0.61l0,0c-0.01,0.3-0.01,0.59,0.41,0.61l0,0c-0.02,0.44,0.08,0.79,0.61,0.81l0,0
			c-0.01,0.3-0.01,0.59,0.41,0.61l0,0c-0.01,0.3-0.01,0.59,0.41,0.61l0,0c0.08,0.66,0.29,1.22,1.02,1.42l0,0
			c-0.01,0.3-0.01,0.59,0.41,0.61l0,0c0.08,0.66,0.29,1.22,1.02,1.42l0,0c-0.01,0.3-0.01,0.59,0.41,0.61l0,0
			c0.08,0.66,0.29,1.22,1.02,1.42l0,0c-0.01,0.3-0.01,0.59,0.41,0.61l0,0c0.08,0.66,0.29,1.22,1.02,1.42l0,0
			c-0.01,0.3-0.01,0.59,0.41,0.61l0,0c0.08,0.66,0.29,1.23,1.03,1.42c0.06,0,0.12,0,0.17,0c0.07,0.08,0.15,0.15,0.22,0.23
			c0,0.26,0,0.51,0,0.77C40.98,99.93,41.09,100.24,41.07,100.53z"/>
		<path class="st0" d="M41.05,98.7c-0.06,0-0.12,0-0.17,0c-0.21-0.57-0.49-1.09-1.03-1.42c0,0,0,0,0,0c0-0.29-0.14-0.5-0.41-0.61
			c0,0,0,0,0,0c-0.18-0.59-0.48-1.09-1.02-1.42c0,0,0,0,0,0c0-0.29-0.14-0.5-0.41-0.61c0,0,0,0,0,0c-0.18-0.59-0.48-1.09-1.02-1.42
			c0,0,0,0,0,0c0-0.29-0.14-0.5-0.41-0.61c0,0,0,0,0,0c-0.18-0.59-0.48-1.09-1.02-1.42c0,0,0,0,0,0c0-0.29-0.14-0.5-0.41-0.61
			c0,0,0,0,0,0c-0.18-0.59-0.48-1.09-1.02-1.42c0,0,0,0,0,0c0-0.29-0.14-0.5-0.41-0.61c0,0,0,0,0,0c0-0.29-0.14-0.5-0.41-0.61
			c0,0,0,0,0,0c-0.02-0.41-0.28-0.63-0.61-0.81c0,0,0,0,0,0c0-0.29-0.14-0.5-0.41-0.61c0,0,0,0,0,0c0-0.29-0.14-0.5-0.41-0.61
			c0,0,0,0,0,0c-0.18-0.58-0.48-1.09-1.02-1.42c0,0,0,0,0,0c0-0.29-0.14-0.5-0.41-0.61c0,0,0,0,0,0c-0.18-0.58-0.48-1.09-1.02-1.42
			c0,0,0,0,0,0c0-0.29-0.14-0.5-0.41-0.61c0,0,0,0,0,0c-0.18-0.58-0.48-1.09-1.02-1.42c0,0,0,0,0,0c0-0.29-0.14-0.5-0.41-0.61
			c0,0,0,0,0,0c-0.18-0.59-0.48-1.09-1.02-1.42c0,0,0,0,0,0c0-0.29-0.14-0.5-0.41-0.61c0,0,0,0,0,0c-0.18-0.67-0.56-1.16-1.22-1.42
			c0-0.07,0-0.14,0-0.2c0.25-0.14,0.18-0.41,0.28-0.82c1.07,1.54,2.01,2.99,3.05,4.36c0.61,0.8,0.94,1.85,1.95,2.33c0,0,0,0,0,0
			c-0.02,0.28,0.06,0.51,0.22,0.75c0.93,1.31,1.8,2.65,2.76,3.93c0.56,0.74,0.88,1.67,1.69,2.21l0,0c0.64,1.44,1.7,2.61,2.6,3.87
			c0.5,0.7,0.75,1.64,1.67,2.01l0,0c0.13,1.01,0.88,1.69,1.42,2.47C40.97,97.78,41.11,98.19,41.05,98.7z"/>
		<path class="st3" d="M124.78,76c0.07-0.07,0.14-0.13,0.2-0.2c0,1.76,0,3.51,0,5.27c-0.17-0.09-0.2-0.25-0.22-0.42
			c0-0.26,0-0.52,0-0.79c0-0.28,0-0.56,0.01-0.83c0-0.2,0-0.39,0-0.59c0-0.28,0.01-0.55,0.01-0.83c0-0.26,0-0.53,0-0.79
			C124.77,76.55,124.77,76.28,124.78,76z"/>
		<path class="st1" d="M25.02,76.41c0.66,0.25,1.04,0.75,1.22,1.42c-0.63,0.06-0.59-0.87-1.22-0.81
			C25.02,76.82,25.02,76.61,25.02,76.41z"/>
		<path class="st4" d="M46.78,110.27c-0.39-2.74,0.92-4.6,3.15-5.93c3.29-1.96,6.91-2.41,10.65-2.1c1.14,0.09,2.28,0.28,3.37,0.65
			c0.35,0.12,0.71,0.18,1.01-0.18c1.95-2.3,4.61-3.23,7.45-3.71c4.11-0.69,8.08-0.27,11.79,1.76c2.74,1.5,3.91,3.74,3.45,6.46
			c-0.85,1.16-1.69,2.3-2.96,3.08c-4.03,2.47-8.41,2.48-12.89,1.91c-1.15-0.15-1.46-0.75-1.26-1.78c4.21,1.27,8.34,1.29,12.3-0.86
			c1.72-0.93,2.95-2.23,2.72-4.4c-0.1-1.56-1.14-2.54-2.32-3.24c-4.62-2.76-9.41-2.66-14.22-0.51c-0.85,0.38-1.64,0.96-2.2,1.75
			c-0.15,0.21-0.71,0.59,0.05,0.81c1.36,0.86,2.54,1.91,3.46,3.24c0,0,0,0,0,0c0.16,1.01,0.26,2.03,0.19,3.05
			c-1.13,2.4-3.07,3.84-5.52,4.7c-3.84,1.34-7.75,1.36-11.63,0.32C50.55,114.52,48.03,113.17,46.78,110.27z M68.31,108.62
			c0.31-0.23,0.13-0.47,0.02-0.71c-0.58-1.41-1.64-2.36-2.95-3.06c-2.45-1.31-5.11-1.59-7.83-1.48c-2.36,0.1-4.61,0.65-6.54,2.05
			c-0.97,0.7-1.95,1.49-2.01,2.87c-0.29,0.98-0.22,1.91,0.4,2.77c0.4,0.55,0.87,1.02,1.42,1.42c1.88,1.38,4.06,1.98,6.31,2.17
			c3.21,0.28,6.33-0.15,9.11-1.96C68.03,111.52,68.68,110.17,68.31,108.62z"/>
		<path class="st5" d="M70.55,110.44c-0.2,1.03,0.11,1.63,1.26,1.78c4.48,0.57,8.85,0.56,12.89-1.91c1.27-0.78,2.11-1.92,2.96-3.08
			c0.04,1.67-0.79,2.9-2.01,3.9c-2.33,1.93-5.12,2.69-8.05,2.94c-2.4,0.21-4.8,0.05-7.13-0.65c-0.37-0.11-0.67-0.21-0.99,0.16
			c-2.39,2.73-5.64,3.62-9.06,3.92c-3.6,0.32-7.11-0.15-10.28-2.02c-1.96-1.16-3.55-2.63-3.36-5.21c1.25,2.9,3.77,4.25,6.59,5.01
			c3.87,1.04,7.78,1.02,11.63-0.32c2.45-0.85,4.39-2.3,5.52-4.7C70.53,110.32,70.54,110.38,70.55,110.44z"/>
		<path class="st3" d="M88.82,92.01c0,0.21,0,0.41,0,0.62c0,0.27-0.01,0.53-0.01,0.8c0,0.27,0,0.54,0,0.81c0,0.27,0,0.53,0,0.8
			c0,0.18,0.04,0.34,0.22,0.43c-0.43,0.44-0.74-0.01-1.05-0.18c-1.93-1.08-3.84-2.2-5.76-3.3c-0.29-0.16-0.54-0.4-0.9-0.41
			c-2.4-1.63-5-2.94-7.49-4.41c-0.49-0.28-0.99-0.56-1.48-0.84c-0.21-0.26-0.49-0.37-0.81-0.41c-0.22-0.39-0.6-0.52-1-0.61
			c-0.27-0.3-0.62-0.42-1.02-0.42c-0.1-0.46-0.52-0.56-0.84-0.78c-0.3-0.2-0.63-0.25-0.98-0.24c-0.04-0.51-0.49-0.59-0.83-0.78
			c-0.01-0.04-0.01-0.08-0.01-0.12c0.01-0.1,0.03-0.2,0.04-0.3c0.16,0.06,0.33,0.09,0.47,0.17c5.46,3.15,10.92,6.31,16.39,9.45
			c1.57,0.9,3.14,1.78,4.8,2.72c0.16-1.08-0.68-1.19-1.19-1.49c-4.66-2.72-9.32-5.44-14.02-8.08c-2.14-1.21-4.19-2.59-6.44-3.59
			c0-0.26,0-0.52,0-0.77c0.65,0.36,1.3,0.72,1.94,1.09c6.28,3.63,12.55,7.26,18.83,10.87c0.25,0.15,0.6,0.57,0.86,0.18
			c0.28-0.42-0.18-0.62-0.5-0.81c-2.83-1.63-5.67-3.27-8.5-4.9c-4.21-2.42-8.42-4.84-12.63-7.26c0-0.21,0-0.41,0-0.62
			c5.91,3.38,11.82,6.75,17.73,10.13c1.28,0.73,2.55,1.47,3.87,2.22c0.25-0.7-0.13-0.9-0.53-1.13c-4.8-2.75-9.58-5.52-14.38-8.27
			c-2.22-1.27-4.46-2.52-6.69-3.77c0-0.21,0-0.41,0-0.62c0.74,0.18,1.32,0.66,1.96,1.03c4.74,2.7,9.46,5.43,14.19,8.14
			c1.61,0.92,3.21,1.84,4.82,2.76c0.41,0.23,0.78,0.37,0.73-0.35c0.07,0,0.13,0,0.2,0c0,0.27,0.01,0.53,0.01,0.8
			c0,0.14,0.01,0.28,0.01,0.42C88.83,91.35,88.82,91.68,88.82,92.01z"/>
		<path class="st1" d="M41.07,100.53c0.02-0.29-0.09-0.61,0.2-0.83c10.33-2.36,20.67-4.72,31-7.08c0.03,0.32,0.07,0.64,0.1,0.96
			c-10.13,2.34-20.27,4.69-30.41,7.03C41.67,100.68,41.33,100.94,41.07,100.53z"/>
		<path class="st6" d="M73.84,87.18c2.5,1.47,5.09,2.78,7.49,4.41c-2.22,0.5-4.43,1-6.65,1.52c-0.3,0.07-0.58,0.14-0.89,0.12
			C73.81,91.22,73.82,89.2,73.84,87.18z"/>
		<path class="st7" d="M73.84,87.18c-0.01,2.02-0.03,4.04-0.04,6.05c-0.47,0.11-0.95,0.23-1.42,0.34c-0.03-0.32-0.07-0.64-0.1-0.96
			c0-0.2,0-0.4,0.01-0.6c0-0.27-0.01-0.55-0.01-0.82c0.01-0.2,0.01-0.4,0.02-0.6c0-0.34,0-0.68,0-1.02c0-0.2,0-0.4,0-0.6
			c0-0.27,0-0.55-0.01-0.82c0-0.2,0.01-0.4,0.01-0.6c0-0.34,0-0.68-0.01-1.02c0.02-0.07,0.04-0.13,0.07-0.2
			C72.85,86.62,73.34,86.9,73.84,87.18z"/>
		<path class="st6" d="M90.08,50.7c-0.2,0.52,0.31,0.51,0.55,0.67c1.09,0.73,2.34,1.19,3.34,2.06c-3.12,1.8-6.25,3.6-9.37,5.4
			c-6.3,3.64-12.6,7.29-18.9,10.93c-2.59-1.75-5.41-3.11-8.05-4.77c-0.74-0.46-1.74-0.59-2.14-1.52
			c5.83-3.39,11.66-6.78,17.48-10.18c3.46-2.02,6.91-4.06,10.37-6.09c1.84,0.74,3.43,1.93,5.16,2.86
			C89.02,50.34,89.48,50.67,90.08,50.7z"/>
		<path class="st0" d="M28.7,48.63c0-0.4,0.37-0.45,0.61-0.59c8.99-5.22,17.99-10.43,26.98-15.65c0.44-0.25,0.77-0.36,1.27-0.07
			c8.12,4.7,16.26,9.38,24.39,14.07c0.09,0.05,0.16,0.12,0.23,0.19c-1.43,0.82-2.86,1.63-4.29,2.45c-0.13-0.11-0.24-0.25-0.38-0.33
			c-6.61-3.81-13.22-7.63-19.85-11.41c-1.64-0.93-3.42-0.98-5.05-0.06c-4.85,2.74-9.66,5.55-14.47,8.36c-1.77,1.04-1.78,2.06,0,3.12
			c2.52,1.51,5.09,2.94,7.63,4.41c4.18,2.42,8.35,4.84,12.53,7.26c-0.34,0.22-0.68,0.43-1.01,0.65c-1.05,0.7-2.26,1.15-3.22,2.01
			c-0.06-0.01-0.12,0-0.18,0.01c-2.83-1.68-5.65-3.39-8.5-5.05c-4.6-2.67-9.2-5.33-13.83-7.95C30.65,49.53,29.82,48.77,28.7,48.63z"
			/>
		<path class="st7" d="M54.08,63.04c0.95-0.86,2.16-1.31,3.22-2.01c0.33-0.22,0.67-0.43,1.01-0.65c0.48-0.16,0.89-0.44,1.28-0.76
			c3.22-1.84,6.45-3.66,9.64-5.52c2.5-1.46,5.07-2.79,7.47-4.42c0.45-0.12,0.85-0.35,1.19-0.66c1.43-0.82,2.86-1.63,4.29-2.45
			c0.46,0.09,0.82,0.35,1.16,0.63c-3.46,2.03-6.91,4.07-10.37,6.09c-5.82,3.4-11.65,6.79-17.48,10.18
			c-0.13,0.06-0.26,0.12-0.38,0.18C54.77,63.45,54.42,63.25,54.08,63.04z"/>
		<path class="st3" d="M28.7,48.63c1.12,0.14,1.94,0.9,2.87,1.42c4.63,2.62,9.23,5.28,13.83,7.95c2.85,1.66,5.67,3.36,8.5,5.05
			c-0.01,0.2-0.02,0.41-0.03,0.61c-2.84-1.6-5.7-3.19-8.53-4.81c-5.55-3.18-11.09-6.39-16.64-9.58
			C28.69,49.05,28.7,48.84,28.7,48.63z"/>
		<path class="st2" d="M28.68,51.68c0-0.27,0-0.54,0-0.81c1.48,0.59,2.78,1.49,4.15,2.28c5.27,3.02,10.52,6.07,15.79,9.08
			c1.73,0.98,3.38,2.11,5.23,2.87c0,0.32,0,0.65,0,0.97c-0.94-0.53-1.87-1.07-2.81-1.61c-5.05-2.91-10.1-5.83-15.16-8.72
			C33.49,54.38,31.16,52.89,28.68,51.68z"/>
		<path class="st2" d="M28.65,59.18c0-0.27,0.01-0.54,0.01-0.81c1.11,0.34,2.03,1.05,3.02,1.61c5.07,2.89,10.11,5.83,15.19,8.72
			c2.31,1.32,4.54,2.8,6.98,3.89c0,0.32,0,0.65,0,0.97c-1.34-0.77-2.69-1.54-4.03-2.32c-5.2-3-10.39-6.01-15.6-8.98
			C32.37,61.21,30.59,60.06,28.65,59.18z"/>
		<path class="st2" d="M28.69,49.26c5.55,3.2,11.09,6.4,16.64,9.58c2.83,1.62,5.68,3.21,8.53,4.81c0,0.27,0,0.54,0,0.82
			c-1.52-0.66-2.9-1.58-4.33-2.4c-5.12-2.93-10.22-5.91-15.35-8.82c-1.81-1.03-3.52-2.26-5.49-3
			C28.69,49.93,28.69,49.59,28.69,49.26z"/>
		<path class="st2" d="M28.64,60.6c0-0.27,0.01-0.54,0.01-0.81c3.57,2.03,7.14,4.07,10.71,6.11c4.83,2.76,9.65,5.53,14.47,8.29
			c0,0.27,0,0.55,0,0.82c-4.16-2.37-8.32-4.73-12.47-7.11C37.13,65.47,32.89,63.03,28.64,60.6z"/>
		<path class="st2" d="M28.66,56.14c0-0.27,0.01-0.54,0.01-0.81c4.16,2.36,8.32,4.71,12.47,7.08c4.24,2.42,8.47,4.87,12.71,7.31
			c0,0.27,0,0.55,0,0.82c-4.82-2.76-9.65-5.53-14.48-8.29C35.81,60.21,32.23,58.18,28.66,56.14z"/>
		<path class="st2" d="M28.69,53.3c0-0.33,0-0.67-0.01-1c3.57,2.04,7.14,4.07,10.71,6.11c4.82,2.76,9.65,5.52,14.47,8.28
			c0,0.27,0,0.55,0,0.82c-0.07-0.01-0.14-0.01-0.2-0.05c-7.9-4.54-15.8-9.08-23.69-13.63C29.56,53.6,29.2,53.26,28.69,53.3z"/>
		<path class="st2" d="M28.65,57.56c0.01-0.27,0.01-0.54,0.02-0.81c0.91,0.52,1.81,1.04,2.72,1.56c5.11,2.94,10.22,5.89,15.34,8.83
			c2.37,1.36,4.75,2.68,7.12,4.02c0,0.27,0,0.54,0,0.82c-0.25-0.1-0.51-0.18-0.74-0.32c-3.89-2.23-7.78-4.47-11.66-6.71
			C37.18,62.48,32.92,60.02,28.65,57.56z"/>
		<path class="st2" d="M28.67,54.72c0-0.27,0-0.54,0-0.81c1.25,0.38,2.27,1.17,3.38,1.8c5.07,2.89,10.11,5.83,15.19,8.71
			c2.2,1.25,4.31,2.66,6.61,3.71c0,0.27,0,0.54,0,0.82c-1.71-0.67-3.2-1.74-4.78-2.64C44,63.42,38.96,60.48,33.88,57.6
			C32.16,56.62,30.53,55.47,28.67,54.72z"/>
		<path class="st3" d="M28.65,57.56c4.26,2.46,8.53,4.92,12.79,7.38c3.89,2.24,7.77,4.48,11.66,6.71c0.23,0.13,0.49,0.21,0.74,0.32
			c0,0.21,0,0.41,0,0.62c-2.44-1.09-4.66-2.57-6.98-3.89c-5.07-2.89-10.12-5.82-15.19-8.72c-0.99-0.56-1.91-1.27-3.02-1.61
			C28.49,58.1,28.45,57.83,28.65,57.56z"/>
		<path class="st3" d="M53.85,71.16c-2.37-1.34-4.76-2.66-7.12-4.02c-5.12-2.93-10.22-5.88-15.34-8.83
			c-0.91-0.52-1.81-1.04-2.72-1.56c-0.19-0.2-0.18-0.4-0.01-0.61c3.57,2.04,7.14,4.07,10.71,6.11c4.83,2.76,9.65,5.52,14.48,8.29
			C53.85,70.74,53.85,70.95,53.85,71.16z"/>
		<path class="st3" d="M53.85,68.13c-2.31-1.05-4.42-2.46-6.61-3.71c-5.08-2.88-10.12-5.82-15.19-8.71
			c-1.11-0.63-2.13-1.42-3.38-1.8c0.01-0.2,0.01-0.41,0.02-0.61c0.52-0.04,0.87,0.3,1.28,0.53c7.89,4.55,15.79,9.09,23.69,13.63
			c0.06,0.03,0.13,0.03,0.2,0.05C53.85,67.71,53.85,67.92,53.85,68.13z"/>
		<path class="st3" d="M28.67,54.72c1.85,0.75,3.49,1.9,5.21,2.88c5.08,2.88,10.12,5.82,15.19,8.71c1.58,0.9,3.07,1.97,4.78,2.64
			c0,0.26,0,0.52,0,0.78c-4.24-2.44-8.47-4.88-12.71-7.31c-4.15-2.37-8.31-4.72-12.47-7.08C28.59,55.13,28.45,54.93,28.67,54.72z"/>
		<path class="st3" d="M53.84,74.18c-4.82-2.76-9.65-5.53-14.47-8.29c-3.57-2.04-7.14-4.07-10.71-6.11c-0.18-0.2-0.19-0.4-0.01-0.61
			c1.94,0.87,3.72,2.03,5.56,3.08c5.21,2.97,10.4,5.99,15.6,8.98c1.34,0.77,2.69,1.55,4.03,2.32
			C53.84,73.77,53.84,73.98,53.84,74.18z"/>
		<path class="st3" d="M53.85,66.69c-4.82-2.76-9.65-5.52-14.47-8.28c-3.57-2.04-7.14-4.07-10.71-6.11c0-0.2,0-0.41,0-0.61
			c2.48,1.21,4.81,2.7,7.21,4.06c5.06,2.89,10.11,5.81,15.16,8.72c0.93,0.54,1.87,1.07,2.81,1.61
			C53.86,66.28,53.86,66.48,53.85,66.69z"/>
		<path class="st3" d="M28.69,50.26c1.97,0.74,3.67,1.98,5.49,3c5.14,2.91,10.23,5.88,15.35,8.82c1.43,0.82,2.81,1.73,4.33,2.4
			c0,0.21,0,0.41-0.01,0.62c-1.85-0.76-3.5-1.88-5.23-2.87c-5.27-3.01-10.52-6.06-15.79-9.08c-1.37-0.78-2.68-1.69-4.15-2.28
			C28.68,50.67,28.69,50.46,28.69,50.26z"/>
		<path class="st3" d="M28.64,60.6c4.24,2.43,8.48,4.87,12.73,7.3c4.15,2.37,8.32,4.74,12.47,7.11c0.01,0.2,0.02,0.39,0.03,0.59
			c-1.66-0.94-3.31-1.91-4.98-2.82c-1.73-0.94-3.34-2.11-5.18-2.85c-1.12-0.66-2.23-1.34-3.37-1.98c-0.69-0.39-1.27-0.99-2.12-1.06
			c-0.72-0.99-1.9-1.29-2.87-1.9C34.66,64.54,34,63.94,33.08,64c0.11-0.5-0.36-0.5-0.6-0.65c-1.11-0.68-2.25-1.3-3.37-1.96
			C28.82,61.23,28.34,61.12,28.64,60.6z"/>
		<path class="st8" d="M94.9,53.76c3.41-0.78,6.82-1.62,10.25-2.32c1.82-0.38,3.41,0.17,4.52,1.76c2.59,3.7,5.18,7.4,7.76,11.11
			c0.71,1.02,0.66,1.5-0.16,2.4c-0.14-0.07-0.28-0.14-0.42-0.21c-5.66-3.27-11.31-6.54-16.97-9.81c0.9-1.19,0.68-1.78-0.71-2.21
			c-0.4-0.12-0.83-0.26-1.19-0.1c-1.03,0.45-1.95,0.23-2.84-0.32C95.05,53.96,94.98,53.86,94.9,53.76z M104.32,55.52
			c1.07,0.01,2.16-0.54,2.11-1.17c-0.08-1.08-0.99-1.2-1.83-1.31c-0.03,0-0.06-0.02-0.1-0.03c-1.1-0.16-2.22,0.4-2.3,1.12
			C102.13,54.9,103.07,55.51,104.32,55.52z"/>
		<path class="st7" d="M94.9,53.76c0.08,0.1,0.15,0.19,0.23,0.29c-1.36,0.82-2.72,1.64-4.09,2.46c-3.39,1.94-6.78,3.87-10.16,5.83
			c-3.14,1.83-6.26,3.69-9.39,5.53c-1.53,0.83-3.05,1.66-4.58,2.48c-0.32-0.1-0.63-0.2-1.06-0.33c0,0.44,0,0.8,0,1.16
			c0,3.27,0,6.55-0.01,9.82c0,0.36,0.11,0.75-0.14,1.08c0-4.11-0.01-8.22-0.01-12.33c6.3-3.64,12.6-7.29,18.9-10.93
			c3.12-1.8,6.25-3.6,9.37-5.4C94.28,53.54,94.59,53.65,94.9,53.76z"/>
		<path class="st1" d="M116.84,66.5c0.14,0.07,0.28,0.14,0.42,0.21c-0.18,0.63-0.65,0.97-1.19,1.28
			c-7.03,4.07-14.06,8.15-21.09,12.23c-1.81,1.05-3.62,2.09-5.44,3.11c-0.29,0.16-0.62,0.25-0.93,0.37c0-0.26-0.01-0.53-0.01-0.79
			c0.4-0.17,0.83-0.3,1.2-0.51c3.09-1.78,6.17-3.58,9.26-5.37c4.14-2.39,8.29-4.75,12.41-7.17
			C113.29,68.78,115.21,67.86,116.84,66.5z"/>
		<path class="st1" d="M88.6,84.53c1.29-0.19,2.24-1.08,3.3-1.69c7.58-4.33,15.12-8.73,22.68-13.11c0.78-0.45,1.49-1.02,2.41-1.34
			c0.13,0.66-0.42,0.78-0.73,0.97c-2.58,1.53-5.18,3.03-7.78,4.53c-4.47,2.58-8.94,5.15-13.4,7.73c-1.9,1.1-3.79,2.2-5.68,3.3
			c-0.24,0.14-0.49,0.21-0.77,0.2C88.61,84.93,88.61,84.73,88.6,84.53z"/>
		<path class="st1" d="M88.62,86.14c1.54-0.62,2.89-1.58,4.31-2.4c4.5-2.58,8.99-5.19,13.48-7.79c3.15-1.83,6.29-3.67,9.44-5.48
			c0.34-0.19,0.83-0.75,1.1-0.31c0.27,0.44-0.46,0.55-0.76,0.73c-4.48,2.62-8.98,5.21-13.47,7.82c-3.94,2.28-7.86,4.58-11.81,6.85
			c-0.75,0.43-1.44,1.01-2.32,1.19C88.61,86.53,88.61,86.33,88.62,86.14z"/>
		<path class="st3" d="M88.6,82.91c0,0.26,0.01,0.53,0.01,0.79c-3.89-2.23-7.78-4.46-11.68-6.68c-3.34-1.9-6.68-3.79-10.02-5.69
			c0-0.27,0.01-0.54,0.01-0.81c5.3,3.02,10.6,6.05,15.9,9.07C84.75,80.7,86.67,81.81,88.6,82.91z"/>
		<path class="st3" d="M88.61,87.56c0,0.2,0,0.4,0.01,0.6c-2.96-1.48-5.75-3.25-8.62-4.87c-4.38-2.47-8.72-4.99-13.08-7.49
			c0-0.21,0-0.42,0-0.63c2.13,1.02,4.12,2.3,6.16,3.47C78.26,81.61,83.43,84.59,88.61,87.56z"/>
		<path class="st3" d="M88.6,84.53c0.01,0.2,0.01,0.4,0.02,0.6c-1.6-0.64-3.02-1.62-4.51-2.47c-5.22-2.97-10.41-5.99-15.61-8.99
			c-0.53-0.3-1.05-0.6-1.58-0.9c0-0.21,0-0.41,0-0.62c3.22,1.84,6.44,3.67,9.65,5.51C80.58,79.95,84.59,82.24,88.6,84.53z"/>
		<path class="st3" d="M88.62,86.14c-0.01,0.2-0.01,0.4-0.02,0.6c-5.05-2.91-10.1-5.84-15.17-8.72c-2.17-1.23-4.25-2.62-6.52-3.65
			c0-0.26,0-0.52,0-0.78c7.19,4.14,14.38,8.27,21.57,12.41C88.53,86.03,88.57,86.09,88.62,86.14z"/>
		<path class="st9" d="M66.91,73.58c0,0.26,0,0.52,0,0.78c0,0.27,0,0.54,0,0.82c0,0.21,0,0.42,0,0.63c0,0.27,0,0.54,0,0.81
			c0,0.21,0,0.41,0,0.62c0,0.32,0,0.64,0,0.97c0,0.21,0,0.41,0,0.62c0,0.27,0,0.55,0,0.82c0,0.21,0,0.41,0,0.62
			c0,0.27,0,0.54,0,0.82c0,0.26,0,0.52,0,0.77c0,0.27,0,0.55,0,0.82c-0.01,0.1-0.03,0.2-0.04,0.3c-0.49-0.06-0.85-0.36-1.21-0.65
			c0.02-0.08,0.03-0.16,0.05-0.25c0.25-0.33,0.14-0.72,0.14-1.08c0.01-3.27,0.01-6.55,0.01-9.82c0-0.36,0-0.72,0-1.16
			c0.43,0.13,0.74,0.23,1.06,0.33c-0.02,0.06-0.01,0.11,0.02,0.17c0,0.27-0.01,0.54-0.01,0.81c0,0.27,0,0.54,0,0.81
			c0,0.21,0,0.41,0,0.62C66.91,73.04,66.91,73.31,66.91,73.58z"/>
		<path class="st1" d="M72.27,91.2c0,0.27,0.01,0.55,0.01,0.82c-0.17,0.01-0.34-0.01-0.51,0.03c-7.54,1.73-15.07,3.5-22.61,5.2
			c-2.62,0.59-5.2,1.38-7.89,1.69c-0.07-0.08-0.15-0.15-0.22-0.23c0.06-0.52-0.09-0.93-0.4-1.38c-0.54-0.78-1.28-1.46-1.42-2.47
			c0.81,0.47,0.96,1.54,1.79,2.04c0.1-0.44-0.05-0.74-0.28-1.06c-1.64-2.29-3.26-4.59-4.86-6.9c-0.24-0.34-0.59-0.67-0.51-1.17
			c0,0,0.01,0,0.01,0c0.86,0.73,1.37,1.73,2.01,2.62c1.19,1.65,2.33,3.32,3.58,5.11c0.17-0.63-0.04-0.96-0.28-1.3
			c-1.47-2.09-2.95-4.17-4.4-6.28c-0.24-0.35-0.6-0.67-0.51-1.17c0.36,0.16,0.52,0.5,0.73,0.8c1.45,2.07,2.9,4.13,4.44,6.32
			c0.21-0.69-0.09-1.04-0.36-1.42c-0.43-0.59-0.93-1.14-1.15-1.85c0.87,0.12,0.8,1.2,1.55,1.51c0.22-0.62-0.24-0.97-0.5-1.35
			c-3.36-4.81-6.75-9.61-10.1-14.42c-0.37-0.53-0.93-1-0.91-1.75c0,0,0.01,0,0.01,0c0.19,0.18,0.42,0.34,0.57,0.55
			c2.66,3.79,5.3,7.59,7.95,11.38c0.97,1.38,1.95,2.76,2.98,4.2c0.24-0.78-0.24-1.2-0.55-1.65c-0.57-0.82-1.23-1.59-1.61-2.53
			l0.01,0c0.88,0.27,1.01,1.17,1.49,1.78c0.49,0.63,1.01,0.93,1.76,0.46l0,0c1.26,0.02,2.45-0.39,3.66-0.66
			c6.9-1.57,13.8-3.19,20.69-4.81c0.15-0.04,0.29-0.13,0.44-0.2c0.35,0.19,0.79,0.27,0.83,0.78c-3.11,0.71-6.22,1.43-9.33,2.14
			c-3.47,0.79-6.94,1.58-10.41,2.38c-2,0.46-3.99,0.93-5.99,1.4c-0.29,0.07-0.71,0.14-0.64,0.51c0.09,0.5,0.47,0.18,0.73,0.12
			c3.44-0.78,6.88-1.56,10.32-2.34c4.09-0.93,8.2-1.81,12.27-2.83c1.35-0.34,2.81-0.35,4.03-1.14c0.32,0.22,0.74,0.32,0.84,0.78
			c-0.22,0.08-0.44,0.17-0.66,0.23c-7.01,1.62-14.02,3.24-21.03,4.86c-2,0.46-3.99,0.93-5.99,1.4c-0.22,0.05-0.55,0.01-0.5,0.35
			c0.05,0.38,0.4,0.26,0.66,0.26c0.1,0,0.19-0.05,0.29-0.08c7.18-1.66,14.35-3.3,21.53-4.97c2.25-0.52,4.53-0.92,6.74-1.63
			c0.41,0.08,0.78,0.22,1,0.61c-0.1,0.15-0.26,0.18-0.43,0.22c-7.04,1.62-14.09,3.24-21.13,4.86c-2.65,0.61-5.31,1.21-7.96,1.83
			c-0.31,0.07-0.79,0.12-0.67,0.56c0.12,0.46,0.51,0.11,0.76,0.06c5.28-1.21,10.55-2.42,15.82-3.64c4.78-1.1,9.57-2.19,14.35-3.28
			c0,0.34,0,0.68,0.01,1.02c-0.37,0.03-0.75,0.01-1.1,0.09c-4.55,1.04-9.1,2.1-13.66,3.15c-5.17,1.19-10.35,2.38-15.52,3.59
			c-0.25,0.06-0.76-0.05-0.67,0.4c0.1,0.46,0.54,0.26,0.85,0.19c8.02-1.85,16.04-3.73,24.07-5.56c2-0.46,3.96-1.07,6.01-1.27
			c0,0.27,0,0.55,0.01,0.82c-0.17,0.01-0.34-0.01-0.51,0.03c-6.49,1.5-12.98,3-19.47,4.5c-3.41,0.79-6.82,1.57-10.23,2.36
			c-0.32,0.07-0.82,0.12-0.74,0.51c0.11,0.55,0.6,0.12,0.83,0.07c4.6-1.02,9.19-2.08,13.78-3.14c5.44-1.25,10.89-2.49,16.33-3.73
			c0,0.34,0,0.68,0,1.02c-0.37,0.03-0.75,0.01-1.1,0.09c-4.29,0.98-8.58,1.96-12.87,2.95c-5.4,1.24-10.8,2.48-16.2,3.75
			c-0.27,0.06-0.85-0.06-0.76,0.43c0.09,0.49,0.53,0.2,0.83,0.13c7.37-1.68,14.73-3.38,22.11-5.05
			C66.95,92.31,69.57,91.57,72.27,91.2z"/>
		<path class="st8" d="M38.22,66.88c0.85,0.07,1.43,0.68,2.12,1.06c1.14,0.63,2.24,1.32,3.37,1.98c-1.37,0.88-2.7,1.92-2.57,3.7
			c0.14,1.96,1.64,2.99,3.29,3.76c1.29,0.6,2.69,0.89,4.1,0.98c2.55,0.17,5.04-0.12,7.25-1.56c1.96,0.93,3.81,2.05,5.63,3.22
			c-5.49,1.26-10.96,2.59-16.46,3.76c-1.8,0.38-3.44-0.12-4.59-1.81c-2.51-3.68-5.1-7.3-7.64-10.95c-0.99-1.42-0.64-2.53,1.09-3.06
			C35.24,67.49,36.74,67.23,38.22,66.88z"/>
		<path class="st10" d="M61.41,80.01c-1.82-1.17-3.67-2.29-5.64-3.22c-0.25-0.19-0.49-0.38-0.74-0.58c0.01-0.43,0.04-0.87,0.04-1.3
			c0.02-3.75,0.03-7.51,0.04-11.26c0.13-0.06,0.26-0.12,0.38-0.18c0.41,0.93,1.41,1.06,2.14,1.52c2.64,1.66,5.46,3.01,8.05,4.77
			c0,4.11,0.01,8.22,0.01,12.33c-0.02,0.08-0.03,0.16-0.05,0.25C64.24,81.56,62.82,80.78,61.41,80.01z"/>
		<path class="st1" d="M31.72,76.41c0.84,0.2,1.02,1.02,1.42,1.58c1.83,2.51,3.56,5.09,5.34,7.64c0.19,0.28,0.4,0.54,0.35,0.91
			c0,0-0.01,0-0.01,0c-0.17-0.15-0.39-0.28-0.52-0.47c-1.13-1.61-2.26-3.23-3.36-4.86C33.87,79.62,32.58,78.16,31.72,76.41
			L31.72,76.41z"/>
		<path class="st1" d="M29.9,73.77c1,0.61,1.49,1.57,1.83,2.64c0,0,0,0,0,0C30.89,75.69,30.35,74.76,29.9,73.77L29.9,73.77z"/>
		<path class="st1" d="M28.47,71.75c0.84,0.42,1.22,1.16,1.42,2.03c0,0-0.01,0.01-0.01,0.01C29.19,73.26,28.82,72.51,28.47,71.75
			L28.47,71.75z"/>
		<path class="st1" d="M27.05,69.72c0.84,0.42,1.22,1.16,1.42,2.03c0,0-0.01,0-0.01,0C27.76,71.24,27.4,70.49,27.05,69.72
			L27.05,69.72z"/>
		<path class="st1" d="M42.08,88.77c-0.15-0.03-0.3-0.05-0.45-0.08c0.02-0.03,0.03-0.07,0.05-0.08
			C41.86,88.55,41.99,88.62,42.08,88.77C42.08,88.78,42.08,88.77,42.08,88.77z"/>
		<path class="st0" d="M66.91,76.62c0-0.27,0-0.54,0-0.81c4.36,2.5,8.71,5.02,13.08,7.49c2.87,1.62,5.66,3.39,8.62,4.87
			c1.3-0.32,2.35-1.14,3.48-1.79c5.71-3.27,11.39-6.58,17.07-9.89c2.3-1.34,4.59-2.7,6.91-4.02c0.32-0.18,0.72-0.77,1.14-0.04
			c0.04,0.07,0.43-0.03,0.66-0.08c1.87-0.42,3.74-0.85,5.61-1.28c0.2-0.04,0.39-0.12,0.59-0.12c0.25,0,0.61-0.11,0.65,0.28
			c0.03,0.33-0.3,0.28-0.52,0.33c-1.64,0.37-3.26,0.92-4.92,1.08c-3.42,0.32-5.98,2.4-8.78,3.97c-4.17,2.35-8.31,4.77-12.45,7.17
			c-2.66,1.54-5.3,3.09-7.95,4.64C89.62,88.68,89.17,89,88.59,89c-2.4-1.36-4.81-2.71-7.21-4.08
			C76.56,82.16,71.73,79.39,66.91,76.62z"/>
		<path class="st0" d="M88.82,90.59c0-0.27-0.01-0.53-0.01-0.8c3.33-1.93,6.65-3.86,9.98-5.79c5.72-3.32,11.43-6.64,17.15-9.95
			c0.4-0.23,0.75-0.37,1.35-0.19c0.69,0.2,1.56-0.19,2.34-0.36c1.38-0.3,2.75-0.64,4.13-0.96c0.33-0.08,0.81-0.44,0.92,0.1
			c0.09,0.45-0.51,0.44-0.83,0.51c-1.87,0.45-3.72,1.08-5.61,1.22c-2.34,0.17-4,1.58-5.85,2.61c-4.92,2.74-9.76,5.63-14.63,8.45
			C94.78,87.15,91.8,88.87,88.82,90.59z"/>
		<path class="st2" d="M66.91,78.21c0-0.32,0-0.64,0-0.97c0.2,0.13,0.39,0.27,0.59,0.38c4.94,2.84,9.88,5.7,14.83,8.51
			c2.08,1.18,4.08,2.51,6.27,3.47c0,0.06,0,0.12,0,0.18c0.05,0.73-0.32,0.59-0.73,0.35c-1.61-0.92-3.22-1.84-4.82-2.76
			c-4.73-2.72-9.45-5.44-14.19-8.14C68.23,78.88,67.65,78.39,66.91,78.21z"/>
		<path class="st3" d="M88.61,89.61c-2.2-0.97-4.2-2.29-6.27-3.47c-4.96-2.81-9.89-5.67-14.83-8.51c-0.2-0.12-0.4-0.26-0.59-0.38
			c0-0.21,0-0.41,0-0.62c4.83,2.76,9.65,5.53,14.48,8.29c2.4,1.37,4.8,2.72,7.21,4.08C88.6,89.2,88.61,89.4,88.61,89.61z"/>
		<path class="st0" d="M88.82,95.05c0-0.27,0-0.53,0-0.8c1.9-1.09,3.81-2.16,5.71-3.26c7.26-4.21,14.51-8.44,21.76-12.65
			c0.21-0.12,0.55-0.44,0.69-0.12c0.25,0.59,0.62,0.27,0.92,0.2c2.3-0.51,4.58-1.06,6.88-1.59c0,0.26,0,0.53,0,0.79
			c-2.09,0.18-4.06,1.03-6.12,1.22c-3.69,0.34-6.3,2.8-9.31,4.43c-4.59,2.48-9.06,5.2-13.58,7.81
			C93.45,92.42,91.13,93.73,88.82,95.05z"/>
		<path class="st0" d="M124.76,79.87c0,0.26,0,0.52,0,0.79c-1.37-0.02-2.63,0.49-3.94,0.77c-3.54,0.77-7.06,1.62-10.59,2.42
			c-0.29,0.07-0.6,0.05-0.9,0.07l0,0c0.75-0.94,1.9-0.93,2.91-1.17C116.41,81.74,120.59,80.82,124.76,79.87z"/>
		<path class="st0" d="M124.76,78.45c0,0.2,0,0.39,0,0.59c-3.65,0.82-7.3,1.64-10.96,2.45c-0.03-0.12-0.06-0.24-0.09-0.36
			C117.3,79.88,121.04,79.2,124.76,78.45z"/>
		<path class="st0" d="M109.34,83.91c-0.07,0.05-0.14,0.1-0.22,0.15c-0.02-0.03-0.03-0.05-0.05-0.08
			C109.16,83.96,109.25,83.93,109.34,83.91C109.33,83.91,109.34,83.91,109.34,83.91z"/>
		<path class="st1" d="M124.76,76.83c-2.29,0.54-4.58,1.08-6.88,1.59c-0.29,0.07-0.66,0.39-0.92-0.2c-0.14-0.33-0.48,0-0.69,0.12
			c-7.26,4.21-14.51,8.44-21.76,12.65c-1.89,1.1-3.8,2.18-5.71,3.26c0-0.27,0-0.54,0-0.81c1.95-0.7,3.62-1.93,5.4-2.94
			c4.46-2.51,8.86-5.13,13.29-7.7c2.82-1.64,5.65-3.29,8.47-4.93c0.48-0.28,0.98-0.25,1.51-0.29c1.09-0.07,2.17-0.43,3.25-0.67
			c1.34-0.3,2.69-0.6,4.03-0.9C124.77,76.28,124.77,76.55,124.76,76.83z"/>
		<path class="st0" d="M39.44,90.6c0.22,0.72,0.72,1.26,1.15,1.85c0.27,0.37,0.57,0.73,0.36,1.42c-1.54-2.19-2.99-4.25-4.44-6.32
			c-0.21-0.3-0.37-0.64-0.73-0.8l0,0c-0.39-0.97-1.03-1.78-1.67-2.59c-0.36-0.45-0.44-1.16-1.17-1.27l0,0
			c-0.2-0.87-0.56-1.63-1.42-2.03l0,0c0.06-0.37-0.15-0.63-0.34-0.91c-0.93-1.31-1.81-2.64-2.78-3.92
			c-0.48-0.64-0.66-1.56-1.55-1.86l0,0c-0.02-0.85-0.73-1.33-1.07-2c-0.2-0.4-0.66-0.7-0.49-1.36c1,0.98,1.63,2.15,2.38,3.21
			c2.2,3.09,4.35,6.22,6.53,9.33c0.15,0.21,0.38,0.37,0.57,0.55c0,0,0,0,0,0c0.74,1.62,1.92,2.96,2.93,4.4
			C38.24,89.09,38.61,90.03,39.44,90.6L39.44,90.6z"/>
		<path class="st0" d="M29.48,74.59c-0.02,0.75,0.54,1.22,0.91,1.75c3.35,4.82,6.74,9.61,10.1,14.42c0.26,0.37,0.72,0.73,0.5,1.35
			c-0.75-0.31-0.68-1.39-1.55-1.51c0,0,0,0,0,0c0.06-0.37-0.15-0.63-0.34-0.91c-0.93-1.31-1.81-2.64-2.78-3.92
			c-0.48-0.64-0.66-1.56-1.55-1.86c0,0,0,0,0,0c0.09-0.46-0.23-0.77-0.45-1.09c-2.78-3.97-5.58-7.92-8.35-11.89
			c-0.33-0.48-0.91-0.93-0.63-1.81c1.16,1.65,2.25,3.22,3.36,4.77C28.9,74.19,29.01,74.6,29.48,74.59z"/>
		<path class="st0" d="M35.38,87.76c-0.08,0.5,0.27,0.82,0.51,1.17c1.6,2.31,3.22,4.62,4.86,6.9c0.23,0.33,0.38,0.62,0.28,1.06
			c-0.83-0.5-0.98-1.57-1.79-2.04c0,0,0,0,0,0c-0.76-1.64-1.95-3-2.98-4.46c-0.36-0.51-0.5-1.28-1.29-1.42c0,0,0,0,0,0
			c0.02-0.28-0.06-0.51-0.22-0.75c-0.93-1.31-1.8-2.65-2.76-3.94c-0.56-0.74-0.88-1.67-1.69-2.21c0,0,0,0,0,0
			c-0.75-1.63-1.97-2.95-2.94-4.44c-0.59-0.9-1.22-1.77-1.86-2.64c-0.24-0.32-0.36-0.64-0.2-1.18c1.05,1.5,2.04,2.91,3.03,4.32
			c2.12,3.03,4.25,6.05,6.36,9.09C34.88,87.5,35.01,87.77,35.38,87.76z"/>
		<path class="st0" d="M35.78,86.75c-0.09,0.5,0.27,0.82,0.51,1.17c1.45,2.1,2.93,4.19,4.4,6.28c0.23,0.33,0.45,0.67,0.28,1.3
			c-1.25-1.78-2.39-3.46-3.58-5.11c-0.64-0.89-1.15-1.9-2.01-2.62c-0.76-1.63-1.94-2.97-2.94-4.43c-2.28-3.33-4.61-6.62-6.92-9.93
			c-0.19-0.28-0.43-0.53-0.19-0.92c0.71,0.4,0.78,1.35,1.51,1.71c0,0,0,0,0,0c0.74,1.62,1.92,2.96,2.93,4.4
			c0.55,0.78,0.91,1.72,1.75,2.29c0,0,0,0,0,0c0.34,0.77,0.73,1.51,1.42,2.03c0,0,0,0,0,0c0.28,0.88,0.91,1.54,1.45,2.25
			C34.82,85.7,34.96,86.53,35.78,86.75L35.78,86.75z"/>
		<path class="st0" d="M27.05,69.73c0.35,0.76,0.72,1.51,1.42,2.03c0.35,0.76,0.72,1.51,1.42,2.03c0.46,0.98,1,1.91,1.83,2.63
			c0.86,1.75,2.15,3.2,3.23,4.81c1.1,1.64,2.23,3.25,3.36,4.86c0.13,0.18,0.34,0.31,0.52,0.47c0.38,0.94,1.03,1.71,1.61,2.53
			c0.32,0.45,0.79,0.86,0.55,1.65c-1.03-1.45-2.01-2.82-2.98-4.2c-2.65-3.79-5.29-7.59-7.95-11.38c-0.15-0.21-0.38-0.37-0.57-0.55
			c-0.78-1.65-2.02-2.99-2.99-4.51c-0.48-0.74-1.2-1.37-1.3-2.43C26.09,68.18,26.24,69.25,27.05,69.73z"/>
		<path class="st0" d="M41.27,98.93c2.68-0.3,5.27-1.09,7.89-1.69c7.55-1.7,15.08-3.47,22.61-5.2c0.16-0.04,0.34-0.02,0.51-0.03
			c0,0.2,0,0.4-0.01,0.6c-10.33,2.36-20.67,4.72-31,7.08C41.27,99.45,41.27,99.19,41.27,98.93z"/>
		<path class="st1" d="M28.06,80.46c0.54,0.33,0.83,0.84,1.02,1.42C28.36,81.68,28.14,81.12,28.06,80.46z"/>
		<path class="st1" d="M35.58,91.21c0.54,0.33,0.84,0.84,1.02,1.42C35.88,92.43,35.66,91.87,35.58,91.21z"/>
		<path class="st1" d="M26.64,78.44c0.54,0.33,0.84,0.84,1.02,1.42C26.94,79.66,26.72,79.1,26.64,78.44z"/>
		<path class="st1" d="M34.16,89.18c0.54,0.33,0.84,0.83,1.02,1.42C34.45,90.4,34.24,89.84,34.16,89.18z"/>
		<path class="st1" d="M38.43,95.26c0.54,0.33,0.84,0.84,1.02,1.42C38.72,96.48,38.5,95.92,38.43,95.26z"/>
		<path class="st1" d="M29.49,82.49c0.54,0.33,0.83,0.84,1.02,1.42C29.78,83.71,29.56,83.15,29.49,82.49z"/>
		<path class="st1" d="M39.85,97.29c0.54,0.33,0.82,0.85,1.03,1.42C40.14,98.52,39.93,97.95,39.85,97.29z"/>
		<path class="st1" d="M30.91,84.52c0.54,0.33,0.83,0.84,1.02,1.42C31.2,85.74,30.99,85.18,30.91,84.52z"/>
		<path class="st1" d="M37,93.23c0.54,0.33,0.83,0.84,1.02,1.42C37.3,94.45,37.08,93.89,37,93.23z"/>
		<path class="st1" d="M32.74,87.15c0.33,0.18,0.59,0.4,0.61,0.81C32.82,87.94,32.72,87.59,32.74,87.15z"/>
		<path class="st1" d="M39.44,96.68c0.27,0.11,0.41,0.32,0.41,0.61C39.43,97.27,39.43,96.98,39.44,96.68z"/>
		<path class="st1" d="M38.02,94.65c0.27,0.11,0.41,0.32,0.41,0.61C38.01,95.24,38.01,94.95,38.02,94.65z"/>
		<path class="st1" d="M29.08,81.88c0.27,0.11,0.41,0.32,0.41,0.61C29.07,82.47,29.07,82.18,29.08,81.88z"/>
		<path class="st1" d="M26.23,77.83c0.27,0.11,0.41,0.32,0.41,0.61C26.23,78.42,26.23,78.13,26.23,77.83z"/>
		<path class="st1" d="M36.6,92.62c0.27,0.11,0.41,0.32,0.41,0.61C36.59,93.22,36.59,92.92,36.6,92.62z"/>
		<path class="st1" d="M27.66,79.86c0.27,0.11,0.41,0.32,0.41,0.61C27.65,80.45,27.65,80.15,27.66,79.86z"/>
		<path class="st1" d="M35.17,90.6c0.27,0.11,0.41,0.32,0.41,0.61C35.17,91.19,35.17,90.9,35.17,90.6z"/>
		<path class="st1" d="M33.75,88.57c0.27,0.11,0.41,0.32,0.41,0.61C33.75,89.16,33.75,88.87,33.75,88.57z"/>
		<path class="st1" d="M33.35,87.96c0.27,0.11,0.41,0.32,0.41,0.61C33.34,88.56,33.34,88.26,33.35,87.96z"/>
		<path class="st1" d="M32.33,86.54c0.27,0.11,0.41,0.32,0.41,0.61C32.32,87.14,32.32,86.84,32.33,86.54z"/>
		<path class="st1" d="M31.92,85.94c0.27,0.11,0.41,0.32,0.41,0.61C31.92,86.53,31.92,86.23,31.92,85.94z"/>
		<path class="st1" d="M30.5,83.91c0.27,0.11,0.41,0.32,0.41,0.61C30.49,84.5,30.49,84.21,30.5,83.91z"/>
		<path class="st1" d="M30.3,82.08c0.81,0.55,1.13,1.47,1.69,2.21c0.96,1.28,1.84,2.63,2.76,3.94c0.17,0.24,0.24,0.47,0.22,0.75
			c-0.81-0.55-1.13-1.47-1.69-2.21c-0.96-1.28-1.84-2.63-2.76-3.93C30.36,82.6,30.28,82.36,30.3,82.08z"/>
		<path class="st1" d="M34.97,88.98c0.79,0.15,0.93,0.91,1.29,1.42c1.03,1.46,2.22,2.82,2.98,4.46c-0.92-0.36-1.17-1.3-1.67-2.01
			C36.67,91.59,35.61,90.42,34.97,88.98z"/>
		<path class="st11" d="M68.31,108.62c0.37,1.55-0.28,2.9-2.07,4.07c-2.78,1.81-5.9,2.24-9.11,1.96c-2.26-0.19-4.44-0.79-6.31-2.17
			c-0.55-0.4-1.02-0.87-1.42-1.42c-0.61-0.86-0.68-1.79-0.4-2.77c0.97-1.27,2.1-2.32,3.63-2.95c3.27-1.35,6.62-1.54,10-0.69
			C64.97,105.25,67.17,106.22,68.31,108.62z M59.92,111.3c-0.05-0.32-0.33-0.39-0.56-0.52c-1.08-0.61-2.16-1.21-3.23-1.84
			c-1.26-0.75-2.29-0.53-3.25,0.73c0.04,0.84,0.7,1.07,1.23,0.82c0.7-0.32,1.15-0.06,1.67,0.23c0.82,0.46,1.63,0.95,2.44,1.41
			C59.04,112.6,59.72,112.25,59.92,111.3z M63.82,108.85c0.06-0.59,0-1.17-0.48-1.58c-1.37-1.15-3.71-1.98-5.6-0.78
			c-0.69,0.44-1.02,0.94-0.67,1.74c0.03,0.31,0.11,0.58,0.34,0.81c1.1,1.1,2.45,1.65,3.98,1.58
			C62.81,110.56,63.62,109.9,63.82,108.85z"/>
		<path class="st11" d="M70.55,110.44c-0.01-0.06-0.02-0.12-0.03-0.18c0.07-1.03-0.03-2.04-0.19-3.05c0.59-0.16,1.57,0.48,1.61-0.79
			c0.01-0.06,0.02-0.13,0.02-0.19c0.47-0.2,0.94-0.24,1.41,0c0.53,0.66,0.4,1.45,0.42,2.21c0.1,0.88,0.53,1.23,1.18,0.88
			c0.91-0.49,1.79-1.04,2.68-1.57c0.41-0.25,0.58-0.55,0.21-0.96c-0.21-0.2-0.41-0.39-0.62-0.59c0.76,0.04,1.49,0.3,2.27,0.22
			c1.24-0.13,2.13-0.84,2.2-1.83c0.11-0.67-0.16-1.16-0.66-1.58c-1.23-1.04-2.64-1.46-4.22-1.2c-1.24,0.21-1.81,0.88-1.82,1.98
			c-0.09,0.52,0.17,0.87,0.5,1.25c0.49,0.55,1.22,0.7,1.74,1.18c-0.61,0.04-1.01,0.51-1.52,0.77c-0.51,0.26-0.75,0.2-0.72-0.42
			c0.02-0.54,0.06-1.09-0.34-1.54c-0.52-0.59-1.96-0.79-2.96-0.38c-0.89,0.36-1.48,0.95-1.35,2c-0.01,0.19-0.02,0.39-0.03,0.58
			c-0.92-1.33-2.11-2.38-3.46-3.24c0.5-0.71,1.21-1.18,1.95-1.57c2.89-1.56,5.98-1.95,9.21-1.48c3.07,0.45,5.81,1.45,7.54,4.26
			c0.24,2.17-1,3.47-2.72,4.4C78.89,111.73,74.76,111.71,70.55,110.44z"/>
		<path class="st5" d="M68.31,108.62c-1.13-2.41-3.34-3.38-5.69-3.96c-3.37-0.85-6.73-0.66-10,0.69c-1.53,0.63-2.65,1.68-3.63,2.95
			c0.05-1.38,1.04-2.17,2.01-2.87c1.94-1.4,4.18-1.95,6.54-2.05c2.72-0.12,5.38,0.17,7.83,1.48c1.31,0.7,2.37,1.65,2.95,3.06
			C68.43,108.15,68.61,108.39,68.31,108.62z"/>
		<path class="st5" d="M85.56,105.18c-1.73-2.81-4.47-3.81-7.54-4.26c-3.23-0.47-6.32-0.08-9.21,1.48c-0.74,0.4-1.45,0.86-1.95,1.57
			c-0.76-0.22-0.19-0.6-0.05-0.81c0.56-0.79,1.35-1.37,2.2-1.75c4.81-2.14,9.6-2.25,14.22,0.51
			C84.42,102.64,85.46,103.62,85.56,105.18z"/>
		<path class="st0" d="M72.29,86.54c-4.78,1.09-9.57,2.18-14.35,3.28c-5.28,1.21-10.55,2.43-15.82,3.64
			c-0.26,0.06-0.64,0.4-0.76-0.06c-0.12-0.44,0.36-0.49,0.67-0.56c2.65-0.62,5.31-1.22,7.96-1.83c7.04-1.62,14.09-3.24,21.13-4.86
			c0.17-0.04,0.33-0.07,0.43-0.22c0.32,0.04,0.6,0.16,0.81,0.41C72.34,86.41,72.31,86.47,72.29,86.54z"/>
		<path class="st0" d="M70.54,85.32c-2.21,0.71-4.49,1.11-6.74,1.63c-7.17,1.67-14.35,3.31-21.53,4.97
			c-0.1,0.02-0.19,0.08-0.29,0.08c-0.25,0-0.61,0.12-0.66-0.26c-0.05-0.34,0.29-0.3,0.5-0.35c2-0.47,3.99-0.94,5.99-1.4
			c7.01-1.62,14.02-3.23,21.03-4.86c0.23-0.05,0.44-0.15,0.66-0.23C69.92,84.9,70.27,85.02,70.54,85.32z"/>
		<path class="st2" d="M66.9,82.68c0-0.27,0-0.54,0-0.82c2.26,1,4.3,2.39,6.44,3.59c4.7,2.65,9.36,5.37,14.02,8.08
			c0.51,0.3,1.35,0.41,1.19,1.49c-1.65-0.94-3.23-1.82-4.8-2.72c-5.46-3.15-10.92-6.31-16.39-9.45
			C67.23,82.77,67.06,82.74,66.9,82.68z"/>
		<path class="st2" d="M66.9,79.65c0-0.27,0-0.55,0-0.82c2.23,1.26,4.47,2.5,6.69,3.77c4.8,2.75,9.58,5.52,14.38,8.27
			c0.4,0.23,0.78,0.43,0.53,1.13c-1.32-0.76-2.59-1.49-3.87-2.22C78.72,86.4,72.81,83.03,66.9,79.65z"/>
		<path class="st2" d="M66.9,81.09c0-0.27,0-0.54,0-0.82c4.21,2.42,8.42,4.84,12.63,7.26c2.83,1.63,5.67,3.27,8.5,4.9
			c0.32,0.19,0.79,0.38,0.5,0.81c-0.26,0.39-0.61-0.04-0.86-0.18c-6.28-3.62-12.55-7.25-18.83-10.87
			C68.2,81.81,67.55,81.45,66.9,81.09z"/>
		<path class="st0" d="M68.69,84.12c-1.23,0.78-2.68,0.8-4.03,1.14c-4.07,1.02-8.18,1.9-12.27,2.83c-3.44,0.78-6.88,1.56-10.32,2.34
			c-0.26,0.06-0.64,0.38-0.73-0.12c-0.07-0.37,0.35-0.44,0.64-0.51c1.99-0.47,3.99-0.94,5.99-1.4c3.47-0.8,6.94-1.59,10.41-2.38
			c3.11-0.71,6.22-1.43,9.33-2.14C68.05,83.88,68.39,83.92,68.69,84.12z"/>
		<path class="st0" d="M72.28,88.16c-2.05,0.2-4.02,0.81-6.01,1.27c-8.03,1.83-16.05,3.7-24.07,5.56c-0.31,0.07-0.76,0.27-0.85-0.19
			c-0.09-0.45,0.42-0.35,0.67-0.4c5.17-1.21,10.35-2.39,15.52-3.59c4.55-1.05,9.1-2.11,13.66-3.15c0.36-0.08,0.74-0.06,1.1-0.09
			C72.29,87.76,72.29,87.96,72.28,88.16z"/>
		<path class="st0" d="M72.27,91.2c-2.7,0.37-5.32,1.12-7.97,1.71c-7.37,1.67-14.74,3.36-22.11,5.05c-0.3,0.07-0.75,0.36-0.83-0.13
			c-0.09-0.49,0.49-0.37,0.76-0.43c5.4-1.27,10.8-2.51,16.2-3.75c4.29-0.99,8.58-1.98,12.87-2.95c0.36-0.08,0.74-0.06,1.1-0.09
			C72.28,90.8,72.28,91,72.27,91.2z"/>
		<path class="st0" d="M72.28,89.58c-5.44,1.24-10.89,2.49-16.33,3.73c-4.59,1.05-9.18,2.12-13.78,3.14
			c-0.23,0.05-0.72,0.48-0.83-0.07c-0.08-0.4,0.41-0.44,0.74-0.51c3.41-0.79,6.82-1.57,10.23-2.36c6.49-1.5,12.98-3.01,19.47-4.5
			c0.16-0.04,0.34-0.02,0.51-0.03C72.29,89.18,72.28,89.38,72.28,89.58z"/>
		<path class="st8" d="M77.9,49.03c-0.35,0.31-0.74,0.54-1.19,0.66c-1.25-0.03-2.48,0.01-3.73,0.15c-3.69,0.43-7.12,1.56-10.08,3.79
			c-1.95,1.47-3.53,3.27-3.3,6c-0.39,0.31-0.8,0.59-1.28,0.76c-4.18-2.42-8.35-4.84-12.53-7.26c-2.54-1.47-5.11-2.91-7.63-4.41
			c-1.77-1.06-1.77-2.08,0-3.12c4.81-2.82,9.62-5.63,14.47-8.36c1.63-0.92,3.41-0.87,5.05,0.06c6.63,3.78,13.24,7.6,19.85,11.41
			C77.66,48.78,77.77,48.92,77.9,49.03z M54.14,51.5c2.78-0.01,4.99-0.49,6.92-1.89c1.6-1.16,2-3.12,0.92-4.5
			c-0.5-0.64-1.1-1.17-1.83-1.56c-1.39-0.76-2.88-1.12-4.43-1.27c-2.62-0.25-5.13,0.17-7.32,1.67c-2.34,1.6-2.44,3.64-0.32,5.51
			C49.91,51.08,52.22,51.4,54.14,51.5z"/>
		<path class="st9" d="M55.12,63.65c-0.01,3.75-0.03,7.51-0.04,11.26c0,0.43-0.03,0.87-0.04,1.3c-0.44-0.11-0.81-0.34-1.16-0.62
			c-0.01-0.2-0.02-0.39-0.03-0.59c0-0.27,0-0.54,0-0.82c0-0.21,0-0.41,0-0.62c0-0.33,0-0.65,0-0.97c0-0.21,0-0.41,0-0.62
			c0-0.27,0-0.54,0-0.82c0-0.21,0-0.41,0-0.62c0-0.27,0-0.55,0-0.82c0-0.26,0-0.52,0-0.78c0-0.27,0-0.54,0-0.82
			c0-0.21,0-0.41,0-0.62c0-0.27,0-0.55,0-0.82c0-0.21,0-0.41,0-0.62c0-0.32,0-0.65,0-0.97c0-0.21,0-0.41,0.01-0.62
			c0-0.27,0-0.54,0-0.82c0.01-0.2,0.02-0.41,0.03-0.61c0.06-0.01,0.12-0.02,0.18-0.01C54.42,63.25,54.77,63.45,55.12,63.65z"/>
		<path class="st0" d="M59.59,59.63c-0.23-2.72,1.36-4.53,3.3-6c2.96-2.23,6.4-3.36,10.08-3.79c1.25-0.15,2.48-0.19,3.73-0.15
			c-2.4,1.63-4.97,2.96-7.47,4.42C66.04,55.97,62.81,57.79,59.59,59.63z"/>
		<path class="st0" d="M53.87,75.59c0.35,0.27,0.72,0.51,1.16,0.62c0.25,0.19,0.49,0.38,0.74,0.58c-2.22,1.44-4.7,1.73-7.25,1.56
			c-1.41-0.09-2.8-0.38-4.1-0.98c-1.65-0.77-3.15-1.8-3.29-3.76c-0.13-1.78,1.2-2.82,2.57-3.7c1.84,0.75,3.45,1.91,5.18,2.85
			C50.56,73.68,52.21,74.65,53.87,75.59z"/>
		<path class="st0" d="M66.93,70.52c-0.03-0.05-0.03-0.11-0.02-0.17c1.53-0.83,3.05-1.65,4.58-2.48c1.28,0.76,2.54,1.53,3.83,2.27
			c4.21,2.43,8.42,4.87,12.65,7.26c1.74,0.98,3.58,0.98,5.32-0.01c4.8-2.75,9.58-5.56,14.36-8.35c1.54-0.9,1.54-2.09-0.02-2.99
			c-5.53-3.19-11.07-6.36-16.6-9.54c1.36-0.82,2.72-1.64,4.09-2.46c0.9,0.55,1.81,0.77,2.84,0.32c0.36-0.16,0.79-0.02,1.19,0.1
			c1.39,0.42,1.61,1.01,0.71,2.21c5.66,3.27,11.32,6.54,16.97,9.81c-1.63,1.37-3.55,2.29-5.36,3.36c-4.12,2.43-8.27,4.78-12.41,7.17
			c-3.09,1.79-6.17,3.59-9.26,5.37c-0.38,0.22-0.8,0.35-1.2,0.51c-1.93-1.1-3.85-2.21-5.78-3.31
			C77.52,76.57,72.22,73.55,66.93,70.52z"/>
		<path class="st0" d="M104.32,55.52c-1.25-0.01-2.19-0.62-2.11-1.39c0.07-0.73,1.2-1.28,2.3-1.12c0.03,0,0.06,0.02,0.1,0.03
			c0.85,0.12,1.76,0.23,1.83,1.31C106.48,54.99,105.39,55.53,104.32,55.52z"/>
		<path class="st8" d="M91.04,56.51c5.53,3.18,11.07,6.35,16.6,9.54c1.56,0.9,1.56,2.09,0.02,2.99c-4.78,2.79-9.56,5.59-14.36,8.35
			c-1.74,1-3.58,1-5.32,0.01c-4.23-2.39-8.44-4.83-12.65-7.26c-1.28-0.74-2.55-1.51-3.83-2.27c3.13-1.85,6.25-3.71,9.39-5.53
			C84.26,60.38,87.66,58.46,91.04,56.51z M99.33,65.83c1.05,0.03,2.09-0.59,2.07-1.23c-0.02-0.65-0.91-1.16-1.99-1.17
			c-0.03,0-0.07,0-0.1,0c-1.14,0.01-1.96,0.5-1.96,1.18C97.35,65.25,98.25,65.8,99.33,65.83z M103.69,65.87
			c-1.13-0.02-2.07,0.52-2.07,1.19c-0.01,0.64,1.01,1.24,2.07,1.22c1.05-0.02,1.98-0.6,1.98-1.22
			C105.66,66.43,104.77,65.89,103.69,65.87z M95.03,63.25c1.24,0,2.1-0.46,2.09-1.14c-0.01-0.67-0.87-1.12-2.11-1.12
			c-1.27,0-1.94,0.4-1.93,1.14C93.09,62.86,93.76,63.25,95.03,63.25z M90.07,73.76c-0.93-0.04-1.71,0.34-2.42,0.88
			c-0.83,0.64-0.77,1.19,0.15,1.67c1.15,0.6,2.23,0.26,3.25-0.33c0.45-0.26,1.04-0.58,0.91-1.2c-0.13-0.61-0.73-0.84-1.3-0.98
			C90.48,73.76,90.27,73.77,90.07,73.76z M85.45,74.59c0.97-0.07,1.82-0.36,2.53-0.96c0.67-0.57,0.6-1.16-0.2-1.58
			c-1.09-0.58-2.15-0.34-3.17,0.2c-0.5,0.26-1.11,0.55-1.05,1.22c0.07,0.71,0.74,0.88,1.33,1.05
			C85.08,74.57,85.29,74.57,85.45,74.59z M85.33,70.89c-0.27-0.44-0.64-0.6-1.02-0.73c-0.21-0.07-0.62,0-0.4,0.29
			c0.43,0.57-0.09,0.61-0.34,0.77c-0.51,0.32-1.05,0.6-1.56,0.91c-0.18,0.11-0.54,0.18-0.4,0.47c0.14,0.31,0.46,0.18,0.7,0.05
			C83.31,72.07,84.31,71.48,85.33,70.89z"/>
		<path class="st1" d="M31.52,80.87c-0.84-0.57-1.2-1.51-1.75-2.29c-1.01-1.44-2.19-2.78-2.93-4.4c0.9,0.3,1.07,1.22,1.55,1.86
			c0.96,1.28,1.85,2.62,2.78,3.92C31.37,80.24,31.58,80.5,31.52,80.87z"/>
		<path class="st1" d="M34.77,83.91c0.9,0.3,1.07,1.22,1.55,1.86c0.96,1.28,1.85,2.62,2.78,3.92c0.2,0.28,0.4,0.54,0.34,0.91
			c-0.84-0.57-1.2-1.51-1.75-2.29C36.69,86.87,35.51,85.53,34.77,83.91z"/>
		<path class="st1" d="M35.79,86.75c-0.83-0.22-0.97-1.04-1.39-1.6c-0.54-0.71-1.17-1.37-1.45-2.25c0.73,0.11,0.81,0.82,1.17,1.27
			C34.75,84.97,35.4,85.78,35.79,86.75z"/>
		<path class="st1" d="M32.94,82.9c-0.7-0.52-1.09-1.26-1.42-2.03C32.39,81.27,32.74,82.03,32.94,82.9z"/>
		<path class="st4" d="M57.07,108.23c-0.35-0.8-0.02-1.31,0.67-1.74c1.89-1.2,4.23-0.37,5.6,0.78c0.48,0.41,0.54,0.99,0.48,1.58
			c-1.08,0.84-2.3,1.25-3.65,0.96C59.02,109.55,58.02,108.92,57.07,108.23z M58.76,107.66c0.64,1.16,2.35,1.66,3.42,1
			c0.05-0.08,0.17-0.17,0.15-0.24c-0.24-1.07-2.52-2.02-3.47-1.46C58.54,107.16,58.44,107.37,58.76,107.66z"/>
		<path class="st4" d="M52.88,109.67c0.96-1.27,1.99-1.49,3.25-0.73c1.06,0.63,2.15,1.23,3.23,1.84c0.23,0.13,0.51,0.21,0.56,0.52
			c-0.9,0.49-1.68,0.27-2.47-0.33c-0.55-0.42-1.25-0.65-1.81-1.06C54.75,109.25,53.77,110.12,52.88,109.67z"/>
		<path class="st5" d="M52.88,109.67c0.88,0.45,1.86-0.42,2.76,0.24c0.56,0.41,1.26,0.64,1.81,1.06c0.79,0.6,1.56,0.82,2.47,0.33
			c-0.2,0.96-0.88,1.3-1.69,0.84c-0.82-0.47-1.62-0.95-2.44-1.41c-0.52-0.29-0.97-0.55-1.67-0.23
			C53.58,110.74,52.92,110.51,52.88,109.67z"/>
		<path class="st5" d="M57.07,108.23c0.95,0.69,1.95,1.31,3.1,1.57c1.35,0.3,2.57-0.12,3.65-0.96c-0.2,1.05-1,1.72-2.43,1.78
			c-1.53,0.07-2.88-0.48-3.98-1.58C57.18,108.81,57.09,108.54,57.07,108.23z"/>
		<path class="st4" d="M75,103.78c0.01-1.1,0.58-1.78,1.82-1.98c1.58-0.26,2.99,0.16,4.22,1.2c0.5,0.42,0.78,0.91,0.66,1.58
			C79.76,106.52,76.25,105.55,75,103.78z M80.06,104.4c0.16-0.11,0.21-0.24,0.12-0.42c-0.36-0.73-2.29-1.63-3.04-1.35
			c-0.4,0.15-0.99,0.29-0.51,0.95c0.45,0.56,1.05,0.88,1.73,1.06C78.95,104.8,79.58,105.06,80.06,104.4z"/>
		<path class="st4" d="M73.78,108.44c-0.03-0.76,0.1-1.55-0.42-2.21c0.4-0.47,0.14-0.73-0.32-0.81c-0.6-0.1-1.15-0.03-1.08,0.81
			c0,0.06,0,0.13-0.02,0.19c-0.55-0.11-1.05,0.16-1.58,0.21c-0.13-1.05,0.46-1.64,1.35-2c1-0.41,2.44-0.21,2.96,0.38
			c0.39,0.45,0.36,1,0.34,1.54c-0.03,0.63,0.21,0.68,0.72,0.42c0.51-0.25,0.91-0.73,1.52-0.77c0,0-0.01-0.01-0.01-0.01
			c0.21,0.2,0.41,0.39,0.62,0.59c-0.66,0.7-1.63,0.93-2.37,1.51C74.93,108.74,74.39,108.82,73.78,108.44z"/>
		<path class="st5" d="M75,103.78c1.25,1.77,4.76,2.75,6.71,0.8c-0.07,0.99-0.96,1.7-2.2,1.83c-0.78,0.08-1.51-0.18-2.27-0.22
			c0,0,0.01,0.01,0.01,0.01c-0.51-0.49-1.25-0.63-1.74-1.18C75.17,104.65,74.91,104.3,75,103.78z"/>
		<path class="st5" d="M73.78,108.44c0.6,0.38,1.15,0.3,1.7-0.14c0.73-0.59,1.7-0.81,2.37-1.51c0.37,0.42,0.21,0.72-0.21,0.96
			c-0.89,0.53-1.77,1.08-2.68,1.57C74.32,109.67,73.88,109.32,73.78,108.44z"/>
		<path class="st5" d="M70.36,106.63c0.53-0.05,1.03-0.32,1.58-0.21c-0.04,1.27-1.02,0.64-1.61,0.79c0,0,0,0,0,0
			C70.34,107.02,70.35,106.82,70.36,106.63z"/>
		<path class="st5" d="M71.95,106.23c-0.07-0.84,0.48-0.91,1.08-0.81c0.47,0.08,0.72,0.33,0.32,0.81
			C72.89,105.99,72.42,106.03,71.95,106.23z"/>
		<path class="st0" d="M54.14,51.5c-1.92-0.09-4.23-0.41-6.07-2.04c-2.12-1.87-2.02-3.92,0.32-5.51c2.19-1.5,4.7-1.92,7.32-1.67
			c1.55,0.15,3.04,0.51,4.43,1.27c0.73,0.4,1.33,0.93,1.83,1.56c1.09,1.38,0.68,3.33-0.92,4.5C59.13,51,56.92,51.49,54.14,51.5z"/>
		<path class="st2" d="M99.33,65.83c-1.07-0.03-1.98-0.59-1.98-1.22c0-0.68,0.81-1.17,1.96-1.18c0.03,0,0.07,0,0.1,0
			c1.09,0.01,1.97,0.52,1.99,1.17C101.42,65.24,100.38,65.86,99.33,65.83z"/>
		<path class="st2" d="M103.69,65.87c1.08,0.02,1.97,0.56,1.97,1.2c0.01,0.62-0.93,1.19-1.98,1.22c-1.07,0.02-2.08-0.58-2.07-1.22
			C101.63,66.39,102.57,65.85,103.69,65.87z"/>
		<path class="st1" d="M95.03,63.25c-1.27,0-1.95-0.39-1.95-1.12C93.07,61.4,93.74,61,95.01,61c1.25,0,2.1,0.45,2.11,1.12
			C97.13,62.79,96.27,63.25,95.03,63.25z"/>
		<path class="st12" d="M90.07,73.76c0.2,0.01,0.41,0,0.6,0.05c0.57,0.14,1.17,0.37,1.3,0.98c0.13,0.62-0.45,0.94-0.91,1.2
			c-1.02,0.58-2.1,0.93-3.25,0.33c-0.92-0.48-0.99-1.04-0.15-1.67C88.36,74.1,89.14,73.72,90.07,73.76z M89.02,76.04
			c0.65,0.04,1.17-0.26,1.68-0.6c0.22-0.15,0.43-0.35,0.36-0.66c-0.07-0.31-0.35-0.41-0.6-0.47c-0.68-0.17-1.24,0.17-1.8,0.46
			c-0.32,0.17-0.72,0.37-0.62,0.81C88.14,76.1,88.63,76.01,89.02,76.04z"/>
		<path class="st12" d="M85.45,74.59c-0.16-0.02-0.37-0.02-0.56-0.08c-0.59-0.17-1.26-0.34-1.33-1.05
			c-0.07-0.67,0.54-0.95,1.05-1.22c1.02-0.54,2.08-0.78,3.17-0.2c0.8,0.42,0.87,1.01,0.2,1.58C87.27,74.23,86.42,74.51,85.45,74.59z
			 M85.48,74c0.71,0.01,1.3-0.31,1.83-0.74c0.43-0.35,0.34-0.68-0.15-0.92c-0.74-0.38-1.38,0.02-2,0.32
			c-0.37,0.18-0.9,0.39-0.73,0.92C84.57,74.01,85.07,74.01,85.48,74z"/>
		<path class="st12" d="M85.33,70.89c-1.02,0.59-2.02,1.18-3.03,1.76c-0.23,0.13-0.55,0.26-0.7-0.05c-0.13-0.29,0.22-0.36,0.4-0.47
			c0.52-0.31,1.05-0.59,1.56-0.91c0.26-0.16,0.78-0.2,0.34-0.77c-0.22-0.29,0.19-0.36,0.4-0.29C84.68,70.29,85.06,70.45,85.33,70.89
			z"/>
		<path class="st11" d="M62.19,108.65c-1.07,0.67-2.79,0.17-3.42-1C60.14,107.2,61.17,107.91,62.19,108.65z"/>
		<path class="st5" d="M62.19,108.65c-1.02-0.74-2.05-1.45-3.42-1c-0.33-0.29-0.23-0.5,0.11-0.7c0.94-0.55,3.22,0.39,3.47,1.46
			C62.35,108.48,62.24,108.57,62.19,108.65z"/>
		<path class="st11" d="M80.06,104.4c-0.49,0.66-1.11,0.39-1.7,0.24c-0.68-0.18-1.28-0.5-1.73-1.06
			C77.99,102.96,79.02,103.69,80.06,104.4z"/>
		<path class="st5" d="M80.06,104.4c-1.04-0.71-2.07-1.44-3.43-0.82c-0.48-0.66,0.12-0.8,0.51-0.95c0.74-0.28,2.68,0.62,3.04,1.35
			C80.27,104.16,80.22,104.29,80.06,104.4z"/>
		<path class="st8" d="M89.02,76.04c-0.39-0.03-0.88,0.06-0.99-0.46c-0.09-0.44,0.3-0.64,0.62-0.81c0.56-0.29,1.12-0.63,1.8-0.46
			c0.26,0.07,0.53,0.16,0.6,0.47c0.07,0.32-0.13,0.51-0.36,0.66C90.19,75.78,89.66,76.08,89.02,76.04z"/>
		<path class="st8" d="M85.48,74c-0.41,0-0.91,0.01-1.05-0.42c-0.17-0.54,0.36-0.75,0.73-0.92c0.62-0.3,1.26-0.69,2-0.32
			c0.48,0.24,0.58,0.57,0.15,0.92C86.78,73.69,86.19,74.01,85.48,74z"/>
	</g>
</g>
</svg>
