<?xml version="1.0" encoding="utf-8"?>
<!-- Generator: Adobe Illustrator 25.2.3, SVG Export Plug-In . SVG Version: 6.00 Build 0)  -->
<svg version="1.1" id="Capa_1" xmlns="http://www.w3.org/2000/svg" xmlns:xlink="http://www.w3.org/1999/xlink" x="0px" y="0px"
	 viewBox="0 0 277.1 277.1" style="enable-background:new 0 0 277.1 277.1;" xml:space="preserve">
<style type="text/css">
	.st0{fill:#606060;}
</style>
<g>
	<path class="st0" d="M145,38.3c-0.7-1.6-2.2-2.7-4-2.7l0,0c-1.8,0-3.3,1.1-4,2.7v0.1l-12.7,33.4c-0.7,1.8,0.2,3.9,2.1,4.6
		c0.4,0.2,0.8,0.2,1.3,0.2c1.4,0,2.8-0.9,3.3-2.3l2.3-6h15.5l2.3,6c0.7,1.8,2.8,2.8,4.6,2.1c1.8-0.7,2.8-2.8,2.1-4.6L145,38.3
		C145,38.4,145,38.3,145,38.3L145,38.3z M135.9,61.2l5.1-13.3l5,13.3H135.9z"/>
	<path class="st0" d="M130.6,122.2c-2,0-3.6,1.6-3.6,3.6v33.9c0,1,0.4,1.9,1.1,2.5c0.7,0.7,1.6,1,2.5,1l0,0c0,0,9.1,0,11.6,0
		c7,0,12.7-5.7,12.7-12.7c0-4.2-2.1-7.9-5.2-10.3c1.4-1.9,2.2-4.2,2.2-6.7c0-6.3-5.1-11.4-11.4-11.4L130.6,122.2z M142.2,156.1
		c-1.5,0-5.2,0-8,0V145c0.9,0,1.8,0,2.7,0h5.3c3.1,0,5.6,2.5,5.6,5.6S145.2,156.1,142.2,156.1z M144.7,133.6c0,2.3-1.9,4.2-4.2,4.2
		c-0.7,0-2.1,0-3.6,0h-2.7v-8.5h6.3C142.8,129.4,144.7,131.3,144.7,133.6z"/>
	<path class="st0" d="M144.1,216c2.7,0,5.3,0.8,7.5,2.3c1.6,1.1,3.9,0.7,5-1c1.1-1.6,0.7-3.9-1-5c-3.4-2.3-7.4-3.5-11.5-3.5
		c-11.3,0-20.5,9.2-20.5,20.5s9.2,20.5,20.5,20.5c4.5,0,8.5-1.5,11.7-4.3c0.6-0.5,1.2-1.1,1.7-1.8c1.3-1.5,1.1-3.8-0.4-5
		c-1.5-1.3-3.8-1.1-5,0.4c-0.3,0.4-0.7,0.7-1,1c-1.8,1.6-4.2,2.5-6.9,2.5c-7.4,0-13.4-6-13.4-13.4C130.7,222,136.7,216,144.1,216
		L144.1,216z"/>
	<path class="st0" d="M249.3,66.3c-8.9-8.9-20.6-13.7-33.2-13.7h-27.3v-13c0-10.4-8.5-18.9-18.9-18.9h-8.5c-2,0-3.6,1.6-3.6,3.6
		s1.6,3.6,3.6,3.6h8.5c6.5,0,11.7,5.3,11.7,11.7v33.2c0,6.5-5.3,11.7-11.7,11.7h-29l0,0l0,0h-29c-6.5,0-11.7-5.3-11.7-11.7V39.6
		c0-6.5,5.3-11.7,11.7-11.7h35.2c2,0,3.6-1.6,3.6-3.6s-1.6-3.6-3.6-3.6h-35.2c-10.4,0-18.9,8.5-18.9,18.9v33.2
		c0,10.4,8.5,18.9,18.9,18.9h25.4v15.7h-25.4c-10.4,0-18.9,8.5-18.9,18.9v13H65.7c-12.5,0-24.3,4.9-33.2,13.7
		c-8.9,8.9-13.7,20.6-13.7,33.2c0,25.9,21,46.9,46.9,46.9h11.9l-6.1,6.1c-1.4,1.4-1.4,3.7,0,5.1c0.7,0.7,1.6,1,2.5,1s1.8-0.3,2.5-1
		l12.2-12.2c0.7-0.7,1-1.6,1-2.5s-0.4-1.9-1-2.5l-12.2-12.2c-1.4-1.4-3.7-1.4-5.1,0s-1.4,3.7,0,5.1l6.1,6.1H65.7
		C43.8,225.8,26,208,26,186.1c0-10.6,4.1-20.6,11.6-28.1s17.5-11.6,28.1-11.6H93v13c0,10.4,8.5,18.9,18.9,18.9h25.4V194h-25.4
		c-7.1,0-13.6,3.9-16.8,10.3c-0.9,1.8-0.2,3.9,1.6,4.8c1.8,0.9,3.9,0.2,4.8-1.6c2-3.9,6-6.4,10.5-6.4h58c6.5,0,11.7,5.3,11.7,11.7
		V246c0,6.5-5.3,11.7-11.7,11.7h-58c-6.5,0-11.7-5.3-11.7-11.7v-26c0-2-1.6-3.6-3.6-3.6s-3.6,1.6-3.6,3.6v26
		c0,10.4,8.5,18.9,18.9,18.9h58c10.4,0,18.9-8.5,18.9-18.9v-33.2c0-10.4-8.5-18.9-18.9-18.9h-25.4v-15.7H170
		c10.4,0,18.9-8.5,18.9-18.9v-33.2c0-10.4-8.5-18.9-18.9-18.9h-25.4V91.6H170c10.4,0,18.9-8.5,18.9-18.9v-13h27.3
		c10.6,0,20.6,4.1,28.1,11.6s11.6,17.5,11.6,28.1c0,21.9-17.8,39.7-39.7,39.7h-11.9l6.1-6.1c1.4-1.4,1.4-3.7,0-5.1s-3.7-1.4-5.1,0
		l-12.2,12.2c-0.7,0.7-1,1.6-1,2.5s0.4,1.9,1,2.5l12.2,12.2c0.7,0.7,1.6,1,2.5,1s1.8-0.3,2.5-1c1.4-1.4,1.4-3.7,0-5.1l-6.1-6.1h11.9
		c25.9,0,46.9-21,46.9-46.9C263,86.9,258.2,75.2,249.3,66.3L249.3,66.3z M181.7,126.2v33.2c0,6.5-5.3,11.7-11.7,11.7h-58
		c-6.5,0-11.7-5.3-11.7-11.7v-33.2c0-6.5,5.3-11.7,11.7-11.7h58C176.4,114.5,181.7,119.7,181.7,126.2L181.7,126.2z"/>
</g>
</svg>
