<?xml version="1.0" encoding="utf-8"?>
<!-- Generator: Adobe Illustrator 25.2.3, SVG Export Plug-In . SVG Version: 6.00 Build 0)  -->
<svg version="1.1" id="Calque_11" xmlns="http://www.w3.org/2000/svg" xmlns:xlink="http://www.w3.org/1999/xlink" x="0px" y="0px"
	 viewBox="0 0 150 150" style="enable-background:new 0 0 150 150;" xml:space="preserve">
<style type="text/css">
	.st0{fill:#FFFFFF;}
	.st1{fill:#E1E6E9;}
	.st2{fill:#EBF0F3;}
	.st3{fill:#54B99D;}
	.st4{fill:#657A8A;}
	.st5{fill:#E56454;}
	.st6{fill:#D6D7DB;}
	.st7{fill:#F6C359;}
	.st8{fill:#FDD562;}
	.st9{fill:#30495A;}
	.st10{fill:#3B566B;}
</style>
<g>
	<polygon class="st0" points="117.78,101.16 118.76,102.75 43.63,119.31 44.37,117.93 116.81,101.16 	"/>
	<polygon class="st1" points="120.24,97.99 49.21,114.16 46.18,116.84 46.44,118.45 122.89,100.61 123.42,98.65 	"/>
	<polygon class="st2" points="103.53,68.01 32.25,82.46 46.1,116.92 123.42,98.65 	"/>
	<polygon class="st3" points="119.86,93.17 43.61,110.72 35,89.29 107.49,74.12 	"/>
	<g>
		<polygon class="st4" points="107.18,100.09 61.88,110.69 61.31,109.43 106.48,98.92 		"/>
		<polygon class="st4" points="75.88,79.37 52.44,84.24 51.95,83.17 75.32,78.33 		"/>
	</g>
	<polygon class="st5" points="44.79,81.21 38.95,82.4 37.67,87.01 42.38,90.5 48.34,89.23 49.47,84.56 	"/>
	<g>
		<polygon class="st6" points="87.92,76.86 85.16,77.44 83.57,74.67 86.32,74.11 		"/>
		<polygon class="st6" points="91.22,76.18 88.47,76.75 86.86,74 89.59,73.44 		"/>
		<polygon class="st6" points="94.49,75.5 91.76,76.06 90.13,73.33 92.84,72.77 		"/>
		<polygon class="st6" points="97.75,74.82 95.03,75.38 93.38,72.66 96.07,72.11 		"/>
		<polygon class="st6" points="100.98,74.15 98.28,74.71 96.61,72 99.29,71.45 		"/>
		<polygon class="st6" points="104.2,73.48 101.51,74.03 99.81,71.34 102.48,70.79 		"/>
	</g>
	<g>
		<polygon class="st2" points="85.55,85.68 41.08,95.27 40.61,94.12 84.95,84.6 		"/>
		<polygon class="st2" points="87.91,89.9 42.95,99.8 42.46,98.62 87.3,88.8 		"/>
		<polygon class="st2" points="90.34,94.23 44.87,104.46 44.37,103.24 89.7,93.1 		"/>
		<polygon class="st2" points="115.67,91.41 95.35,96.03 94.7,94.89 114.97,90.3 		"/>
		<polygon class="st2" points="111.23,84.47 91.25,88.86 88.4,83.86 108.13,79.63 		"/>
	</g>
	<polygon class="st5" points="46.18,116.84 44.1,111.15 38,111.73 39.88,118.3 40.81,118.5 	"/>
	<g>
		<path class="st7" d="M44.31,112.51l1.88,4.33c0,0,1.74,0.05,0.73-2.38s-2.92-4.66-2.92-4.66h-1.82"/>
		<path class="st7" d="M38.94,113.91l1.88,4.59l0.31,1.56c0,0-3.56,1.47-5.09-2.13l-1.16-7.15l2.76-0.78"/>
	</g>
	<path class="st8" d="M46.91,114.46L35.97,88.11l-2.89-7.14c-0.86-3.57-9.83-1.4-8.97,2.17l2.47,7.18l9.45,27.62
		C35.07,113.78,44.75,111.16,46.91,114.46z"/>
	<g>
		<polygon class="st9" points="114.21,28.82 113.38,28.31 113.87,27.52 112.99,26.98 101.32,46.04 102.2,46.58 110.82,32.5 
			111.65,33.01 		"/>
		<g>
			<path class="st4" d="M109.11,36.66L90.43,67.87l5.48,3.36l19-31.03C113.65,39.63,110.31,37.59,109.11,36.66z"/>
			<path class="st4" d="M78.95,90.94L78.95,90.94c-0.34,0.56-0.6,1.17-0.76,1.81l-0.18,0.73c-0.05,0.2,0.03,0.4,0.21,0.51
				c0.17,0.11,0.4,0.09,0.55-0.05l0.56-0.49c0.5-0.43,0.92-0.94,1.27-1.5L78.95,90.94z"/>
		</g>
		<path class="st10" d="M95.92,71.22l-5.48-3.36l-7.65,12.49c-0.29,0.48-0.57,0.96-0.81,1.47c-1.37,2.86-2.43,5.85-3.17,9
			c-0.02,0.08,0.02,0.16,0.09,0.21l1.63,1c0.07,0.04,0.16,0.04,0.22-0.01c2.49-2.02,4.7-4.35,6.65-6.99
			c0.29-0.4,0.56-0.81,0.82-1.23L95.92,71.22z"/>
		<g>
			<path class="st6" d="M91.65,65.83l-0.28,0.47c1.97,1.38,3.28,2.17,5.51,3.34l0.29-0.47C94.93,68,93.63,67.22,91.65,65.83z"/>
			<path class="st6" d="M92.65,64.16l-0.28,0.47c1.98,1.39,3.29,2.18,5.53,3.35l0.29-0.47C95.94,66.33,94.64,65.55,92.65,64.16z"/>
			<path class="st6" d="M93.66,62.48l-0.28,0.47c1.99,1.39,3.3,2.18,5.55,3.36l0.29-0.47C96.95,64.66,95.65,63.88,93.66,62.48z"/>
			<path class="st6" d="M94.66,60.81l-0.28,0.47c2,1.4,3.31,2.19,5.56,3.38l0.29-0.47C97.97,63,96.66,62.21,94.66,60.81z"/>
			<path class="st6" d="M95.66,59.13l-0.28,0.47c2.01,1.41,3.32,2.2,5.58,3.39l0.29-0.47C98.98,61.33,97.68,60.54,95.66,59.13z"/>
			<path class="st6" d="M101.98,61.32l0.29-0.47c-2.27-1.19-3.58-1.98-5.6-3.4l-0.28,0.47C98.4,59.34,99.71,60.13,101.98,61.32z"/>
			<path class="st6" d="M90.65,67.51c0,0-0.01-0.01-0.01-0.01l-0.28,0.47c1.97,1.38,3.27,2.16,5.51,3.34l0.29-0.47
				C93.91,69.67,92.62,68.89,90.65,67.51z"/>
		</g>
		<g>
			<path class="st10" d="M114.91,40.2l8.3-13.55l-7.7-0.61l-0.38,0.56l-6.02,10.06C110.31,37.59,113.65,39.63,114.91,40.2z"/>
			<path class="st10" d="M123.22,26.51c-0.07-0.58-1.85-1.13-3.99-1.23c-2.13-0.1-3.8,0.29-3.73,0.87c0.07,0.58,1.85,1.13,3.99,1.23
				C121.62,27.48,123.29,27.09,123.22,26.51z"/>
		</g>
		<path class="st9" d="M121.77,26.44c-0.04-0.36-1.16-0.71-2.49-0.77c-1.33-0.06-2.38,0.18-2.33,0.55c0.04,0.36,1.16,0.71,2.49,0.77
			C120.77,27.05,121.81,26.8,121.77,26.44z"/>
		<path class="st2" d="M120.09,21.17l-2.92,4.76l-0.2,0.32c0.12,0.35,1.18,0.67,2.46,0.73c0.81,0.04,1.52-0.04,1.93-0.19l0.3-0.48
			l1.86-3.04C124.04,22.44,120.61,20.33,120.09,21.17z"/>
	</g>
</g>
</svg>
