<?xml version="1.0" encoding="utf-8"?>
<!-- Generator: Adobe Illustrator 25.2.3, SVG Export Plug-In . SVG Version: 6.00 Build 0)  -->
<svg version="1.1" id="Calque_1" xmlns="http://www.w3.org/2000/svg" xmlns:xlink="http://www.w3.org/1999/xlink" x="0px" y="0px"
	 viewBox="0 0 150 150" style="enable-background:new 0 0 150 150;" xml:space="preserve">
<g id="goi2UF.tif">
	<g>
		<path d="M126.69,36.17c0,25.83,0,51.66,0,77.49c-18.56,0-37.12,0.01-55.68-0.02c-0.9,0-1.46,0.23-2.02,1
			c-3.79,5.19-8.76,8.8-14.93,10.65c-1.87,0.56-3.8,0.87-5.71,1.29c-1.87,0-3.73,0-5.6,0c-0.7-0.14-1.39-0.29-2.09-0.41
			c-13.12-2.23-23.3-13.25-24.09-26.45c-0.66-10.92,3.6-19.66,12.49-26.09c0.59-0.43,0.8-0.86,0.8-1.58
			c-0.02-11.51-0.02-23.03-0.02-34.54c0-0.42,0-0.83,0-1.37c4.38,0,8.62,0,12.91,0c0-1.16,0-2.19,0-3.23
			c0.02-5.35,4.31-9.64,9.63-9.64c5.41-0.01,9.7,4.25,9.73,9.65c0.01,1.06,0,2.13,0,3.18c2.23,0,4.32,0,6.46,0c0-1.12,0-2.15,0-3.19
			c0.02-5.35,4.31-9.64,9.63-9.64c5.41-0.01,9.71,4.25,9.73,9.65c0.01,1.06,0,2.13,0,3.19c2.22,0,4.32,0,6.46,0
			c0-1.12,0-2.15,0-3.19c0.02-5.35,4.31-9.64,9.63-9.65c5.41-0.01,9.71,4.25,9.73,9.65c0.01,1.06,0,2.13,0,3.27
			C118.17,36.17,122.43,36.17,126.69,36.17z M120.16,107.17c0-15.11,0-30.11,0-45.09c-27.99,0-55.9,0-83.79,0c0,2.64,0,5.19,0,7.74
			c11.38-3.12,21.54-1.09,29.85,7.36c8.32,8.46,10.19,18.69,6.87,29.99C88.82,107.17,104.45,107.17,120.16,107.17z M68.15,97.47
			C68.12,85.08,57.91,74.9,45.54,74.91c-12.38,0.01-22.57,10.2-22.58,22.59c-0.01,12.42,10.27,22.67,22.67,22.61
			C58.02,120.06,68.19,109.84,68.15,97.47z M120.19,42.7c-6.48,0-12.87,0-19.34,0c0,2.14,0,4.21,0,6.32c-2.17,0-4.26,0-6.47,0
			c0-2.16,0-4.25,0-6.34c-6.49,0-12.86,0-19.34,0c0,2.14,0,4.23,0,6.33c-2.21,0-4.3,0-6.47,0c0-2.14,0-4.21,0-6.31
			c-6.47,0-12.87,0-19.38,0c0,2.16,0,4.25,0,6.34c-2.18,0-4.25,0-6.43,0c0-2.14,0-4.24,0-6.33c-2.21,0-4.3,0-6.39,0
			c0,4.3,0,8.51,0,12.78c27.96,0,55.87,0,83.84,0C120.19,51.22,120.19,47,120.19,42.7z M55.67,36.12c0-1.16,0.05-2.21-0.01-3.24
			c-0.1-1.73-1.44-3.07-3.08-3.16c-1.51-0.09-3.04,1.06-3.26,2.69c-0.17,1.21-0.03,2.47-0.03,3.71
			C51.43,36.12,53.5,36.12,55.67,36.12z M81.48,36.12c0-1.18,0.07-2.29-0.02-3.39c-0.14-1.72-1.6-3.03-3.21-3.02
			c-1.58,0.01-3.02,1.28-3.17,2.94c-0.1,1.13-0.02,2.27-0.02,3.46C77.21,36.12,79.28,36.12,81.48,36.12z M107.32,36.13
			c0-1.16,0.05-2.2-0.01-3.23c-0.09-1.73-1.42-3.07-3.07-3.17c-1.55-0.1-3.09,1.11-3.3,2.78c-0.15,1.18-0.03,2.4-0.03,3.62
			C103.08,36.13,105.14,36.13,107.32,36.13z"/>
		<path d="M94.36,68.53c0,2.14,0,4.2,0,6.32c-4.26,0-8.48,0-12.78,0c0-2.07,0-4.16,0-6.32C85.8,68.53,90.04,68.53,94.36,68.53z"/>
		<path d="M100.93,68.5c4.27,0,8.48,0,12.77,0c0,2.09,0,4.18,0,6.34c-4.23,0-8.47,0-12.77,0C100.93,72.76,100.93,70.69,100.93,68.5z
			"/>
		<path d="M94.32,87.8c-4.28,0-8.47,0-12.74,0c0-2.11,0-4.2,0-6.36c4.22,0,8.46,0,12.74,0C94.32,83.57,94.32,85.68,94.32,87.8z"/>
		<path d="M113.7,87.78c-4.28,0-8.5,0-12.77,0c0-2.11,0-4.17,0-6.32c4.21,0,8.45,0,12.77,0C113.7,83.51,113.7,85.6,113.7,87.78z"/>
		<path d="M94.36,94.36c0,2.14,0,4.2,0,6.32c-4.26,0-8.47,0-12.78,0c0-2.07,0-4.16,0-6.32C85.8,94.36,90.04,94.36,94.36,94.36z"/>
		<path d="M113.72,100.69c-4.28,0-8.49,0-12.78,0c0-2.1,0-4.19,0-6.34c4.24,0,8.48,0,12.78,0
			C113.72,96.44,113.72,98.51,113.72,100.69z"/>
		<path d="M42.35,100.65c0-6.43,0-12.78,0-19.2c2.11,0,4.2,0,6.41,0c0,4.24,0,8.48,0,12.81c2.18,0,4.25,0,6.39,0
			c0,2.17,0,4.26,0,6.39C50.89,100.65,46.63,100.65,42.35,100.65z"/>
	</g>
</g>
</svg>
