<?xml version="1.0" encoding="utf-8"?>
<!-- Generator: Adobe Illustrator 25.2.3, SVG Export Plug-In . SVG Version: 6.00 Build 0)  -->
<svg version="1.1" id="Calque_2" xmlns="http://www.w3.org/2000/svg" xmlns:xlink="http://www.w3.org/1999/xlink" x="0px" y="0px"
	 viewBox="0 0 150 150" style="enable-background:new 0 0 150 150;" xml:space="preserve">
<style type="text/css">
	.st0{fill:#FFFFFF;}
</style>
<g id="UVAHau.tif">
	<g>
		<path d="M74.2,21.02c0.98,0.44,1.56,1.22,2.01,2.17c1.01,2.15,2.1,4.26,3.12,6.4c0.27,0.56,0.62,0.77,1.24,0.84
			c2.49,0.31,4.97,0.7,7.46,1.06c1.16,0.17,2.07,0.68,2.41,1.88c0.31,1.12-0.17,1.96-0.96,2.72c-1.79,1.72-3.54,3.49-5.34,5.19
			c-0.48,0.45-0.64,0.9-0.52,1.52c0.44,2.47,0.84,4.95,1.31,7.41c0.21,1.11,0.01,2.04-0.88,2.74c-0.94,0.74-1.94,0.65-2.95,0.11
			c-2.25-1.2-4.51-2.35-6.75-3.57c-0.55-0.3-0.95-0.28-1.49,0.02c-2.2,1.2-4.44,2.34-6.66,3.52c-1,0.54-2,0.71-2.96-0.01
			c-0.99-0.73-1.16-1.72-0.93-2.9c0.48-2.43,0.85-4.88,1.28-7.31c0.11-0.62-0.04-1.07-0.52-1.52c-1.81-1.7-3.55-3.47-5.34-5.18
			c-0.79-0.76-1.28-1.6-0.97-2.72c0.34-1.2,1.24-1.71,2.41-1.88c2.49-0.35,4.97-0.75,7.46-1.05c0.68-0.08,1-0.38,1.28-0.95
			c1.03-2.14,2.12-4.25,3.13-6.4c0.44-0.93,1.03-1.66,1.96-2.09C73.39,21.02,73.79,21.02,74.2,21.02z"/>
		<path d="M125.03,60.01c-0.49,1.16-1.42,1.71-2.61,2.02c-2.23,0.57-4.43,1.25-6.66,1.83c-0.72,0.19-1.13,0.49-1.37,1.25
			c-0.74,2.36-1.6,4.68-2.38,7.03c-0.35,1.05-0.94,1.8-2.09,1.96c-1.19,0.16-2.01-0.39-2.64-1.35c-1.4-2.13-2.79-4.26-4.25-6.35
			c-0.24-0.34-0.78-0.64-1.2-0.65c-2.55-0.1-5.1-0.13-7.65-0.15c-1.15-0.01-2.07-0.38-2.58-1.47c-0.52-1.1-0.12-2.03,0.59-2.91
			c1.55-1.93,3.07-3.9,4.63-5.82c0.4-0.5,0.5-0.93,0.29-1.57c-0.78-2.38-1.48-4.79-2.24-7.18c-0.35-1.1-0.28-2.08,0.59-2.9
			c0.87-0.82,1.86-0.8,2.94-0.39c2.34,0.89,4.71,1.71,7.05,2.62c0.63,0.25,1.05,0.15,1.57-0.23c2.01-1.45,4.06-2.85,6.07-4.3
			c0.93-0.67,1.9-0.93,2.95-0.39c1.07,0.56,1.34,1.52,1.28,2.67c-0.12,2.55-0.22,5.09-0.25,7.64c0,0.41,0.28,0.97,0.61,1.23
			c1.84,1.45,3.76,2.8,5.59,4.26c0.67,0.53,1.18,1.27,1.76,1.91C125.03,59.2,125.03,59.6,125.03,60.01z"/>
		<path d="M85.84,83.9c0.47,0,0.83,0,1.2,0c5.61,0,11.23-0.01,16.84,0.01c2.07,0.01,3.56,1.04,4.4,2.91
			c0.18,0.41,0.2,1.02,0.02,1.43c-0.8,1.89-2.27,2.94-4.34,2.98c-2.72,0.05-5.44,0.01-8.24,0.01c0,0.8,0,1.56,0,2.45
			c0.58,0,1.18,0,1.78,0c1.97,0,3.95,0,5.92,0c0.24,0,0.48,0,0.71,0c2.04,0.07,4.34,1.98,4.38,3.63c0.04,1.65-2.33,3.67-4.41,3.7
			c-2.41,0.03-4.83,0.01-7.25,0.01c-0.37,0-0.73,0-1.16,0c0,0.81,0,1.55,0,2.38c0.22,0.02,0.47,0.07,0.73,0.07
			c1.91,0.01,3.81,0,5.72,0.01c0.34,0,0.69,0,1.02,0.07c1.89,0.39,3.83,2.34,3.72,3.72c-0.14,1.69-2.41,3.52-4.46,3.55
			c-2.21,0.03-4.42,0.01-6.7,0.01c0,0.8,0,1.56,0,2.45c1.64,0,3.3-0.03,4.95,0.01c2.07,0.05,3.54,1.08,4.36,2.96
			c0.16,0.36,0.2,0.88,0.07,1.26c-0.57,1.75-2.42,3.11-4.27,3.11c-11.12,0.01-22.25,0.01-33.37,0c-0.2,0-0.41-0.01-0.61-0.04
			c-2.08-0.35-2.24-0.55-2.24-2.65c0-9.56,0.01-19.12-0.02-28.68c0-0.73,0.19-1.15,0.83-1.55c1.88-1.16,3.97-2.14,5.48-3.69
			c1.5-1.54,2.3-3.74,3.57-5.54c1.22-1.72,1.72-3.51,1.61-5.61c-0.14-2.61-0.03-5.24-0.03-7.86c0-1.93,0.65-2.47,2.56-2.19
			c2.34,0.34,4.4,1.19,5.78,3.22c1.05,1.54,1.43,3.3,1.44,5.12c0.03,3.95,0.01,7.89,0.01,11.84C85.84,83.28,85.84,83.54,85.84,83.9z
			"/>
		<path d="M62.16,103.49c0,5.58,0,11.16,0,16.74c0,1.96-0.9,2.86-2.86,2.86c-5.17,0-10.34,0-15.51,0c-1.95,0-2.86-0.91-2.86-2.86
			c0-11.16,0-22.31,0-33.47c0-1.96,0.9-2.86,2.86-2.86c5.17,0,10.34,0,15.51,0c1.96,0,2.86,0.89,2.86,2.86
			C62.16,92.33,62.16,97.91,62.16,103.49z M51.54,119.2c1.31,0,2.47-1.19,2.44-2.49c-0.03-1.27-1.17-2.39-2.44-2.39
			c-1.3,0-2.48,1.2-2.44,2.49C49.14,118.08,50.28,119.2,51.54,119.2z"/>
		<path d="M32.38,40.66c0.57,0.27,1.18,0.47,1.69,0.82c2.08,1.42,4.13,2.86,6.17,4.34c0.5,0.37,0.91,0.4,1.49,0.18
			c2.34-0.9,4.71-1.73,7.05-2.63c1.07-0.41,2.06-0.43,2.94,0.39c0.87,0.82,0.93,1.81,0.58,2.9c-0.76,2.39-1.45,4.8-2.24,7.18
			c-0.21,0.64-0.09,1.07,0.3,1.57c1.58,1.96,3.11,3.95,4.69,5.91c0.69,0.86,1.01,1.77,0.52,2.82c-0.49,1.04-1.36,1.44-2.48,1.45
			c-2.52,0.03-5.03,0.11-7.55,0.1c-0.74,0-1.16,0.24-1.55,0.86c-1.31,2.06-2.71,4.07-4.05,6.12c-0.65,1-1.46,1.6-2.7,1.42
			c-1.21-0.17-1.76-0.99-2.12-2.07c-0.77-2.32-1.61-4.61-2.34-6.93c-0.24-0.75-0.66-1.05-1.38-1.24c-2.39-0.63-4.76-1.35-7.15-1.99
			c-1.09-0.29-1.83-0.92-2.06-2.02c-0.23-1.12,0.3-1.96,1.19-2.62c2.05-1.52,4.1-3.03,6.1-4.61c0.33-0.26,0.61-0.82,0.6-1.23
			c-0.03-2.62-0.16-5.23-0.24-7.85C29.81,41.88,30.79,40.8,32.38,40.66z"/>
		<path class="st0" d="M51.54,119.2c-1.26,0-2.4-1.12-2.44-2.39c-0.03-1.29,1.15-2.49,2.44-2.49c1.27,0,2.41,1.13,2.44,2.39
			C54.01,118.01,52.85,119.19,51.54,119.2z"/>
	</g>
</g>
</svg>
