<?xml version="1.0" encoding="utf-8"?>
<!-- Generator: Adobe Illustrator 25.2.3, SVG Export Plug-In . SVG Version: 6.00 Build 0)  -->
<svg version="1.1" id="Calque_13" xmlns="http://www.w3.org/2000/svg" xmlns:xlink="http://www.w3.org/1999/xlink" x="0px" y="0px"
	 viewBox="0 0 150 150" style="enable-background:new 0 0 150 150;" xml:space="preserve">
<style type="text/css">
	.st0{fill-rule:evenodd;clip-rule:evenodd;fill:#96C11E;}
	.st1{fill-rule:evenodd;clip-rule:evenodd;fill:#083C5E;}
</style>
<g>
	<rect x="32.83" y="32.25" class="st0" width="88.62" height="87.79"/>
	<path class="st1" d="M75.08,42.86h4.13c3.39,0.24,6.76,0.95,9.92,2.18c8.24,3.15,15.07,9.75,18.56,17.85
		c2.81,6.38,3.43,13.64,2,20.44c-0.26,1.15-0.47,2.36-1.09,3.38c-0.65,1.08-2.05,1.48-3.24,1.21c-1.32-0.3-2.37-1.61-2.23-2.98
		c0.13-1.48,0.65-2.89,0.88-4.35c0.83-5.02,0.21-10.27-1.76-14.96c-2.73-6.52-8.09-11.91-14.62-14.62
		c-5.38-2.25-11.52-2.75-17.16-1.21c-1.27,0.3-2.77,0.79-3.95-0.02c-1.45-0.9-1.77-3.07-0.74-4.4c0.66-0.84,1.73-1.15,2.72-1.43
		C70.65,43.4,72.86,43.04,75.08,42.86z"/>
	<path class="st1" d="M45.19,66.55c0.35-1.15,1.3-2.16,2.54-2.26c1.64-0.29,3.39,1.04,3.4,2.73c-0.02,1.43-0.54,2.79-0.79,4.18
		c-1,5.3-0.32,10.89,1.84,15.83c2.77,6.34,8.04,11.56,14.44,14.22c5.46,2.28,11.7,2.75,17.41,1.16c1.2-0.29,2.61-0.69,3.71,0.08
		c1.51,0.93,1.79,3.24,0.62,4.54c-0.68,0.74-1.69,1.02-2.62,1.29c-6.83,1.78-14.24,1.44-20.82-1.18
		c-7.8-3.05-14.31-9.17-17.89-16.74c-2.82-5.82-3.18-10.38-3.18-16.6C44.1,71.36,44.44,68.9,45.19,66.55z"/>
	<path class="st1" d="M83.08,65.83c0.22-0.04,0.43,0.04,0.62,0.14c0.29,0.15,0.44,0.5,0.42,0.83l-0.66,6.66
		c0.01,0.18-0.04,0.39,0.07,0.55c0.1,0.19,0.31,0.26,0.45,0.42c0.1,0.12,0.2,0.27,0.18,0.44c-0.01,0.22,0.04,0.46-0.08,0.66
		c-0.12,0.27-0.33,0.5-0.61,0.61c-0.32,0.13-0.7,0.07-0.99-0.12c-0.23-0.15-0.43-0.36-0.6-0.58c-0.25-0.38-0.41-0.83-0.45-1.28
		l0.63-7.31c0.06-0.27,0.17-0.55,0.38-0.73C82.61,65.95,82.85,65.89,83.08,65.83z"/>
	<path class="st1" d="M60.42,68.77c0.18-0.04,0.36-0.03,0.54-0.03c0.21,0.02,0.41,0.08,0.62,0.11c0.32,0.07,0.63,0.2,0.91,0.37
		c0.24,0.16,0.46,0.38,0.51,0.68c0.03,0.28,0.02,0.58-0.14,0.82c-0.21,0.34-0.67,0.48-1.03,0.34c-0.36-0.14-0.71-0.33-1.09-0.43
		c-0.16-0.01-0.32-0.02-0.48,0c-0.13,0.06-0.24,0.17-0.3,0.3c-0.06,0.14,0.06,0.27,0.16,0.36c0.26,0.19,0.57,0.31,0.87,0.42
		c0.3,0.13,0.6,0.26,0.89,0.43c0.29,0.17,0.6,0.35,0.78,0.64c0.16,0.25,0.23,0.55,0.22,0.84c0.01,0.51-0.12,1.04-0.42,1.45
		c-0.38,0.53-0.96,0.89-1.58,1.05c-0.4,0.07-0.8,0.16-1.21,0.09c-0.29-0.05-0.58-0.05-0.86-0.15c-0.44-0.13-0.9-0.3-1.19-0.68
		c-0.12-0.14-0.16-0.32-0.18-0.5c0.04-0.22,0.06-0.45,0.18-0.64c0.13-0.21,0.33-0.38,0.56-0.45c0.19-0.04,0.38-0.02,0.56,0.06
		c0.37,0.12,0.72,0.33,1.1,0.44c0.21,0.08,0.43,0.11,0.65,0.08c0.16-0.05,0.33-0.15,0.39-0.32c0-0.1,0.03-0.21-0.04-0.29
		c-0.07-0.09-0.16-0.14-0.26-0.19c-0.26-0.11-0.51-0.22-0.77-0.34c-0.47-0.19-0.94-0.38-1.34-0.71c-0.29-0.2-0.46-0.54-0.51-0.89
		c-0.01-0.29-0.03-0.58,0.06-0.86c0.11-0.45,0.35-0.86,0.67-1.17c0.34-0.37,0.79-0.62,1.27-0.74
		C60.11,68.83,60.27,68.81,60.42,68.77z"/>
	<path class="st1" d="M66.82,68.88c0.36-0.09,0.72-0.18,1.09-0.12c0.36,0.07,0.73,0.14,1.04,0.34c0.18,0.11,0.31,0.27,0.46,0.41
		c0.04,0.05,0.11,0.05,0.15,0.02c0.36-0.23,0.72-0.47,1.11-0.63c0.27-0.09,0.56-0.15,0.85-0.13c0.29-0.02,0.57,0.04,0.85,0.1
		c0.25,0.07,0.5,0.18,0.71,0.34c0.35,0.22,0.58,0.61,0.69,1.01c0.03,0.28,0.11,0.57,0.07,0.86l-0.33,3.76
		c-0.04,0.28-0.08,0.58-0.25,0.82c-0.18,0.24-0.46,0.43-0.77,0.42c-0.23,0-0.49,0.02-0.68-0.13c-0.22-0.17-0.39-0.44-0.37-0.73
		c-0.01-0.32,0.02-0.65,0.05-0.97l0.22-2.35c0.02-0.31,0.04-0.64-0.13-0.91c-0.14-0.29-0.46-0.47-0.77-0.46
		c-0.15,0-0.3,0.06-0.44,0.11c-0.36,0.22-0.56,0.64-0.64,1.05l-0.25,2.96c0.01,0.21-0.04,0.4-0.09,0.6
		c-0.05,0.31-0.27,0.57-0.54,0.73c-0.27,0.13-0.59,0.17-0.88,0.08c-0.28-0.06-0.48-0.31-0.57-0.57c-0.03-0.18-0.06-0.37-0.02-0.55
		l0.26-3.05c0.05-0.35,0.02-0.73-0.2-1.02c-0.13-0.2-0.37-0.29-0.59-0.33c-0.29-0.01-0.6,0.11-0.8,0.33
		c-0.21,0.21-0.31,0.5-0.38,0.79l-0.28,3.26c-0.01,0.42-0.23,0.84-0.59,1.06c-0.36,0.19-0.84,0.19-1.17-0.07
		c-0.19-0.17-0.34-0.42-0.31-0.68c0.01-0.25-0.01-0.5,0.03-0.74c0.01-0.18,0.06-0.34,0.07-0.52c0-0.33,0.03-0.66,0.1-0.99
		c0-0.25,0.05-0.49,0.04-0.73c0-0.34,0.1-0.68,0.1-1.02c-0.01-0.32,0.05-0.63,0.09-0.95c0.02-0.17-0.01-0.35,0.04-0.51
		c0.1-0.32,0.31-0.62,0.62-0.76c0.11-0.04,0.21-0.07,0.32-0.1c0.2-0.04,0.4,0.02,0.58,0.08c0.22,0.08,0.38,0.28,0.49,0.48
		c0.19-0.06,0.31-0.25,0.48-0.34C66.47,69.02,66.64,68.94,66.82,68.88z"/>
	<path class="st1" d="M79.74,68.77c0.12-0.05,0.24-0.03,0.36-0.03c0.27-0.02,0.52,0.13,0.73,0.29c0.16,0.16,0.31,0.37,0.29,0.61
		l-0.55,5.6c-0.05,0.33-0.28,0.61-0.54,0.78c-0.29,0.19-0.65,0.2-0.98,0.12c-0.17-0.04-0.3-0.16-0.45-0.23
		c-0.2-0.03-0.38,0.11-0.58,0.13c-0.23,0.02-0.45,0.09-0.68,0.08c-0.17,0-0.34,0.01-0.51-0.01c-0.14-0.02-0.29-0.06-0.43-0.06
		c-0.17-0.01-0.33-0.08-0.49-0.13c-0.59-0.2-1.08-0.66-1.33-1.24c-0.1-0.24-0.19-0.49-0.23-0.75c-0.04-0.21-0.1-0.42-0.08-0.63
		c0.02-0.34-0.04-0.69,0.04-1.02c0.05-0.23,0.05-0.48,0.13-0.7c0.18-0.68,0.56-1.31,1.07-1.79c0.44-0.4,0.98-0.68,1.55-0.81
		c0.25-0.05,0.51-0.12,0.77-0.11c0.2,0,0.41-0.02,0.61,0.03c0.21,0.05,0.42,0.08,0.62,0.18c0.07,0.03,0.17,0.07,0.24,0
		C79.43,68.94,79.57,68.83,79.74,68.77L79.74,68.77z M77.57,70.92L77.57,70.92c-0.31,0.04-0.63,0.15-0.84,0.4
		c-0.23,0.22-0.31,0.54-0.37,0.85c-0.04,0.16-0.02,0.32-0.05,0.48c-0.06,0.37,0.02,0.78,0.26,1.07c0.25,0.26,0.6,0.35,0.95,0.38
		c0.14-0.01,0.28-0.05,0.42-0.08c0.34-0.11,0.64-0.4,0.74-0.75c0.05-0.21,0.07-0.43,0.1-0.65c0.01-0.21,0-0.42,0.04-0.63
		c0.04-0.32-0.1-0.65-0.35-0.85C78.21,70.94,77.88,70.89,77.57,70.92z"/>
	<path class="st1" d="M95.71,74.28c0.18-0.06,0.37-0.14,0.56-0.09c0.18,0.04,0.37,0.1,0.51,0.23c0.12,0.11,0.19,0.25,0.26,0.4v1.1
		l-0.72,7.49c-0.04,0.26-0.05,0.54-0.18,0.77c-0.15,0.27-0.45,0.47-0.76,0.45c-0.18,0-0.37,0.02-0.53-0.07
		c-0.15-0.07-0.3-0.23-0.48-0.18c-0.31,0.1-0.62,0.25-0.95,0.24c-0.25,0-0.5,0-0.75,0c-0.22,0-0.43-0.08-0.64-0.14
		c-0.65-0.23-1.24-0.7-1.55-1.34c-0.26-0.51-0.36-1.1-0.3-1.67c0.03-0.23,0-0.46,0.04-0.69c0.04-0.24,0.06-0.49,0.09-0.73
		c0.13-0.71,0.5-1.38,1.02-1.87c0.44-0.42,0.99-0.71,1.57-0.85c0.26-0.04,0.53-0.09,0.79-0.09c0.38-0.01,0.75,0.08,1.11,0.16
		c0.02-0.17,0.04-0.33,0.04-0.5c0-0.3,0.11-0.58,0.1-0.88c0-0.31,0.08-0.61,0.11-0.91C95.09,74.76,95.36,74.41,95.71,74.28
		L95.71,74.28z M93.27,79.4L93.27,79.4c-0.14,0.03-0.29,0.07-0.41,0.14c-0.28,0.15-0.47,0.43-0.55,0.74c-0.09,0.32-0.15,1.48,0,1.76
		c0.11,0.26,0.38,0.41,0.64,0.48c0.21,0.02,0.41,0.02,0.62,0c0.29-0.07,0.57-0.24,0.72-0.5c0.12-0.21,0.2-0.45,0.2-0.7l0.05-0.77
		c0.02-0.15,0.02-0.3-0.02-0.45c-0.06-0.31-0.3-0.57-0.6-0.66C93.71,79.39,93.48,79.33,93.27,79.4z"/>
	<path class="st1" d="M85.77,77.24c0.31-0.09,0.65-0.13,0.95,0.01c0.29,0.15,0.53,0.46,0.5,0.81c0.02,0.31-0.04,0.67-0.3,0.87
		c-0.61,0.41-1.41,0.42-1.98,0.9c-0.2,0.21-0.31,0.49-0.34,0.78c-0.02,0.14-0.06,0.27-0.08,0.41c-0.04,0.2,0,0.41-0.04,0.61
		c-0.02,0.16-0.05,0.32-0.08,0.48c-0.01,0.37-0.03,0.73-0.1,1.09c-0.02,0.15,0,0.3-0.04,0.45c-0.13,0.48-0.55,0.91-1.06,0.89
		c-0.21,0.01-0.44-0.02-0.61-0.16c-0.28-0.21-0.39-0.59-0.35-0.94c0.03-0.21,0.07-0.43,0.06-0.64c0-0.28,0.06-0.56,0.1-0.84
		c0-0.36,0.03-0.71,0.1-1.06c0.01-0.25,0.05-0.51,0.05-0.76c0.03-0.28,0.1-0.56,0.1-0.85c-0.01-0.36,0.08-0.71,0.11-1.06
		c0.08-0.3,0.26-0.59,0.53-0.75c0.12-0.06,0.24-0.14,0.37-0.14c0.18,0,0.36-0.01,0.53,0.01c0.26,0.09,0.49,0.27,0.59,0.54
		c0.18-0.07,0.31-0.21,0.46-0.32C85.4,77.43,85.57,77.31,85.77,77.24z"/>
	<path class="st1" d="M78.46,77.27c0.24-0.06,0.5-0.05,0.74-0.04c0.4,0.06,0.8,0.12,1.17,0.29c0.42,0.19,0.81,0.45,1.08,0.83
		c0.19,0.25,0.32,0.54,0.41,0.84c0.05,0.14,0.07,0.29,0.07,0.44c0.05,0.3,0.04,0.61,0,0.92c0,0.33-0.05,0.66-0.1,0.99
		c-0.03,0.59-0.25,1.15-0.57,1.65c-0.44,0.65-1.1,1.12-1.84,1.36c-0.19,0.08-0.4,0.09-0.6,0.15c-0.18,0.06-0.38,0.04-0.56,0.04
		c-0.18,0-0.37,0.01-0.55-0.01c-0.44-0.08-0.88-0.2-1.27-0.43c-0.24-0.15-0.49-0.32-0.66-0.55c-0.26-0.32-0.45-0.7-0.53-1.11
		c-0.1-0.29-0.06-0.6-0.07-0.9c-0.01-0.23,0.06-0.45,0.09-0.68c0.05-0.26-0.01-0.52,0.05-0.78c0.03-0.15,0.07-0.3,0.1-0.46
		c0.15-0.58,0.46-1.11,0.88-1.53C76.89,77.72,77.67,77.37,78.46,77.27L78.46,77.27z M78.43,79.36L78.43,79.36
		c-0.35,0.1-0.7,0.29-0.87,0.63c-0.06,0.13-0.12,0.27-0.15,0.42l-0.1,0.95c-0.02,0.15-0.01,0.3-0.01,0.45
		c0.11,0.48,0.59,0.86,1.08,0.83c0.19,0,0.38,0.01,0.55-0.07c0.35-0.12,0.64-0.42,0.77-0.77c0.1-0.31,0.16-1.38,0.13-1.7
		c-0.09-0.3-0.32-0.55-0.61-0.66C78.98,79.3,78.69,79.31,78.43,79.36z"/>
	<path class="st1" d="M65.5,77.77c0.16-0.24,0.42-0.41,0.7-0.44c0.31-0.06,0.68-0.03,0.91,0.21c0.2,0.18,0.26,0.46,0.3,0.72
		c0.11,0.49,0.2,0.98,0.31,1.47c0.03,0.28,0.12,0.55,0.16,0.82c0.06,0.22,0.09,0.44,0.14,0.66c0.07-0.08,0.14-0.16,0.17-0.25
		c0.29-0.74,0.61-1.46,0.91-2.2c0.17-0.42,0.32-0.85,0.61-1.2c0.18-0.21,0.46-0.26,0.72-0.27c0.24,0.01,0.52,0.06,0.67,0.28
		c0.25,0.39,0.32,0.87,0.43,1.31c0.14,0.66,0.3,1.31,0.44,1.97c0.03,0.12,0.07,0.24,0.12,0.35c0.13-0.2,0.18-0.43,0.28-0.64
		c0.29-0.73,0.58-1.45,0.86-2.18c0.11-0.27,0.19-0.55,0.38-0.77c0.2-0.23,0.5-0.33,0.79-0.33c0.24,0.01,0.49,0.04,0.68,0.2
		c0.2,0.14,0.27,0.39,0.3,0.62c0.02,0.41-0.18,0.79-0.33,1.15c-0.61,1.39-1.24,2.79-1.85,4.18c-0.16,0.34-0.34,0.7-0.67,0.89
		c-0.28,0.15-0.6,0.2-0.91,0.15c-0.26-0.02-0.52-0.14-0.66-0.37c-0.21-0.34-0.27-0.74-0.37-1.12c-0.09-0.4-0.19-0.8-0.28-1.2
		c-0.05-0.22-0.13-0.45-0.13-0.68c-0.08,0.08-0.16,0.16-0.2,0.27c-0.27,0.66-0.56,1.3-0.83,1.96c-0.12,0.29-0.26,0.58-0.47,0.82
		c-0.27,0.3-0.71,0.38-1.09,0.32c-0.29-0.02-0.59-0.17-0.75-0.43c-0.2-0.31-0.26-0.68-0.36-1.04c-0.38-1.44-0.75-2.88-1.14-4.32
		C65.28,78.39,65.32,78.05,65.5,77.77z"/>
	<path class="st1" d="M86.05,65.82c0.22-0.04,0.43,0.04,0.62,0.14c0.29,0.15,0.44,0.5,0.42,0.83l-0.66,6.66
		c0.01,0.18-0.04,0.39,0.07,0.55c0.1,0.19,0.31,0.26,0.45,0.42c0.1,0.12,0.2,0.27,0.18,0.44c-0.01,0.22,0.04,0.46-0.08,0.66
		c-0.12,0.27-0.33,0.5-0.61,0.61c-0.32,0.13-0.7,0.07-0.99-0.12c-0.23-0.15-0.43-0.36-0.6-0.58c-0.25-0.38-0.41-0.83-0.45-1.28
		l0.63-7.31c0.06-0.27,0.17-0.55,0.38-0.73C85.58,65.94,85.82,65.88,86.05,65.82z"/>
	<path class="st1" d="M88.88,74.17c0.22-0.04,0.43,0.04,0.62,0.14c0.29,0.15,0.44,0.5,0.42,0.83l-0.66,6.66
		c0.01,0.18-0.04,0.39,0.07,0.55c0.1,0.19,0.31,0.26,0.45,0.42c0.1,0.12,0.2,0.27,0.18,0.44c-0.01,0.22,0.04,0.46-0.08,0.66
		c-0.12,0.27-0.33,0.5-0.61,0.61c-0.32,0.13-0.7,0.07-0.99-0.12c-0.23-0.15-0.43-0.36-0.6-0.58c-0.25-0.38-0.41-0.83-0.45-1.28
		l0.63-7.31c0.06-0.27,0.17-0.55,0.38-0.73C88.41,74.29,88.65,74.23,88.88,74.17z"/>
</g>
</svg>
