<?xml version="1.0" encoding="utf-8"?>
<!-- Generator: Adobe Illustrator 25.2.3, SVG Export Plug-In . SVG Version: 6.00 Build 0)  -->
<svg version="1.1" id="Calque_19" xmlns="http://www.w3.org/2000/svg" xmlns:xlink="http://www.w3.org/1999/xlink" x="0px" y="0px"
	 viewBox="0 0 150 150" style="enable-background:new 0 0 150 150;" xml:space="preserve">
<style type="text/css">
	.st0{fill:#4397D0;}
	.st1{fill:#88B237;}
	.st2{fill:#FEC14F;}
	.st3{fill:#F9B739;}
	.st4{fill:#3E8CC6;}
	.st5{fill:#FDC9A3;}
	.st6{fill:#F6BA8F;}
	.st7{fill:#FEE5B7;}
	.st8{fill:#A6D44F;}
	.st9{fill:#80AA30;}
	.st10{fill:#EC9624;}
	.st11{fill:#70942D;}
	.st12{fill:#86CDD8;}
	.st13{fill:#126098;}
	.st14{fill:#13619A;}
</style>
<g id="dEex6m.tif">
	<g>
		<path class="st0" d="M93.93,27.92c2.03,0.74,2.66,2.25,2.62,4.31c-0.08,3.99-0.03,7.97-0.03,11.96c-0.51-0.54-0.45,0.11-0.5,0.28
			c-0.37,1.15-0.65,2.33-1.07,3.46c-1.94,5.29-4.21,10.42-7.15,15.24c-1.86,3.05-3.82,6.02-6.03,8.83c-1,1.26-2.18,2.38-3.01,3.78
			c-3.44,0.01-6.87,0-10.31,0.02c-1.9,0.01-3.39,1.5-3.38,3.3c0.01,1.81,1.49,3.23,3.38,3.25c1.19,0.01,2.37,0.03,3.56,0.04
			c-0.13,0.67-0.79,0.84-1.2,1.23c-3.1,2.96-6.55,5.49-10.08,7.9c-1.17,0.8-2.35,1.6-3.52,2.4c-2.33,0.07-3.72-1.29-3.72-3.67
			c-0.01-7.17,0-14.33,0-21.5c0-12.06,0.03-24.12-0.03-36.17c-0.01-2.08,0.42-3.74,2.44-4.67C68.56,27.92,81.25,27.92,93.93,27.92z
			 M74.99,64.21c2.59,0,5.18,0,7.76,0c2.19,0,2.15,0,2.2-2.2c0.02-0.86-0.27-1.03-1.06-1.02c-5.49,0.03-10.97,0.02-16.46,0.02
			c-2.42,0-2.39,0-2.38,2.39c0,0.68,0.24,0.83,0.87,0.82C68.94,64.2,71.97,64.21,74.99,64.21z M78.32,37.83c1.37,0,2.75,0,4.12,0
			c2.55,0,2.53,0,2.51-2.53c0-0.67-0.22-0.84-0.86-0.83c-3.31,0.03-6.61,0.01-9.92,0.01c-2.6,0-2.58,0-2.54,2.56
			c0.01,0.6,0.18,0.81,0.8,0.8C74.39,37.81,76.35,37.83,78.32,37.83z M74.97,70.92c1.4,0,2.81,0,4.21,0c2.43,0,2.4,0,2.41-2.46
			c0-0.69-0.18-0.91-0.89-0.91c-3.31,0.03-6.62,0.02-9.92,0.02c-2.37,0-2.34,0-2.36,2.41c-0.01,0.72,0.17,0.98,0.94,0.96
			C71.22,70.89,73.09,70.92,74.97,70.92z M79.14,57.66c1.12,0,2.24,0,3.37,0c2.45,0,2.42,0,2.44-2.42c0.01-0.71-0.16-0.97-0.93-0.96
			c-2.74,0.05-5.49,0.02-8.23,0.02c-2.51,0-2.48,0-2.49,2.47c0,0.68,0.17,0.93,0.88,0.91C75.84,57.62,77.49,57.66,79.14,57.66z
			 M73.32,45.97c0,0.31,0,0.62,0,0.93c0,2.69,0,2.68,2.72,2.52c0.48-0.03,0.66-0.18,0.65-0.66c-0.02-1.18-0.01-2.37-0.01-3.55
			c0-2.69,0-2.68-2.72-2.52c-0.48,0.03-0.67,0.18-0.65,0.66C73.34,44.23,73.32,45.1,73.32,45.97z M66.75,45.98c0,0.31,0,0.62,0,0.93
			c0,2.6,0,2.58,2.61,2.52c0.65-0.01,0.78-0.27,0.76-0.84c-0.03-1.12,0.01-2.24-0.01-3.35c-0.07-3.03,0.58-2.47-2.63-2.55
			c-0.59-0.01-0.76,0.22-0.73,0.77C66.77,44.3,66.75,45.14,66.75,45.98z M79.89,46.15c0,0.87,0.02,1.74-0.01,2.61
			c-0.01,0.47,0.15,0.68,0.64,0.66c0.65-0.03,1.31-0.04,1.96,0c0.64,0.05,0.79-0.24,0.78-0.82c-0.03-1.15-0.01-2.3-0.01-3.45
			c0-2.59,0-2.57-2.57-2.47c-0.62,0.03-0.82,0.27-0.8,0.85C79.91,44.42,79.89,45.29,79.89,46.15z M60.18,46.08c0,0.31,0,0.62,0,0.93
			c0,2.55,0,2.54,2.53,2.42c0.54-0.02,0.7-0.21,0.69-0.72c-0.02-1.21-0.01-2.42-0.01-3.64c0-2.48,0-2.46-2.48-2.38
			c-0.58,0.02-0.76,0.22-0.74,0.77C60.2,44.33,60.18,45.21,60.18,46.08z M89.82,46.03c0-0.31,0-0.62,0-0.93c0-2.48,0-2.47-2.46-2.4
			c-0.55,0.01-0.78,0.16-0.76,0.74c0.03,1.21,0.01,2.42,0.01,3.64c0,2.41,0,2.39,2.41,2.36c0.59-0.01,0.85-0.16,0.81-0.79
			C89.79,47.77,89.82,46.9,89.82,46.03z M67.58,57.66c2.69,0,2.68,0,2.54-2.59c-0.03-0.55-0.21-0.79-0.78-0.78
			c-1.18,0.02-2.37,0.03-3.55,0c-0.59-0.02-0.73,0.21-0.74,0.76C64.99,57.66,64.97,57.66,67.58,57.66z M66.7,37.83
			c1.73,0,1.73,0,1.73-1.7c0-0.03,0-0.06,0-0.09c0-1.57,0-1.57-1.59-1.57c-1.78,0-1.78,0-1.78,1.75
			C65.06,37.83,65.06,37.83,66.7,37.83z"/>
		<path class="st1" d="M48.53,42.69c0,1.69-0.01,3.37-0.01,5.06c-0.87,0-1.74,0.01-2.61-0.01c-0.5-0.02-0.74,0.13-0.72,0.68
			c0.03,1.18,0.03,2.35,0,3.53c-0.01,0.55,0.24,0.69,0.73,0.67c0.87-0.03,1.74-0.01,2.61-0.01c0,1.69,0,3.37-0.01,5.06
			c-2.5,0-5-0.01-7.49-0.01c-2.43,0-2.4,0-2.4,2.47c0,0.69,0.18,0.92,0.89,0.91c3-0.04,6-0.02,8.99-0.02c0,1.07,0,2.13,0.01,3.2
			c-1.4,0-2.81-0.01-4.21-0.01c-2.55,0-2.53,0-2.49,2.57c0.01,0.61,0.19,0.82,0.8,0.8c1.97-0.03,3.93-0.02,5.9-0.02
			c0,1.62,0,3.24,0,4.86c-3.15,0-6.31,0-9.46,0.02c-2.6,0.02-4.35,2.14-3.61,4.34c0.47,1.41,1.89,2.36,3.57,2.38
			c2.69,0.02,5.37,0.01,8.06,0.01c-0.05,0.11-0.07,0.26-0.15,0.33c-2.7,2.23-5.54,4.27-8.45,6.23c-0.68,0.46-1.63,0.66-1.88,1.63
			c-2.11,0.01-4.22,0.04-6.33,0.01c-1.63-0.02-2.54-1.08-3.24-2.39c0-16.02,0-32.05,0-48.07c0.94-2,2.6-2.46,4.68-2.42
			c5.3,0.09,10.61,0.04,15.92,0.01c0.72,0,0.98,0.16,0.95,0.92c-0.07,1.37-0.03,2.74-0.04,4.11c-0.9,0-1.8-0.01-2.7-0.01
			c-2.36,0-2.34,0-2.32,2.34c0,0.63,0.17,0.88,0.84,0.86C45.73,42.66,47.13,42.69,48.53,42.69z M35.26,50.15
			c0-2.43,0-2.43-2.43-2.41c-0.06,0-0.13,0.01-0.19,0c-0.56-0.07-0.78,0.16-0.76,0.74c0.03,1.09,0.05,2.17,0,3.26
			c-0.04,0.71,0.22,0.89,0.91,0.89C35.26,52.62,35.26,52.65,35.26,50.15z M41.83,50.17c0-2.58,0-2.58-2.51-2.43
			c-0.03,0-0.06,0-0.09,0c-0.45-0.04-0.59,0.2-0.59,0.62c0.01,1.21,0.01,2.42,0,3.64c0,0.43,0.16,0.58,0.6,0.62
			c2.6,0.23,2.59,0.24,2.59-2.36C41.83,50.23,41.83,50.2,41.83,50.17z M38.63,39.51c-1.68,0-1.69,0-1.68,1.67
			c0.01,1.79-0.24,1.51,1.73,1.51c1.88,0,1.63,0.26,1.63-1.61C40.32,39.25,40.58,39.54,38.63,39.51z"/>
		<path class="st2" d="M101.49,64.22c0-1.07,0.01-2.14,0.01-3.22c1.91,0,3.81,0.01,5.72,0.01c2.55,0,2.53,0,2.49-2.58
			c-0.01-0.62-0.21-0.8-0.82-0.79c-2.47,0.03-4.94,0.02-7.4,0.03c0-1.69-0.01-3.38-0.01-5.07c0.87,0.01,1.74,0,2.61,0.02
			c0.5,0.02,0.74-0.12,0.73-0.67c-0.03-1.18-0.03-2.36,0-3.53c0.01-0.55-0.22-0.7-0.72-0.68c-0.87,0.03-1.74,0.02-2.61,0.02
			c0-1.69-0.01-3.38-0.01-5.07c3.09,0.01,6.17,0.01,9.26,0.02c2.37,0,2.35,0,2.34-2.34c0-0.63-0.16-0.87-0.83-0.86
			c-3.58,0.03-7.17,0.02-10.75,0.03c-0.01-1.46,0-2.93-0.03-4.39c-0.01-0.48,0.15-0.65,0.64-0.65c5.86,0.01,11.73-0.01,17.59,0.03
			c1.7,0.01,2.71,1.07,3.31,2.57c0,6.17,0,12.35,0,18.52c-0.55,0.6-0.89,1.34-1.3,2.03c-1.88,3.18-3.96,6.23-6.24,9.13
			c-1.51,1.92-3.09,3.79-4.64,5.68c-3.11-0.01-6.23-0.02-9.34-0.03c0.01-1.62,0.02-3.23,0.03-4.85c0.84,0,1.68,0.01,2.53,0.01
			c2.55,0,2.53,0,2.49-2.57c-0.01-0.6-0.18-0.82-0.8-0.81C104.29,64.24,102.89,64.22,101.49,64.22z M114.73,50.12
			c0,2.61,0,2.61,2.63,2.5c0.03,0,0.06,0,0.09,0c0.49,0.05,0.66-0.18,0.65-0.66c-0.02-1.09-0.06-2.18,0.01-3.26
			c0.05-0.81-0.26-0.98-1.01-0.97C114.73,47.76,114.73,47.73,114.73,50.12z M111.36,50.22c0-2.67,0-2.67-2.56-2.47
			c-0.03,0-0.06,0-0.09,0c-0.41-0.02-0.54,0.19-0.54,0.57c0.01,1.25,0,2.49,0,3.74c0,0.26,0.03,0.55,0.36,0.54
			c0.9-0.01,1.9,0.31,2.65-0.14c0.49-0.29,0.12-1.22,0.18-1.86C111.37,50.47,111.36,50.34,111.36,50.22z"/>
		<path class="st3" d="M110.8,72.44c1.55-1.89,3.13-3.76,4.64-5.68c2.28-2.9,4.37-5.95,6.24-9.13c0.41-0.69,0.75-1.43,1.3-2.03
			c0,9.79,0,19.58,0,29.37c-0.83,1.85-2.26,2.48-4.26,2.45c-5.43-0.08-10.86-0.05-16.29-0.01c-0.86,0.01-1.05-0.25-1.01-1.05
			c0.07-1.77,0.05-3.55,0.07-5.32c0.73-0.56,1.62-0.94,2-1.87c2.52-0.01,5.04-0.01,7.55-0.04c1.51-0.02,2.73-0.57,3.38-2.02
			c0.57-1.26,0.32-2.43-0.53-3.48C113.11,72.66,111.97,72.48,110.8,72.44z"/>
		<path class="st4" d="M78.75,75.78c0.83-1.4,2.01-2.51,3.01-3.78c2.21-2.81,4.17-5.79,6.03-8.83c2.94-4.82,5.21-9.96,7.15-15.24
			c0.42-1.13,0.7-2.32,1.07-3.46c0.05-0.17-0.01-0.82,0.5-0.28c0.01,0.22,0.03,0.43,0.03,0.65c0,15.16,0,30.33,0,45.49
			c0,1.79-0.85,3.01-2.37,3.51c-0.52,0.17-1.05,0.12-1.57,0.13c-4.74,0.01-9.48,0.01-14.23,0.01c-0.09-0.77,0.01-1.55-0.17-2.32
			c-0.36-1.56-1.7-2.63-3.31-2.6c-1.56,0.03-2.81,1.12-3.12,2.69c-0.15,0.74-0.05,1.49-0.14,2.23c-4.81-0.01-9.62-0.02-14.43-0.04
			c1.17-0.8,2.35-1.6,3.52-2.4c3.53-2.41,6.98-4.94,10.08-7.9c0.41-0.4,1.07-0.56,1.2-1.23c3.18-0.01,6.37-0.02,9.55-0.04
			c1.85-0.01,3.35-1.43,3.37-3.16c0.03-1.88-1.44-3.36-3.37-3.39C80.62,75.78,79.69,75.79,78.75,75.78z"/>
		<path class="st5" d="M71.63,93.96c0.09-0.74-0.01-1.49,0.14-2.23c0.32-1.56,1.56-2.66,3.12-2.69c1.61-0.03,2.95,1.04,3.31,2.6
			c0.18,0.77,0.08,1.55,0.17,2.32c0,3.48,0,6.96,0,10.67c0.72-1.59,1.79-2.46,3.33-2.41c1.58,0.05,2.68,0.93,3.22,2.81
			c0.57-1.88,1.71-2.83,3.38-2.81c1.67,0.03,2.73,1.06,3.28,2.78c0.32-1.19,0.85-2.02,1.89-2.46c2.38-1,4.66,0.6,4.74,3.39
			c0.05,1.62,0,3.24-0.01,4.86c-0.32,0.03-0.58,0.2-0.83,0.39c-1.13,0.86-2.26,1.73-3.47,2.51c-2.88,1.86-5.9,3.47-9.02,4.86
			c-4.18,1.86-8.51,3.31-12.91,4.55c-0.24,0.07-0.51,0.06-0.53,0.4c-3.3-2.34-6.6-4.67-9.89-7.03c-1.41-1.01-1.82-2.85-0.96-4.11
			c0.98-1.44,2.86-1.87,4.37-0.97c1.96,1.16,3.9,2.34,5.85,3.51c0.21,0.13,0.43,0.37,0.66,0.27c0.32-0.14,0.17-0.49,0.17-0.75
			C71.64,107.6,71.63,100.78,71.63,93.96z"/>
		<path class="st6" d="M71.44,123.5c0.02-0.34,0.28-0.33,0.53-0.4c4.4-1.24,8.73-2.69,12.91-4.55c3.13-1.39,6.14-3,9.02-4.86
			c1.2-0.78,2.33-1.64,3.47-2.51c0.25-0.19,0.51-0.36,0.83-0.39c0.01,4.08,0.01,8.16,0.04,12.24c0,0.57-0.24,0.66-0.73,0.66
			c-8.46-0.01-16.92-0.01-25.37-0.01C71.89,123.68,71.62,123.72,71.44,123.5z"/>
		<path class="st7" d="M110.8,72.44c1.17,0.04,2.31,0.22,3.1,1.21c0.84,1.05,1.1,2.21,0.53,3.48c-0.65,1.45-1.87,2-3.38,2.02
			c-2.52,0.03-5.04,0.03-7.55,0.04c-0.68,0.01-1.36,0.01-2.04,0.02c0-2.26,0-4.53,0-6.79C104.57,72.42,107.68,72.43,110.8,72.44z"/>
		<path class="st8" d="M47.07,79.17c-2.69,0-5.37,0.01-8.06-0.01c-1.69-0.01-3.1-0.97-3.57-2.38c-0.74-2.2,1.01-4.32,3.61-4.34
			c3.15-0.02,6.31-0.01,9.46-0.02c0.01,2.25,0.02,4.5,0.02,6.75C48.05,79.17,47.56,79.17,47.07,79.17z"/>
		<path class="st9" d="M47.07,79.17c0.49,0,0.98,0,1.47,0c-0.01,2.68-0.01,5.36-0.02,8.04c-0.05,0.05-0.09,0.09-0.14,0.14
			c-3.93,0-7.86,0-11.79,0c0.25-0.97,1.2-1.17,1.88-1.63c2.9-1.96,5.75-4,8.45-6.23C47.01,79.43,47.02,79.28,47.07,79.17z"/>
		<path class="st10" d="M101.47,39.53c3.58-0.01,7.17,0,10.75-0.03c0.68-0.01,0.83,0.24,0.83,0.86c0.01,2.34,0.03,2.34-2.34,2.34
			c-3.09,0-6.17-0.01-9.26-0.02C101.47,41.63,101.47,40.58,101.47,39.53z"/>
		<path class="st11" d="M48.51,61.01c-3,0-6-0.02-8.99,0.02c-0.71,0.01-0.89-0.22-0.89-0.91c0-2.47-0.02-2.47,2.4-2.47
			c2.5,0,5,0,7.49,0.01C48.59,58.78,48.61,59.9,48.51,61.01z"/>
		<path class="st10" d="M101.48,57.67c2.47,0,4.94,0.01,7.4-0.03c0.6-0.01,0.8,0.17,0.82,0.79c0.05,2.58,0.07,2.58-2.49,2.58
			c-1.91,0-3.81-0.01-5.72-0.01C101.39,59.89,101.42,58.78,101.48,57.67z"/>
		<path class="st11" d="M48.52,67.56c-1.97,0-3.93-0.02-5.9,0.02c-0.62,0.01-0.79-0.2-0.8-0.8c-0.04-2.57-0.06-2.57,2.49-2.57
			c1.4,0,2.81,0,4.21,0.01C48.6,65.33,48.59,66.45,48.52,67.56z"/>
		<path class="st10" d="M101.49,64.22c1.4,0,2.81,0.02,4.21-0.02c0.62-0.02,0.79,0.2,0.8,0.81c0.04,2.57,0.06,2.57-2.49,2.57
			c-0.84,0-1.68-0.01-2.53-0.01C101.41,66.44,101.4,65.33,101.49,64.22z"/>
		<path class="st11" d="M48.53,52.6c-0.87,0-1.74-0.01-2.61,0.01c-0.49,0.01-0.74-0.12-0.73-0.67c0.03-1.18,0.03-2.35,0-3.53
			c-0.01-0.54,0.22-0.69,0.72-0.68c0.87,0.03,1.74,0.01,2.61,0.01C48.52,49.37,48.52,50.98,48.53,52.6z"/>
		<path class="st10" d="M101.48,47.76c0.87,0,1.74,0.01,2.61-0.02c0.5-0.02,0.74,0.13,0.72,0.68c-0.03,1.18-0.03,2.36,0,3.53
			c0.01,0.55-0.24,0.69-0.73,0.67c-0.87-0.03-1.74-0.02-2.61-0.02C101.47,50.98,101.47,49.37,101.48,47.76z"/>
		<path class="st11" d="M48.53,42.69c-1.4,0-2.8-0.03-4.19,0.02c-0.67,0.02-0.83-0.23-0.84-0.86c-0.01-2.34-0.04-2.34,2.32-2.34
			c0.9,0,1.8,0,2.7,0.01C48.52,40.58,48.53,41.63,48.53,42.69z"/>
		<path class="st2" d="M101.46,79.2c0.68-0.01,1.36-0.01,2.04-0.02c-0.38,0.93-1.27,1.31-2,1.87
			C101.48,80.43,101.47,79.81,101.46,79.2z"/>
		<path class="st1" d="M48.39,87.35c0.05-0.05,0.09-0.09,0.14-0.14C48.55,87.33,48.5,87.38,48.39,87.35z"/>
		<path class="st12" d="M78.75,75.78c0.94,0.01,1.87,0,2.81,0.02c1.93,0.04,3.4,1.52,3.37,3.39c-0.02,1.73-1.53,3.15-3.37,3.16
			c-3.18,0.02-6.37,0.03-9.55,0.04c-1.19-0.01-2.37-0.03-3.56-0.04c-1.89-0.02-3.37-1.45-3.38-3.25c-0.01-1.8,1.48-3.28,3.38-3.3
			C71.88,75.78,75.32,75.79,78.75,75.78z"/>
		<path class="st13" d="M74.99,64.21c-3.02,0-6.05-0.01-9.07,0.01c-0.63,0.01-0.87-0.15-0.87-0.82c-0.01-2.39-0.04-2.39,2.38-2.39
			c5.49,0,10.98,0.02,16.46-0.02c0.8,0,1.08,0.16,1.06,1.02c-0.05,2.2-0.01,2.2-2.2,2.2C80.17,64.21,77.58,64.21,74.99,64.21z"/>
		<path class="st14" d="M78.32,37.83c-1.97,0-3.93-0.02-5.9,0.01c-0.62,0.01-0.79-0.2-0.8-0.8c-0.04-2.57-0.06-2.56,2.54-2.56
			c3.31,0,6.61,0.01,9.92-0.01c0.64-0.01,0.86,0.17,0.86,0.83c0.02,2.53,0.04,2.53-2.51,2.53C81.06,37.83,79.69,37.83,78.32,37.83z"
			/>
		<path class="st14" d="M74.97,70.92c-1.87,0-3.75-0.04-5.62,0.02c-0.76,0.02-0.94-0.24-0.94-0.96c0.02-2.41-0.01-2.41,2.36-2.41
			c3.31,0,6.62,0.02,9.92-0.02c0.71-0.01,0.89,0.22,0.89,0.91c-0.01,2.46,0.02,2.46-2.41,2.46C77.77,70.92,76.37,70.92,74.97,70.92z
			"/>
		<path class="st14" d="M79.14,57.66c-1.65,0-3.31-0.03-4.96,0.02c-0.72,0.02-0.89-0.23-0.88-0.91c0.01-2.47-0.02-2.47,2.49-2.47
			c2.74,0,5.49,0.03,8.23-0.02c0.77-0.01,0.94,0.25,0.93,0.96c-0.02,2.42,0.01,2.42-2.44,2.42C81.39,57.66,80.26,57.66,79.14,57.66z
			"/>
		<path class="st14" d="M73.32,45.97c0-0.87,0.02-1.74-0.01-2.62c-0.01-0.48,0.17-0.63,0.65-0.66c2.72-0.16,2.72-0.17,2.72,2.52
			c0,1.18-0.02,2.37,0.01,3.55c0.01,0.48-0.17,0.63-0.65,0.66c-2.72,0.16-2.72,0.17-2.72-2.52C73.32,46.6,73.32,46.29,73.32,45.97z"
			/>
		<path class="st14" d="M66.75,45.98c0-0.84,0.02-1.68-0.01-2.51c-0.02-0.55,0.15-0.78,0.73-0.77c3.21,0.08,2.57-0.48,2.63,2.55
			c0.02,1.12-0.02,2.24,0.01,3.35c0.02,0.57-0.11,0.82-0.76,0.84c-2.61,0.05-2.61,0.08-2.61-2.52
			C66.75,46.6,66.75,46.29,66.75,45.98z"/>
		<path class="st14" d="M79.89,46.15c0-0.87,0.02-1.74-0.01-2.61c-0.02-0.58,0.18-0.83,0.8-0.85c2.57-0.11,2.57-0.12,2.57,2.47
			c0,1.15-0.02,2.3,0.01,3.45c0.02,0.58-0.13,0.87-0.78,0.82c-0.65-0.05-1.31-0.03-1.96,0c-0.5,0.02-0.66-0.19-0.64-0.66
			C79.91,47.89,79.89,47.02,79.89,46.15z"/>
		<path class="st14" d="M60.18,46.08c0-0.87,0.02-1.74-0.01-2.61c-0.02-0.55,0.16-0.75,0.74-0.77c2.48-0.08,2.48-0.1,2.48,2.38
			c0,1.21-0.02,2.43,0.01,3.64c0.01,0.51-0.15,0.7-0.69,0.72c-2.53,0.12-2.53,0.13-2.53-2.42C60.18,46.7,60.18,46.39,60.18,46.08z"
			/>
		<path class="st14" d="M89.82,46.03c0,0.87-0.03,1.74,0.01,2.61c0.03,0.63-0.22,0.78-0.81,0.79c-2.41,0.04-2.41,0.05-2.41-2.36
			c0-1.21,0.02-2.43-0.01-3.64c-0.02-0.58,0.21-0.73,0.76-0.74c2.46-0.06,2.46-0.08,2.46,2.4C89.82,45.41,89.82,45.72,89.82,46.03z"
			/>
		<path class="st14" d="M67.58,57.66c-2.6,0-2.59,0-2.52-2.61c0.01-0.55,0.15-0.78,0.74-0.76c1.18,0.04,2.37,0.03,3.55,0
			c0.56-0.01,0.75,0.23,0.78,0.78C70.25,57.66,70.26,57.66,67.58,57.66z"/>
		<path class="st14" d="M66.7,37.83c-1.63,0-1.63,0-1.63-1.61c0-1.75,0-1.75,1.78-1.75c1.59,0,1.59,0,1.59,1.57
			c0,0.03,0,0.06,0,0.09C68.43,37.83,68.43,37.83,66.7,37.83z"/>
		<path class="st11" d="M35.26,50.15c0,2.5,0,2.47-2.48,2.47c-0.68,0-0.94-0.18-0.91-0.89c0.05-1.08,0.04-2.17,0-3.26
			c-0.02-0.58,0.2-0.8,0.76-0.74c0.06,0.01,0.12,0,0.19,0C35.26,47.72,35.26,47.72,35.26,50.15z"/>
		<path class="st11" d="M41.83,50.17c0,0.03,0,0.06,0,0.09c0,2.59,0,2.58-2.59,2.36c-0.44-0.04-0.61-0.19-0.6-0.62
			c0.01-1.21,0.01-2.42,0-3.64c0-0.42,0.14-0.65,0.59-0.62c0.03,0,0.06,0,0.09,0C41.83,47.59,41.83,47.59,41.83,50.17z"/>
		<path class="st11" d="M38.63,39.51c1.95,0.03,1.68-0.26,1.68,1.56c0,1.88,0.26,1.62-1.63,1.61c-1.98,0-1.72,0.28-1.73-1.51
			C36.94,39.51,36.95,39.51,38.63,39.51z"/>
		<path class="st10" d="M114.73,50.12c0-2.39,0-2.36,2.37-2.39c0.75-0.01,1.06,0.16,1.01,0.97c-0.07,1.08-0.03,2.17-0.01,3.26
			c0.01,0.48-0.16,0.7-0.65,0.66c-0.03,0-0.06,0-0.09,0C114.73,52.73,114.73,52.73,114.73,50.12z"/>
		<path class="st10" d="M111.36,50.22c0,0.12,0.01,0.25,0,0.37c-0.06,0.64,0.31,1.57-0.18,1.86c-0.75,0.45-1.76,0.14-2.65,0.14
			c-0.34,0-0.36-0.28-0.36-0.54c0-1.25,0-2.49,0-3.74c0-0.38,0.13-0.6,0.54-0.57c0.03,0,0.06,0,0.09,0
			C111.36,47.55,111.36,47.55,111.36,50.22z"/>
	</g>
</g>
</svg>
