<?xml version="1.0" encoding="utf-8"?>
<!-- Generator: Adobe Illustrator 25.2.3, SVG Export Plug-In . SVG Version: 6.00 Build 0)  -->
<svg version="1.1" id="Calque_9" xmlns="http://www.w3.org/2000/svg" xmlns:xlink="http://www.w3.org/1999/xlink" x="0px" y="0px"
	 viewBox="0 0 150 150" style="enable-background:new 0 0 150 150;" xml:space="preserve">
<style type="text/css">
	.st0{fill:#FFDD14;}
	.st1{fill:#FDC618;}
	.st2{fill:#F9E92F;}
	.st3{fill:#020203;}
	.st4{fill:#F6A322;}
	.st5{fill:#45433F;}
</style>
<g>
	<g>
		<polyline class="st0" points="61.37,97.21 42.44,97.21 33.35,54.16 48.38,54.16 52.28,80.7 56.36,54.16 73.62,54.16 77.7,81.44 
			81.79,54.16 96.63,54.16 87.54,97.21 68.98,97.21 65.08,69.37 		"/>
		<polyline class="st0" points="61.37,97.21 42.44,97.21 33.35,54.16 48.38,54.16 52.28,80.7 56.36,54.16 73.62,54.16 77.7,81.44 
			81.79,54.16 96.63,54.16 87.54,97.21 68.98,97.21 65.08,69.37 		"/>
	</g>
	<path class="st1" d="M53.39,93.87c1.67,1.48,3.9,2.6,6.5,3.34h1.48l3.9-27.84l3.9,27.84h18.56l9.09-42.87H81.97l-4.08,27.09
		l-3.9-27.09H63.6h-6.87l-3.9,26.54l-3.9-26.54l0,0v26.17C48.38,86.45,50.05,90.9,53.39,93.87z"/>
	<polyline class="st2" points="31.12,97.03 28.52,97.03 19.62,54.16 22.21,54.16 	"/>
	<polyline class="st0" points="37.99,97.03 35.58,97.03 26.48,54.16 29.08,54.16 	"/>
	<path class="st3" d="M108.88,54.16v26.91c0,1.67-0.37,3.15-1.11,4.08s-1.67,1.48-2.78,1.48c-1.3,0-2.23-0.56-2.97-1.48
		c-0.74-0.93-0.93-2.41-0.93-4.27V54.16h-3.15l-8.35,39.71c1.48,1.3,3.34,2.41,5.57,2.97c2.6,0.93,5.94,1.3,10.02,1.3
		c6.87,0,12.06-1.48,15.4-4.27c3.34-2.97,5.01-7.42,5.01-13.55V54.16"/>
	<path class="st4" d="M84.75,54.16v26.17c0,3.34,0.37,5.94,0.93,7.79c0.56,1.67,1.48,3.34,2.78,4.64l8.17-38.6"/>
	<path class="st3" d="M128.74,57.68h0.74l0.19,0.37l0.37,0.19l0.37-0.19l0.19-0.19l-0.19-0.19l-0.37-0.19
		c-0.37,0-0.56-0.19-0.74-0.37l-0.19-0.56l0.19-0.37l0.37-0.37c0.19,0,0.37-0.19,0.74-0.19s0.56,0,0.74,0.19
		c0.19,0.19,0.37,0.37,0.37,0.74h-0.74l-0.19-0.37h-0.37h-0.19v0.19v0.19l0.37,0.19c0.37,0,0.56,0.19,0.74,0.19l0.37,0.37l0.19,0.37
		l-0.74,0.37l-0.37,0.37l-0.74,0.19c-0.56,0-0.74-0.19-0.93-0.37C128.74,58.05,128.74,57.87,128.74,57.68"/>
	<polyline class="st3" points="131.52,55.64 132.63,55.64 133.19,57.5 133.56,55.64 134.68,55.64 134.68,58.61 133.93,58.61 
		133.93,56.38 133.38,58.61 132.82,58.61 132.26,56.38 132.26,58.61 131.52,58.61 	"/>
	<path class="st5" d="M89.58,93.87c1.48,1.3,3.34,2.41,5.57,2.97c2.6,0.93,5.94,1.3,10.02,1.3c0.37,0,0.56,0,0.74,0L115,54.16h-6.12
		v26.91c0,1.67-0.37,3.15-1.11,4.08s-1.67,1.48-2.78,1.48c-1.3,0-2.23-0.56-2.97-1.48c-0.74-0.93-0.93-2.41-0.93-4.27V54.16h-0.93
		h-2.23L89.58,93.87z"/>
</g>
</svg>
