<?xml version="1.0" encoding="utf-8"?>
<!-- Generator: Adobe Illustrator 25.2.3, SVG Export Plug-In . SVG Version: 6.00 Build 0)  -->
<svg version="1.1" id="Calque_21" xmlns="http://www.w3.org/2000/svg" xmlns:xlink="http://www.w3.org/1999/xlink" x="0px" y="0px"
	 viewBox="0 0 150 150" style="enable-background:new 0 0 150 150;" xml:space="preserve">
<style type="text/css">
	.st0{fill:#FFFFFF;}
	.st1{fill:#3B54A1;}
	.st2{fill:#5064AC;}
	.st3{fill:#8895CA;}
	.st4{fill:#4E63AB;}
	.st5{fill:#8894CA;}
	.st6{fill:#FEDF31;}
	.st7{fill:#A2D9F0;}
	.st8{fill:#FFD50D;}
	.st9{fill:#CBE9F9;}
	.st10{fill:#A3D9F0;}
	.st11{fill:#FAC604;}
	.st12{fill:#79CCEC;}
	.st13{fill:#78CBEC;}
	.st14{fill:#FEDF30;}
</style>
<g id="pk50zf.tif">
	<g>
		<path class="st0" d="M125.01,67.8c0,18.59,0,37.18,0.02,55.77c0,0.67-0.13,0.81-0.81,0.81c-18.19-0.02-36.39-0.02-54.58-0.02
			c0.11-0.29,0.39-0.18,0.6-0.23c4.42-1.2,7.18-3.99,7.91-8.54c0.43-2.69,0.12-5.44,0.14-8.16c0-13.99,0.01-27.99,0.01-41.98
			c2.39-3.01,5.54-4.61,9.34-4.69c4.77-0.09,8.42,2.07,10.97,6.1c0.39,0.62,0.83,1.09,1.61,1.1c0.88,0.16,1.43-0.31,1.85-0.99
			c2.45-4.03,6.08-6.04,10.75-6.27c0.03,0.01,0.06,0.02,0.09,0.03c4.91,0.29,8.65,2.47,10.99,6.86
			C124.19,68.16,124.58,68,125.01,67.8z M106.12,79.66c-2.45,0.23-4.91,0.24-7.36,0.11c-2.33-0.12-4.7,1.93-4.69,4.75
			c0.02,5.12,0,10.24,0.01,15.37c0,2.58,2.05,4.69,4.65,4.73c2.4,0.04,4.79,0,7.19,0c1.7,0,3.41,0.02,5.11,0.01
			c2.79-0.01,4.86-1.98,4.89-4.8c0.05-5.15,0.04-10.3,0-15.44c-0.02-2.45-1.6-4.18-4.02-4.6C109.98,79.46,108.05,79.7,106.12,79.66z
			"/>
		<path class="st1" d="M125.01,67.8c-0.43,0.21-0.82,0.36-1.13-0.22c-2.34-4.39-6.08-6.57-10.99-6.86c-0.03,0-0.06-0.02-0.09-0.03
			c-0.07-0.68-0.11-1.37-0.22-2.04c-0.83-4.93-2.24-9.65-4.74-14.03c-2.55-4.47-5.85-8.27-9.89-11.41
			c-5.44-4.22-11.55-7.1-18.22-8.81c-0.55-0.14-1.25-0.08-1.6-0.71c3.91-0.18,7.69,0.6,11.37,1.76
			c16.88,5.3,28.07,16.42,33.62,33.21c0.86,2.61,1.42,5.3,1.72,8.03c0.01,0.11,0.12,0.21,0.18,0.32
			C125.01,67.27,125.01,67.53,125.01,67.8z"/>
		<path class="st2" d="M78.29,107.42c-0.02,2.72,0.29,5.47-0.14,8.16c-0.73,4.55-3.49,7.34-7.91,8.54c-0.2,0.06-0.48-0.06-0.6,0.23
			c-1.12,0-2.23,0-3.35,0c-0.38-0.36-0.9-0.32-1.35-0.47c-4.2-1.37-7.01-5.06-7.16-9.48c-0.03-0.75-0.04-1.51,0.01-2.26
			c0.08-1.39,1.17-2.47,2.53-2.55c1.34-0.08,2.58,0.86,2.83,2.22c0.11,0.61,0.11,1.24,0.12,1.86c0.07,2.85,2.11,4.9,4.83,4.86
			c2.69-0.05,4.68-2.11,4.69-4.91c0.01-2.07,0.02-4.13,0.02-6.2C74.64,107.42,76.47,107.42,78.29,107.42z"/>
		<path class="st3" d="M50.94,67.97c-1.02,0.14-1.55-0.48-2.03-1.25c-1.82-2.91-4.39-4.83-7.74-5.64
			c-5.38-1.3-10.93,1.13-13.69,5.95c-0.13,0.23-0.25,0.46-0.39,0.68c-0.11,0.17-0.27,0.29-0.5,0.24c-0.29-0.06-0.35-0.3-0.33-0.53
			c0.09-0.88,0.15-1.77,0.3-2.63c1.54-8.81,5.16-16.68,10.89-23.55c3.95-4.73,8.65-8.58,14.04-11.58c5.38-3,11.15-4.9,17.24-5.74
			c2-0.28,4.02-0.63,6.06-0.41c-0.03,0.33-0.32,0.39-0.55,0.5c-5.81,2.95-10.32,7.35-13.95,12.68c-4.05,5.96-6.54,12.58-7.97,19.61
			C51.54,60.16,50.95,64.03,50.94,67.97z"/>
		<path class="st4" d="M50.94,67.97c0.01-3.94,0.6-7.81,1.39-11.65c1.43-7.03,3.92-13.65,7.97-19.61
			c3.63-5.33,8.14-9.73,13.95-12.68c0.22-0.11,0.51-0.17,0.55-0.5c0.25-0.01,0.5-0.02,0.75-0.03c0,14.83,0,29.65,0,44.48
			c-0.8,0.05-1.26-0.44-1.65-1.03c-0.34-0.51-0.59-1.09-1.08-1.5c-5.01-6.73-15.48-6.15-20.14,1.11
			C52.24,67.21,51.86,67.91,50.94,67.97z"/>
		<path class="st5" d="M75.54,67.97c0-14.83,0-29.65,0-44.48c0.08,0,0.16,0,0.23,0c0.2,0.25,0.48,0.16,0.74,0.2
			c0.21,0.12,0.33,0.38,0.61,0.37c0.75,0.45,1.52,0.89,2.26,1.37c5.86,3.76,10.34,8.81,13.64,14.89c4.67,8.61,6.76,17.91,7.18,27.63
			c-0.78-0.01-1.22-0.48-1.61-1.1c-2.54-4.02-6.19-6.19-10.97-6.1c-3.8,0.07-6.95,1.68-9.34,4.69c-0.53,0.44-0.79,1.08-1.18,1.62
			C76.73,67.6,76.28,68.03,75.54,67.97z"/>
		<path class="st4" d="M100.2,67.95c-0.42-9.72-2.51-19.03-7.18-27.63c-3.3-6.08-7.78-11.13-13.64-14.89
			c-0.74-0.47-1.5-0.91-2.26-1.37c0.14-0.14,0.27-0.28,0.41-0.43c0.19,0.02,0.39,0.03,0.58,0.05c0.35,0.63,1.06,0.57,1.6,0.71
			c6.67,1.71,12.79,4.59,18.22,8.81c4.04,3.14,7.34,6.94,9.89,11.41c2.5,4.38,3.91,9.1,4.74,14.03c0.11,0.67,0.15,1.36,0.22,2.04
			c-4.67,0.23-8.29,2.24-10.75,6.27C101.64,67.64,101.08,68.11,100.2,67.95z"/>
		<path class="st6" d="M40.49,106.2c-5.48-0.97-10.16-5.69-11.21-11.3c-1.46-7.85,3.54-15.23,11.4-16.82
			c0.03,0.37,0.33,0.32,0.58,0.4c2.89,0.84,5.25,2.52,7.07,4.88c2.57,3.31,3.49,7.1,2.8,11.25c-0.64,3.83-2.59,6.83-5.67,9.15
			C43.95,104.89,42.2,105.5,40.49,106.2z M41.67,95.07c0,0.26,0,0.52,0,0.79c0.02,1.85,0.33,2.49-2,1.3
			c-0.91-0.46-1.77-0.19-2.21,0.6c-0.38,0.67-0.08,1.57,0.74,2.09c0.75,0.47,1.58,0.88,2.45,0.98c0.76,0.09,1.03,0.37,1.14,1.08
			c0.14,0.88,0.73,1.25,1.63,1.18c0.89-0.07,1.34-0.65,1.36-1.4c0.01-0.81,0.48-0.93,1.04-1.16c2.23-0.91,3.56-2.62,3.68-4.99
			c0.11-2.12-0.99-3.81-3.02-4.47c-1.57-0.51-1.78-1.42-1.69-2.82c0.11-1.67,0.03-1.69,1.51-1.07c0.76,0.31,1.37,0.08,1.79-0.55
			c0.39-0.59,0.43-1.2-0.13-1.79c-0.68-0.72-1.54-1.12-2.45-1.37c-0.47-0.13-0.7-0.27-0.73-0.82c-0.03-0.82-0.55-1.32-1.37-1.42
			c-0.79-0.1-1.45,0.26-1.55,1.02c-0.14,1.11-0.92,1.39-1.73,1.81c-1.6,0.83-2.37,2.29-2.38,4.01c-0.01,1.45,0.54,2.9,2,3.46
			C41.54,92.2,42.05,93.34,41.67,95.07z"/>
		<path class="st7" d="M75.54,67.97c0.74,0.07,1.19-0.37,1.58-0.91c0.39-0.54,0.65-1.18,1.18-1.62c0,13.99-0.01,27.99-0.01,41.98
			c-1.82,0-3.65,0-5.47,0c-0.01-6.1-0.02-12.19-0.02-18.29c0-7.9,0.01-15.8,0.01-23.69c0.49,0.41,0.74,0.99,1.08,1.5
			C74.28,67.53,74.74,68.02,75.54,67.97z"/>
		<path class="st8" d="M40.49,106.2c1.71-0.71,3.47-1.31,4.97-2.45c3.08-2.32,5.03-5.33,5.67-9.15c0.69-4.15-0.23-7.94-2.8-11.25
			c-1.82-2.35-4.18-4.03-7.07-4.88c-0.24-0.07-0.55-0.02-0.58-0.4c5.57-1.14,11.6,1.21,14.91,6.47c5.43,8.65,0.22,20.24-9.85,21.84
			C43.98,106.66,42.22,106.74,40.49,106.2z"/>
		<path class="st1" d="M77.54,23.63c-0.14,0.14-0.27,0.28-0.41,0.43c-0.28,0.01-0.41-0.25-0.61-0.37c0.01-0.07,0.02-0.13,0.03-0.2
			C76.88,23.51,77.25,23.31,77.54,23.63z"/>
		<path class="st4" d="M76.54,23.49c-0.01,0.07-0.02,0.13-0.03,0.2c-0.25-0.04-0.54,0.04-0.74-0.2
			C76.03,23.49,76.29,23.49,76.54,23.49z"/>
		<path class="st9" d="M105.92,104.63c-2.4,0-4.79,0.04-7.19,0c-2.59-0.04-4.64-2.15-4.65-4.73c-0.01-5.12,0.01-10.24-0.01-15.37
			c-0.01-2.82,2.35-4.87,4.69-4.75c2.45,0.12,4.91,0.12,7.36-0.11c0,0.38,0.34,0.33,0.55,0.45c1.76,0.92,2.82,2.25,2.78,4.35
			c-0.05,2.59-0.01,5.18-0.01,7.77c-2.82,0-5.64,0-8.45,0c-1.11,0-1.96,0.71-1.98,1.62c-0.03,0.95,0.71,1.53,1.98,1.53
			c2.82,0,5.64,0,8.45,0c0,1.6,0.01,3.21,0,4.81c-0.01,1.75-1.15,3.4-2.77,4.03C106.41,104.33,106.11,104.38,105.92,104.63z
			 M103.58,86.11c-1.01,0-2.03-0.01-3.04,0c-0.86,0.01-1.51,0.65-1.53,1.45c-0.02,0.8,0.61,1.49,1.49,1.51
			c2.03,0.03,4.06,0.03,6.08,0c0.88-0.01,1.5-0.72,1.48-1.51c-0.03-0.8-0.67-1.43-1.54-1.44C105.54,86.1,104.56,86.11,103.58,86.11z
			"/>
		<path class="st10" d="M105.92,104.63c0.19-0.25,0.49-0.3,0.76-0.4c1.62-0.63,2.76-2.28,2.77-4.03c0.01-1.6,0-3.21,0-4.81
			c0.8-0.15,1.33-0.61,1.36-1.43c0.03-0.91-0.61-1.39-1.36-1.73c0-2.59-0.03-5.18,0.01-7.77c0.04-2.1-1.02-3.43-2.78-4.35
			c-0.21-0.11-0.56-0.06-0.55-0.45c1.93,0.04,3.86-0.2,5.78,0.14c2.42,0.42,3.99,2.15,4.02,4.6c0.05,5.15,0.05,10.3,0,15.44
			c-0.02,2.82-2.1,4.79-4.89,4.8C109.33,104.64,107.62,104.63,105.92,104.63z"/>
		<path class="st11" d="M41.67,95.07c0.39-1.73-0.12-2.87-1.91-3.55c-1.45-0.56-2.01-2-2-3.46c0.01-1.72,0.78-3.19,2.38-4.01
			c0.81-0.42,1.59-0.71,1.73-1.81c0.1-0.77,0.76-1.12,1.55-1.02c0.82,0.1,1.34,0.6,1.37,1.42c0.02,0.55,0.25,0.69,0.73,0.82
			c0.92,0.26,1.77,0.65,2.45,1.37c0.55,0.59,0.52,1.2,0.13,1.79c-0.42,0.64-1.03,0.87-1.79,0.55c-1.48-0.61-1.4-0.6-1.51,1.07
			c-0.09,1.4,0.12,2.3,1.69,2.82c2.02,0.66,3.13,2.35,3.02,4.47c-0.12,2.37-1.44,4.08-3.68,4.99c-0.57,0.23-1.03,0.36-1.04,1.16
			c-0.01,0.75-0.46,1.33-1.36,1.4c-0.9,0.07-1.49-0.3-1.63-1.18c-0.11-0.71-0.38-0.99-1.14-1.08c-0.86-0.1-1.69-0.5-2.45-0.98
			c-0.82-0.52-1.12-1.42-0.74-2.09c0.44-0.79,1.31-1.06,2.21-0.6c2.33,1.19,2.02,0.55,2-1.3C41.66,95.59,41.67,95.33,41.67,95.07z
			 M44.82,93.71c0,1.16,0,2.23,0,3.3c0,0.34,0.06,0.66,0.49,0.33c0.7-0.55,1.18-1.23,1.07-2.17C46.28,94.35,45.72,93.94,44.82,93.71
			z M41.67,86.75c-0.76,0.51-0.88,1.09-0.74,1.77c0.05,0.24,0.28,0.4,0.5,0.4c0.38,0,0.22-0.33,0.22-0.52
			C41.68,87.89,41.67,87.39,41.67,86.75z"/>
		<path class="st12" d="M109.45,92.23c0.75,0.34,1.39,0.82,1.36,1.73c-0.03,0.82-0.56,1.28-1.36,1.43c-2.82,0-5.64,0-8.45,0
			c-1.27,0-2.01-0.58-1.98-1.53c0.03-0.9,0.88-1.61,1.98-1.62C103.81,92.23,106.63,92.23,109.45,92.23z"/>
		<path class="st13" d="M103.58,86.11c0.98,0,1.96-0.01,2.94,0c0.86,0.01,1.51,0.64,1.54,1.44c0.02,0.8-0.6,1.5-1.48,1.51
			c-2.03,0.03-4.06,0.03-6.08,0c-0.88-0.01-1.51-0.71-1.49-1.51c0.02-0.8,0.67-1.43,1.53-1.45
			C101.55,86.1,102.57,86.11,103.58,86.11z"/>
		<path class="st14" d="M44.82,93.71c0.9,0.24,1.47,0.64,1.56,1.46c0.11,0.94-0.37,1.62-1.07,2.17c-0.43,0.33-0.49,0.01-0.49-0.33
			C44.81,95.94,44.82,94.86,44.82,93.71z"/>
		<path class="st14" d="M41.67,86.75c0,0.64,0.02,1.15-0.01,1.65c-0.01,0.19,0.15,0.52-0.22,0.52c-0.23,0-0.45-0.15-0.5-0.4
			C40.78,87.84,40.9,87.25,41.67,86.75z"/>
	</g>
</g>
</svg>
