<?xml version="1.0" encoding="utf-8"?>
<!-- Generator: Adobe Illustrator 25.2.3, SVG Export Plug-In . SVG Version: 6.00 Build 0)  -->
<svg version="1.1" id="Calque_19" xmlns="http://www.w3.org/2000/svg" xmlns:xlink="http://www.w3.org/1999/xlink" x="0px" y="0px"
	 viewBox="0 0 150 150" style="enable-background:new 0 0 150 150;" xml:space="preserve">
<style type="text/css">
	.st0{fill:#D8DBEF;}
	.st1{fill:#9FA8D9;}
	.st2{fill:#F7F8FB;}
	.st3{fill:#4254B6;}
	.st4{fill:#E82063;}
	.st5{fill:#E82064;}
	.st6{fill:#90A4AE;}
	.st7{fill:#FEBE09;}
	.st8{fill:#5B737F;}
	.st9{fill:#E7E9F5;}
	.st10{fill:#7E8ACC;}
	.st11{fill:#4B5F69;}
	.st12{fill:#7A87CB;}
</style>
<g id="ugfNvk.tif">
	<g>
		<path class="st0" d="M25.83,43.78c0.01-0.1,0.01-0.19,0.01-0.29c33.56,0,67.11,0,100.67,0c0,0.1,0,0.2,0.01,0.29
			c-0.41,0.02-0.81,0.05-1.22,0.05c-32.75,0-65.51,0-98.26,0C26.64,43.83,26.24,43.8,25.83,43.78z"/>
		<path class="st1" d="M128.97,96.91l-0.14,0.04c0,0-0.15,0-0.15,0c-0.02-0.46-0.05-0.93-0.05-1.39c0-15.98,0-31.96,0-47.94
			c0-0.58,0.06-1.16,0.09-1.74l0.14-0.05l0.11,0.1C128.97,62.93,128.97,79.92,128.97,96.91z"/>
		<path class="st2" d="M128.97,45.94l-0.11-0.1c0,0-0.14,0.05-0.14,0.05c-0.2-1.24-1.02-1.85-2.18-2.09
			c-0.01-0.1-0.01-0.2-0.01-0.29C128.97,43.49,128.97,43.49,128.97,45.94z"/>
		<path class="st3" d="M126.53,43.79c1.16,0.25,1.98,0.85,2.18,2.09c-0.03,0.58-0.09,1.16-0.09,1.74c0,15.98,0,31.96,0,47.94
			c0,0.46,0.03,0.93,0.05,1.39c-0.52,1.78-1.95,1.93-3.47,1.93c-9.77,0-19.55,0.01-29.32-0.01c-3.49-0.01-6.98-0.07-10.46-0.11
			c1.61-1.76,3.26-3.47,5.06-5.03c10.71,0.02,21.42,0.02,32.14,0.08c1.34,0.01,1.14-0.78,1.14-1.58c0-11.4-0.02-22.8,0.03-34.19
			c0.01-1.38-0.37-1.74-1.74-1.73c-30.57,0.04-61.13,0.04-91.7-0.01c-1.55,0-1.76,0.54-1.76,1.89c0.05,11.22,0.07,22.45-0.01,33.67
			c-0.01,1.66,0.51,1.97,2.04,1.96c13.91-0.04,27.83,0,41.74,0.01c-1.68,1.7-3.37,3.39-5.05,5.09c-13.17-0.02-26.33-0.03-39.5-0.05
			c-3.7,0-4.26-0.56-4.26-4.25c0-15.71,0-31.42-0.01-47.13c0-1.74,0.18-3.31,2.3-3.72c0.41,0.02,0.81,0.05,1.22,0.05
			c32.75,0,65.51,0,98.26,0C125.72,43.83,126.12,43.8,126.53,43.79z"/>
		<path class="st4" d="M90.47,93.74c-1.8,1.56-3.45,3.27-5.06,5.03c-4.2,4.14-8.4,8.28-12.61,12.41c-2.74-3.12-5.69-6.05-8.8-8.8
			c1.1-1.15,2.2-2.3,3.3-3.45c1.68-1.7,3.37-3.39,5.05-5.09c2.03-1.98,4.19-3.84,6.05-5.97c5.11-5.82,11.38-9.93,18.43-12.98
			c1.17,1.15,2.34,2.3,3.5,3.46c0,0.13,0,0.26,0.01,0.39c-0.86,1.7-1.73,3.4-2.59,5.1C95.66,87.38,93.49,90.87,90.47,93.74z"/>
		<path class="st5" d="M69.3,114.67c-2.81,3.08-6.03,5.78-8.73,8.97c-1.31,1.02-2.54,2.12-3.46,3.52c-1.18,0.58-1.89,1.69-2.83,2.54
			c-2.73,2.46-6.48,2.42-8.93-0.13c-2.38-2.48-2.36-6.22,0.18-8.78c4.96-5,9.98-9.93,14.98-14.89
			C63.45,108.82,66.38,111.74,69.3,114.67z"/>
		<path class="st6" d="M62.21,125.18c3.73-3.66,7.49-7.29,11.15-11.02c0.97-0.99,1.51-1.19,2.55-0.06c2.22,2.4,2.29,2.33-0.05,4.67
			c-5.35,5.34-10.71,10.66-16.02,16.04c-0.85,0.86-1.34,0.89-2.2,0.01c-2.41-2.47-2.45-2.42,0.03-4.93
			c0.36-0.37,0.68-0.78,1.02-1.18C60,127.68,61.18,126.51,62.21,125.18z"/>
		<path class="st7" d="M69.3,114.67c-2.93-2.92-5.86-5.85-8.79-8.77c1.06-1.27,2.22-2.44,3.48-3.52c3.12,2.75,6.06,5.67,8.8,8.8
			C71.64,112.34,70.47,113.5,69.3,114.67z"/>
		<path class="st8" d="M62.21,125.18c-1.03,1.32-2.21,2.5-3.53,3.53c-0.52-0.52-1.04-1.03-1.55-1.55c0.92-1.4,2.15-2.5,3.46-3.52
			C61.12,124.15,61.67,124.67,62.21,125.18z"/>
		<path class="st9" d="M100.35,78.74c0-0.13,0-0.26-0.01-0.39c0.83-0.81,1.62-1.67,2.51-2.4c0.91-0.75,1.06-1.33,0.06-2.15
			c-0.84-0.69-1.53-1.57-2.28-2.37c4.07-0.01,8.14-0.03,12.21-0.04c3.58-0.01,3.52,0,3.54-3.6c0-1.21-0.35-1.59-1.58-1.58
			c-5.81,0.06-11.63,0.03-17.44,0.03c-3.92,0-3.89,0-3.7,3.95c0.04,0.89,0.3,1.24,1.22,1.22c1.74-0.04,3.49,0.02,5.23,0.04
			c-1.09,1.16-2.17,2.31-3.26,3.47c-7.05,3.04-13.32,7.15-18.43,12.98c-1.86,2.12-4.03,3.98-6.05,5.97
			c-13.91-0.01-27.83-0.05-41.74-0.01c-1.53,0-2.05-0.3-2.04-1.96c0.08-11.22,0.07-22.45,0.01-33.67c-0.01-1.36,0.2-1.9,1.76-1.89
			c30.57,0.05,61.13,0.05,91.7,0.01c1.37,0,1.75,0.36,1.74,1.73c-0.06,11.4-0.03,22.8-0.03,34.19c0,0.8,0.2,1.59-1.14,1.58
			c-10.71-0.06-21.42-0.06-32.14-0.08c3.01-2.87,5.19-6.36,7.29-9.9c4.99,0.03,9.99,0.09,14.98,0.07c4.15-0.02,3.49,0.62,3.63-3.57
			c0.05-1.41-0.52-1.6-1.73-1.59C109.88,78.8,105.11,78.75,100.35,78.74z M58.53,66.23c-6.47,0-12.93,0-19.4,0
			c-3.11,0-3.03,0-3.14,3.14c-0.06,1.57,0.36,2.06,2.01,2.05c13.22-0.07,26.45-0.04,39.67-0.04c3.51,0,3.43,0,3.51-3.49
			c0.03-1.51-0.58-1.69-1.85-1.68C72.39,66.25,65.46,66.23,58.53,66.23z M58.62,78.78c-6.52,0-13.03,0-19.55,0
			c-3.05,0-2.95,0-3.08,3.02c-0.07,1.69,0.47,2.16,2.15,2.15c13.21-0.06,26.42-0.04,39.62-0.04c3.39,0,3.32,0,3.39-3.42
			c0.03-1.39-0.4-1.76-1.77-1.75C72.47,78.81,65.54,78.78,58.62,78.78z"/>
		<path class="st10" d="M100.35,78.74c4.76,0.01,9.53,0.05,14.29,0c1.21-0.01,1.78,0.19,1.73,1.59c-0.14,4.19,0.52,3.56-3.63,3.57
			c-4.99,0.02-9.99-0.04-14.98-0.07C98.63,82.14,99.49,80.44,100.35,78.74z"/>
		<path class="st11" d="M100.63,71.42c0.76,0.8,1.44,1.68,2.28,2.37c1,0.82,0.85,1.4-0.06,2.15c-0.89,0.74-1.68,1.6-2.51,2.4
			c-1.17-1.15-2.34-2.3-3.5-3.46c1.09-1.16,2.18-2.31,3.26-3.47C100.28,71.43,100.45,71.43,100.63,71.42z"/>
		<path class="st10" d="M58.53,66.23c6.93,0,13.86,0.02,20.8-0.02c1.26-0.01,1.88,0.17,1.85,1.68c-0.08,3.49,0.01,3.49-3.51,3.49
			c-13.22,0-26.45-0.03-39.67,0.04c-1.65,0.01-2.06-0.48-2.01-2.05c0.11-3.14,0.03-3.14,3.14-3.14
			C45.6,66.23,52.06,66.23,58.53,66.23z"/>
		<path class="st12" d="M58.62,78.78c6.92,0,13.85,0.04,20.77-0.03c1.37-0.01,1.8,0.35,1.77,1.75c-0.07,3.42,0,3.42-3.39,3.42
			c-13.21,0-26.42-0.03-39.62,0.04c-1.68,0.01-2.22-0.45-2.15-2.15c0.12-3.02,0.03-3.02,3.08-3.02
			C45.59,78.78,52.1,78.78,58.62,78.78z"/>
		<path class="st10" d="M100.63,71.42c-0.18,0-0.35,0.01-0.53,0.01c-1.74-0.02-3.49-0.07-5.23-0.04c-0.91,0.02-1.17-0.33-1.22-1.22
			c-0.2-3.95-0.22-3.95,3.7-3.95c5.81,0,11.63,0.03,17.44-0.03c1.23-0.01,1.58,0.37,1.58,1.58c-0.01,3.6,0.04,3.6-3.54,3.6
			C108.77,71.39,104.7,71.41,100.63,71.42z"/>
	</g>
</g>
</svg>
