<?xml version="1.0" encoding="utf-8"?>
<!-- Generator: Adobe Illustrator 25.2.3, SVG Export Plug-In . SVG Version: 6.00 Build 0)  -->
<svg version="1.1" id="Calque_10" xmlns="http://www.w3.org/2000/svg" xmlns:xlink="http://www.w3.org/1999/xlink" x="0px" y="0px"
	 viewBox="0 0 150 150" style="enable-background:new 0 0 150 150;" xml:space="preserve">
<style type="text/css">
	.st0{fill:#44577C;}
	.st1{fill:#F0C190;}
	.st2{fill:#EA5462;}
	.st3{fill:#DB2C48;}
	.st4{fill:#DEB187;}
	.st5{fill:#3A4968;}
	.st6{fill:#2F3B5A;}
	.st7{fill:#E1B378;}
	.st8{fill:#D0AB79;}
</style>
<g>
	<path class="st0" d="M88.78,47.23c-2.85,1.5-3.07-3.4-3.07-3.4c0-6.76-4.59-12.24-10.26-12.24c-5.67,0-10.26,5.48-10.26,12.24
		c0,0.26,0.01,0.52,0.02,0.77c-0.2,1.32-0.86,3.74-2.98,2.63c-0.33-0.18-0.73-0.05-0.91,0.27c-0.07,0.14-0.1,0.3-0.07,0.45
		c0.7,3.39,3.19,10.59,11.38,7.64c1.85,0.64,3.86,0.63,5.7-0.02c8.23,2.99,10.72-4.23,11.43-7.62c0.07-0.36-0.16-0.72-0.53-0.79
		C89.08,47.13,88.92,47.15,88.78,47.23z"/>
	<path class="st1" d="M83.08,65.92v-6.67l-2.79-0.92v-4.85h-9.67v4.87l-3,0.99v6.58H83.08z"/>
	<path class="st2" d="M94.99,79.17h-39l1.24-12.54c0.24-2.4,1.85-4.44,4.13-5.22l6.91-2.28c2.78,3.99,8.27,4.96,12.26,2.18
		c0.85-0.59,1.59-1.33,2.18-2.18l6.91,2.29c2.28,0.78,3.9,2.82,4.13,5.22L94.99,79.17z"/>
	<path class="st3" d="M68.27,59.13c0.27,0.39,0.58,0.76,0.91,1.1l-3.57,1.18c-2.28,0.78-3.9,2.82-4.13,5.21l-1.24,12.54h-4.25
		l1.24-12.54c0.24-2.4,1.85-4.44,4.13-5.21L68.27,59.13z"/>
	<path class="st1" d="M68.2,41.28c-0.58,1.64-0.88,3.37-0.87,5.11c0,6.28,3.64,11.38,8.13,11.38s8.13-5.09,8.13-11.38
		c0.01-1.74-0.29-3.47-0.87-5.11C78.12,45.13,75.25,34.62,68.2,41.28L68.2,41.28z"/>
	<path class="st4" d="M76.36,57.32c0.78,0,1.54-0.15,2.26-0.45c-0.95,0.58-2.05,0.89-3.17,0.9c-4.49,0-8.13-5.09-8.13-11.38
		c-0.01-1.74,0.29-3.47,0.87-5.11c0.79-0.79,1.72-1.42,2.74-1.87c-0.66,0.41-1.28,0.88-1.84,1.42c-0.58,1.64-0.87,3.37-0.87,5.11
		C68.23,52.22,71.87,57.32,76.36,57.32z"/>
	<path class="st4" d="M82.75,41.39c-0.13,0.07-0.27,0.12-0.41,0.17c0.13-0.09,0.25-0.18,0.37-0.28
		C82.73,41.31,82.74,41.36,82.75,41.39L82.75,41.39z"/>
	<path class="st0" d="M114.81,57.02v17.46c0,0.41-0.33,0.75-0.74,0.75H86.74c-0.41,0-0.75-0.33-0.75-0.75c0,0,0,0,0,0V57.02
		c0-0.42,0.34-0.75,0.75-0.75c0,0,0,0,0,0h27.33c0.24,0,0.46,0.11,0.6,0.3C114.76,56.7,114.81,56.86,114.81,57.02L114.81,57.02z"/>
	<path class="st5" d="M114.81,57.02v17.46c0,0.41-0.33,0.75-0.74,0.75H86.74c-0.21,0-0.41-0.09-0.55-0.24l2.28-1.73l23.69-15.17
		l2.51-1.52C114.76,56.7,114.81,56.86,114.81,57.02L114.81,57.02z"/>
	<path class="st0" d="M89.09,57.9h22.62c0.34,0,0.62,0.28,0.62,0.62v14.45c0,0.34-0.28,0.62-0.62,0.62H89.09
		c-0.34,0-0.62-0.28-0.62-0.62V58.52C88.47,58.18,88.75,57.9,89.09,57.9z"/>
	<path class="st6" d="M97.92,65.38h4.96v15.15h-4.96V65.38z"/>
	<path class="st7" d="M34.99,80.54h80.98v38.84H34.99V80.54z"/>
	<path class="st8" d="M34.99,80.54h80.98v7.69H34.99V80.54z"/>
	<path class="st7" d="M31.17,77.79h88.62c0.5,0,0.91,0.41,0.91,0.91v5.39c0,0.5-0.41,0.91-0.91,0.91H31.17
		c-0.5,0-0.91-0.41-0.91-0.91V78.7C30.26,78.2,30.67,77.79,31.17,77.79z"/>
</g>
</svg>
