<?xml version="1.0" encoding="utf-8"?>
<!-- Generator: Adobe Illustrator 25.2.3, SVG Export Plug-In . SVG Version: 6.00 Build 0)  -->
<svg version="1.1" id="Calque_7" xmlns="http://www.w3.org/2000/svg" xmlns:xlink="http://www.w3.org/1999/xlink" x="0px" y="0px"
	 viewBox="0 0 150 150" style="enable-background:new 0 0 150 150;" xml:space="preserve">
<style type="text/css">
	.st0{fill:#EFBD87;}
	.st1{fill:#CF6B2F;}
	.st2{fill:#FBC891;}
	.st3{fill:#B8BFBA;}
	.st4{fill:#1E1E1C;}
	.st5{fill:#3D3D3B;}
	.st6{fill:#FFFFFF;}
	.st7{fill:#585857;}
	.st8{fill:#9E9D9C;}
	.st9{fill:#171A1F;}
	.st10{fill:#EEEDED;}
	.st11{opacity:0.2;fill:#1E1E1C;}
	.st12{fill:#A6ADA9;}
	.st13{opacity:0.15;fill:#131313;}
	.st14{fill:#F5F5D0;}
	.st15{opacity:0.07;fill:#020203;}
	.st16{opacity:0.1;fill:#020203;}
	.st17{fill:#E27635;}
	.st18{fill:#DADADA;}
	.st19{fill:#9AA9A0;}
	.st20{fill:#21201D;}
	.st21{opacity:0.1;fill:#1E1E1C;}
	.st22{fill:#887A5B;}
	.st23{fill:#F5F6D6;}
	.st24{fill:#9D3C24;}
</style>
<g>
	<g>
		<g>
			<path class="st0" d="M51.52,111.13l-5.02-1.97c-0.52-0.21-0.92-0.64-1.07-1.18l-0.46-1.72l-0.77,2l-1.15-0.45
				c0.98-2.54-0.02-3.52,2.56-6.1c1-1.01,2.4-11.16,4.14-14.54c0.54-1.07,1.15-1.99,1.71-2.77c0.75-1.04,1.46-1.81,1.95-2.33
				c0.46-0.46,0.76-0.7,0.76-0.7c2.93-0.99,6.14-0.3,4.38,3.38l-0.01,0.01c0,0-0.35,0.57-0.93,1.52c-2.25,3.75-7.96,13.38-9.02,16.6
				c-0.5,1.48,0.97,5.09,0.97,5.09C50.69,109.59,52.92,111.04,51.52,111.13z"/>
			<path class="st1" d="M45.6,101.69c0.02-0.02,0.11,0.02,0.23,0.1c0.65,0.41,1.06,1.12,1.12,1.89l0.17,1.97
				c0.07,0.86,0.64,1.59,1.45,1.88l0.95,0.34c0.02,0.05,0.03,0.07,0.03,0.07c1.12,1.63,3.36,3.09,1.95,3.18l-5.01-1.97
				c-0.53-0.21-0.92-0.65-1.07-1.19l-0.47-1.71l-0.77,2l-1.14-0.45C44.02,105.25,43.03,104.28,45.6,101.69z"/>
		</g>
		<g>
			<g>
				<path class="st0" d="M85.3,69.84l-0.45,0.07l-0.65,0.22l-1.03,1.13c-0.14,0.16-0.35,0.19-0.52,0.11l-0.33,0.37
					c-0.19,0.21-0.49,0.2-0.68-0.02l-0.01-0.01c-0.04-0.05-0.08-0.11-0.1-0.18c-0.17,0-0.33-0.08-0.43-0.25l-0.01-0.01
					c-0.16-0.27-0.11-0.64,0.13-0.83l1.67-1.36c0.01,0,0.01-0.01,0.02-0.01c0.02-0.01,0.03-0.02,0.05-0.03
					c0.01-0.01,0.03-0.02,0.04-0.02c0.02-0.01,0.03-0.01,0.05-0.02c0.02-0.01,0.04-0.01,0.06-0.02c0.01,0,0.01,0,0.02-0.01
					l2.02-0.34c0.28-0.05,0.55,0.18,0.58,0.51l0,0.01C85.76,69.49,85.58,69.8,85.3,69.84z"/>
				<path class="st2" d="M90.41,71.7l-1.29,0.17c-0.31,0.04-0.62,0.02-0.92-0.07c0,0-1.53-0.74-2.99,0c-0.4,0.2-0.75-0.04-0.8-0.37
					c-0.07-0.44,0.38-0.66,0.85-0.81c0.35-0.11,1.18-0.23,1.18-0.23l-1.18-0.54l-1.89-0.09l-1.74,0.91
					c-0.26,0.14-0.57,0.01-0.69-0.29l0-0.01c-0.12-0.3,0-0.65,0.26-0.79c0,0,2.09-1.03,2.1-1.03c0,0,1.53-0.24,2.01-0.27
					c0.09-0.01,0.22,0.01,0.35,0.02c0.53,0.03,2.02,0.17,3.2,0.69l1.66,0.39L90.41,71.7z"/>
			</g>
			<path class="st3" d="M99.25,64.77c0.4-1.94,0.9-7.39,1.42-8.99c0.39-1.18,0.42-1.34,1.25-2.27c0.37-0.42,0.82-0.75,1.32-1
				c0,0,0.01-0.01,0.02-0.01c0.26-0.13,0.54-0.24,0.82-0.32c0.45-0.13,0.91-0.19,1.38-0.17c2.83,2.94,2.42,6.35,1.29,10.08
				c-0.05,0.18-0.11,0.35-0.16,0.53c-0.01,0.02-0.01,0.04-0.02,0.06c-0.03,0.11-0.07,0.23-0.11,0.34c-0.49,1.51-1.07,3.07-1.56,4.67
				c-0.31,1.01-0.81,1.45-1.65,1.83C103.25,69.51,99.24,64.77,99.25,64.77z"/>
			<path class="st4" d="M112.17,91.15c2.78,0,5.25-1.17,7.14-3.39c2.8-3.28,3.97-8.43,3.07-13.45c-0.12-0.67-0.76-1.12-1.43-1
				c-0.67,0.12-1.12,0.76-1,1.43c0.76,4.24-0.23,8.72-2.52,11.41c-1.44,1.69-3.32,2.56-5.4,2.52c-0.69-0.02-1.24,0.53-1.26,1.21
				c-0.01,0.68,0.53,1.24,1.21,1.26C112.04,91.15,112.11,91.15,112.17,91.15z"/>
			<path class="st4" d="M109.63,78.93h14.18c1.49,0,2.67-1.28,2.54-2.76l-1.51-17.69c-0.11-1.32-1.22-2.33-2.54-2.33h-11.4
				c-1.34,0-2.45,1.03-2.54,2.37l-1.27,17.69C106.99,77.67,108.16,78.93,109.63,78.93z"/>
			<path class="st5" d="M107.35,78.93h14.18c1.49,0,2.67-1.28,2.54-2.76l-1.51-17.69c-0.11-1.32-1.22-2.33-2.54-2.33h-11.4
				c-1.34,0-2.45,1.03-2.54,2.37l-1.27,17.69C104.7,77.67,105.87,78.93,107.35,78.93z"/>
			<path class="st6" d="M119.55,75.26l-18.67,0.26c0.27-3.15,3.88-22.8,3.88-22.8l2.23-0.35l6.7-1.08
				C113.69,51.28,119.6,72.4,119.55,75.26z"/>
			<g>
				<rect x="121.97" y="106.77" class="st7" width="0.88" height="2.42"/>
				<path class="st4" d="M120.01,110.32c0,0.98,0.75,1.77,1.67,1.77c0.92,0,1.67-0.79,1.67-1.77c0-0.98-0.75-1.77-1.67-1.77
					C120.76,108.55,120.01,109.34,120.01,110.32z"/>
			</g>
			<g>
				<rect x="109.97" y="106.77" class="st7" width="0.88" height="2.42"/>
				<ellipse class="st4" cx="109.68" cy="110.32" rx="1.67" ry="1.77"/>
			</g>
			<rect x="108.74" y="90.42" class="st8" width="3.01" height="8.21"/>
			<rect x="108.01" y="97.21" class="st9" width="4.47" height="8.21"/>
			<polygon class="st4" points="123.45,107.65 97.05,107.65 97.05,106.01 110.28,104.38 123.45,106.01 			"/>
			<path class="st5" d="M120.03,85.82H99.36c-0.74,0-1.33,0.6-1.33,1.33v2.92c0,0.74,0.6,1.33,1.33,1.33h20.67
				c0.75,0,1.36-0.61,1.36-1.36v-2.87C121.39,86.43,120.78,85.82,120.03,85.82z"/>
			<polygon class="st10" points="92.52,72.45 91.43,68.48 89.19,69.04 90.24,73.08 			"/>
			<path class="st3" d="M91.19,73.06c0.02,0.01,0.09-0.01,0.19-0.03c1.12-0.24,6.76-1.94,9.26-2.77c0.64-0.21,1.08-0.37,1.18-0.43
				c0.18-0.11,0.35-0.21,0.5-0.32l-0.64-4.09l-2.41-0.65c-1.59,0.6-7.51,3.41-9.35,3.89C90.35,70.5,90.8,71.84,91.19,73.06z"/>
			<path class="st6" d="M91.82,72.01c0.09,0.16,0.3,0.21,0.45,0.12c0.16-0.09,0.21-0.3,0.12-0.45c-0.09-0.16-0.3-0.21-0.45-0.12
				C91.78,71.65,91.73,71.85,91.82,72.01z"/>
			<path class="st11" d="M91.38,73.04c1.12-0.24,6.76-1.94,9.26-2.77l1.03-12.06l-1.93,10.27L91.38,73.04z"/>
			<path class="st3" d="M102.09,54.34l0.34-0.21l2.33-1.42l0.32-0.05l-0.59,27.96c-0.04,2.07-1.81,3.68-3.88,3.52l-2.13-0.16
				C98.76,80.83,102.05,55.94,102.09,54.34z"/>
			<path class="st4" d="M81.54,112.13h12.41c0.29-1.22,0.33-2.44,0-3.65c-1.51-1.47-3.48-2.09-5.89-1.88
				c-0.71,1.16-3.66,2.19-5.04,2.8c-0.9,0.4-1.48,1.29-1.48,2.27V112.13z"/>
			<path class="st12" d="M118.57,76.87c-0.1-0.34-4.85-0.14-9.19-0.14h-0.01c-0.83-0.01-1.57,0-2.18,0h-1.01
				c-0.34,0.01-0.53,0.01-0.53,0.01c-0.97-0.04-1.94-0.02-2.88,0.02c-2.88,0.15-5.57,0.63-7.74,1.22c-1.35,0.37-2.49,0.78-3.34,1.17
				c-0.7,0.32-1.2,0.97-1.31,1.73c-0.63,4.29-3.45,20.44-3.38,25.9c0.99,0.42,2.24,0.33,3.43,0.52c1.05,0.17,2.1,0.64,3.5,0.91
				c0.07-0.17,0.14-0.34,0.21-0.52c2.05-5.3,3.64-16.09,3.08-21.35l0-0.02l0,0c0.36,0,0.73-0.01,1.12-0.01
				c1.41-0.02,2.97-0.03,4.58-0.04h0.12c1.12-0.01,2.25-0.02,3.38-0.04c6.46-0.06,11.27-0.13,11.27-0.13
				C119.13,84.51,119.62,80.4,118.57,76.87z"/>
			<path class="st13" d="M90.43,107.3c1,0.34,2.1,0.64,3.5,0.91c0.07-0.17,0.14-0.34,0.21-0.52c2.05-5.3,3.64-16.09,3.08-21.35
				l0-0.02C95.65,94.64,93.65,102.12,90.43,107.3z"/>
			<g>
				<rect x="97.75" y="106.77" class="st7" width="0.88" height="2.42"/>
				<path class="st5" d="M100.58,110.32c0,0.98-0.75,1.77-1.67,1.77c-0.92,0-1.67-0.79-1.67-1.77c0-0.98,0.75-1.77,1.67-1.77
					C99.83,108.55,100.58,109.34,100.58,110.32z"/>
			</g>
			<path class="st4" d="M95.38,112.13h9.29c0.13-1.95-0.2-3.45-0.69-4.75c-1.56-0.86-3.63-0.64-6.12,0.47l-1.4,0.95
				c-0.68,0.46-1.08,1.21-1.08,2V112.13z"/>
			<path class="st3" d="M94.79,82.65c0.83,5.83,1.71,17.11,2.72,22.8c0.13,0.73,0.28,1.46,0.44,2.17c0.69-0.4,3.55-0.37,6.66,1.51
				c1.21-6.65,1.34-20.52-1.29-23.32c2.3-0.19,13.8,1.55,15.99,0c6.09-12.88-5.16-8.99-8.47-9.09
				C109.79,76.7,97.05,78.04,94.79,82.65z"/>
			<g>
				<path class="st9" d="M120.14,77.2c0-0.88,0.03-1.2,0-1.65H104.4c-0.09,0.31-0.03,0.82,0,1.65H120.14z"/>
				<rect x="110.28" y="75.7" class="st14" width="1.85" height="1.32"/>
				<path class="st15" d="M118.35,83.28c-0.23,0.13-0.48,0.26-0.74,0.37C117.86,83.52,118.1,83.4,118.35,83.28z"/>
				<path class="st16" d="M103.09,78c3.87,0.31,4.19,7.58,7.96,8.33c2.47,0.49,6.56,0.01,9.59-0.29l-0.14-4.33
					c0-0.33-0.15-3.17-0.41-4.82c-5.21-0.04-10.42-0.09-15.62-0.14C104.38,77.26,104.32,76.99,103.09,78z"/>
			</g>
			<path class="st6" d="M92.95,71.73c0.09,0.16,0.3,0.21,0.45,0.12c0.16-0.09,0.21-0.3,0.12-0.45c-0.09-0.16-0.3-0.21-0.45-0.12
				C92.91,71.37,92.86,71.57,92.95,71.73z"/>
			<path class="st0" d="M112.3,50.28l-0.55-5.58c-2.38,0.28-5.58,0.6-6.14,0.56c0,0,0.37,4.06,0.37,5.82
				C105.6,55.65,110.89,55.48,112.3,50.28z"/>
			<path class="st3" d="M121.68,84.42l-7.74,0.53c-2.09,0.14-3.86-1.51-3.86-3.6c0-1.45,0-2.99,0.01-4.55v-0.02
				c0-0.17,0-0.35,0-0.52c0-0.29,0.01-0.59,0.01-0.88c0.01-0.47,0.02-0.94,0.02-1.41c0.01-0.41,0.02-0.83,0.03-1.23
				c0-0.14,0-0.29,0.01-0.43V72.3c0-0.04,0-0.08,0-0.11c0.03-1.45,0.09-2.88,0.16-4.24c0.34-6.03,1.06-11.18,2.17-14.49
				c0.28-0.83,0.58-1.54,0.9-2.13l0.3-0.05l0.83,0.39l0,0l4.81,2.28c0.01,0.01,0.01,0.02,0.02,0.02c0.16,1.8,0.26,3.62,0.42,5.57
				c0.07,0.86,0.14,1.77,0.22,2.71v0.01c0.3,3.47,0.64,7.38,0.94,10.97c0.27,3.27,0.51,6.26,0.63,8.41
				C121.65,82.9,121.69,83.86,121.68,84.42z"/>
			<polygon class="st17" points="108.27,56.49 106.83,56.34 106.35,53.47 108.78,53.56 			"/>
			<path class="st18" d="M107.38,53.5l-1.99,2.28c-0.3-1.39-0.7-2.53-0.54-3.37l1.15-1.25C105.87,52.13,106.36,53.18,107.38,53.5z"
				/>
			<path class="st18" d="M107.38,53.5l2.46,2.84c1.68-1.65,3.42-3.48,3.86-5.06l-1.46-1.6C112.24,51.11,109.28,53.57,107.38,53.5z"
				/>
			<polygon class="st17" points="108.27,56.49 106.83,56.34 106.09,69.58 107.56,71.89 109.14,70.03 			"/>
			<path class="st19" d="M110.33,67.94c1.23-4.37,4.26-12.44,4.26-12.44s-1.93-1-1.79-1.15l2.12,0.07l-0.38-2.76l-1.94-1.62
				C111.05,55.12,110.2,62.35,110.33,67.94z"/>
			<path class="st19" d="M104.67,67.81c-1.23-4.37-2.01-12.57-2.01-12.57s1.82-0.67,1.69-0.82l-1.54-0.19l1.18-2.02l1.61-0.63
				C105.08,56.64,104.8,62.22,104.67,67.81z"/>
			<path class="st11" d="M120.94,73.24c0.27,3.27,0.51,6.26,0.63,8.41c-2.41-2.84-5.49-4.63-9.57-4.85
				c-0.33-0.02-0.67-0.03-1.01-0.02c-0.29,0-0.59,0.01-0.89,0.03c-0.02,0-0.04,0-0.06,0l0.01-0.53l0.02-0.88l0.03-1.5l0.03-1.14
				l0.01-0.43l0.03-0.02l0.5-0.38l5.91-4.51l-1.11-7.71l0.61,0.35l3.93,2.22v0.01l1.97,10.33
				C121.65,72.82,121.31,73.03,120.94,73.24z"/>
			<path class="st0" d="M102.84,71.75c-0.2,0.1-0.21,0.38-0.14,0.6c0.13,0.39,0.47,0.68,0.84,0.84c0.38,0.16,0.79,0.21,1.2,0.24
				c0.35,0.02,0.71,0.03,1.07,0.02c0.3-0.01,0.64-0.05,0.8-0.3c0.03-0.04,0.05-0.09,0.05-0.14c-0.01-0.16-0.22-0.21-0.38-0.21
				c-0.78-0.03-1.55-0.23-2.23-0.59c-0.24-0.13-0.47-0.27-0.71-0.39C103.18,71.74,102.99,71.67,102.84,71.75z"/>
			<path class="st2" d="M103.96,76.36c-0.34,0.28-0.67,0.56-1.01,0.84c-0.19,0.16-0.39,0.32-0.63,0.36
				c-0.24,0.04-0.53-0.11-0.56-0.35c-0.18,0.23-0.55,0.27-0.78,0.1c-0.23-0.18-0.29-0.54-0.12-0.78c-0.22,0.02-0.4-0.19-0.42-0.41
				c-0.01-0.22,0.11-0.42,0.26-0.58c-0.08-0.25,0.01-0.54,0.17-0.75c0.2-0.28,0.48-0.47,0.76-0.67c0.5-0.34,1-0.68,1.5-1.02
				c0.26-0.18,0.53-0.36,0.83-0.44c0.29-0.08,0.59-0.07,0.89-0.06c1.62,0.07,3.25,0.13,4.82,0.49c-0.01,0.73-0.03,1.45-0.04,2.18
				c0,0.07,0,0.14-0.03,0.2c-0.03,0.07-0.09,0.13-0.15,0.17c-0.68,0.54-1.6,0.77-2.45,0.62c-0.23-0.04-0.46-0.11-0.68-0.17
				c-0.42-0.12-0.85-0.21-1.29-0.2c-0.17,0.01-0.35,0.03-0.51,0.09C104.31,76.07,104.13,76.21,103.96,76.36z"/>
			<g>
				<g>
					<polygon class="st10" points="112.35,76.05 111.04,72.05 108.78,72.73 110.04,76.8 					"/>
				</g>
			</g>
			<g>
				<path class="st3" d="M121.97,72.6c-0.32,0.22-0.67,0.43-1.03,0.64c-0.47,0.27-0.98,0.54-1.52,0.8c-0.9,0.44-1.88,0.86-2.88,1.25
					c-1.51,0.59-3.08,1.1-4.54,1.5c-0.32,0.09-0.63,0.17-0.93,0.24l-0.08-0.26l-0.08-0.25l-0.12-0.38l-0.23-0.76l-0.43-1.41
					l-0.03-0.09l-0.33-1.08l-0.11-0.35c0,0,0,0,0,0c0.17-0.09,0.33-0.18,0.5-0.27c0.17-0.09,0.33-0.18,0.5-0.27
					c3.88-2.14,7.23-4.1,7.23-4.1s-1.84-5.61-2.43-8.12c-0.1-0.42-0.16-0.75-0.18-0.96c-0.03-0.45,0-0.89,0.09-1.32
					c0.2-0.96,0.68-1.85,1.34-2.57c0.76-0.83,1.72-1.21,2.62-0.89c0,0,0.01,0,0.02,0.01c0.23,0.08,0.45,0.21,0.67,0.39
					c0.82,0.67,1.54,1.82,1.78,2.89c0.82,3.73,1.75,8.81,2.38,12.45C124.34,70.59,123.44,71.61,121.97,72.6z"/>
				<path class="st6" d="M111.76,76.04c0.1,0.16,0.31,0.2,0.47,0.1c0.16-0.1,0.2-0.31,0.1-0.47c-0.1-0.16-0.31-0.2-0.47-0.1
					C111.7,75.67,111.66,75.88,111.76,76.04z"/>
				<path class="st6" d="M112.9,75.7c0.1,0.16,0.31,0.2,0.47,0.1c0.16-0.1,0.2-0.31,0.1-0.47c-0.1-0.16-0.31-0.2-0.47-0.1
					C112.84,75.33,112.79,75.54,112.9,75.7z"/>
			</g>
			<path class="st2" d="M106.43,72.71c0.07,0.03,0.16,0.04,0.24,0.04L106.43,72.71z"/>
			<g>
				<path class="st2" d="M112.18,45.73c0.42-1.07,0.41-1.54,0.43-2.7c-0.23-5.3-3.26-4.52-5.23-4.5c-2.3,0.13-4.45,1.71-4.53,5.24
					c0.12,0.35,0.26,0.63,0.26,0.63l-0.73,1.98c-0.12,0.33,0.08,0.68,0.42,0.76l0.51,0.13c0.01,0.36-0.01,1.88-0.01,1.88
					c0.04,0.9,0.45,2.29,1.65,2.17c3.44-0.36,4.74-1.99,4.45-5.02C110.23,46.18,111.87,46.51,112.18,45.73z"/>
				<path class="st5" d="M111.62,48.13c-2.72,0.77-1.61-3.3-1.61-3.3s-1.74-0.55-2.27-0.59c2.54-3.39,2.15-6.21-2.53-5.09
					c-0.65-0.68,1.22-1.72,3.57-1.3c2.62,0.46,4.47,1.72,4.85,4.35C113.87,43.84,114.08,47.03,111.62,48.13z"/>
				<path class="st2" d="M110.62,44.88c0.01,0.83-0.69,1.8-1.23,1.8c-0.54,0-0.59-0.69-0.61-1.52c-0.01-0.55-0.05-1.31,0.54-1.49
					C109.85,43.51,110.61,43.66,110.62,44.88z"/>
			</g>
		</g>
		<g>
			<path class="st4" d="M35.99,90.96c-2.97,0-5.42-1.41-7.63-3.62c-5.44-5.44-2.16-21.18-1.49-21.06c0.72,0.13,0.93,6.44,0.8,7.16
				c-0.81,4.53,0.24,9.32,2.69,12.19c1.54,1.8,3.54,2.74,5.77,2.69c0.74-0.02,1.33,0.57,1.34,1.29c0.01,0.73-0.57,1.33-1.29,1.34
				C36.12,90.96,36.05,90.96,35.99,90.96z"/>
			<g>
				<rect x="28.1" y="106.45" class="st7" width="0.94" height="2.59"/>
				<path class="st4" d="M31.12,110.24c0,1.05-0.8,1.89-1.79,1.89s-1.79-0.85-1.79-1.89s0.8-1.89,1.79-1.89
					S31.12,109.19,31.12,110.24z"/>
			</g>
			<g>
				<rect x="40.91" y="106.45" class="st7" width="0.94" height="2.59"/>
				<path class="st4" d="M43.94,110.24c0,1.05-0.8,1.89-1.79,1.89c-0.99,0-1.79-0.85-1.79-1.89s0.8-1.89,1.79-1.89
					C43.14,108.34,43.94,109.19,43.94,110.24z"/>
			</g>
			<g>
				<rect x="53.96" y="106.45" class="st7" width="0.94" height="2.59"/>
				<path class="st4" d="M51.87,110.24c0,1.05,0.8,1.89,1.79,1.89c0.99,0,1.79-0.85,1.79-1.89s-0.8-1.89-1.79-1.89
					C52.67,108.34,51.87,109.19,51.87,110.24z"/>
			</g>
			<rect x="39.94" y="90.18" class="st8" width="3.22" height="7.58"/>
			<rect x="39.17" y="96.24" class="st9" width="4.77" height="8.77"/>
			<polygon class="st4" points="27.44,107.38 55.64,107.38 55.64,105.64 41.51,103.89 27.44,105.64 			"/>
			<path class="st4" d="M31.1,85.27h22.08c0.79,0,1.42,0.64,1.42,1.42v3.12c0,0.79-0.64,1.42-1.42,1.42H31.1
				c-0.8,0-1.46-0.65-1.46-1.45v-3.06C29.65,85.92,30.3,85.27,31.1,85.27z"/>
			<path class="st5" d="M29.01,81.42h1.81c1.76,0,3.14-1.52,2.97-3.27l-1.73-17.86c-0.16-1.68-1.62-2.92-3.3-2.81l-0.63,0.04
				c-0.88,0.06-1.56,0.81-1.52,1.69l0.78,20.64C27.42,80.73,28.14,81.42,29.01,81.42z"/>
		</g>
		<g>
			<path class="st0" d="M39.69,54.94l2.1,3.88l2.99,5.52l0.88,1.6c0.36,0.57,0.42,1.17,0.27,1.68c-0.18,0.61-0.64,1.12-1.22,1.33
				c-0.2,0.09-0.43,0.14-0.67,0.15c-0.65-0.01-1.34-0.36-1.9-1.26l-3.57-5.76l-3.01-4.88c-1.39-2.64,0.44-4.18,2.22-3.77
				C38.48,53.6,39.2,54.09,39.69,54.94z"/>
			<path class="st0" d="M55.52,64.41c0,0,0.61,1.85,0.53,1.87c-0.84,0.36-2.19,0.81-3.69,1.23c-1.37,0.37-2.89,0.73-4.25,1.03
				c-1.1,0.23-2.1,0.4-2.85,0.5c-0.53,0.06-0.94,0.09-1.21,0.06c-0.14,0-0.28-0.03-0.41-0.09c-0.23-0.06-0.43-0.2-0.61-0.36
				c-0.61-0.58-0.88-1.63-0.64-2.41c0.15-0.52,0.5-0.93,1.11-1.01c0.1-0.03,0.2-0.03,0.31-0.04l1.45-0.11L46.82,65l4.91-0.33
				c0,0,0,0,0.01,0.02L55.52,64.41z"/>
			<path class="st2" d="M56.1,62.39c-0.32,0.73-0.17,1.63,0.35,2.23c-0.1-0.62,0.03-1.28,0.38-1.81c0.15-0.24,0.35-0.53,0.2-0.77
				c-0.11-0.17-0.37-0.2-0.55-0.11C56.3,62.01,56.18,62.2,56.1,62.39z"/>
			<path class="st20" d="M46.95,41.41c0.41-1.25-0.16-2.67-1.16-3.53c-0.99-0.86-2.33-1.22-3.65-1.3c-2.51-0.15-5.06,0.68-6.99,2.28
				c-0.46,0.38-0.89,0.81-1.18,1.33c-0.37,0.68-0.46,1.48-0.44,2.25c0.05,1.73,0.66,3.44,1.72,4.82c0.51,0.66,1.11,1.25,1.57,1.95
				c0.46,0.7,0.76,1.55,0.57,2.36c1.26-1.42,2.25-3.05,3.44-4.52c1.19-1.48,2.63-2.84,4.43-3.44C45.94,42.98,46.66,42.3,46.95,41.41
				z"/>
			<polygon class="st2" points="36.94,51.25 41.73,54.68 42.38,51.6 42.87,49.27 43.08,48.26 38.7,44.35 			"/>
			<path class="st2" d="M41.7,52.86c1.57,6.37,4.65,6.15,5.01,9.74c0.26,2.61-2.47,3.61-2.47,3.61c-0.79,3.67-1.39,6.9-1.16,9.36
				c0,0-7.86-1.47-8.4-1.6c1.3-3.71-0.98-7.72-0.98-14.48c0-3.64,3.34-8.65,3.34-8.65S41.45,51.83,41.7,52.86z"/>
			<path class="st17" d="M46.9,62.6c0.02,0.16,0.02,0.32,0,0.47c-0.1,2.25-2.66,3.14-2.66,3.14c-0.02,0.9-0.08,1.77-0.14,2.61
				c0,0,0,0,0,0.02c-0.1,1.03-0.23,2-0.35,2.9c-0.16,1.11-0.31,2.14-0.4,3.07c-0.02,0.14-0.03,0.29-0.05,0.42
				c0,0-0.21-0.03-0.56-0.08c-0.82-0.11-2.43-0.34-3.99-0.56c-1.93-0.27-3.8-0.55-4.06-0.61c0.1-0.27,0.18-0.53,0.21-0.8l0.02-0.02
				c0.16-0.71,0.19-1.43,0.16-2.19c0-0.21-0.02-0.4-0.03-0.61c-0.1-1.09-0.32-2.27-0.55-3.56c-0.26-1.42-0.53-2.96-0.68-4.73
				c-0.03-0.27-0.05-0.55-0.06-0.84c-0.03-0.56-0.05-1.13-0.05-1.72c0-3.65,2.38-7.03,2.38-7.03s0.74,0.29,1.51,0.58
				c0.74,0.26,1.35,0.8,1.72,1.48c0.02,0.02,0.03,0.05,0.05,0.06l1.29,2.48c0.4,0.77,1.17,1.29,2.06,1.37l1.88,0.16
				C45.72,59.88,46.7,60.72,46.9,62.6z"/>
			<path class="st2" d="M39.16,58.19l-1.33,12.45c-0.1,2.61-4.16,2.86-3.97-0.44l0.63-12.51C34.98,53.55,39.47,54.77,39.16,58.19z"
				/>
			<path class="st21" d="M39.19,46.9c0.26,1.34,0.88,2.61,1.78,3.63c0.39,0.44,0.87,0.85,1.41,1.07l0.49-2.32
				c-0.19-0.06-0.37-0.13-0.56-0.21C41.13,48.59,40,47.89,39.19,46.9z"/>
			<path class="st2" d="M46.6,45.49c-0.46-0.72-0.7-1.13-0.79-1.71c2.49-7.87-14.24-6.97-8.95,2.16h1.6
				c0.59,2.12,1.81,3.48,4.31,4.19c0.87,0.03,1.67,0.16,2.31-0.38c0.44-0.51,0.69-1.4,0.79-2.72c0.02-0.27,0.18-0.5,0.43-0.61
				l0.01,0C46.6,46.29,46.88,45.96,46.6,45.49z"/>
			<path class="st20" d="M38.52,46.35c-0.04,0.82-0.59,1.59-1.35,1.88c-0.52-0.87-1.03-1.74-1.41-2.68
				c-0.38-0.94-0.61-1.95-0.52-2.96c0.13-1.6,1.08-3.08,2.41-3.97c1.33-0.89,3.01-1.21,4.59-0.98c1.58,0.23,3.07,0.98,4.28,2.03
				c-0.74,0.07-1.39,0.53-1.89,1.08c-0.5,0.55-0.88,1.2-1.33,1.79c-0.46,0.59-1.01,1.13-1.72,1.37c-0.74,0.42-1.78,0.14-2.43,0.69
				C38.64,45,38.56,45.71,38.52,46.35z"/>
			<path class="st21" d="M46.9,63.07c-0.1,2.25-2.66,3.14-2.66,3.14c-0.02,0.9-0.08,1.77-0.14,2.61c0,0,0,0,0,0.02
				c-0.1,1.03-0.23,2-0.35,2.9c-0.16,1.11-0.31,2.14-0.4,3.07l0.05,0.02c0,0.06,0.39,3.83,0.8,8.85c-1-2.22-1.38-4.76-1.45-7.21
				c-0.02-0.43-0.02-0.89-0.02-1.32c0-0.14,0-0.31,0.02-0.45c0.03-3.09,0.32-6.18,0.03-9.25C44.4,65.24,45.91,64.36,46.9,63.07z"/>
			<path class="st2" d="M36.08,68.63L50,69.68c0,0,0.27,1.93,0.17,1.95c-3.41,0.72-12.81,1.34-14.76,0.92
				C33.07,72.14,33.4,68.25,36.08,68.63z"/>
			<path class="st2" d="M49.15,69.68l3.41-0.71l2.08,0.77l0.52,2.28L54.01,73c-0.44-0.15-0.49-0.5-0.14-0.81l-1.36-0.62
				c-0.59,0.61-1.93,0.39-3.3,0.23L49.15,69.68z"/>
			<path class="st2" d="M58.64,112.13l-5.35-0.67c-0.56-0.07-1.05-0.39-1.33-0.88l-0.88-1.55l-0.25,2.13L49.6,111
				c0.32-2.7-0.89-3.4,0.97-6.55c0.72-1.22-0.43-11.41,0.42-15.11c0.26-1.17,0.62-2.21,0.97-3.11c0.47-1.19,0.96-2.12,1.32-2.74
				c0.33-0.56,0.56-0.87,0.56-0.87c2.6-1.69,5.87-1.81,5.08,2.19l0,0.02c0,0-0.19,0.64-0.52,1.7c-1.26,4.19-4.4,14.94-4.63,18.32
				c-0.11,1.56,2.2,4.69,2.2,4.69C57.45,110.85,59.97,111.7,58.64,112.13z"/>
			<path class="st17" d="M50.57,104.45c0.02-0.03,0.11-0.01,0.25,0.04c0.73,0.24,1.3,0.82,1.56,1.55l0.66,1.87
				c0.28,0.81,1.01,1.38,1.87,1.46l1.01,0.1c0.03,0.04,0.05,0.06,0.05,0.06c1.49,1.3,4.01,2.16,2.68,2.6l-5.35-0.67
				c-0.56-0.07-1.06-0.4-1.34-0.89l-0.88-1.54l-0.25,2.13L49.61,111C49.92,108.29,48.72,107.59,50.57,104.45z"/>
			<path class="st17" d="M59.05,81.92c0.6,1.92,0,4.27-1.07,7.76c-3.64-0.44-7.12-1.73-10.47-3.74c0,0-8.73,0.16-12.39-0.76
				c-1.46-0.37-2.58-1.55-2.84-3.03c-0.36-1.99-0.44-3.38,0.82-6.13c0.42-0.95,1.01-1.9,1.79-2.86l0.02-0.02l3.78,0.76l4.06,0.79
				l0.6,0.11l0.05,0.02C43.39,74.88,57.87,78.16,59.05,81.92z"/>
		</g>
		<rect x="46.02" y="71.54" class="st22" width="51.31" height="2.08"/>
		<rect x="46.02" y="71.54" class="st22" width="51.31" height="2.08"/>
		<rect x="57.67" y="73.62" class="st22" width="28.01" height="38.51"/>
		<rect x="57.67" y="73.62" class="st11" width="28.01" height="7.32"/>
		<g>
			<g>
				<g>
					<polygon class="st23" points="79.9,67.16 79.89,67.18 79.88,67.26 79.87,67.27 79.82,67.35 79.85,67.37 79.84,67.41 
						79.84,67.41 79.84,67.42 79.85,67.45 79.84,67.45 79.83,67.45 79.8,67.46 79.82,67.46 79.82,67.46 79.85,67.48 79.88,67.52 
						79.87,67.53 79.88,67.61 79.86,67.63 79.86,67.63 79.86,67.64 79.87,67.67 79.87,67.72 79.87,67.77 79.87,67.85 79.45,67.85 
						79.44,67.85 77.41,67.9 76.74,67.89 76.45,67.88 76.12,67.88 75.34,67.86 75.34,67.86 74.95,67.86 72.49,67.86 72.18,67.86 
						72.11,67.86 70.03,67.86 70.04,67.84 70.07,67.82 70.04,67.8 70.02,67.79 70.05,67.73 70.06,67.73 70.09,67.73 70.1,67.72 
						70.09,67.71 70.09,67.71 70.06,67.68 70.05,67.66 70.06,67.64 70.06,67.63 70.04,67.63 70.02,67.54 70.05,67.54 70.05,67.54 
						70.09,67.53 70.05,67.53 70.05,67.51 70.05,67.5 70.03,67.45 70.04,67.44 70.03,67.43 70.03,67.43 70.03,67.43 70.02,67.39 
						70.03,67.38 70.03,67.38 70.06,67.36 70.04,67.33 70.04,67.33 70.05,67.28 70.06,67.21 70.07,67.17 70.05,67.17 70.05,67.17 
						70.03,67.16 70.05,67.1 70.06,67.08 70.08,67.07 70.04,66.99 70.05,66.98 70.07,66.97 70.05,66.97 70.06,66.93 70.07,66.89 
						70.01,66.89 70.03,66.89 70.04,66.89 70.07,66.88 70.04,66.85 70.03,66.84 70.02,66.8 70.03,66.8 70.04,66.79 70.03,66.71 
						70.03,66.7 70.02,66.69 70.02,66.69 70,66.54 70,66.52 70.03,66.52 70.06,66.52 70.06,66.52 70.06,66.49 70.05,66.44 
						70.06,66.44 70.06,66.44 70.05,66.34 70.06,66.34 70.1,66.34 70.09,66.33 70.09,66.33 70.09,66.31 70.06,66.25 70.08,66.24 
						70.08,66.24 70.08,66.24 70.06,66.21 70.06,66.21 70.01,66.16 70.05,66.16 70.05,66.13 70.05,66.11 70.05,66.09 70.06,66.06 
						70.03,66.06 70.02,66.06 70,66.06 70.03,66.05 70.03,66.05 71.13,66.02 72.49,65.99 73.15,66 73.48,66.01 73.8,66.02 
						74.12,66.02 74.95,66.04 75.47,66.04 75.59,66.04 76.12,66.04 76.45,66.04 76.65,66.05 76.74,66.05 77.34,66.05 77.41,66.05 
						78.12,66.04 78.71,66.03 78.74,66.03 79.01,66.03 79.34,66.02 79.87,66.01 79.87,66.02 79.87,66.05 79.88,66.11 79.89,66.15 
						79.86,66.16 79.85,66.16 79.85,66.2 79.83,66.25 79.87,66.27 79.86,66.32 79.85,66.34 79.84,66.34 79.8,66.34 79.83,66.38 
						79.82,66.38 79.82,66.38 79.81,66.39 79.85,66.41 79.87,66.42 79.84,66.43 79.84,66.43 79.84,66.43 79.83,66.46 79.83,66.51 
						79.83,66.51 79.85,66.53 79.83,66.54 79.85,66.56 79.85,66.56 79.87,66.58 79.86,66.6 79.86,66.6 79.86,66.61 79.85,66.62 
						79.86,66.63 79.89,66.66 79.82,66.7 79.84,66.71 79.85,66.71 79.87,66.71 79.85,66.74 79.83,66.75 79.82,66.75 79.82,66.76 
						79.81,66.77 79.8,66.8 79.8,66.8 79.8,66.88 79.8,66.89 79.81,66.92 79.81,66.92 79.82,66.93 79.8,66.94 79.82,66.97 
						79.82,66.97 79.82,66.97 79.79,66.99 79.8,67 79.8,67.02 79.8,67.02 79.81,67.04 79.81,67.05 79.83,67.08 79.84,67.08 
						79.85,67.08 79.84,67.12 79.83,67.13 79.87,67.14 					"/>
					<polygon class="st16" points="79.87,66.02 79.87,66.07 77.65,66.11 77.63,66.11 77.41,66.12 77.17,66.11 77.14,66.11 
						76.74,66.11 74.95,66.08 73.15,66.06 72.49,66.05 70.05,66.09 70.03,66.09 70.03,66.06 70.03,66.04 71.13,66.03 71.88,66.01 
						72.49,66 73.15,66.01 73.41,66.01 74.12,66.02 74.95,66.03 75.47,66.04 76.74,66.06 77.41,66.07 					"/>
					<polygon class="st16" points="79.86,66.15 79.86,66.16 79.86,66.2 79.85,66.2 77.41,66.16 76.74,66.17 76.45,66.17 
						76.12,66.18 75.58,66.19 74.96,66.2 74.94,66.2 73.8,66.19 73.48,66.19 73.15,66.19 72.5,66.18 70.05,66.16 70.05,66.16 
						70.05,66.13 70.05,66.11 70.05,66.11 72.5,66.13 73.15,66.14 73.48,66.14 73.8,66.14 74.95,66.15 75.58,66.14 76.12,66.13 
						76.45,66.12 76.74,66.12 77.14,66.11 77.17,66.11 77.41,66.11 77.63,66.11 77.65,66.11 					"/>
					<polygon class="st16" points="79.85,66.31 77.4,66.29 74.95,66.24 72.51,66.31 70.06,66.24 70.06,66.19 72.51,66.26 
						74.95,66.2 77.4,66.24 79.85,66.26 					"/>
					<polygon class="st16" points="79.84,66.33 79.84,66.38 79.82,66.38 77.39,66.34 76.74,66.34 76.45,66.35 76.12,66.35 
						75.58,66.36 74.95,66.36 73.8,66.35 73.48,66.35 73.15,66.34 72.51,66.33 70.06,66.38 70.06,66.34 70.06,66.33 70.09,66.33 
						72.04,66.29 72.51,66.28 73.08,66.29 73.15,66.29 73.48,66.3 73.8,66.3 74.95,66.32 75.58,66.31 76.12,66.3 76.45,66.3 
						76.74,66.29 77.23,66.29 77.39,66.29 77.91,66.3 					"/>
					<polygon class="st16" points="79.84,66.41 79.84,66.46 79.83,66.46 78.01,66.48 77.39,66.49 77.02,66.48 76.74,66.47 
						76.45,66.47 76.12,66.46 75.58,66.45 74.94,66.44 73.8,66.45 73.48,66.45 73.15,66.46 72.5,66.46 70.06,66.49 70.05,66.49 
						70.05,66.44 70.06,66.44 72.49,66.41 73.15,66.41 73.48,66.4 73.8,66.4 74.94,66.39 75.58,66.4 76.12,66.41 76.45,66.42 
						76.74,66.43 77.39,66.44 					"/>
					<polygon class="st16" points="79.86,66.51 79.86,66.56 79.85,66.56 77.4,66.52 76.74,66.54 76.45,66.54 76.12,66.55 
						75.58,66.56 74.94,66.58 73.8,66.58 73.48,66.58 73.15,66.58 72.49,66.59 70.25,66.57 70.03,66.57 70.03,66.52 70.03,66.52 
						70.06,66.52 72.49,66.54 73.15,66.53 73.48,66.53 73.8,66.53 74.94,66.52 75.58,66.51 76.12,66.5 76.45,66.49 76.74,66.49 
						77.02,66.48 77.4,66.47 78.01,66.48 79.83,66.51 					"/>
					<polygon class="st16" points="79.86,66.6 79.86,66.65 77.4,66.62 76.74,66.63 76.45,66.63 76.12,66.64 75.58,66.64 
						74.94,66.65 73.8,66.63 73.48,66.63 73.15,66.63 72.48,66.62 70.03,66.62 70.03,66.57 70.25,66.57 72.48,66.57 73.15,66.58 
						73.47,66.58 73.48,66.58 73.8,66.59 74.94,66.6 75.58,66.6 76.12,66.59 76.45,66.58 76.74,66.58 77.4,66.57 79.86,66.6 					
						"/>
					<polygon class="st16" points="79.85,66.71 79.85,66.76 79.82,66.76 79.17,66.75 77.39,66.74 76.74,66.73 76.45,66.73 
						76.12,66.73 75.58,66.72 74.93,66.71 73.8,66.74 73.48,66.75 73.15,66.76 72.48,66.78 70.03,66.71 70.02,66.71 70.02,66.69 
						70.03,66.66 72.48,66.73 73.15,66.71 73.48,66.7 73.8,66.69 74.93,66.66 75.58,66.67 76.12,66.67 76.45,66.68 76.74,66.68 
						77.39,66.69 79.84,66.71 					"/>
					<polygon class="st16" points="79.83,66.75 79.83,66.8 79.8,66.8 77.38,66.82 76.74,66.82 76.12,66.82 74.93,66.81 73.8,66.82 
						73.48,66.82 73.15,66.82 70.03,66.84 70.03,66.79 70.04,66.79 72.48,66.78 73.15,66.77 73.48,66.77 73.8,66.77 74.93,66.76 
						75.58,66.77 76.74,66.77 77.38,66.77 79.17,66.75 					"/>
					<polygon class="st16" points="72.48,66.95 70.04,66.89 70.04,66.84 72.48,66.9 74.92,66.86 77.37,66.84 79.81,66.88 
						79.81,66.93 77.37,66.89 74.92,66.9 					"/>
					<polygon class="st16" points="77.38,67.05 74.93,66.99 72.49,67 70.05,66.98 70.05,66.93 72.49,66.95 74.93,66.94 77.38,67 
						79.82,66.97 79.82,67.02 					"/>
					<polygon class="st16" points="72.5,67.13 70.05,67.12 70.05,67.07 72.5,67.08 74.95,67.07 77.4,67.07 79.84,67.04 79.84,67.09 
						77.4,67.12 74.95,67.12 					"/>
					<polygon class="st16" points="77.41,67.23 74.96,67.22 72.5,67.17 70.05,67.21 70.05,67.16 72.5,67.12 74.96,67.17 
						77.41,67.18 79.87,67.12 79.87,67.17 					"/>
					<polygon class="st16" points="70.04,67.33 70.04,67.28 72.49,67.21 74.95,67.26 77.4,67.22 79.85,67.21 79.85,67.26 
						77.4,67.27 74.95,67.31 72.49,67.26 					"/>
					<polygon class="st16" points="79.84,67.42 77.39,67.41 74.93,67.41 72.48,67.4 70.03,67.38 70.03,67.33 72.48,67.35 
						74.93,67.36 77.39,67.36 79.84,67.37 					"/>
					<polygon class="st16" points="77.38,67.5 72.48,67.48 70.03,67.44 70.03,67.39 72.48,67.43 77.38,67.45 79.83,67.41 
						79.83,67.46 					"/>
					<polygon class="st16" points="72.5,67.59 70.05,67.54 70.05,67.49 72.5,67.54 74.94,67.53 77.39,67.47 79.84,67.48 
						79.84,67.53 77.39,67.52 74.95,67.58 					"/>
					<polygon class="st16" points="77.41,67.68 74.96,67.64 72.51,67.66 70.06,67.66 70.06,67.61 72.51,67.61 74.96,67.59 
						77.41,67.63 79.86,67.61 79.86,67.66 					"/>
					<polygon class="st16" points="79.87,67.77 77.42,67.71 74.96,67.74 72.51,67.76 70.06,67.76 70.06,67.71 72.51,67.71 
						74.96,67.69 77.42,67.66 79.87,67.72 					"/>
					<polygon class="st16" points="79.87,67.82 79.87,67.85 79.87,67.87 79.45,67.85 79.44,67.85 77.41,67.8 76.74,67.82 
						76.45,67.83 76.12,67.84 75.34,67.86 75.34,67.86 74.95,67.87 73.8,67.87 73.48,67.86 73.15,67.86 72.18,67.86 72.11,67.86 
						70.04,67.84 70.04,67.84 70.04,67.79 73.15,67.81 73.48,67.81 73.8,67.82 74.95,67.82 76.12,67.79 76.45,67.78 76.74,67.77 
						77.41,67.75 79.87,67.82 					"/>
				</g>
				<polygon class="st6" points="76.74,66.05 76.74,67.89 76.45,67.88 76.12,67.88 75.34,67.86 75.34,67.86 74.95,67.87 73.8,67.87 
					73.48,67.86 73.15,67.86 73.15,66.01 73.48,66.01 73.8,66.02 74.12,66.02 74.95,66.03 75.47,66.04 76.12,66.04 76.45,66.04 				
					"/>
				<polygon class="st24" points="73.8,66.02 73.8,67.87 73.48,67.86 73.48,66.01 				"/>
				<polygon class="st24" points="76.45,66.04 76.45,67.88 76.12,67.88 76.12,66.04 				"/>
			</g>
			<g>
				<g>
					<polygon class="st23" points="79.89,71.51 79.91,71.51 79.89,71.52 79.88,71.52 78.78,71.54 77.43,71.57 76.76,71.56 
						76.44,71.56 76.11,71.55 75.8,71.55 74.97,71.53 74.44,71.53 73.8,71.53 73.47,71.52 73.17,71.52 72.51,71.52 70.05,71.55 
						70.05,71.55 70.04,71.46 70.02,71.41 70.05,71.41 70.07,71.41 70.06,71.37 70.09,71.32 70.05,71.3 70.06,71.25 70.07,71.23 
						70.07,71.23 70.11,71.23 70.09,71.19 70.09,71.19 70.09,71.19 70.11,71.17 70.07,71.16 70.04,71.15 70.07,71.14 70.08,71.13 
						70.08,71.11 70.09,71.06 70.09,71.05 70.07,71.04 70.09,71.03 70.07,71.01 70.07,71.01 70.04,70.99 70.05,70.96 70.05,70.96 
						70.06,70.95 70.05,70.94 70.02,70.91 70.09,70.86 70.08,70.86 70.07,70.86 70.07,70.86 70.04,70.85 70.07,70.83 70.09,70.82 
						70.09,70.81 70.09,70.81 70.11,70.77 70.11,70.77 70.11,70.69 70.11,70.68 70.1,70.65 70.1,70.64 70.1,70.64 70.11,70.63 
						70.09,70.6 70.1,70.6 70.1,70.6 70.12,70.57 70.11,70.57 70.11,70.55 70.11,70.55 70.1,70.53 70.1,70.52 70.08,70.49 
						70.07,70.49 70.07,70.49 70.06,70.49 70.08,70.45 70.08,70.44 70.05,70.43 70.05,70.43 70.01,70.41 70.02,70.39 70.03,70.3 
						70.04,70.3 70.09,70.21 70.07,70.2 70.07,70.2 70.07,70.16 70.07,70.15 70.07,70.15 70.06,70.12 70.08,70.12 70.09,70.11 
						70.11,70.11 70.1,70.11 70.09,70.1 70.06,70.09 70.04,70.05 70.05,70.03 70.04,69.96 70.05,69.94 70.05,69.94 70.05,69.93 
						70.05,69.89 70.05,69.85 70.05,69.8 70.05,69.72 70.46,69.71 70.47,69.71 71.25,69.7 71.27,69.7 71.57,69.69 71.9,69.68 
						72.51,69.67 73.17,69.68 73.47,69.69 73.76,69.69 73.8,69.69 74.58,69.71 74.58,69.71 74.96,69.71 77.43,69.71 77.74,69.71 
						77.8,69.71 79.89,69.71 79.87,69.72 79.85,69.75 79.88,69.77 79.9,69.78 79.87,69.84 79.86,69.84 79.83,69.84 79.81,69.85 
						79.82,69.86 79.82,69.86 79.86,69.89 79.87,69.9 79.85,69.93 79.85,69.94 79.87,69.94 79.89,70.03 79.87,70.03 79.87,70.03 
						79.83,70.04 79.86,70.04 79.87,70.06 79.87,70.07 79.88,70.12 79.88,70.13 79.88,70.14 79.88,70.14 79.89,70.18 79.88,70.19 
						79.88,70.19 79.86,70.21 79.88,70.24 79.88,70.24 79.87,70.29 79.85,70.36 79.85,70.39 79.87,70.4 79.87,70.4 79.87,70.4 
						79.88,70.41 79.86,70.46 79.85,70.49 79.84,70.5 79.87,70.58 79.86,70.59 79.84,70.6 79.86,70.6 79.85,70.64 79.84,70.68 
						79.91,70.68 79.88,70.68 79.85,70.69 79.88,70.72 79.89,70.73 79.89,70.77 79.89,70.77 79.88,70.78 79.87,70.78 79.89,70.86 
						79.89,70.87 79.89,70.87 79.92,71.03 79.92,71.05 79.89,71.05 79.85,71.04 79.85,71.05 79.86,71.08 79.87,71.13 79.85,71.13 
						79.85,71.13 79.86,71.23 79.85,71.23 79.82,71.23 79.82,71.24 79.82,71.24 79.83,71.26 79.85,71.32 79.84,71.33 79.84,71.33 
						79.83,71.33 79.85,71.36 79.85,71.36 79.9,71.4 79.87,71.41 79.87,71.43 79.87,71.46 79.86,71.47 79.86,71.48 79.86,71.51 
						79.88,71.51 					"/>
					<polygon class="st16" points="70.05,71.54 70.05,71.5 72.26,71.46 72.28,71.46 72.5,71.45 72.75,71.46 72.77,71.46 
						73.17,71.46 74.96,71.49 76.76,71.51 77.42,71.51 79.86,71.48 79.88,71.48 79.88,71.51 79.88,71.52 78.78,71.54 78.04,71.55 
						77.42,71.56 76.76,71.56 76.5,71.55 75.8,71.55 74.96,71.54 74.44,71.53 73.17,71.51 72.5,71.5 					"/>
					<polygon class="st16" points="70.05,71.37 72.51,71.41 74.96,71.37 77.41,71.38 79.87,71.41 79.87,71.46 77.41,71.43 
						74.96,71.42 72.51,71.46 70.05,71.42 					"/>
					<polygon class="st16" points="70.06,71.25 72.51,71.28 74.96,71.32 77.41,71.26 79.85,71.33 79.85,71.38 77.41,71.31 
						74.96,71.37 72.51,71.33 70.06,71.3 					"/>
					<polygon class="st16" points="70.08,71.19 72.52,71.23 74.96,71.2 77.41,71.23 79.85,71.19 79.85,71.24 77.41,71.28 
						74.96,71.25 72.52,71.28 70.07,71.24 					"/>
					<polygon class="st16" points="72.52,71.08 74.97,71.13 77.42,71.11 79.87,71.08 79.87,71.13 77.42,71.15 74.97,71.18 
						72.52,71.13 70.07,71.16 70.07,71.11 					"/>
					<polygon class="st16" points="77.43,70.98 79.89,71 79.89,71.05 77.43,71.03 74.97,71.04 72.51,71.1 70.06,71.06 70.06,71.01 
						72.51,71.05 74.97,70.99 					"/>
					<polygon class="st16" points="70.05,70.91 72.51,70.95 74.97,70.92 77.43,70.95 79.89,70.95 79.89,71 77.43,71 74.97,70.97 
						72.51,71 70.05,70.96 					"/>
					<polygon class="st16" points="77.43,70.79 79.89,70.86 79.89,70.91 77.43,70.84 74.98,70.91 72.52,70.88 70.07,70.86 
						70.07,70.81 72.52,70.83 74.98,70.86 					"/>
					<polygon class="st16" points="79.89,70.73 79.89,70.78 74.99,70.8 72.54,70.8 70.08,70.82 70.08,70.77 72.54,70.75 
						74.99,70.75 					"/>
					<polygon class="st16" points="77.43,70.61 79.88,70.68 79.88,70.73 77.43,70.66 74.99,70.71 72.55,70.72 70.1,70.69 
						70.1,70.64 72.55,70.67 74.99,70.66 					"/>
					<polygon class="st16" points="72.54,70.52 74.98,70.58 77.42,70.56 79.87,70.59 79.87,70.64 77.42,70.61 74.98,70.63 
						72.54,70.57 70.1,70.6 70.1,70.55 					"/>
					<polygon class="st16" points="77.41,70.44 79.86,70.45 79.86,70.5 77.41,70.49 74.97,70.5 72.52,70.5 70.07,70.53 70.07,70.48 
						72.52,70.45 74.97,70.45 					"/>
					<polygon class="st16" points="79.87,70.36 79.87,70.4 77.59,70.44 77.41,70.44 77.26,70.44 76.76,70.43 76.44,70.42 
						76.11,70.42 74.96,70.39 74.96,70.39 73.8,70.39 73.47,70.39 73.17,70.39 72.5,70.38 70.08,70.45 70.05,70.45 70.05,70.4 
						71.92,70.35 72.5,70.34 73.15,70.34 73.17,70.34 73.47,70.34 73.8,70.34 74.96,70.34 74.96,70.34 76.11,70.37 76.44,70.37 
						76.76,70.38 77.41,70.39 79.85,70.36 					"/>
					<polygon class="st16" points="79.88,70.24 79.88,70.29 77.42,70.35 74.97,70.31 72.51,70.35 70.06,70.36 70.06,70.31 
						72.51,70.3 74.97,70.26 77.42,70.3 					"/>
					<polygon class="st16" points="79.89,70.19 79.89,70.24 79.88,70.24 77.43,70.22 76.76,70.21 76.44,70.21 76.11,70.21 
						74.98,70.2 74.96,70.2 73.8,70.21 73.47,70.21 73.17,70.21 72.53,70.21 70.07,70.2 70.07,70.15 70.18,70.15 72.53,70.16 
						73.17,70.16 73.47,70.16 73.8,70.16 74.96,70.16 74.98,70.16 76.11,70.16 76.44,70.16 76.76,70.16 77.43,70.17 79.88,70.19 
											"/>
					<polygon class="st16" points="79.88,70.13 79.88,70.14 79.88,70.18 77.43,70.14 76.76,70.14 76.44,70.13 76.11,70.13 
						74.96,70.13 73.8,70.12 73.47,70.12 73.17,70.12 72.54,70.12 70.18,70.15 70.09,70.16 70.09,70.11 70.1,70.11 71.15,70.09 
						72.54,70.07 73.17,70.07 73.42,70.07 73.8,70.07 74.96,70.08 76.11,70.08 76.44,70.08 76.76,70.08 77.43,70.09 79.88,70.13 
											"/>
					<polygon class="st16" points="77.42,69.98 79.87,70.03 79.87,70.08 77.42,70.03 74.97,70.04 72.52,70.09 70.07,70.09 
						70.07,70.04 72.52,70.04 74.97,69.99 					"/>
					<polygon class="st16" points="72.5,69.89 74.95,69.93 77.4,69.91 79.85,69.91 79.85,69.96 77.4,69.95 74.95,69.98 72.5,69.94 
						70.05,69.96 70.05,69.91 					"/>
					<polygon class="st16" points="79.86,69.81 79.86,69.86 79.82,69.86 77.4,69.86 76.76,69.87 76.44,69.87 76.11,69.87 
						74.96,69.88 74.95,69.88 73.8,69.89 73.47,69.9 73.18,69.9 73.17,69.9 72.5,69.91 71.87,69.89 70.05,69.85 70.05,69.8 
						70.05,69.8 72.5,69.86 73.17,69.85 73.47,69.84 73.8,69.84 74.95,69.83 74.96,69.83 76.11,69.82 76.44,69.82 76.76,69.82 
						77.4,69.81 					"/>
					<polygon class="st16" points="79.88,69.72 79.88,69.77 76.76,69.75 76.44,69.75 76.11,69.75 74.96,69.74 74.96,69.74 
						73.8,69.78 73.47,69.79 73.17,69.8 72.5,69.82 70.05,69.75 70.05,69.75 70.05,69.73 70.05,69.7 70.46,69.71 70.47,69.71 
						71.25,69.73 71.57,69.74 71.9,69.75 72.09,69.76 72.5,69.77 72.93,69.76 73.17,69.75 73.47,69.74 73.8,69.73 74.58,69.71 
						74.58,69.71 74.96,69.69 75.02,69.69 76.11,69.7 76.44,69.7 76.76,69.71 77.74,69.71 77.8,69.71 79.87,69.72 					"/>
				</g>
				<polygon class="st6" points="73.17,71.52 73.17,69.68 73.47,69.69 73.79,69.69 74.58,69.71 74.58,69.71 74.96,69.69 76.11,69.7 
					76.44,69.7 76.76,69.71 76.76,71.56 76.44,71.56 76.11,71.55 75.8,71.55 74.96,71.54 74.44,71.53 73.79,71.52 73.47,71.52 				
					"/>
				<polygon class="st24" points="76.11,71.55 76.11,69.7 76.44,69.7 76.44,71.56 				"/>
				<polygon class="st24" points="73.47,71.52 73.47,69.69 73.79,69.69 73.79,71.52 				"/>
			</g>
			<g>
				<g>
					<polygon class="st23" points="78.12,69.73 78.14,69.73 78.12,69.74 78.11,69.74 78.11,69.74 78.06,69.74 77.01,69.77 
						76.89,69.77 76.56,69.78 76.26,69.79 75.65,69.8 74.99,69.79 74.66,69.78 74.34,69.78 74.02,69.77 73.19,69.76 73.14,69.76 
						72.67,69.75 72.55,69.75 72.55,69.75 72.02,69.75 71.69,69.75 71.45,69.75 71.4,69.75 70.8,69.74 70.73,69.74 70.02,69.75 
						69.46,69.76 69.43,69.76 69.13,69.77 68.8,69.77 68.27,69.78 68.27,69.77 68.27,69.75 68.27,69.74 68.27,69.69 68.25,69.64 
						68.28,69.64 68.29,69.63 68.29,69.6 68.31,69.55 68.27,69.53 68.28,69.48 68.29,69.45 68.3,69.45 68.34,69.45 68.31,69.41 
						68.32,69.41 68.33,69.4 68.29,69.38 68.27,69.38 68.3,69.36 68.3,69.36 68.3,69.36 68.31,69.33 68.31,69.29 68.31,69.28 
						68.29,69.27 68.31,69.25 68.29,69.23 68.29,69.23 68.27,69.21 68.28,69.19 68.29,69.18 68.28,69.17 68.25,69.13 68.32,69.09 
						68.3,69.09 68.29,69.08 68.27,69.08 68.29,69.06 68.31,69.04 68.32,69.04 68.32,69.04 68.34,69 68.34,69 68.34,68.91 
						68.34,68.9 68.33,68.88 68.33,68.87 68.32,68.86 68.34,68.86 68.32,68.83 68.32,68.82 68.35,68.8 68.34,68.8 68.34,68.78 
						68.33,68.75 68.33,68.75 68.31,68.71 68.3,68.71 68.29,68.72 68.31,68.67 68.31,68.67 68.27,68.65 68.24,68.63 68.25,68.62 
						68.26,68.53 68.27,68.53 68.32,68.44 68.29,68.43 68.3,68.39 68.3,68.38 68.3,68.38 68.29,68.34 68.31,68.34 68.31,68.34 
						68.31,68.34 68.34,68.34 68.33,68.33 68.32,68.33 68.32,68.33 68.29,68.32 68.26,68.27 68.27,68.26 68.27,68.18 68.28,68.16 
						68.28,68.16 68.28,68.15 68.27,68.12 68.27,67.95 68.69,67.94 68.7,67.94 70.73,67.9 71.4,67.91 71.69,67.91 72.02,67.92 
						72.8,67.93 72.8,67.93 73.19,67.94 75.65,67.94 75.96,67.94 76.03,67.94 78.11,67.93 78.08,67.97 78.1,67.99 78.12,68.01 
						78.09,68.06 78.08,68.06 78.06,68.06 78.04,68.07 78.05,68.08 78.08,68.11 78.09,68.13 78.08,68.16 78.08,68.16 78.1,68.16 
						78.12,68.25 78.09,68.26 78.09,68.26 78.06,68.27 78.09,68.26 78.09,68.29 78.09,68.3 78.11,68.35 78.1,68.35 78.11,68.36 
						78.11,68.37 78.12,68.4 78.11,68.41 78.11,68.41 78.08,68.43 78.1,68.46 78.1,68.46 78.1,68.47 78.09,68.52 78.08,68.58 
						78.07,68.62 78.09,68.63 78.09,68.63 78.11,68.63 78.09,68.69 78.08,68.71 78.06,68.73 78.1,68.81 78.09,68.81 78.07,68.82 
						78.09,68.82 78.08,68.86 78.07,68.9 78.13,68.9 78.11,68.91 78.1,68.91 78.07,68.91 78.1,68.95 78.11,68.96 78.12,68.99 
						78.11,68.99 78.1,69.01 78.11,69.08 78.11,69.09 78.12,69.1 78.14,69.25 78.15,69.27 78.11,69.27 78.11,69.27 78.08,69.27 
						78.08,69.27 78.08,69.31 78.08,69.31 78.09,69.36 78.08,69.36 78.08,69.36 78.09,69.45 78.08,69.45 78.04,69.46 78.05,69.46 
						78.05,69.46 78.05,69.48 78.08,69.54 78.06,69.55 78.06,69.56 78.08,69.58 78.13,69.63 78.09,69.64 78.09,69.66 78.09,69.68 
						78.09,69.7 78.09,69.72 78.08,69.73 78.11,69.73 					"/>
					<polygon class="st16" points="78.11,69.72 78.11,69.75 78.06,69.75 78.06,69.75 77.01,69.77 76.89,69.77 76.56,69.77 
						76.26,69.78 76.02,69.78 75.65,69.79 75.18,69.79 74.99,69.78 74.73,69.78 74.66,69.78 74.34,69.77 74.02,69.77 73.19,69.76 
						73.14,69.76 72.67,69.75 72.55,69.75 72.55,69.75 72.02,69.74 71.81,69.74 71.69,69.74 71.42,69.73 71.4,69.73 70.73,69.73 
						69.33,69.75 69.13,69.75 69.01,69.76 68.8,69.76 68.27,69.77 68.27,69.72 70.09,69.69 70.45,69.68 70.51,69.68 70.73,69.68 
						70.97,69.68 71.04,69.68 71.4,69.69 71.52,69.69 71.69,69.69 72.02,69.69 73.19,69.71 74.34,69.72 74.37,69.73 74.66,69.73 
						74.99,69.73 75.65,69.74 76.26,69.73 76.56,69.72 76.85,69.72 78.06,69.7 78.11,69.7 					"/>
					<polygon class="st16" points="68.28,69.6 70.73,69.64 73.19,69.6 75.64,69.61 78.09,69.63 78.09,69.68 75.64,69.66 
						73.19,69.65 70.73,69.68 68.28,69.64 					"/>
					<polygon class="st16" points="68.29,69.48 70.74,69.5 73.19,69.55 75.63,69.49 78.08,69.55 78.08,69.6 75.63,69.54 73.19,69.6 
						70.74,69.55 68.29,69.53 					"/>
					<polygon class="st16" points="68.3,69.41 70.75,69.46 73.19,69.43 75.63,69.46 78.08,69.41 78.08,69.46 75.63,69.51 
						73.19,69.48 70.75,69.51 68.3,69.46 					"/>
					<polygon class="st16" points="70.75,69.31 73.2,69.36 75.65,69.33 78.09,69.31 78.1,69.36 75.65,69.38 73.2,69.41 70.75,69.35 
						68.3,69.38 68.3,69.33 					"/>
					<polygon class="st16" points="75.66,69.21 78.11,69.22 78.11,69.27 75.66,69.26 73.2,69.27 70.74,69.32 68.28,69.28 
						68.28,69.23 70.74,69.27 73.2,69.22 					"/>
					<polygon class="st16" points="68.28,69.14 70.74,69.17 73.2,69.14 75.66,69.18 78.12,69.17 78.12,69.22 75.66,69.23 
						73.2,69.19 70.74,69.22 68.28,69.19 					"/>
					<polygon class="st16" points="75.66,69.02 78.12,69.08 78.11,69.13 75.66,69.07 73.21,69.13 70.75,69.1 68.29,69.09 
						68.29,69.04 70.75,69.05 73.21,69.08 					"/>
					<polygon class="st16" points="78.11,68.96 78.11,69.01 73.21,69.03 70.76,69.02 68.31,69.05 68.31,69 70.76,68.98 73.21,68.98 
											"/>
					<polygon class="st16" points="75.66,68.84 78.1,68.9 78.1,68.95 75.66,68.89 73.22,68.94 70.77,68.95 68.33,68.91 68.33,68.87 
						70.77,68.9 73.22,68.89 					"/>
					<polygon class="st16" points="70.76,68.75 73.21,68.81 75.65,68.79 78.09,68.81 78.09,68.86 75.65,68.84 73.21,68.86 
						70.76,68.8 68.32,68.83 68.32,68.78 					"/>
					<polygon class="st16" points="75.64,68.67 78.09,68.68 78.09,68.73 75.64,68.71 73.19,68.72 70.74,68.72 68.3,68.75 68.3,68.7 
						70.74,68.67 73.19,68.67 					"/>
					<polygon class="st16" points="70.73,68.56 73.18,68.57 75.64,68.62 78.09,68.58 78.09,68.63 75.64,68.67 73.18,68.62 
						70.73,68.61 68.27,68.67 68.27,68.62 					"/>
					<polygon class="st16" points="78.1,68.47 78.1,68.52 75.65,68.58 73.19,68.53 70.74,68.57 68.29,68.58 68.29,68.53 
						70.74,68.52 73.19,68.48 75.65,68.53 					"/>
					<polygon class="st16" points="68.3,68.38 70.75,68.39 73.21,68.38 75.66,68.39 78.11,68.41 78.11,68.46 75.66,68.44 
						73.21,68.43 70.75,68.44 68.3,68.43 					"/>
					<polygon class="st16" points="70.76,68.3 75.66,68.31 78.11,68.35 78.11,68.4 75.66,68.36 70.76,68.34 68.31,68.38 
						68.31,68.33 					"/>
					<polygon class="st16" points="75.64,68.2 78.09,68.26 78.09,68.31 75.64,68.25 73.2,68.26 70.75,68.32 68.3,68.31 68.3,68.26 
						70.75,68.27 73.2,68.21 					"/>
					<polygon class="st16" points="70.73,68.11 73.18,68.16 75.63,68.13 78.08,68.13 78.08,68.18 75.63,68.18 73.18,68.21 
						70.73,68.16 68.28,68.18 68.28,68.13 					"/>
					<polygon class="st16" points="68.27,68.02 70.73,68.08 73.18,68.06 75.63,68.04 78.08,68.03 78.08,68.08 75.63,68.09 
						73.18,68.11 70.72,68.13 68.27,68.07 					"/>
					<polygon class="st16" points="68.27,67.98 68.27,67.95 68.27,67.93 68.69,67.94 68.7,67.94 70.73,67.99 71.4,67.97 
						71.69,67.97 72.02,67.95 72.8,67.93 72.8,67.93 73.19,67.92 74.34,67.93 74.66,67.93 74.99,67.93 75.96,67.94 76.03,67.94 
						78.1,67.95 78.1,67.95 78.1,68 74.99,67.98 74.66,67.98 74.34,67.98 73.19,67.97 72.02,68 71.69,68.01 71.4,68.02 70.73,68.04 
						68.27,67.98 					"/>
				</g>
				<polygon class="st6" points="74.99,67.93 74.99,69.79 74.66,69.78 74.34,69.78 74.02,69.77 73.19,69.76 73.14,69.76 
					72.67,69.75 72.55,69.75 72.55,69.75 72.02,69.75 71.69,69.75 71.45,69.75 71.4,69.75 71.4,67.91 71.69,67.91 72.02,67.92 
					72.8,67.93 72.8,67.93 73.19,67.92 74.34,67.93 74.66,67.93 				"/>
				<polygon class="st24" points="74.34,69.78 74.34,67.93 74.66,67.93 74.66,69.78 				"/>
				<polygon class="st24" points="71.69,69.75 71.69,67.91 72.02,67.92 72.02,69.75 				"/>
			</g>
		</g>
		<path class="st10" d="M52.91,55.6l-1.53,6.89l-0.3,6.27l4.22-1.13l1.17-4.85l2.42-8.05C57.26,55.24,55.19,55.49,52.91,55.6z"/>
		<path class="st2" d="M56.39,63.34l-0.94,0.01c-0.46,0-0.85,0.34-0.92,0.8l-0.25,1.6c-0.06,0.36,0.12,0.72,0.45,0.89l1.28,0.67
			c0.37,0.19,0.83,0.03,0.97-0.36c0.36-0.95,0.39-2.04,0.09-3.27L56.39,63.34z"/>
	</g>
</g>
</svg>
