<?xml version="1.0" encoding="utf-8"?>
<!-- Generator: Adobe Illustrator 25.2.3, SVG Export Plug-In . SVG Version: 6.00 Build 0)  -->
<svg version="1.1" id="Calque_19" xmlns="http://www.w3.org/2000/svg" xmlns:xlink="http://www.w3.org/1999/xlink" x="0px" y="0px"
	 viewBox="0 0 150 150" style="enable-background:new 0 0 150 150;" xml:space="preserve">
<style type="text/css">
	.st0{fill:#EBEBEC;}
	.st1{fill:#D8D8DA;}
	.st2{fill:#FFFFFF;}
	.st3{fill:#5B5B61;}
	.st4{fill:#5A5A5F;}
	.st5{fill:#59585E;}
	.st6{fill:#5C5B61;}
	.st7{fill:#EF7C54;}
	.st8{fill:#3B95D1;}
	.st9{fill:#DE6240;}
	.st10{fill:#D7D9DA;}
	.st11{fill:#FEFEFF;}
	.st12{fill:#FFFDFD;}
</style>
<g id="D0xWBe.tif">
	<g>
		<path class="st0" d="M84.2,125.62c-16.6,0-33.2,0-49.8,0c-0.11-0.55-0.44-0.88-0.99-0.99c0-33.21,0-66.42,0-99.63
			c0.47-0.06,0.73-0.32,0.79-0.79c16.86,0,33.73,0,50.59,0c0.68,0.98,0.6,2.09,0.6,3.2c-0.01,3.25,0.01,6.49,0.02,9.74
			c-0.46,0.02-0.92,0.06-1.38,0.06c-11.26,0-22.52,0-33.77,0c-0.39,0-0.79-0.01-1.18,0.04c-0.75,0.1-1.18,0.57-1.24,1.32
			c-0.06,0.74,0.3,1.25,1.02,1.49c0.45,0.15,0.91,0.12,1.37,0.12c11.32,0,22.65,0,33.97,0c0.39,0,0.79,0.03,1.18,0.05
			c0,3.8,0,7.6-0.01,11.4c-0.39,0.01-0.79,0.04-1.18,0.04c-11.32,0-22.64,0-33.95,0c-0.36,0-0.73-0.02-1.08,0.02
			c-0.79,0.1-1.26,0.56-1.32,1.35c-0.06,0.8,0.36,1.32,1.13,1.5c0.38,0.09,0.78,0.09,1.17,0.09c11.35,0,22.7,0,34.05,0.01
			c0.39,0,0.79,0.02,1.18,0.04c0,3.8,0,7.61,0,11.41c-0.39,0.01-0.79,0.03-1.18,0.03c-11.35,0-22.7,0-34.05,0
			c-0.33,0-0.66-0.02-0.99,0.02c-0.77,0.12-1.27,0.55-1.32,1.35c-0.05,0.86,0.43,1.36,1.23,1.54c0.35,0.08,0.72,0.05,1.08,0.05
			c11.25,0,22.5,0,33.75,0c0.49,0,0.99,0.02,1.48,0.03c0,18.1,0,36.2,0.02,54.3c0,0.88-0.27,1.53-1,1.99
			C84.34,125.48,84.27,125.55,84.2,125.62z M64.88,112.44c4.97,0,9.94,0,14.91,0c0.36,0,0.73,0.01,1.08-0.05
			c0.75-0.12,1.16-0.59,1.2-1.34c0.04-0.75-0.32-1.27-1.05-1.46c-0.35-0.09-0.71-0.11-1.07-0.11c-9.97-0.01-19.94-0.01-29.92,0
			c-0.36,0-0.73,0.02-1.07,0.1c-0.79,0.18-1.17,0.72-1.11,1.51c0.05,0.74,0.49,1.2,1.24,1.31c0.36,0.05,0.72,0.04,1.08,0.04
			C55.07,112.44,59.97,112.44,64.88,112.44z M64.94,97.98c4.97,0,9.94,0,14.91,0c0.36,0,0.73,0.03,1.08-0.05
			c0.67-0.15,1.09-0.59,1.14-1.3c0.05-0.71-0.26-1.2-0.92-1.47c-0.38-0.15-0.77-0.14-1.17-0.14c-10,0-20.01,0-30.01,0
			c-0.39,0-0.79-0.02-1.17,0.13c-0.7,0.28-1.04,0.8-0.95,1.54c0.08,0.7,0.51,1.13,1.2,1.25c0.32,0.06,0.66,0.04,0.98,0.04
			C55,97.98,59.97,97.98,64.94,97.98z M64.92,83.53c5,0,10,0,15,0c0.33,0,0.67,0.03,0.98-0.05c0.66-0.16,1.1-0.56,1.16-1.29
			c0.06-0.76-0.29-1.28-0.99-1.51c-0.37-0.12-0.78-0.12-1.17-0.12c-9.97-0.01-19.94,0-29.91,0c-0.39,0-0.79-0.04-1.17,0.11
			c-0.65,0.26-1.01,0.73-0.99,1.43c0.02,0.72,0.44,1.17,1.1,1.35c0.34,0.09,0.72,0.07,1.08,0.07
			C54.98,83.53,59.95,83.53,64.92,83.53z"/>
		<path class="st1" d="M85.38,51.63c0-3.8,0-7.6,0.01-11.4c1.64-0.01,3.28-0.02,4.93-0.05c1.14-0.02,1.76-0.52,1.82-1.39
			c0.06-0.96-0.54-1.56-1.7-1.59c-1.67-0.04-3.35-0.03-5.02-0.05c-0.01-3.25-0.02-6.49-0.02-9.74c0-1.11,0.08-2.22-0.6-3.2
			c6.85,0,13.7,0,20.55,0c0.79,0.67,0.99,1.54,0.99,2.54c-0.02,10.09-0.01,20.17,0,30.26c-0.2,0-0.39,0.02-0.59,0.01
			c-6.43-0.34-11.79,4.98-11.66,11.55c0.09,4.5,0.02,9.01,0.02,13.52c-0.99,0.01-1.97,0.03-2.96,0.03
			c-1.51,0.01-1.64,0.12-1.64,1.63c0,8.35,0,16.71,0,25.06c0,1.62,0.13,1.75,1.73,1.75c5.03,0.01,10.06,0.02,15.09,0.03
			c0,1.22,0,2.43,0,3.65c0,2.99,0.01,5.98,0,8.98c-0.01,1.48-0.58,2.18-1.8,2.18c-6.71,0-13.41,0-20.12-0.01
			c0.73-0.47,1-1.11,1-1.99c-0.02-18.1-0.02-36.2-0.02-54.3c1.64-0.01,3.29-0.01,4.93-0.04c1.17-0.02,1.82-0.56,1.82-1.49
			c0-0.92-0.65-1.46-1.82-1.47c-1.64-0.02-3.29-0.02-4.93-0.04c0-3.8,0-7.61,0-11.41c1.65-0.01,3.29-0.02,4.94-0.04
			c1.17-0.02,1.81-0.56,1.81-1.5c0-0.94-0.62-1.45-1.82-1.47C88.67,51.65,87.02,51.64,85.38,51.63z"/>
		<path class="st2" d="M84.41,125.41c6.71,0,13.41,0.01,20.12,0.01c1.22,0,1.79-0.7,1.8-2.18c0.01-2.99,0-5.98,0-8.98
			c0-1.22,0-2.43,0-3.65c1.39-0.02,2.78-0.03,4.17-0.05c2.9,0.01,5.79,0.02,8.69,0.03c1.62,0,1.82-0.2,1.82-1.82
			c0.01-4.48,0-8.95,0-13.43c0-3.88,0.01-7.77-0.01-11.65c-0.01-1.35-0.24-1.55-1.55-1.56c-1.02-0.01-2.04-0.02-3.06-0.04
			c0-4.53,0-9.07,0-13.6c0-2.18-0.48-4.23-1.63-6.1c-1.94-3.14-4.81-4.84-8.42-5.37c0-10.09-0.01-20.17,0-30.26
			c0-1-0.2-1.87-0.99-2.54c5.07,0,10.15,0.02,15.22-0.02c0.68,0,0.81,0.13,0.81,0.81c-0.02,31.56-0.02,63.12-0.02,94.68
			c0,1.75-0.03,3.49,0.02,5.24c0.02,0.59-0.12,0.71-0.71,0.71c-12.15-0.02-24.31-0.02-36.46-0.02
			C84.27,125.55,84.34,125.48,84.41,125.41z"/>
		<path class="st0" d="M33.41,124.64c0.55,0.11,0.88,0.44,0.99,0.99C33.56,125.8,33.23,125.47,33.41,124.64z"/>
		<path class="st0" d="M34.2,24.22c-0.06,0.47-0.32,0.73-0.79,0.79C33.26,24.33,33.52,24.07,34.2,24.22z"/>
		<path class="st3" d="M85.41,37.16c1.67,0.01,3.35,0.01,5.02,0.05c1.16,0.03,1.76,0.63,1.7,1.59c-0.06,0.87-0.68,1.37-1.82,1.39
			c-1.64,0.03-3.28,0.03-4.93,0.05c-0.39-0.02-0.79-0.05-1.18-0.05c-11.32,0-22.65,0-33.97,0c-0.46,0-0.92,0.03-1.37-0.12
			c-0.72-0.24-1.08-0.75-1.02-1.49c0.06-0.74,0.48-1.21,1.24-1.32c0.39-0.05,0.79-0.04,1.18-0.04c11.26,0,22.52,0,33.77,0
			C84.49,37.21,84.95,37.18,85.41,37.16z"/>
		<path class="st4" d="M85.38,51.63c1.65,0.01,3.29,0.02,4.94,0.04c1.2,0.01,1.82,0.52,1.82,1.47c0,0.93-0.64,1.48-1.81,1.5
			c-1.64,0.03-3.29,0.03-4.94,0.04c-0.39-0.01-0.79-0.04-1.18-0.04c-11.35,0-22.7,0-34.05-0.01c-0.39,0-0.8,0-1.17-0.09
			c-0.77-0.18-1.19-0.7-1.13-1.5c0.06-0.79,0.53-1.25,1.32-1.35c0.36-0.04,0.72-0.02,1.08-0.02c11.32,0,22.64,0,33.95,0
			C84.59,51.67,84.99,51.64,85.38,51.63z"/>
		<path class="st5" d="M85.38,66.08c1.64,0.01,3.29,0.02,4.93,0.04c1.17,0.01,1.82,0.55,1.82,1.47c0,0.93-0.65,1.47-1.82,1.49
			c-1.64,0.02-3.29,0.03-4.93,0.04c-0.49-0.01-0.99-0.03-1.48-0.03c-11.25,0-22.5,0-33.75,0c-0.36,0-0.73,0.03-1.08-0.05
			c-0.8-0.18-1.28-0.68-1.23-1.54c0.05-0.8,0.55-1.24,1.32-1.35c0.32-0.05,0.66-0.02,0.99-0.02c11.35,0,22.7,0,34.05,0
			C84.59,66.12,84.99,66.1,85.38,66.08z"/>
		<path class="st6" d="M64.88,112.44c-4.9,0-9.81,0-14.71,0c-0.36,0-0.73,0.01-1.08-0.04c-0.75-0.11-1.19-0.57-1.24-1.31
			c-0.06-0.79,0.32-1.33,1.11-1.51c0.35-0.08,0.72-0.1,1.07-0.1c9.97-0.01,19.94-0.01,29.92,0c0.36,0,0.73,0.03,1.07,0.11
			c0.74,0.19,1.09,0.71,1.05,1.46c-0.04,0.76-0.45,1.22-1.2,1.34c-0.35,0.06-0.72,0.05-1.08,0.05
			C74.82,112.44,69.85,112.44,64.88,112.44z"/>
		<path class="st4" d="M64.94,97.98c-4.97,0-9.94,0-14.91,0c-0.33,0-0.66,0.02-0.98-0.04c-0.69-0.13-1.12-0.55-1.2-1.25
			c-0.09-0.74,0.25-1.27,0.95-1.54c0.38-0.15,0.77-0.13,1.17-0.13c10,0,20.01,0,30.01,0c0.4,0,0.79-0.01,1.17,0.14
			c0.66,0.27,0.97,0.76,0.92,1.47c-0.05,0.72-0.46,1.15-1.14,1.3c-0.35,0.08-0.72,0.05-1.08,0.05
			C74.88,97.98,69.91,97.98,64.94,97.98z"/>
		<path class="st5" d="M64.92,83.53c-4.97,0-9.94,0-14.9,0c-0.36,0-0.74,0.02-1.08-0.07c-0.66-0.18-1.08-0.63-1.1-1.35
			c-0.02-0.71,0.33-1.18,0.99-1.43c0.38-0.15,0.78-0.11,1.17-0.11c9.97,0,19.94,0,29.91,0c0.39,0,0.8,0,1.17,0.12
			c0.71,0.22,1.05,0.75,0.99,1.51c-0.06,0.73-0.5,1.13-1.16,1.29c-0.31,0.08-0.65,0.05-0.98,0.05
			C74.92,83.53,69.92,83.53,64.92,83.53z"/>
		<path class="st7" d="M110.49,110.56c-1.39,0.02-2.78,0.03-4.17,0.05c-5.03-0.01-10.06-0.02-15.09-0.03c-1.6,0-1.73-0.13-1.73-1.75
			c0-8.35,0-16.71,0-25.06c0-1.51,0.13-1.62,1.64-1.63c0.99,0,1.97-0.02,2.96-0.03c0.99,0,1.98,0,2.97,0c3.09,0,6.17,0,9.26,0
			c1.32,0.02,2.64,0.04,3.96,0.06c1.19,0.58,1.81,1.41,1.8,2.85c-0.06,7.31-0.06,14.62,0.01,21.93
			C112.12,108.49,111.87,109.73,110.49,110.56z M108.36,96.11c-0.01-1.44-0.83-2.61-2.02-3.04c-1.26-0.46-2.61-0.1-3.49,0.92
			c-0.85,0.99-1.13,2.58-0.29,3.56c0.88,1.03,0.86,2.11,0.85,3.28c0,0.32,0.04,0.66,0.12,0.97c0.23,0.88,0.83,1.33,1.72,1.33
			c0.89-0.01,1.47-0.47,1.72-1.34c0.2-0.68,0.12-1.37,0.1-2.06c-0.02-0.68,0.07-1.25,0.6-1.77
			C108.21,97.44,108.39,96.72,108.36,96.11z"/>
		<path class="st8" d="M97.07,82.1c-0.99,0-1.98,0-2.97,0c0-4.51,0.07-9.01-0.02-13.52c-0.13-6.57,5.24-11.9,11.66-11.55
			c0.2,0.01,0.39,0,0.59-0.01c3.61,0.53,6.48,2.23,8.42,5.37c1.16,1.87,1.63,3.92,1.63,6.1c0,4.53,0,9.07,0,13.6
			c-0.99,0-1.99,0-2.98,0c-0.06-5.06,0.23-10.12-0.16-15.18c-0.26-3.39-3.5-6.5-6.91-6.78c-1.09-0.32-2.17-0.11-3.21,0.18
			c-3.78,1.05-6.05,4.19-6.07,8.35C97.05,73.14,97.07,77.62,97.07,82.1z"/>
		<path class="st9" d="M113.41,82.1c0.99,0,1.99,0,2.98,0c1.02,0.01,2.04,0.02,3.06,0.04c1.32,0.02,1.55,0.22,1.55,1.56
			c0.02,3.88,0.01,7.77,0.01,11.65c0,4.48,0.01,8.95,0,13.43c0,1.62-0.21,1.82-1.82,1.82c-2.9,0-5.79-0.02-8.69-0.03
			c1.38-0.83,1.62-2.08,1.61-3.61c-0.07-7.31-0.06-14.62-0.01-21.93c0.01-1.44-0.61-2.27-1.8-2.85
			C111.33,82.14,112.37,82.12,113.41,82.1z"/>
		<path class="st10" d="M97.07,82.1c0-4.48-0.01-8.96,0-13.44c0.02-4.16,2.29-7.3,6.07-8.35c1.04-0.29,2.12-0.5,3.21-0.18
			c0,7.32-0.01,14.65-0.01,21.97C103.24,82.11,100.15,82.1,97.07,82.1z"/>
		<path class="st11" d="M106.33,82.11c0-7.32,0.01-14.65,0.01-21.97c3.41,0.28,6.65,3.39,6.91,6.78c0.39,5.05,0.09,10.12,0.16,15.18
			c-1.04,0.02-2.08,0.05-3.11,0.07C108.97,82.15,107.65,82.13,106.33,82.11z"/>
		<path class="st12" d="M108.36,96.11c0.04,0.61-0.15,1.33-0.68,1.85c-0.53,0.52-0.62,1.09-0.6,1.77c0.02,0.69,0.09,1.38-0.1,2.06
			c-0.25,0.87-0.83,1.33-1.72,1.34c-0.89,0.01-1.5-0.45-1.72-1.33c-0.08-0.31-0.12-0.65-0.12-0.97c0.01-1.17,0.03-2.25-0.85-3.28
			c-0.84-0.98-0.56-2.57,0.29-3.56c0.88-1.02,2.23-1.38,3.49-0.92C107.53,93.5,108.34,94.67,108.36,96.11z"/>
	</g>
</g>
</svg>
