<?xml version="1.0" encoding="utf-8"?>
<!-- Generator: Adobe Illustrator 25.2.3, SVG Export Plug-In . SVG Version: 6.00 Build 0)  -->
<svg version="1.1" id="Calque_8" xmlns="http://www.w3.org/2000/svg" xmlns:xlink="http://www.w3.org/1999/xlink" x="0px" y="0px"
	 viewBox="0 0 150 150" style="enable-background:new 0 0 150 150;" xml:space="preserve">
<style type="text/css">
	.st0{fill:#6178BA;}
	.st1{fill:#47518D;}
	.st2{fill:#EC6526;}
	.st3{fill:#48518D;}
	.st4{fill:#F7A524;}
	.st5{fill:#EC6727;}
	.st6{fill:#FDCC11;}
	.st7{fill:#F7A424;}
	.st8{fill:#FFFFFF;}
</style>
<g>
	<g id="RN6G1u.tif">
		<g>
			<path class="st0" d="M25.13,43.93c0-1.51-0.2-3.06,0.03-4.54c0.4-2.53,1.9-4.32,4.33-5.29c0.31-0.12,0.71-0.07,0.93-0.4
				c28.21,0,56.43,0,84.64,0c0.08,0.06,0.16,0.16,0.25,0.18c2.84,0.72,4.56,2.55,5.17,5.37c0.33,1.52,0.06,3.09,0.13,4.64
				c0,0-0.01,0.07-0.01,0.07c-0.39-0.01-0.78-0.03-1.17-0.03C88,43.93,56.57,43.93,25.13,43.93z"/>
			<path class="st1" d="M127.43,96.57c-0.34,0.17-0.3,0.53-0.4,0.81c-1.02,2.71-3.44,4.47-6.32,4.51c-1.87,0.03-3.75-0.01-5.62-0.02
				c0.05-0.04,0.1-0.11,0.17-0.13c3.24-0.62,5.42-3.86,5.39-7.07c-0.09-11.22-0.03-22.44-0.03-33.66c2.27-0.01,4.54-0.02,6.82-0.04
				C127.43,72.84,127.43,84.71,127.43,96.57z"/>
			<path class="st2" d="M127.43,60.98c-2.27,0.01-4.54,0.02-6.82,0.04c0,0-0.01-0.07-0.01-0.07c0-5.66,0-11.32,0-16.98
				c0,0,0.01-0.07,0.01-0.07c2.27,0.01,4.55,0.02,6.82,0.04C127.43,49.62,127.43,55.3,127.43,60.98z"/>
			<path class="st3" d="M127.43,43.93c-2.27-0.01-4.55-0.02-6.82-0.04c-0.07-1.55,0.2-3.12-0.13-4.64
				c-0.61-2.82-2.33-4.66-5.17-5.37c-0.09-0.02-0.17-0.12-0.25-0.18c2.27,0,4.55,0,6.82,0c1.7,0.59,3.25,1.38,4.32,2.93
				c0.56,0.81,0.78,1.76,1.22,2.62C127.43,40.81,127.43,42.37,127.43,43.93z"/>
			<path class="st0" d="M120.62,61.02c0,11.22-0.06,22.44,0.03,33.66c0.03,3.21-2.15,6.45-5.39,7.07c-0.06,0.01-0.11,0.08-0.17,0.13
				c-7.24,0.01-14.49,0.02-21.73,0.03c-0.01-0.18-0.03-0.35-0.04-0.53c-0.45-8.06-4.25-13.99-11.36-17.79
				c-1.79-0.96-3.75-1.44-5.7-1.93c0-2.06,0.04-4.12-0.01-6.17c-0.02-0.72,0.22-0.89,0.89-0.87c1.49,0.05,2.98,0,4.47,0.02
				c0.63,0.01,1.13-0.16,1.39-0.76c0.23-0.55,0.04-1.04-0.37-1.45c-2.34-2.33-4.63-4.71-7.03-6.97c-1.66-1.56-4.01-1.47-5.67,0.13
				c-2.29,2.22-4.53,4.51-6.79,6.76c-0.44,0.43-0.69,0.92-0.44,1.53c0.25,0.6,0.76,0.77,1.39,0.76c1.49-0.03,2.98,0.03,4.47-0.02
				c0.68-0.02,0.91,0.15,0.89,0.87c-0.05,2.06-0.01,4.12-0.01,6.17c-2.23,0.56-4.45,1.15-6.45,2.32
				c-6.86,4.01-10.36,10.02-10.64,17.93c-6.85,0-13.7,0-20.54,0c-3.68,0-6.71-3-6.71-6.66c0-11.1,0-22.2,0-33.3
				c0-0.32,0.02-0.64,0.03-0.96c31.44,0,62.87,0,94.31,0c0.39,0,0.78-0.02,1.17-0.03L120.62,61.02z"/>
			<path class="st4" d="M120.61,60.95c-0.39,0.01-0.78,0.03-1.17,0.03c-31.44,0-62.87,0-94.31,0c0-5.68,0-11.37,0-17.05
				c31.44,0,62.87,0,94.31,0c0.39,0,0.78,0.02,1.17,0.03C120.61,49.63,120.61,55.29,120.61,60.95z"/>
			<path class="st5" d="M76.26,81.65c1.95,0.49,3.91,0.97,5.7,1.93c7.11,3.81,10.91,9.73,11.36,17.79c0.01,0.18,0.03,0.35,0.04,0.53
				c-0.23,6.96-3.01,12.62-8.71,16.69c-12.54,8.95-30.21,1.14-32.09-14.15c-0.1-0.84-0.15-1.69-0.22-2.54
				c0.29-7.91,3.79-13.92,10.64-17.93c2.01-1.17,4.22-1.77,6.45-2.32C71.72,81.37,73.99,81.37,76.26,81.65z M89.91,101.97
				c0-9.29-7.65-17.06-16.77-17.13c-9.56-0.08-17.26,7.66-17.34,16.88c-0.09,9.55,7.75,17.21,16.99,17.22
				C82.17,118.96,89.91,111.28,89.91,101.97z"/>
			<path class="st6" d="M76.26,81.65c-2.27-0.28-4.54-0.28-6.81,0c0-2.06-0.04-4.12,0.01-6.17c0.02-0.72-0.22-0.89-0.89-0.87
				c-1.49,0.05-2.98,0-4.47,0.02c-0.63,0.01-1.14-0.16-1.39-0.76c-0.25-0.6,0-1.09,0.44-1.53c2.26-2.25,4.5-4.54,6.79-6.76
				c1.66-1.61,4.01-1.7,5.67-0.13c2.4,2.26,4.69,4.64,7.03,6.97c0.41,0.41,0.6,0.9,0.37,1.45c-0.25,0.6-0.76,0.77-1.39,0.76
				c-1.49-0.03-2.98,0.03-4.47-0.02c-0.68-0.02-0.91,0.15-0.89,0.87C76.3,77.53,76.26,79.59,76.26,81.65z"/>
			<path class="st7" d="M89.91,101.97c0,9.31-7.74,16.99-17.13,16.98c-9.23-0.02-17.07-7.67-16.99-17.22
				c0.08-9.22,7.78-16.96,17.34-16.88C82.26,84.91,89.91,92.68,89.91,101.97z"/>
		</g>
	</g>
	<g>
		<path class="st8" d="M97.08,89l1.45,4.3l1.46-4.33c0.08-0.23,0.13-0.39,0.17-0.47s0.1-0.17,0.19-0.24
			c0.09-0.07,0.21-0.11,0.36-0.11c0.11,0,0.21,0.03,0.31,0.08c0.09,0.06,0.17,0.13,0.22,0.22s0.08,0.18,0.08,0.28
			c0,0.06-0.01,0.13-0.03,0.21s-0.04,0.15-0.07,0.22c-0.03,0.07-0.05,0.15-0.08,0.22l-1.55,4.19c-0.06,0.16-0.11,0.31-0.17,0.46
			c-0.06,0.14-0.12,0.27-0.19,0.38c-0.07,0.11-0.17,0.2-0.29,0.27c-0.12,0.07-0.27,0.11-0.44,0.11s-0.32-0.03-0.44-0.1
			s-0.22-0.16-0.29-0.27s-0.14-0.24-0.19-0.38c-0.06-0.14-0.11-0.29-0.17-0.45l-1.53-4.15c-0.03-0.08-0.05-0.15-0.08-0.22
			c-0.03-0.07-0.05-0.15-0.07-0.24c-0.02-0.08-0.03-0.16-0.03-0.21c0-0.15,0.06-0.28,0.18-0.41c0.12-0.12,0.27-0.18,0.45-0.18
			c0.22,0,0.38,0.07,0.47,0.2C96.89,88.49,96.99,88.71,97.08,89z"/>
		<path class="st8" d="M102.35,93.99v-5.05c0-0.26,0.06-0.46,0.18-0.59c0.12-0.13,0.27-0.2,0.46-0.2c0.2,0,0.35,0.07,0.47,0.2
			c0.12,0.13,0.18,0.33,0.18,0.59v5.05c0,0.26-0.06,0.46-0.18,0.59c-0.12,0.13-0.28,0.2-0.47,0.2c-0.19,0-0.34-0.07-0.46-0.2
			S102.35,94.25,102.35,93.99z"/>
		<path class="st8" d="M109.96,92.75c0,0.39-0.1,0.74-0.3,1.04c-0.2,0.31-0.49,0.55-0.88,0.73s-0.84,0.26-1.37,0.26
			c-0.63,0-1.15-0.12-1.57-0.36c-0.29-0.17-0.53-0.4-0.71-0.69c-0.18-0.29-0.27-0.57-0.27-0.84c0-0.16,0.05-0.29,0.16-0.4
			c0.11-0.11,0.25-0.17,0.42-0.17c0.14,0,0.25,0.04,0.35,0.13c0.09,0.09,0.18,0.22,0.24,0.39c0.08,0.2,0.17,0.37,0.26,0.51
			c0.09,0.14,0.23,0.25,0.4,0.34c0.17,0.09,0.4,0.13,0.68,0.13c0.38,0,0.7-0.09,0.94-0.27c0.24-0.18,0.36-0.4,0.36-0.67
			c0-0.21-0.07-0.39-0.2-0.52c-0.13-0.13-0.3-0.23-0.5-0.3c-0.21-0.07-0.48-0.14-0.82-0.22c-0.46-0.11-0.85-0.23-1.16-0.38
			c-0.31-0.14-0.56-0.34-0.74-0.59c-0.18-0.25-0.27-0.56-0.27-0.93c0-0.35,0.1-0.67,0.29-0.94c0.19-0.27,0.47-0.48,0.83-0.63
			c0.36-0.15,0.79-0.22,1.29-0.22c0.39,0,0.73,0.05,1.02,0.15s0.53,0.23,0.71,0.39c0.19,0.16,0.33,0.33,0.42,0.51
			c0.09,0.18,0.13,0.35,0.13,0.52c0,0.15-0.05,0.29-0.16,0.42c-0.11,0.12-0.25,0.19-0.41,0.19c-0.15,0-0.26-0.04-0.34-0.11
			c-0.08-0.08-0.16-0.2-0.25-0.37c-0.12-0.24-0.26-0.43-0.42-0.57s-0.43-0.2-0.79-0.2c-0.33,0-0.61,0.07-0.81,0.22
			s-0.31,0.32-0.31,0.53c0,0.13,0.04,0.24,0.11,0.33c0.07,0.09,0.17,0.17,0.29,0.24c0.12,0.07,0.25,0.12,0.37,0.16
			c0.12,0.04,0.33,0.09,0.62,0.17c0.36,0.08,0.69,0.18,0.98,0.28c0.29,0.1,0.54,0.23,0.75,0.37c0.21,0.15,0.37,0.33,0.48,0.55
			C109.91,92.15,109.96,92.42,109.96,92.75z"/>
		<path class="st8" d="M115.17,93.94l-0.31-0.8h-2.61l-0.31,0.82c-0.12,0.32-0.22,0.54-0.31,0.65c-0.08,0.11-0.22,0.17-0.42,0.17
			c-0.16,0-0.31-0.06-0.43-0.18c-0.13-0.12-0.19-0.25-0.19-0.41c0-0.09,0.01-0.18,0.04-0.27c0.03-0.09,0.08-0.22,0.14-0.39
			l1.64-4.16c0.05-0.12,0.1-0.26,0.17-0.43c0.07-0.17,0.14-0.31,0.21-0.42c0.07-0.11,0.17-0.2,0.29-0.27
			c0.12-0.07,0.27-0.1,0.45-0.1c0.18,0,0.33,0.03,0.45,0.1c0.12,0.07,0.22,0.16,0.29,0.26c0.07,0.11,0.14,0.22,0.19,0.35
			s0.12,0.29,0.19,0.5l1.67,4.14c0.13,0.32,0.2,0.54,0.2,0.69c0,0.15-0.06,0.29-0.19,0.41c-0.12,0.12-0.27,0.19-0.45,0.19
			c-0.1,0-0.19-0.02-0.26-0.05c-0.07-0.04-0.13-0.09-0.18-0.15c-0.05-0.06-0.1-0.16-0.16-0.29
			C115.26,94.16,115.21,94.04,115.17,93.94z M112.6,92.16h1.92l-0.97-2.65L112.6,92.16z"/>
	</g>
	<g>
		<path class="st5" d="M68.99,103.45c0,0.3-0.07,0.63-0.22,0.98s-0.38,0.69-0.7,1.03s-0.72,0.61-1.22,0.82
			c-0.49,0.21-1.07,0.32-1.72,0.32c-0.5,0-0.95-0.05-1.36-0.14c-0.41-0.09-0.78-0.24-1.11-0.44c-0.33-0.2-0.64-0.46-0.92-0.79
			c-0.25-0.3-0.46-0.63-0.64-0.99c-0.18-0.37-0.31-0.76-0.4-1.17s-0.13-0.86-0.13-1.33c0-0.76,0.11-1.44,0.33-2.04
			c0.22-0.6,0.54-1.11,0.95-1.54c0.41-0.43,0.89-0.75,1.45-0.97c0.55-0.22,1.14-0.33,1.77-0.33c0.76,0,1.44,0.15,2.04,0.46
			c0.6,0.3,1.05,0.68,1.37,1.13c0.32,0.45,0.48,0.87,0.48,1.27c0,0.22-0.08,0.41-0.23,0.58c-0.15,0.17-0.34,0.25-0.56,0.25
			c-0.24,0-0.43-0.06-0.55-0.17c-0.12-0.12-0.26-0.32-0.41-0.6c-0.25-0.47-0.54-0.82-0.88-1.05c-0.34-0.23-0.75-0.35-1.25-0.35
			c-0.79,0-1.41,0.3-1.88,0.89c-0.47,0.6-0.7,1.44-0.7,2.54c0,0.73,0.1,1.34,0.31,1.83s0.5,0.85,0.88,1.09s0.82,0.36,1.33,0.36
			c0.55,0,1.01-0.14,1.39-0.41c0.38-0.27,0.67-0.67,0.86-1.2c0.08-0.25,0.18-0.45,0.3-0.61s0.31-0.24,0.58-0.24
			c0.23,0,0.42,0.08,0.59,0.24C68.91,103.02,68.99,103.22,68.99,103.45z"/>
		<path class="st5" d="M76.34,98.47h-3.76v2.41h3.15c0.29,0,0.51,0.07,0.65,0.2s0.22,0.31,0.22,0.52s-0.07,0.39-0.22,0.52
			s-0.36,0.19-0.65,0.19h-3.15v3.11c0,0.39-0.09,0.69-0.27,0.88c-0.18,0.19-0.41,0.29-0.69,0.29c-0.28,0-0.51-0.1-0.69-0.29
			c-0.18-0.19-0.27-0.48-0.27-0.88v-7.26c0-0.27,0.04-0.5,0.12-0.67s0.21-0.3,0.38-0.38c0.17-0.08,0.4-0.12,0.67-0.12h4.5
			c0.3,0,0.53,0.07,0.68,0.2c0.15,0.14,0.22,0.31,0.22,0.53c0,0.22-0.07,0.4-0.22,0.54C76.87,98.4,76.65,98.47,76.34,98.47z"/>
		<path class="st5" d="M83.71,105.36l-0.45-1.18h-3.83l-0.45,1.21c-0.18,0.47-0.33,0.79-0.45,0.96c-0.12,0.17-0.33,0.25-0.61,0.25
			c-0.24,0-0.45-0.09-0.64-0.26s-0.28-0.38-0.28-0.6c0-0.13,0.02-0.26,0.06-0.4c0.04-0.14,0.11-0.33,0.21-0.57l2.41-6.13
			c0.07-0.18,0.15-0.39,0.25-0.63c0.1-0.25,0.2-0.45,0.31-0.61s0.25-0.29,0.43-0.4s0.4-0.15,0.66-0.15c0.27,0,0.49,0.05,0.67,0.15
			s0.32,0.23,0.43,0.39c0.11,0.16,0.2,0.33,0.28,0.51c0.08,0.18,0.17,0.43,0.29,0.73l2.46,6.09c0.19,0.46,0.29,0.8,0.29,1.01
			c0,0.22-0.09,0.42-0.27,0.6c-0.18,0.18-0.4,0.27-0.66,0.27c-0.15,0-0.28-0.03-0.39-0.08c-0.11-0.05-0.2-0.13-0.27-0.22
			c-0.07-0.09-0.15-0.23-0.24-0.42C83.84,105.68,83.77,105.51,83.71,105.36z M79.93,102.75h2.82l-1.42-3.89L79.93,102.75z"/>
	</g>
</g>
</svg>
