<?xml version="1.0" encoding="utf-8"?>
<!-- Generator: Adobe Illustrator 25.2.3, SVG Export Plug-In . SVG Version: 6.00 Build 0)  -->
<svg version="1.1" id="Calque_4" xmlns="http://www.w3.org/2000/svg" xmlns:xlink="http://www.w3.org/1999/xlink" x="0px" y="0px"
	 viewBox="0 0 150 150" style="enable-background:new 0 0 150 150;" xml:space="preserve">
<style type="text/css">
	.st0{fill:#DBAD7C;}
	.st1{fill:#9D7445;}
	.st2{fill:#E5BB8A;}
	.st3{fill:#FFFFFF;}
	.st4{fill:#A76451;}
	.st5{fill:#C6C6C6;}
	.st6{fill:#3C3C3B;}
	.st7{fill:#C6C4C3;}
	.st8{fill:#E4E2E3;}
	.st9{fill:#DAD9D9;}
	.st10{fill:#BFBDBC;}
	.st11{fill:#F3DBD3;}
	.st12{fill:#F0D1C8;}
	.st13{fill:#DBAF9E;}
	.st14{fill:#DFB7A7;}
	.st15{fill:#5C6873;}
	.st16{fill:#7E7C80;}
	.st17{fill:#717071;}
	.st18{fill:#E44C3E;}
	.st19{fill:#BF6956;}
	.st20{fill:#F8E9E5;}
	.st21{fill:#F6F6F6;}
	.st22{fill:#403C3A;}
	.st23{fill:#2F2D2A;}
</style>
<g>
	<g>
		<g>
			<path class="st0" d="M103.09,77.33c0.53,0.72,0.38,1.73-0.33,2.26l-35.77,26.59c-0.72,0.53-1.73,0.38-2.26-0.33L29.5,58.46
				c-0.53-0.72-0.38-1.73,0.33-2.26L65.6,29.61c0.72-0.53,1.73-0.38,2.26,0.33L103.09,77.33z"/>
			<g>
				<path class="st1" d="M65.6,29.61L29.83,56.2c-0.72,0.53-0.87,1.54-0.33,2.26l1.66,2.23c0.52,0.69,1.66,1.2,2.75,0.99
					c0,0,15.82-2.94,22.11-7.62c6.29-4.68,13.66-18.97,13.66-18.97c0.51-0.85,0.36-2.22-0.15-2.91l-1.66-2.23
					C67.33,29.22,66.32,29.08,65.6,29.61z"/>
				<path class="st2" d="M65.6,29.61L29.83,56.2c-0.72,0.53-0.87,1.54-0.33,2.26l1.39,1.88c0.52,0.69,1.66,1.2,2.75,0.99
					c0,0,15.82-2.94,22.11-7.62c6.29-4.68,13.66-18.97,13.66-18.97c0.51-0.85,0.36-2.22-0.15-2.91l-1.39-1.88
					C67.33,29.22,66.32,29.08,65.6,29.61z"/>
			</g>
		</g>
		<g>
			<g>
				<path class="st3" d="M60.45,60.03c-0.48,0.36-1.17,0.26-1.52-0.22l-6.52-8.77c-0.36-0.48-0.26-1.17,0.22-1.52
					c0.48-0.36,1.17-0.26,1.52,0.22l6.52,8.77C61.03,58.99,60.93,59.68,60.45,60.03z M52.79,49.73c-0.36,0.27-0.44,0.78-0.17,1.15
					l6.52,8.77c0.27,0.36,0.78,0.44,1.15,0.17c0.36-0.27,0.44-0.78,0.17-1.15l-6.52-8.77C53.66,49.53,53.15,49.46,52.79,49.73z"/>
			</g>
			<g>
				<g>
					<path class="st4" d="M55.77,49.06c0.92,1.24,0.66,2.99-0.58,3.91c-1.24,0.92-2.99,0.66-3.91-0.58
						c-0.92-1.24-0.66-2.99,0.58-3.91C53.1,47.56,54.85,47.82,55.77,49.06z"/>
					<g>
						<path class="st5" d="M54.3,50.16c0.31,0.42,0.23,1.02-0.2,1.34c-0.42,0.31-1.02,0.23-1.34-0.2c-0.31-0.42-0.23-1.02,0.2-1.34
							C53.38,49.65,53.98,49.74,54.3,50.16z"/>
						<path class="st6" d="M54.08,50.32c0.23,0.3,0.16,0.73-0.14,0.96c-0.3,0.23-0.73,0.16-0.96-0.14c-0.23-0.3-0.16-0.73,0.14-0.96
							C53.43,49.95,53.85,50.02,54.08,50.32z"/>
					</g>
				</g>
				<g>
					<path class="st4" d="M61.79,57.15c0.92,1.24,0.66,2.99-0.58,3.91c-1.24,0.92-2.99,0.66-3.91-0.58
						c-0.92-1.24-0.66-2.99,0.58-3.91C59.12,55.65,60.87,55.91,61.79,57.15z"/>
					<g>
						<path class="st5" d="M60.31,58.25c0.31,0.42,0.23,1.02-0.2,1.34c-0.42,0.31-1.02,0.23-1.34-0.2c-0.31-0.42-0.23-1.02,0.2-1.34
							C59.4,57.74,60,57.82,60.31,58.25z"/>
						<path class="st6" d="M60.09,58.41c0.23,0.3,0.16,0.73-0.14,0.96c-0.3,0.23-0.73,0.16-0.96-0.14c-0.23-0.3-0.16-0.73,0.14-0.96
							C59.44,58.04,59.87,58.11,60.09,58.41z"/>
					</g>
				</g>
			</g>
		</g>
	</g>
	<g>
		<g>
			
				<rect x="57.2" y="37.18" transform="matrix(0.9991 -0.0427 0.0427 0.9991 -2.9242 3.4943)" class="st3" width="46.1" height="65.9"/>
		</g>
		<g>
			
				<rect x="61.59" y="52.73" transform="matrix(0.9991 -0.0427 0.0427 0.9991 -2.2315 3.4498)" class="st7" width="35.93" height="2.36"/>
			
				<rect x="62.28" y="69.22" transform="matrix(0.9991 -0.0427 0.0427 0.9991 -2.9153 3.4937)" class="st8" width="35.93" height="1.4"/>
			
				<rect x="62.36" y="71.18" transform="matrix(0.9991 -0.0427 0.0427 0.9991 -2.9991 3.4991)" class="st8" width="35.93" height="1.4"/>
			
				<rect x="62.45" y="73.16" transform="matrix(0.9991 -0.0427 0.0427 0.9991 -3.0838 3.5046)" class="st8" width="35.93" height="1.4"/>
			
				<rect x="62.53" y="75.29" transform="matrix(0.9991 -0.0427 0.0427 0.9991 -3.177 3.393)" class="st8" width="30.44" height="1.4"/>
			
				<rect x="63.4" y="96.01" transform="matrix(0.9991 -0.0427 0.0427 0.9991 -4.0622 3.0164)" class="st8" width="10.21" height="0.97"/>
			
				<rect x="63.47" y="97.52" transform="matrix(0.9991 -0.0427 0.0427 0.9991 -4.1261 3.0205)" class="st8" width="10.21" height="0.95"/>
			
				<rect x="89.1" y="94.91" transform="matrix(0.9991 -0.0427 0.0427 0.9991 -3.9917 4.1138)" class="st8" width="10.21" height="0.97"/>
			
				<rect x="89.16" y="96.42" transform="matrix(0.9991 -0.0427 0.0427 0.9991 -4.0556 4.118)" class="st8" width="10.21" height="0.95"/>
			
				<rect x="61.92" y="55.05" transform="matrix(0.9991 -0.0427 0.0427 0.9991 -2.5607 3.471)" class="st9" width="35.93" height="13.13"/>
			
				<rect x="86.35" y="54.53" transform="matrix(0.9991 -0.0427 0.0427 0.9991 -2.5272 3.9924)" class="st8" width="11.49" height="13.13"/>
		</g>
		<g>
			<g>
				<path class="st10" d="M94.32,97.69c-1.31,0.06-2.56-0.4-3.53-1.29c-0.97-0.89-1.53-2.1-1.59-3.41c-0.06-1.31,0.4-2.56,1.29-3.53
					c0.89-0.97,2.1-1.53,3.41-1.59c1.31-0.06,2.56,0.4,3.53,1.29c0.97,0.89,1.53,2.1,1.59,3.41c0.06,1.31-0.4,2.56-1.29,3.53
					C96.84,97.07,95.63,97.64,94.32,97.69z M93.93,88.5c-2.37,0.1-4.21,2.11-4.11,4.47c0.1,2.37,2.11,4.21,4.47,4.11
					c2.37-0.1,4.21-2.11,4.11-4.47C98.3,90.24,96.29,88.4,93.93,88.5z"/>
			</g>
			<g>
				<path class="st10" d="M93.94,88.85c-0.62,0.03-1.2,0.2-1.71,0.47l0.4,0.49c0.4-0.2,0.86-0.32,1.34-0.34
					c1.83-0.08,3.38,1.35,3.46,3.18c0.02,0.56-0.09,1.09-0.32,1.56l0.47,0.44c0.33-0.6,0.5-1.3,0.47-2.03
					C97.95,90.45,96.11,88.76,93.94,88.85z M94.25,96.1c-1.83,0.08-3.38-1.35-3.46-3.18c-0.03-0.66,0.14-1.28,0.45-1.81l-0.5-0.37
					c-0.39,0.64-0.6,1.4-0.57,2.21c0.09,2.17,1.93,3.86,4.1,3.77c0.75-0.03,1.44-0.27,2.01-0.66l-0.44-0.45
					C95.39,95.9,94.84,96.08,94.25,96.1z"/>
			</g>
		</g>
	</g>
	<g>
		<g>
			<g>
				<g>
					<path class="st11" d="M105.63,105.67h11.83c-1.38-4.38-2.78-8.89-3.55-11.55c-1.88-6.47-3.73-11.33-3.86-13.24
						c-0.11-1.77,0.14-9.12,0.48-10.35c0.35-1.23,0.49-2.86,0.49-3.41c0-1.14-2.36-2.23-3.21-3.11c-1.23-1.28-3.56-4.05-4.74-4
						c-1.19,0.05,1.33,8.79,1.33,8.79l-2.72,2.27l-2.17-0.74c0,0-1.88-2.67-2.32-3.61c-0.44-0.94-0.2-1.83-1.43-3.9
						c-1.23-2.07-1.93-1.88-2.37-1.79c-0.7,0.14-0.97,0.57-0.97,0.97c0,0.39,0.48,1.58,0.48,2.37c0,0.79,0,1.58,0,2.19
						c0,0.61,1.92,3.3,2.21,4.16c0.29,0.86,2.3,6.14,2.81,7.21c0.51,1.07,4.82,6.7,5.91,13.29
						C104.19,93.32,104.94,99.56,105.63,105.67z"/>
					<path class="st12" d="M106.7,105.67h10.76c-1.38-4.38-2.78-8.89-3.55-11.55c-1.88-6.47-3.73-11.33-3.86-13.24
						c-0.11-1.77,0.14-9.12,0.48-10.35c0.35-1.23,0.49-2.86,0.49-3.41c0-1.14-2.36-2.23-3.21-3.11c-0.94-0.97-2.5-2.8-3.71-3.6
						c-0.96,0.49,1.42,8.77,1.42,8.77l-2.72,2.27l-1.11-0.38l0,0l-2.17-0.74c0,0-1.88-2.67-2.32-3.61c-0.44-0.94-0.2-1.83-1.43-3.9
						c-0.43-0.72-0.8-1.17-1.11-1.44c-0.05,0.01-0.1,0.02-0.14,0.03c-0.7,0.14-0.97,0.57-0.97,0.97c0,0.39,0.48,1.58,0.48,2.37
						c0,0.79,0,1.58,0,2.19c0,0.61,1.92,3.3,2.21,4.16c0.29,0.86,2.3,6.14,2.81,7.21c0.51,1.07,4.82,6.7,5.91,13.29
						C105.3,93.65,106.02,99.68,106.7,105.67z"/>
				</g>
				<g>
					<g>
						<g>
							<path class="st13" d="M97.13,67.9c0.29,0.45,1.4,1.45,3.45,0.36c1.02-0.54,1.55-0.89,2.1-1.43l-1.17-2.01l-3.14,0.23
								l-1.93,2.32L97.13,67.9z"/>
							<path class="st14" d="M96.92,67.68c0.29,0.45,1.4,1.45,3.45,0.36c1.02-0.54,1.55-0.89,2.1-1.43l-1.17-2.02l-3.14,0.23
								l-1.93,2.32L96.92,67.68z"/>
						</g>
						<g>
							<path class="st13" d="M96.81,66.31c0.2,0.5,1.08,1.7,3.31,1.04c1.11-0.33,1.7-0.57,2.34-0.98l-0.74-2.21l-3.12-0.4
								l-2.35,1.89L96.81,66.31z"/>
							<path class="st14" d="M102.14,66.11l-0.67-1.98l-2.88-0.37l-2.35,1.89l0.57,0.66c0.06,0.16,0.19,0.39,0.42,0.6
								c0.52,0.34,1.34,0.54,2.57,0.18C100.9,66.77,101.5,66.53,102.14,66.11z"/>
						</g>
						<g>
							<path class="st13" d="M96.44,64.61c0.2,0.5,1.08,1.7,3.31,1.04c1.1-0.33,1.7-0.57,2.34-0.98l-0.74-2.21l-3.13-0.4l-2.35,1.89
								L96.44,64.61z"/>
							<path class="st14" d="M98.22,62.06l-2.12,1.71l0.34,0.39c0.2,0.5,1.08,1.7,3.31,1.04c1.03-0.31,1.62-0.54,2.22-0.91
								l-0.62-1.84L98.22,62.06z"/>
						</g>
					</g>
					<path class="st14" d="M105.64,66.1l1.8-0.25c0,0,0.08,0.1,0.15,0.07c0.07-0.04,0.03-0.16,0.03-0.16
						c-0.1-0.25-1.11-2.31-2.11-4.17c-0.63-0.61-1.27-1.15-1.8-1.41c0,0,0,0,0,0l0.03,0.11L105.64,66.1z"/>
					<g>
						<path class="st11" d="M107.44,65.85c-0.29-0.58-3.98-7.4-5.1-7.4c-1.05,0-3.37,1.73-4.44,2.05c-1.07,0.33-2.42,0.25-2.42,0.78
							c0,0.53,0.38,1.95,2.69,2.19c2.31,0.24,1.98-0.56,2.54-0.05c0.56,0.52,1.46,3.01,1.51,4.09c0.05,1.08-1.47,2.84-3.56,1.54
							c-2.09-1.3-1.99,0.46-1.99,0.46l3.81,4.54l5.51-2.54L107.44,65.85z"/>
						<path class="st12" d="M102.34,58.46c-1.05,0-3.37,1.73-4.44,2.05c-0.71,0.22-1.55,0.26-2.03,0.41c0,0.02-0.01,0.04-0.01,0.06
							c0,0.53,0.38,1.95,2.69,2.19c2.31,0.24,1.98-0.56,2.54-0.05c0.56,0.52,1.46,3.01,1.51,4.09c0.02,0.55-0.35,1.27-1,1.68
							c-0.62,0.63-1.68,0.96-2.94,0.17c-2.09-1.3-1.99,0.46-1.99,0.46l3.81,4.54l5.51-2.54l1.45-5.67
							C107.15,65.28,103.46,58.46,102.34,58.46z"/>
					</g>
					<g>
						<path class="st15" d="M92.43,58.68c0.23,1,2.61,4.52,5.79,8.5c3.6,4.51,6.84,7.89,7.26,7.56c0.41-0.33-2.17-4.25-5.76-8.76
							c-3.17-3.98-6.08-7.08-7-7.53L92.43,58.68z"/>
						<g>
							<path class="st16" d="M113.64,85.71c-0.11-0.13-0.13-0.29-0.05-0.36l0.43-0.34c0.08-0.06,0.23,0,0.34,0.13l1.56,1.96
								c0.11,0.13,0.13,0.29,0.05,0.36l-0.43,0.34c-0.08,0.06-0.23,0-0.34-0.13L113.64,85.71z"/>
							<path class="st17" d="M115.92,87.1l-1.56-1.96c-0.11-0.13-0.26-0.19-0.34-0.13l1.95,2.44
								C116.05,87.39,116.02,87.23,115.92,87.1z"/>
						</g>
						<g>
							<path class="st17" d="M115.04,85.2l-0.07-0.09l0.44-0.35c0.04-0.03,0.03-0.12-0.03-0.19c-0.01-0.01-0.01-0.02-0.02-0.02
								l-0.53-0.87l-4.78-5.08c-0.05-0.05-0.11-0.07-0.14-0.03c-0.03,0.03-0.01,0.11,0.04,0.16l4.75,5.04l0.46,0.76l-0.4,0.32
								l-0.43-0.54l-1.5,1.19l0.71,0.89L115.04,85.2z"/>
							
								<rect x="113.08" y="85.08" transform="matrix(0.7818 -0.6236 0.6236 0.7818 -28.6281 89.5081)" class="st16" width="0.95" height="1.14"/>
						</g>
						<g>
							
								<rect x="105.59" y="63.93" transform="matrix(0.7818 -0.6236 0.6236 0.7818 -24.1934 83.0449)" class="st18" width="1.92" height="24.31"/>
							
								<rect x="107.08" y="63.41" transform="matrix(0.7819 -0.6234 0.6234 0.7819 -23.7278 83.3016)" class="st19" width="0.24" height="24.31"/>
						</g>
					</g>
				</g>
			</g>
			<g>
				<g>
					<path class="st11" d="M99.06,69.67c-0.59-0.85-1.56-2.3-1.86-2.94c-0.44-0.94-0.2-1.83-1.43-3.9
						c-1.23-2.07-1.93-1.88-2.37-1.79c-0.7,0.14-0.97,0.57-0.97,0.97c0,0.39,0.48,1.58,0.48,2.37c0,0.79,0,1.58,0,2.19
						c0,0.61,1.92,3.3,2.21,4.16c0.29,0.86,2.3,6.14,2.81,7.21c0.02,0.04,0.04,0.09,0.08,0.14l3.64-1.43L99.06,69.67z"/>
					<path class="st12" d="M101.65,76.66l-2.59-6.99c-0.59-0.85-1.56-2.3-1.86-2.94c-0.44-0.94-0.2-1.83-1.43-3.9
						c-0.43-0.72-0.8-1.17-1.11-1.44c-0.05,0.01-0.1,0.02-0.14,0.03c-0.7,0.14-0.97,0.57-0.97,0.97c0,0.39,0.48,1.58,0.48,2.37
						c0,0.79,0,1.58,0,2.19c0,0.61,1.92,3.3,2.21,4.16c0.25,0.76,1.85,4.95,2.57,6.66L101.65,76.66z"/>
				</g>
				<path class="st20" d="M93.35,63.9c0.76-0.25,1.22-0.92,1.03-1.48c-0.19-0.57-0.95-0.82-1.71-0.57
					c-0.08,0.03-0.16,0.06-0.23,0.09c0,0.02,0,0.04,0,0.07c0,0.34,0.35,1.24,0.45,1.99C93.04,63.98,93.19,63.95,93.35,63.9z"/>
			</g>
		</g>
		<g>
			<g>
				<polygon class="st21" points="116.14,101.05 105.18,104.01 103.53,93.78 113.45,91.1 				"/>
				<polygon class="st3" points="105.12,93.35 106.59,102.52 115.86,100.02 113.45,91.1 				"/>
			</g>
			<g>
				<polygon class="st22" points="123.25,122.92 106.94,122.92 103.15,98.76 115.43,96.49 				"/>
				<polygon class="st23" points="105.26,98.37 109.03,122.91 123.25,122.92 115.43,96.49 				"/>
			</g>
		</g>
	</g>
</g>
</svg>
