<?xml version="1.0" encoding="utf-8"?>
<!-- Generator: Adobe Illustrator 25.2.3, SVG Export Plug-In . SVG Version: 6.00 Build 0)  -->
<svg version="1.1" id="Calque_20" xmlns="http://www.w3.org/2000/svg" xmlns:xlink="http://www.w3.org/1999/xlink" x="0px" y="0px"
	 viewBox="0 0 150 150" style="enable-background:new 0 0 150 150;" xml:space="preserve">
<style type="text/css">
	.st0{fill:#5DB98D;}
	.st1{fill:#54B686;}
	.st2{fill:#EA5653;}
	.st3{fill:#ED6B5A;}
	.st4{fill:#F7A61E;}
	.st5{fill:#FEEFE0;}
	.st6{fill:#FEECCF;}
	.st7{fill:#E5ECF0;}
	.st8{fill:#F9B147;}
	.st9{fill:#FFEBCF;}
	.st10{fill:#E5EAF0;}
	.st11{fill:#FBBF6A;}
	.st12{fill:#FBBE68;}
	.st13{fill:#495B63;}
	.st14{fill:#5C6F79;}
</style>
<g id="a35Py6.tif">
	<g>
		<path class="st0" d="M23.84,117.28c0-27.95,0-55.9,0-83.85c0.54-1.09,1.29-1.87,2.62-1.87c6.78,0.01,13.56,0.02,20.33,0.03
			c0,3.89,0,7.77,0,11.66c-1.39,0.16-2.79-0.15-4.17,0.18c-3.62-0.01-7.23-0.01-10.85-0.01c-1.53,0-1.89,0.37-1.89,1.91
			c0,9.46,0,18.91,0,28.37c0,3.41,0.02,6.81,0.03,10.22c-0.01,1.25-0.04,2.49-0.04,3.74c0,1.68,0.4,2.09,2.06,2.1
			c4.95,0.01,9.91,0.02,14.86,0.04c-0.01,4.25-0.02,8.5-0.02,12.75c-1.23-0.74-2.52-1.31-4-1.31c-2.36,0-4.72-0.02-7.08,0.01
			c-3.72,0.05-6.81,3.18-6.81,6.89c-0.01,3.75,3.01,6.84,6.77,6.9c2.46,0.04,4.93,0.04,7.39,0.06c-0.25,0.12-0.52,0.2-0.74,0.35
			c-2,1.43-4.26,1.88-6.68,1.87C31.7,117.27,27.77,117.28,23.84,117.28z"/>
		<path class="st1" d="M46.79,43.25c0-3.89,0-7.77,0-11.66c1.56-0.01,3.12-0.03,4.69-0.04c1.84-0.01,2.47,0.41,3.17,2.07
			c0.01,0.42,0.01,0.83,0.01,1.25c0,27.46,0,54.92,0,82.38c-0.25,1.85-0.15,3.71-0.04,5.57c-0.53,1.48-1.58,2.02-3.14,2.01
			c-8.1-0.04-16.2-0.05-24.3,0.01c-1.5,0.01-2.63-0.39-3.36-1.72c0-1.95,0-3.89,0-5.84c3.93,0,7.86-0.02,11.78,0.01
			c2.41,0.01,4.67-0.44,6.68-1.87c0.22-0.16,0.49-0.24,0.74-0.35c3.42-0.43,5.77-2.43,6.38-5.62c0.54-2.81-0.51-5.09-2.64-6.92
			c0.01-4.25,0.02-8.5,0.02-12.75c1.48-0.18,1.86-0.61,1.86-2.18c0-14.05,0-28.1,0-42.15C48.65,43.88,48.34,43.53,46.79,43.25z"/>
		<path class="st2" d="M113.98,28.64c1.49,0.68,1.8,2.03,2.05,3.46c1.73,10.17,3.48,20.33,5.22,30.5
			c1.95,11.36,3.89,22.72,5.84,34.08c1.18,6.86,2.35,13.71,3.53,20.57c0.31,1.82-0.44,3.06-2.3,3.4c-4.32,0.79-8.66,1.51-12.99,2.26
			c-3.89,0.67-7.78,1.33-11.66,2.01c-1.85,0.33-3.13-0.53-3.44-2.39c-0.24-1.47-0.47-2.94-0.7-4.4c4.4-0.78,8.83-1.46,13.2-2.38
			c1.83-0.39,3.62-1.19,4.61-3.03c2.4-0.53,4.31-1.72,5.39-4.01c1.4-2.94,0.72-7.09-3.34-9.29c-0.23-1.42-0.47-2.84-0.7-4.26
			c-0.45-2.71-0.9-5.41-1.35-8.12c1.52-0.56,1.85-0.96,1.64-2.18c-0.49-2.96-1.02-5.92-1.53-8.89c-0.94-5.48-1.88-10.96-2.82-16.45
			c-0.94-5.48-1.86-10.97-2.83-16.45c-0.33-1.87-0.48-1.94-2.38-1.95c-0.1-0.68-0.19-1.36-0.31-2.04c-0.53-3.16-1.06-6.31-1.6-9.47
			c0.16-0.05,0.32-0.12,0.48-0.15c1.44-0.33,2.94-0.35,4.35-0.83C112.86,28.64,113.42,28.64,113.98,28.64z"/>
		<path class="st3" d="M85.42,34.68c0.58-1.11,1.51-1.57,2.73-1.77c6.45-1.06,12.89-2.19,19.34-3.29c0.53,3.16,1.07,6.31,1.6,9.47
			c0.11,0.68,0.21,1.36,0.31,2.04c-1.3,0.41-2.69,0.37-3.97,0.84c-3.69,0.62-7.39,1.22-11.07,1.88c-1.08,0.19-1.36,0.83-1.15,2.05
			c1.16,6.76,2.32,13.53,3.48,20.3c1.04,6.05,2.1,12.09,3.15,18.14c0.05,1.28,0.37,2.52,0.6,3.77c0.2,1.12,0.86,1.6,1.99,1.41
			c2.62-0.44,5.23-0.93,7.86-1.35c2.35-0.38,4.67-0.92,7.05-1.13c0.45,2.71,0.9,5.41,1.35,8.12c0.24,1.42,0.47,2.84,0.7,4.26
			c-1.02-0.34-2.05-0.69-3.14-0.58c-2.8,0.29-5.57,0.77-8.3,1.39c-3.52,0.8-5.65,4.34-5.01,7.99c0.61,3.45,3.92,5.98,7.42,5.56
			c2.34-0.28,4.66-0.7,6.98-1.06c-0.99,1.84-2.78,2.64-4.61,3.03c-4.37,0.92-8.8,1.6-13.2,2.38c-1.16-6.7-2.32-13.4-3.47-20.1
			c-1.64-9.54-3.28-19.08-4.91-28.61c-1.57-9.16-3.14-18.33-4.7-27.49c-0.29-1.71-0.58-3.42-0.86-5.13
			C85.29,36.11,85.4,35.39,85.42,34.68z"/>
		<path class="st4" d="M85.42,34.68c-0.02,0.71-0.13,1.43,0.15,2.12c-0.34,0.39-0.16,0.87-0.16,1.29
			c-0.01,27.79-0.01,55.58-0.01,83.37c0,2.55-0.8,3.36-3.36,3.36c-8.13,0-16.26,0-24.39,0c-1.77,0-2.42-0.45-3.01-1.99
			c-0.11-1.86-0.21-3.71,0.04-5.57c3.95,0.01,7.9,0.01,11.85,0.02c0.86,0,1.72,0.01,2.57-0.21c1.53-0.39,3.08-0.73,4.2-1.98
			c2.56-0.11,4.63-1.13,5.99-3.34c1.67-2.7,1.53-6.51-1.82-9.29c0-4.23,0-8.45,0-12.68c1.54-0.13,1.89-0.51,1.89-2.1
			c0-14.11,0-28.22,0-42.33c0-1.58-0.31-1.92-1.89-2.13c0-3.88,0-7.75,0.01-11.63c1.83-0.01,3.66-0.07,5.5-0.03
			C84.5,31.61,85.32,32.71,85.42,34.68z"/>
		<path class="st5" d="M29.91,83.91c-0.01-3.41-0.03-6.81-0.03-10.22c0-9.46,0-18.91,0-28.37c0-1.54,0.36-1.91,1.89-1.91
			c3.62,0,7.23,0.01,10.85,0.01c0,5.49,0,10.98,0,16.47c-1.47,0.13-1.91,0.57-1.91,2c-0.01,4.67-0.01,9.35,0,14.02
			c0,1.47,0.39,1.86,1.9,1.97c0,1.39,0.01,2.78,0.01,4.17c0,1.44-0.4,1.84-1.86,1.84C37.14,83.91,33.53,83.91,29.91,83.91z
			 M37.81,66.28c0-3.19,0-6.39,0-9.58c0-1.31-0.55-1.99-1.59-2.01c-1.1-0.01-1.71,0.67-1.71,2.01c-0.01,6.39-0.01,12.77,0,19.16
			c0,1.34,0.62,2.02,1.72,2.01c1.03-0.01,1.58-0.7,1.58-2.01C37.82,72.66,37.81,69.47,37.81,66.28z"/>
		<path class="st6" d="M42.61,59.91c0-5.49,0-10.98,0-16.47c1.38-0.33,2.79-0.01,4.17-0.18c1.55,0.27,1.86,0.63,1.86,2.2
			c0,14.05,0,28.1,0,42.15c0,1.57-0.38,2-1.86,2.18c-4.95-0.01-9.91-0.02-14.86-0.04c-1.66,0-2.06-0.41-2.06-2.1
			c0-1.25,0.03-2.49,0.04-3.74c3.61,0,7.23,0,10.84,0c1.46,0,1.86-0.4,1.86-1.84c0-1.39,0-2.78-0.01-4.17
			c0.94-0.34,1.29-1,1.28-2.01c-0.03-4.62-0.03-9.23,0-13.85C43.9,61.02,43.59,60.29,42.61,59.91z"/>
		<path class="st7" d="M46.77,102.53c2.14,1.83,3.18,4.11,2.64,6.92c-0.61,3.19-2.95,5.19-6.38,5.62c-2.46-0.02-4.93-0.02-7.39-0.06
			c-3.76-0.06-6.78-3.14-6.77-6.9c0.01-3.71,3.09-6.84,6.81-6.89c2.36-0.03,4.72-0.01,7.08-0.01
			C44.25,101.22,45.54,101.79,46.77,102.53z M32.57,109.78c0.59,1.36,1.73,2,3.12,2.05c2.36,0.07,4.73,0.08,7.09,0
			c1.6-0.05,2.76-0.93,3.31-2.44c0.54-1.48,0.19-2.82-0.93-3.91c-1.06-1.04-2.39-1.18-3.78-0.99c-1.94-0.02-3.9-0.16-5.83-0.02
			C32.82,104.67,31.35,107.4,32.57,109.78z"/>
		<path class="st8" d="M77.47,89.78c0,4.23,0,8.45,0,12.68c-0.91-0.5-1.82-1.02-2.87-1.15c-1.62-0.21-3.26-0.09-4.89-0.09
			c-1.49,0-3-0.19-4.46,0.12c-3.71,0.79-5.89,3.9-5.52,7.76c0.32,3.31,3.3,5.88,6.92,5.94c2.22,0.04,4.44,0.04,6.66,0.06
			c-1.12,1.25-2.67,1.58-4.2,1.98c-0.85,0.22-1.71,0.21-2.57,0.21c-3.95-0.01-7.9-0.01-11.85-0.02c0-27.46,0-54.92,0-82.38
			c0-0.42-0.01-0.83-0.01-1.25c0.43-1.38,1.19-2.06,2.51-2.06c6.77-0.01,13.54,0.01,20.3,0.02c0,3.88,0,7.75-0.01,11.63
			c-1.39,0.16-2.8-0.16-4.19,0.17c-3.54,0-7.08-0.01-10.63-0.01c-1.7,0-2.07,0.37-2.07,2.08c0,9.34,0,18.68,0,28.01
			c0,3.47,0.02,6.94,0.03,10.41c-0.02,1.25-0.05,2.5-0.05,3.75c-0.01,1.62,0.48,2.1,2.11,2.1C67.6,89.76,72.54,89.77,77.47,89.78z"
			/>
		<path class="st9" d="M105.42,41.96c1.28-0.47,2.68-0.42,3.97-0.84c1.9,0.01,2.05,0.08,2.38,1.95c0.97,5.48,1.89,10.96,2.83,16.45
			c0.94,5.48,1.88,10.96,2.82,16.45c0.51,2.96,1.04,5.92,1.53,8.89c0.2,1.22-0.13,1.62-1.64,2.18c-2.38,0.21-4.7,0.76-7.05,1.13
			c-2.62,0.42-5.24,0.91-7.86,1.35c-1.13,0.19-1.79-0.29-1.99-1.41c-0.22-1.25-0.54-2.49-0.6-3.77c3.61-0.51,7.21-1.12,10.78-1.84
			c1.3-0.26,1.66-0.75,1.48-2.02c-0.21-1.5-0.54-2.98-0.82-4.46c0.85-0.49,1.19-1.2,1.02-2.18c-1.11-6.36-2.21-12.73-3.32-19.09
			c-0.17-0.95-0.66-1.58-1.67-1.71c-0.11-1.89-0.6-3.73-0.88-5.6C106.15,45.6,105.76,43.78,105.42,41.96z"/>
		<path class="st10" d="M117.32,112.72c-2.33,0.36-4.65,0.78-6.98,1.06c-3.5,0.42-6.82-2.1-7.42-5.56
			c-0.64-3.65,1.49-7.19,5.01-7.99c2.73-0.62,5.51-1.1,8.3-1.39c1.1-0.11,2.12,0.24,3.14,0.58c4.07,2.2,4.74,6.34,3.34,9.29
			C121.63,111,119.71,112.18,117.32,112.72z M106.86,109.18c0.79,1.07,1.89,1.57,3.17,1.39c2.47-0.35,4.93-0.77,7.37-1.26
			c1.6-0.33,2.7-1.85,2.73-3.51c0.03-1.59-1.02-3.03-2.54-3.56c-1.01-0.35-1.98-0.11-2.97,0.08c-1.87,0.32-3.76,0.59-5.62,0.97
			C106.22,103.87,105.13,106.91,106.86,109.18z"/>
		<path class="st5" d="M105.42,41.96c0.34,1.82,0.73,3.63,1,5.46c0.27,1.87,0.77,3.7,0.88,5.6c-1.43,0.47-1.73,0.94-1.49,2.35
			c1.06,6.24,2.12,12.48,3.18,18.72c0.27,1.57,0.68,1.91,2.28,1.91c0.28,1.49,0.61,2.97,0.82,4.46c0.18,1.27-0.18,1.76-1.48,2.02
			c-3.57,0.72-7.17,1.33-10.78,1.84c-1.05-6.05-2.1-12.09-3.15-18.14c-1.17-6.76-2.32-13.53-3.48-20.3
			c-0.21-1.22,0.07-1.85,1.15-2.05C98.03,43.18,101.72,42.58,105.42,41.96z M106.27,75.2c-0.01-0.12-0.01-0.33-0.04-0.54
			c-1.1-6.34-2.2-12.68-3.31-19.02c-0.19-1.07-0.96-1.7-1.85-1.54c-0.95,0.17-1.48,1-1.3,2.12c0.41,2.56,0.84,5.12,1.28,7.68
			c0.68,3.92,1.35,7.84,2.06,11.75c0.19,1.03,0.94,1.55,1.86,1.36C105.88,76.83,106.31,76.22,106.27,75.2z"/>
		<path class="st9" d="M77.47,89.78c-4.93-0.01-9.87-0.02-14.8-0.04c-1.63,0-2.11-0.48-2.11-2.1c0-1.25,0.03-2.5,0.05-3.75
			c3.74,0,7.48,0.01,11.22,0c1.04,0,1.45-0.41,1.45-1.44c0.01-1.52,0-3.05,0-4.57c1.06-0.25,1.44-0.99,1.44-2
			c0-6.42,0-12.83,0-19.25c0-1.01-0.38-1.75-1.44-2c0-3.75,0-7.5,0-11.26c1.38-0.34,2.8-0.02,4.19-0.17
			c1.58,0.21,1.89,0.55,1.89,2.13c0,14.11,0,28.22,0,42.33C79.36,89.27,79.01,89.66,77.47,89.78z"/>
		<path class="st7" d="M73.3,115.1c-2.22-0.02-4.44-0.02-6.66-0.06c-3.62-0.06-6.6-2.63-6.92-5.94c-0.37-3.86,1.82-6.96,5.52-7.76
			c1.47-0.31,2.98-0.12,4.46-0.12c1.63,0,3.26-0.13,4.89,0.09c1.05,0.14,1.96,0.65,2.87,1.15c3.35,2.78,3.49,6.59,1.82,9.29
			C77.92,113.96,75.86,114.99,73.3,115.1z M63.45,110.02c0.62,1.19,1.69,1.76,2.95,1.8c2.39,0.07,4.78,0.07,7.17,0
			c1.78-0.05,3.27-1.47,3.47-3.15c0.22-1.8-0.76-3.46-2.42-4.02c-0.83-0.28-1.69-0.33-2.56-0.17c-1.91-0.15-3.82-0.17-5.72-0.03
			C63.47,104.67,62.03,107.56,63.45,110.02z"/>
		<path class="st11" d="M37.81,66.28c0,3.19,0,6.39,0,9.58c0,1.31-0.55,2-1.58,2.01c-1.1,0.02-1.72-0.67-1.72-2.01
			c-0.01-6.39-0.01-12.77,0-19.16c0-1.34,0.61-2.02,1.71-2.01c1.03,0.01,1.58,0.69,1.59,2.01C37.82,59.89,37.81,63.08,37.81,66.28z"
			/>
		<path class="st12" d="M42.61,59.91c0.97,0.39,1.28,1.12,1.28,2.14c-0.03,4.62-0.03,9.23,0,13.85c0.01,1-0.34,1.67-1.28,2.01
			c-1.51-0.11-1.9-0.5-1.9-1.97c-0.01-4.67-0.01-9.35,0-14.02C40.71,60.48,41.14,60.03,42.61,59.91z"/>
		<path class="st13" d="M41.39,104.48c1.4-0.19,2.72-0.05,3.78,0.99c1.12,1.1,1.47,2.44,0.93,3.91c-0.56,1.51-1.71,2.39-3.31,2.44
			c-2.36,0.08-4.73,0.07-7.09,0c-1.4-0.04-2.53-0.68-3.12-2.05c1.04,0,2.08,0.04,3.12-0.02c1.1-0.06,2.17-0.25,3.15-0.87
			C40.48,107.86,41.12,106.29,41.39,104.48z"/>
		<path class="st14" d="M41.39,104.48c-0.27,1.8-0.9,3.38-2.55,4.41c-0.98,0.62-2.05,0.8-3.15,0.87c-1.04,0.06-2.08,0.02-3.12,0.02
			c-1.22-2.38,0.24-5.11,2.99-5.32C37.49,104.32,39.44,104.46,41.39,104.48z"/>
		<path class="st5" d="M73.28,77.9c0,1.52,0.02,3.05,0,4.57c-0.01,1.03-0.42,1.43-1.45,1.44c-3.74,0.01-7.48,0-11.22,0
			c-0.01-3.47-0.03-6.94-0.03-10.41c0-9.34,0-18.68,0-28.01c0-1.71,0.37-2.08,2.07-2.08c3.54,0,7.08,0,10.63,0.01
			c0,3.75,0,7.5,0,11.26c-1.4,0.12-1.87,0.63-1.87,2.06c0,6.38,0,12.76,0,19.13C71.41,77.28,71.88,77.78,73.28,77.9z M65.34,66.2
			c0,3.23,0,6.46,0,9.69c0,0.41-0.06,0.83,0.2,1.21c0.44,0.65,1.05,0.95,1.79,0.74c0.83-0.24,1.19-0.85,1.19-1.73
			c-0.01-6.49,0-12.98-0.01-19.48c0-1.3-0.57-1.96-1.63-1.94c-1,0.02-1.54,0.69-1.54,1.92C65.34,59.81,65.34,63,65.34,66.2z"/>
		<path class="st11" d="M111.26,76c-1.61,0-2.02-0.34-2.28-1.91c-1.06-6.24-2.12-12.48-3.18-18.72c-0.24-1.4,0.06-1.88,1.49-2.35
			c1.01,0.12,1.51,0.75,1.67,1.71c1.1,6.36,2.2,12.73,3.32,19.09C112.45,74.8,112.11,75.51,111.26,76z"/>
		<path class="st13" d="M114.62,102.33c0.98-0.19,1.96-0.43,2.97-0.08c1.52,0.53,2.58,1.98,2.54,3.56
			c-0.03,1.65-1.13,3.18-2.73,3.51c-2.44,0.5-4.9,0.92-7.37,1.26c-1.27,0.18-2.38-0.32-3.17-1.39c0.12-0.21,0.33-0.22,0.54-0.26
			c1.22-0.23,2.47-0.36,3.64-0.74C113,107.53,114.73,105.55,114.62,102.33z"/>
		<path class="st14" d="M114.62,102.33c0.11,3.22-1.61,5.2-3.58,5.85c-1.17,0.39-2.42,0.51-3.64,0.74
			c-0.21,0.04-0.41,0.05-0.54,0.26c-1.72-2.28-0.64-5.31,2.14-5.88C110.86,102.92,112.74,102.65,114.62,102.33z"/>
		<path class="st11" d="M106.27,75.2c0.05,1.02-0.39,1.63-1.29,1.82c-0.92,0.19-1.68-0.33-1.86-1.36
			c-0.71-3.91-1.39-7.83-2.06-11.75c-0.44-2.56-0.87-5.12-1.28-7.68c-0.18-1.12,0.35-1.94,1.3-2.12c0.89-0.16,1.66,0.46,1.85,1.54
			c1.11,6.34,2.21,12.68,3.31,19.02C106.26,74.87,106.26,75.08,106.27,75.2z"/>
		<path class="st11" d="M73.28,77.9c-1.4-0.12-1.87-0.62-1.87-2.05c0-6.38,0-12.76,0-19.13c0-1.43,0.47-1.93,1.87-2.06
			c1.06,0.25,1.44,0.99,1.44,2c0,6.42,0,12.83,0,19.25C74.72,76.91,74.34,77.65,73.28,77.9z"/>
		<path class="st13" d="M72.06,104.49c0.87-0.16,1.73-0.1,2.56,0.17c1.66,0.56,2.65,2.22,2.42,4.02c-0.21,1.68-1.69,3.1-3.47,3.15
			c-2.39,0.07-4.78,0.07-7.17,0c-1.27-0.04-2.33-0.61-2.95-1.8c1.01-0.56,2.09-0.2,3.14-0.24
			C69.59,109.68,71.91,107.47,72.06,104.49z"/>
		<path class="st14" d="M72.06,104.49c-0.15,2.99-2.47,5.2-5.47,5.3c-1.05,0.04-2.13-0.32-3.14,0.24c-1.42-2.46,0.02-5.35,2.89-5.57
			C68.24,104.31,70.15,104.33,72.06,104.49z"/>
		<path class="st12" d="M65.34,66.2c0-3.19,0-6.39,0-9.58c0-1.24,0.54-1.9,1.54-1.92c1.06-0.02,1.63,0.63,1.63,1.94
			c0,6.49,0,12.98,0.01,19.48c0,0.88-0.36,1.49-1.19,1.73c-0.74,0.21-1.35-0.09-1.79-0.74c-0.26-0.38-0.2-0.8-0.2-1.21
			C65.34,72.65,65.34,69.43,65.34,66.2z"/>
	</g>
</g>
</svg>
