<?xml version="1.0" encoding="utf-8"?>
<!-- Generator: Adobe Illustrator 25.2.3, SVG Export Plug-In . SVG Version: 6.00 Build 0)  -->
<svg version="1.1" id="Calque_1" xmlns="http://www.w3.org/2000/svg" xmlns:xlink="http://www.w3.org/1999/xlink" x="0px" y="0px"
	 viewBox="0 0 150 150" style="enable-background:new 0 0 150 150;" xml:space="preserve">
<g id="_x33_FEDnl.tif">
	<g>
		<path d="M106.8,123.93c-25.02,0-50.03,0-75.05,0c-0.13-0.06-0.24-0.16-0.38-0.19c-6.09-1.15-10.06-5.9-10.06-12.06
			c0-15.77,0-31.54-0.01-47.31c0-2.63,0.81-4.97,2.33-7.09c1.26-1.74,2.92-2.98,4.75-3.87c-0.24-2.06-0.73-4.04-0.66-6
			c0.21-6.05,4.56-10.63,10.54-11.6c6.42-1.04,12.82-2.22,19.23-3.36c7.55-1.33,15.09-2.68,22.64-4.01
			c9.75-1.72,19.52-3.39,29.26-5.18c7.05-1.3,13.18,2.56,14.62,9.57c1.09,5.34,1.94,10.74,2.89,16.12
			c1.5,8.47,2.98,16.94,4.49,25.41c0.41,2.31,0.87,4.61,1.31,6.91c0,1.16,0,2.32,0,3.48c-0.07,0.16-0.17,0.31-0.21,0.47
			c-1.05,4.71-3.88,7.85-8.48,9.25c-1.82,0.55-3.73,0.83-5.63,1.08c-0.91,0.12-1.1,0.45-1.1,1.29c0.02,5.21,0.07,10.42-0.04,15.63
			c-0.11,5.03-3.65,9.49-8.46,10.91C108.12,123.6,107.46,123.76,106.8,123.93z M27.9,88.73c-0.02,0.26-0.04,0.47-0.04,0.68
			c0,7.43-0.03,14.86,0.01,22.29c0.02,3.37,2.36,5.64,5.85,5.64c23.71,0.02,47.42,0.02,71.12,0c3.65,0,5.88-2.3,5.88-5.93
			c0-7.18,0-14.35,0-21.53c0-0.38,0-0.77,0-1.15C83.03,88.73,55.5,88.73,27.9,88.73z M117.29,89.1c1.83-0.36,3.52-0.57,5.14-1.05
			c2.57-0.77,4.04-3.3,3.59-5.94c-0.7-4.1-1.42-8.19-2.14-12.28c-1.41-8.01-2.82-16.02-4.23-24.02c-0.71-4.02-1.37-8.05-2.18-12.05
			c-0.56-2.75-3.17-4.53-5.92-4.07c-6.13,1.02-12.25,2.11-18.37,3.19c-8.79,1.55-17.58,3.12-26.37,4.67
			c-9.25,1.63-18.51,3.22-27.76,4.87c-3.16,0.56-4.94,2.86-4.68,6.02c0.11,1.31,0.43,2.61,0.66,3.95c0.55,0,0.99,0,1.42,0
			c22.65,0,45.3,0,67.96,0.01c1.01,0,2.03,0.07,3.03,0.21c5.19,0.75,9.72,5.71,9.79,10.94c0.11,8.01,0.05,16.02,0.07,24.03
			C117.29,88,117.29,88.43,117.29,89.1z M110.69,73.96c-27.67,0-55.22,0-82.78,0c0,2.73,0,5.36,0,8.05c27.62,0,55.18,0,82.78,0
			C110.69,79.3,110.69,76.66,110.69,73.96z M110.72,67.14c0-0.97,0.01-1.84,0-2.7c-0.03-1.64-0.66-3.01-1.88-4.12
			c-1.28-1.15-2.82-1.34-4.46-1.34C81,58.99,57.62,58.99,34.25,58.99c-0.51,0-1.01,0.03-1.52,0.06c-1.29,0.09-2.36,0.65-3.26,1.55
			c-1.87,1.85-1.67,4.17-1.56,6.54C55.51,67.14,83.05,67.14,110.72,67.14z"/>
		<path d="M45.39,110.81c-2.39,0-4.78,0.02-7.17-0.01c-1.4-0.01-2.54-0.56-3.2-1.85c-0.58-1.13-0.49-2.24,0.21-3.29
			c0.67-1.01,1.66-1.49,2.86-1.5c4.85-0.01,9.7-0.02,14.55,0c1.97,0.01,3.45,1.47,3.46,3.3c0.01,1.83-1.43,3.28-3.43,3.33
			C50.24,110.85,47.81,110.81,45.39,110.81z"/>
	</g>
</g>
</svg>
