<?xml version="1.0" encoding="utf-8"?>
<!-- Generator: Adobe Illustrator 25.2.3, SVG Export Plug-In . SVG Version: 6.00 Build 0)  -->
<svg version="1.1" id="Calque_19" xmlns="http://www.w3.org/2000/svg" xmlns:xlink="http://www.w3.org/1999/xlink" x="0px" y="0px"
	 viewBox="0 0 150 150" style="enable-background:new 0 0 150 150;" xml:space="preserve">
<style type="text/css">
	.st0{fill:#F59906;}
	.st1{fill:#F8A415;}
	.st2{fill:#E5484F;}
	.st3{fill:#F74C53;}
	.st4{fill:#FDB62A;}
	.st5{fill:#039F75;}
	.st6{fill:#EF4950;}
	.st7{fill:#39C189;}
	.st8{fill:#62DA9A;}
	.st9{fill:#A5F1CC;}
	.st10{fill:#18AC7D;}
	.st11{fill:#23B381;}
	.st12{fill:#2EBA85;}
	.st13{fill:#8BE9B9;}
	.st14{fill:#49CB90;}
</style>
<g id="qzstUw.tif">
	<g>
		<path class="st0" d="M98.96,30.04c4.22,2.47,8.27,5.14,11.58,8.83c1.76,1.96,3.65,3.8,5.14,5.99c0.56,0.82,1.11,1.64,1.65,2.48
			c0.22,0.34,0.36,0.52,0.69,0.08c2.1-2.82,6.77-2.08,7.8,1.5c0.02,0.08,0.12,0.14,0.18,0.21c0,0.73,0,1.46,0,2.19
			c-0.9,1.62-1.31,3.43-2.01,5.13c-0.73,1.79-1.29,3.66-2.21,5.37c-0.88,1.64-3.1,2.54-4.89,1.91c-3.27-1.15-6.54-2.33-9.78-3.58
			c-1.86-0.72-2.96-2.66-2.74-4.52c0.23-2.06,1.67-3.6,3.73-3.97c0.38-0.07,0.77-0.1,1.25-0.17c-1.06-1.77-2.3-3.3-3.6-4.8
			c-2.29-2.64-4.96-4.86-7.77-6.91c0.51-0.25,0.38-0.72,0.38-1.14c0.01-2.42,0.02-4.84-0.01-7.25
			C98.35,30.8,98.45,30.35,98.96,30.04z"/>
		<path class="st1" d="M98.96,30.04c-0.51,0.31-0.62,0.77-0.61,1.35c0.03,2.42,0.02,4.84,0.01,7.25c0,0.41,0.13,0.89-0.38,1.14
			c-3.48-2.19-7.1-4.08-11.07-5.23c-10.24-2.97-20.18-2.22-29.85,2.31c-1.61,0.75-3.03,1.79-4.6,2.6c-0.28-1-0.21-2.03-0.21-3.05
			c-0.01-2.35-0.02-4.69-0.03-7.04c4.32-2.31,8.92-3.81,13.72-4.7c2.44-0.45,4.9-0.72,7.38-0.8c0.16,0,0.33,0,0.4-0.2
			c0.8,0,1.59,0,2.39,0c1.12,0.43,2.31,0.26,3.46,0.37c6.82,0.64,13.24,2.58,19.26,5.85C98.88,29.93,98.92,29.99,98.96,30.04z"/>
		<path class="st2" d="M32.17,83.7c1.43-0.15,2.59,0.69,3.85,1.1c2.35,0.76,4.66,1.62,6.95,2.53c2.87,1.14,3.83,4.55,1.93,6.89
			c-1.08,1.32-1.84,1.64-3.95,1.83c0.14,0.6,0.55,1.03,0.89,1.49c6.96,9.43,16.18,15.17,27.83,16.82c19.1,2.7,37.5-8.41,44.1-26.56
			c0.12-0.34,0.24-0.69,0.37-1.03c0.89-2.38,2.83-3.46,5.34-2.97c-0.91,3.84-2.23,7.51-4.08,11.01
			c-2.85,5.37-6.53,10.04-11.27,13.88c-3.44,2.79-7.14,5.13-11.25,6.75c-6.48,2.56-13.17,3.88-20.2,3.29
			c-3.7-0.31-7.31-0.97-10.82-2.11c-5.1-1.65-9.75-4.19-13.96-7.53c-2.86-2.27-5.39-4.85-7.61-7.74c-2.85-3.69-5.04-7.74-6.63-12.12
			C33,87.44,32.4,85.61,32.17,83.7z"/>
		<path class="st3" d="M121.76,85.23c1.2,1.31,1.36,2.84,0.82,4.44c-2.52,7.43-6.51,13.95-12.11,19.46
			c-7.86,7.75-17.23,12.65-28.19,14.03c-17.64,2.22-32.54-3.35-44.56-16.48c-1.79-1.96-3.35-4.1-4.77-6.35
			c-0.12-0.19-0.18-0.44-0.49-0.51c-1.01,1.33-2.31,2.09-4.06,2c-2.72-0.13-4.86-2.83-4.03-5.42c1.1-3.46,2.43-6.85,3.71-10.25
			c0.28-0.74,0.79-1.38,1.56-1.72c0.39,0.16,0.34,0.55,0.41,0.85c0.71,3.03,1.77,5.94,3.1,8.75c2.9,6.15,6.96,11.41,12.13,15.84
			c3.88,3.32,8.16,5.94,12.88,7.83c4.37,1.75,8.89,2.83,13.6,3.21c4.1,0.33,8.17,0.21,12.21-0.51c5.1-0.92,9.95-2.57,14.48-5.12
			c3.44-1.93,6.63-4.2,9.51-6.89c3.52-3.29,6.48-7.05,8.81-11.26c1.6-2.89,2.98-5.89,3.92-9.08C120.98,87.09,121,86.01,121.76,85.23
			z"/>
		<path class="st4" d="M52.21,29.37c0.01,2.35,0.02,4.69,0.03,7.04c0,1.02-0.06,2.04,0.21,3.05c-2.37,1.63-4.62,3.43-6.69,5.4
			c-2.31,2.21-4.13,4.84-5.81,7.56c-1.67,2.71-2.92,5.62-4,8.62c-0.7,1.93-2.44,2.95-4.53,2.83c-1.84-0.11-3.43-1.43-3.92-3.28
			c-0.22-0.85-0.21-1.7,0.08-2.54c4.37-12.77,12.55-22.28,24.44-28.62C52.08,29.4,52.15,29.39,52.21,29.37z"/>
		<path class="st5" d="M99.17,57.45c0.2,0,0.4,0,0.6,0.01c1.61,0.02,2.38,0.74,2.42,2.35c0.01,0.6,0.09,0.87,0.8,0.87
			c1.66-0.01,2.43,0.79,2.51,2.51c0.02,0.48,0.09,0.68,0.64,0.71c1.88,0.08,2.58,0.86,2.58,2.75c0,7.91-0.01,15.83-0.02,23.74
			c0,2.01-0.74,2.74-2.77,2.73c-0.79,0-1.59-0.03-2.38-0.04c0-0.59-0.03-1.19,0.01-1.78c0.06-0.94-0.46-1.32-1.29-1.41
			c-2.01-0.21-2.03-0.2-2.09-2.12c-0.02-0.68-0.36-0.95-0.93-1.05c-2.29-0.42-2.29-0.41-2.26-2.72c0-0.13,0.01-0.26,0.02-0.4
			c1.57-0.28,2.16-1,2.16-2.66C99.16,73.1,99.16,65.28,99.17,57.45z"/>
		<path class="st6" d="M121.76,85.23c-0.76,0.78-0.79,1.86-1.07,2.82c-0.94,3.19-2.32,6.19-3.92,9.08
			c-2.33,4.21-5.29,7.97-8.81,11.26c-2.88,2.69-6.07,4.96-9.51,6.89c-4.53,2.55-9.38,4.2-14.48,5.12
			c-4.04,0.73-8.11,0.85-12.21,0.51c-4.71-0.38-9.23-1.46-13.6-3.21c-4.72-1.89-9.01-4.52-12.88-7.83
			c-5.17-4.43-9.23-9.69-12.13-15.84c-1.33-2.81-2.39-5.72-3.1-8.75c-0.07-0.3-0.03-0.69-0.41-0.85c0.73-0.61,1.58-0.82,2.52-0.73
			c0.24,1.91,0.84,3.73,1.49,5.52c1.59,4.37,3.79,8.42,6.63,12.12c2.23,2.89,4.75,5.48,7.61,7.74c4.21,3.34,8.85,5.88,13.96,7.53
			c3.51,1.14,7.12,1.8,10.82,2.11c7.03,0.59,13.72-0.73,20.2-3.29c4.1-1.62,7.81-3.97,11.25-6.75c4.74-3.84,8.42-8.51,11.27-13.88
			c1.85-3.49,3.17-7.17,4.08-11.01C120.44,83.95,121.07,84.65,121.76,85.23z"/>
		<path class="st7" d="M44.69,83.91c-0.01-0.13-0.02-0.26-0.03-0.39c3.53,0,7.05,0.01,10.57,0.01c0.46,0.01,0.92,0.02,1.38,0.02
			c3.19,0.02,6.37,0.03,9.56,0.05c-0.07,0.79,0.66,0.93,1.08,1.28c1.36,1.13,2.8,2.1,4.73,1.83c0.45-0.06,0.92-0.01,1.39-0.01
			c1.34,0,1.34,0,1.34,1.3c0.01,1.55,0.21,1.74,1.84,1.89c0.83,0.07,1.47,0.35,1.35,1.4c-0.07,0.59-0.01,1.19-0.01,1.78
			c-2.32,0-4.64,0-6.96,0c0-0.46-0.03-0.93,0.01-1.39c0.07-0.82-0.35-1.17-1.09-1.2c-2.77-0.13-5.55,0.04-8.31,0.23
			c-2.91,0.2-5.8,0.63-8.7,0.96c-0.67-0.36-0.97-1.16-1.73-1.41c-0.03-0.12-0.06-0.25-0.08-0.37c5,0,10,0,15-0.01
			c0.33,0,0.67,0.01,0.99-0.06c0.51-0.11,0.76-0.43,0.75-1c-0.01-0.54-0.16-0.85-0.72-1c-0.4-0.11-0.78-0.11-1.18-0.12
			c-5.48-0.14-10.95,0.18-16.41,0.6c-0.6-0.3-0.85-1.05-1.55-1.21c-0.03-0.25-0.15-0.42-0.41-0.46
			C46.72,85.55,45.87,84.56,44.69,83.91z"/>
		<path class="st8" d="M99.17,57.45c0,7.83,0,15.65-0.01,23.48c0,1.66-0.59,2.38-2.16,2.66c-3.85-0.11-7.69-0.08-11.54,0
			c-0.34-0.03-0.67-0.05-1.01-0.08c-0.01-0.71-0.01-1.43-0.02-2.14c2.54-0.01,5.09-0.05,7.63-0.02c0.73,0.01,0.95-0.19,0.96-0.94
			c0.02-1.85,1.68-3.23,3.45-2.91c0.73,0.13,0.93-0.06,0.92-0.78c-0.03-4.49-0.03-8.99-0.04-13.48c0.01-0.72,0.01-1.44,0.02-2.17
			c0.01-0.37-0.08-0.74-0.53-0.6c-0.97,0.3-1.79-0.13-2.64-0.43c-0.8-0.78-1.43-1.61-1.22-2.84c0.09-0.53-0.34-0.54-0.72-0.53
			c-1.68,0.01-3.35,0.01-5.03,0.02c-2.99-0.01-5.97-0.02-8.96-0.03c0.59-0.61,1-1.28,0.8-2.18c5.66-0.01,11.33-0.03,16.99-0.04
			C98.55,54.44,99.12,54.99,99.17,57.45z"/>
		<path class="st9" d="M55.23,83.52c-3.52,0-7.05-0.01-10.57-0.01c-2.51,0.08-3.14-0.53-3.14-3.02c0-7.74,0-15.49,0-23.23
			c0-2.1,0.69-2.8,2.78-2.8c2.91,0,5.82,0.01,8.73,0.01c0.19,0.89-0.21,1.57-0.8,2.18c-1.26,0-2.52,0.03-3.78,0
			c-0.6-0.02-0.79,0.19-0.8,0.79c-0.05,2.06-1.53,3.29-3.61,3.02c-0.58-0.08-0.76,0.11-0.76,0.69c0.02,4.87,0.02,9.74,0.03,14.61
			c-0.01,0.36,0.01,0.73-0.02,1.09c-0.05,0.58,0.18,0.75,0.75,0.67c2.1-0.27,3.54,0.95,3.61,3.09c0.02,0.57,0.2,0.74,0.75,0.73
			c2.01-0.03,4.02-0.02,6.02-0.03c0.26,0.02,0.52,0.03,0.78,0.05C55.22,82.08,55.23,82.8,55.23,83.52z"/>
		<path class="st10" d="M85.46,83.59c3.85-0.09,7.69-0.11,11.54,0c-0.01,0.13-0.02,0.26-0.02,0.4c-0.03,2.31-0.03,2.31,2.26,2.72
			c0.57,0.1,0.91,0.37,0.93,1.05c0.05,1.92,0.08,1.91,2.09,2.12c0.83,0.09,1.35,0.47,1.29,1.41c-0.04,0.59-0.01,1.19-0.01,1.78
			c-3.51,0.1-7.02,0.07-10.54,0c0-0.59,0-1.19,0-1.78c-0.01-1.09-0.3-1.39-1.41-1.41c-1.68-0.04-1.72-0.06-1.77-1.71
			c-0.03-0.91-0.43-1.46-1.36-1.46C86.43,86.7,86.03,85.64,85.46,83.59z"/>
		<path class="st11" d="M85.46,83.59c0.57,2.05,0.97,3.11,3,3.11c0.94,0,1.34,0.55,1.36,1.46c0.05,1.65,0.08,1.67,1.77,1.71
			c1.1,0.02,1.4,0.32,1.41,1.41c0,0.59,0,1.19,0,1.78c-2.92,0-5.83,0-8.75,0c0-0.46,0-0.92,0-1.38c0-1.27-0.32-1.64-1.58-1.8
			c-1.52-0.2-1.52-0.2-1.6-1.78c-0.05-1.01-0.46-1.4-1.48-1.41c-0.66-0.01-1.32-0.02-1.98,0c-1.36,0.04-3.76-1.82-4.09-3.1
			c3.64-0.03,7.29-0.05,10.93-0.08C84.79,83.54,85.12,83.57,85.46,83.59z"/>
		<path class="st12" d="M73.52,83.59c0.33,1.28,2.73,3.14,4.09,3.1c0.66-0.02,1.32-0.01,1.98,0c1.02,0.01,1.42,0.4,1.48,1.41
			c0.08,1.58,0.08,1.58,1.6,1.78c1.26,0.16,1.57,0.53,1.58,1.8c0,0.46,0,0.92,0,1.38c-2.12,0-4.24,0-6.36,0
			c0-0.59-0.05-1.2,0.01-1.78c0.12-1.05-0.52-1.33-1.35-1.4c-1.63-0.15-1.83-0.34-1.84-1.89c-0.01-1.3-0.01-1.3-1.34-1.3
			c-0.46,0-0.93-0.05-1.39,0.01c-1.92,0.27-3.37-0.7-4.73-1.83c-0.42-0.35-1.16-0.49-1.08-1.28C68.62,83.51,71.07,83.48,73.52,83.59
			z"/>
		<path class="st13" d="M52.24,56.66c0.59-0.61,0.99-1.28,0.8-2.18c8.68,0,17.36,0,26.04,0c0.2,0.9-0.21,1.57-0.8,2.18
			c-1.72,0.01-3.44,0.02-5.16,0.03c-3.78,0-7.55,0-11.33,0C58.61,56.68,55.42,56.67,52.24,56.66z"/>
		<path class="st14" d="M52.84,91.67c2.9-0.33,5.79-0.76,8.7-0.96c2.76-0.19,5.53-0.36,8.31-0.23c0.74,0.04,1.16,0.38,1.09,1.2
			c-0.04,0.46-0.01,0.93-0.01,1.39c-5.7,0-11.4-0.01-17.1-0.01C53.78,92.39,53.07,92.2,52.84,91.67z"/>
		<path class="st14" d="M49.46,88.29c5.46-0.42,10.93-0.74,16.41-0.6c0.39,0.01,0.78,0.01,1.18,0.12c0.56,0.15,0.71,0.46,0.72,1
			c0.01,0.57-0.25,0.88-0.75,1c-0.32,0.07-0.66,0.06-0.99,0.06c-5,0.01-10,0.01-15,0.01c-0.12-0.01-0.24-0.02-0.37-0.04
			C50.52,89.13,49.75,88.89,49.46,88.29z"/>
		<path class="st8" d="M44.69,83.91c1.18,0.65,2.03,1.64,2.81,2.71C45.46,86.8,44.53,85.9,44.69,83.91z"/>
		<path class="st8" d="M49.46,88.29c0.29,0.6,1.06,0.84,1.2,1.56c-2.05,0.13-2.91-0.74-2.76-2.77
			C48.61,87.24,48.86,87.99,49.46,88.29z"/>
		<path class="st8" d="M52.84,91.67c0.23,0.53,0.94,0.73,1,1.39c-2.02,0.13-2.88-0.75-2.73-2.8C51.87,90.5,52.17,91.31,52.84,91.67z
			"/>
		<path class="st13" d="M73.52,83.59c-2.45-0.12-4.9-0.08-7.35,0c-3.19-0.02-6.37-0.03-9.56-0.05c-0.46,0-0.92-0.01-1.38-0.02
			c-0.01-0.72-0.01-1.44-0.02-2.16c1.79-0.02,3.59-0.04,5.38-0.06c4.11,0.01,8.21,0.01,12.32,0.02c2.32,0,4.64,0,6.96,0
			c1.52,0.02,3.03,0.03,4.55,0.05c0.01,0.71,0.01,1.43,0.02,2.14C80.81,83.54,77.16,83.57,73.52,83.59z"/>
		<path class="st12" d="M72.92,81.32c-4.11-0.01-8.21-0.01-12.32-0.02c0.06-0.57,0.45-0.93,0.82-1.3c1.58-1.56,3.17-3.13,4.75-4.69
			c0.79,0.29,1.5,0.81,2.38,0.87c2.73,0.83,5.11,0.02,7.03-1.87c1.96-1.92,2.73-4.34,1.93-7.1c-0.01-0.2-0.03-0.4-0.04-0.6
			c0.34,0.01,0.54-0.22,0.75-0.43c2.85-2.85,5.7-5.71,8.56-8.55c0.27-0.26,0.5-0.53,0.46-0.94c1.68-0.01,3.35-0.01,5.03-0.02
			c0.38,0,0.81,0,0.72,0.53c-0.21,1.23,0.43,2.06,1.22,2.84c-0.42,0.01-0.63,0.33-0.88,0.58c-6.61,6.6-13.21,13.2-19.81,19.81
			C73.26,80.69,72.92,80.89,72.92,81.32z"/>
		<path class="st10" d="M84.43,81.37c-1.52-0.02-3.03-0.03-4.55-0.05c0.04-0.56,0.54-0.79,0.86-1.14c0.43-0.49,1-0.86,1.13-1.56
			c0.33-0.03,0.66-0.05,0.99-0.08c1.72,0,3.45,0.01,5.17,0.01c0.79,0.01,1.57,0.02,2.36,0.01c1.87-0.02,1.62,0.23,1.64-1.6
			c0.02-1.65,0.01-1.65-1.61-1.6c-1.66-0.03-3.31-0.05-4.97-0.08c-0.06-0.47,0.3-0.71,0.57-0.98c3.48-3.49,6.97-6.98,10.46-10.46
			c0.25-0.25,0.45-0.59,0.87-0.6c0.01,4.49,0.01,8.99,0.04,13.48c0,0.72-0.2,0.91-0.92,0.78c-1.77-0.32-3.42,1.06-3.45,2.91
			c-0.01,0.75-0.23,0.95-0.96,0.94C89.52,81.32,86.98,81.36,84.43,81.37z"/>
		<path class="st11" d="M81.87,78.62c-0.13,0.7-0.71,1.07-1.13,1.56c-0.31,0.36-0.81,0.58-0.86,1.14c-2.32,0-4.64,0-6.96,0
			c0-0.42,0.34-0.63,0.59-0.88c6.6-6.61,13.2-13.21,19.81-19.81c0.25-0.25,0.47-0.58,0.88-0.58c0.85,0.3,1.67,0.73,2.64,0.43
			c0.44-0.14,0.53,0.23,0.53,0.6c-0.01,0.72-0.01,1.44-0.02,2.17c-0.42,0-0.62,0.35-0.87,0.6c-3.49,3.48-6.98,6.97-10.46,10.46
			c-0.28,0.28-0.63,0.51-0.57,0.98c-0.07,0.03-0.14,0.06-0.21,0.09c-0.89-0.01-1.78-0.03-2.67-0.03c-1.93-0.01-1.88-0.01-1.94,1.9
			C80.6,78.2,80.8,78.75,81.87,78.62z"/>
		<path class="st7" d="M87.24,56.69c0.05,0.41-0.19,0.67-0.46,0.94c-2.86,2.85-5.71,5.7-8.56,8.55c-0.21,0.21-0.41,0.44-0.75,0.43
			c-0.17-0.35-0.33-0.71-0.52-1.05c-1.25-2.2-3.03-3.66-5.63-3.93c-0.73-0.01-1.45-0.03-2.18-0.04c-0.07-0.47,0.12-0.81,0.45-1.13
			c0.78-0.75,1.56-1.51,2.29-2.3c0.44-0.47,1.07-0.78,1.22-1.49c1.72-0.01,3.44-0.02,5.16-0.03C81.27,56.67,84.25,56.68,87.24,56.69
			z"/>
		<path class="st14" d="M73.12,56.69c-0.15,0.71-0.79,1.02-1.22,1.49c-0.74,0.79-1.51,1.55-2.29,2.3c-0.33,0.32-0.53,0.66-0.45,1.13
			c-1.48,0.29-2.85,0.86-3.91,1.94c-1.74,1.78-2.86,3.82-2.25,6.44c-0.1,0.77,0.46,1.42,0.42,2.18c-0.11,0.07-0.23,0.13-0.33,0.22
			c-2.76,2.75-5.52,5.51-8.27,8.26c-0.19,0.19-0.38,0.37-0.37,0.67c-2.01,0.01-4.02,0-6.02,0.03c-0.55,0.01-0.73-0.16-0.75-0.73
			c-0.07-2.14-1.52-3.37-3.61-3.09c-0.57,0.08-0.8-0.1-0.75-0.67c0.03-0.36,0.02-0.72,0.02-1.09c0.61-0.5,0.87-1.25,1.44-1.8
			c3.38-3.31,6.71-6.68,10.07-10.03c0.37-0.36,0.69-0.72,0.6-1.28c0.26,0,0.52,0,0.79,0c1.16,0.39,2.34,0.13,3.52,0.14
			c0.35,0,0.47-0.33,0.45-0.66c-0.05-0.92,0.15-1.85-0.13-2.76c-0.14-0.45,0.08-0.73,0.36-1.05c0.47-0.54,1.18-0.88,1.38-1.64
			C65.57,56.69,69.35,56.69,73.12,56.69z"/>
		<path class="st8" d="M55.44,62.66c0.08,0.56-0.24,0.92-0.6,1.28c-3.36,3.34-6.69,6.71-10.07,10.03c-0.57,0.55-0.83,1.31-1.44,1.8
			c-0.01-4.87-0.01-9.74-0.03-14.61c0-0.57,0.18-0.76,0.76-0.69c2.07,0.27,3.56-0.96,3.61-3.02c0.01-0.61,0.2-0.81,0.8-0.79
			c1.26,0.03,2.52,0,3.78,0c3.19,0.01,6.37,0.02,9.56,0.03c-0.2,0.76-0.91,1.1-1.38,1.64c-0.27,0.32-0.5,0.6-0.36,1.05
			c0.28,0.9,0.08,1.84,0.13,2.76c0.02,0.33-0.1,0.66-0.45,0.66c-1.17-0.01-2.36,0.25-3.52-0.14c0.35-1.02,1.35-1.48,1.96-2.28
			c0.19-0.24,0.65-0.39,0.49-0.76c-0.13-0.31-0.53-0.15-0.81-0.15c-2.14-0.01-4.27-0.01-6.41-0.01c-0.88,0.04-2-0.37-2.57,0.15
			c-0.64,0.58-0.13,1.74-0.22,2.64c0.09,0.56,0.53,0.39,0.85,0.39C51.49,62.66,53.46,62.65,55.44,62.66z"/>
		<path class="st7" d="M54.43,81.32c-0.01-0.3,0.18-0.48,0.37-0.67c2.76-2.76,5.51-5.51,8.27-8.26c0.09-0.09,0.22-0.15,0.33-0.22
			c0.8,1.16,1.64,2.28,2.77,3.14c-1.58,1.56-3.17,3.13-4.75,4.69c-0.38,0.37-0.76,0.73-0.82,1.3c-1.79,0.02-3.59,0.04-5.38,0.06
			C54.96,81.35,54.69,81.34,54.43,81.32z"/>
		<path class="st13" d="M66.17,75.31c-1.13-0.86-1.97-1.99-2.77-3.14c0.04-0.76-0.52-1.4-0.42-2.18c0.46,0.08,0.72-0.22,1.01-0.51
			c2.28-2.28,4.55-4.56,6.84-6.83c0.28-0.28,0.57-0.55,0.5-1.01c2.6,0.27,4.38,1.72,5.63,3.93c0.19,0.34,0.35,0.7,0.52,1.05
			c0.01,0.2,0.03,0.4,0.04,0.6c-0.38-0.02-0.59,0.26-0.82,0.49c-2.55,2.55-5.1,5.1-7.66,7.66c-0.23,0.23-0.51,0.43-0.49,0.82
			C67.68,76.11,66.97,75.6,66.17,75.31z"/>
		<path class="st8" d="M68.55,76.18c-0.02-0.38,0.26-0.59,0.49-0.82c2.55-2.55,5.1-5.1,7.66-7.66c0.23-0.23,0.43-0.51,0.82-0.49
			c0.79,2.76,0.03,5.18-1.93,7.1C73.66,76.2,71.28,77.02,68.55,76.18z"/>
		<path class="st13" d="M85.24,75.37c0.07-0.03,0.14-0.06,0.21-0.09c1.66,0.03,3.31,0.05,4.97,0.08c0.08,0.5-0.29,0.75-0.56,1.08
			c-0.6,0.71-1.5,1.17-1.82,2.11c-1.72,0-3.45-0.01-5.17-0.01c-0.07-0.5,0.29-0.75,0.56-1.07C84.02,76.76,84.91,76.31,85.24,75.37z"
			/>
		<path class="st9" d="M85.24,75.37c-0.33,0.93-1.22,1.39-1.82,2.1c-0.27,0.32-0.64,0.57-0.56,1.07c-0.33,0.03-0.66,0.05-0.99,0.08
			c-1.07,0.13-1.27-0.42-1.24-1.38c0.07-1.91,0.01-1.91,1.94-1.9C83.47,75.34,84.35,75.36,85.24,75.37z"/>
		<path class="st8" d="M88.03,78.54c0.33-0.95,1.22-1.4,1.82-2.11c0.27-0.32,0.64-0.58,0.56-1.08c1.62-0.05,1.63-0.05,1.61,1.6
			c-0.02,1.83,0.23,1.58-1.64,1.6C89.6,78.57,88.82,78.55,88.03,78.54z"/>
		<path class="st9" d="M71.33,61.64c0.07,0.45-0.22,0.72-0.5,1.01c-2.28,2.28-4.56,4.55-6.84,6.83c-0.28,0.28-0.55,0.58-1.01,0.51
			c-0.61-2.62,0.51-4.67,2.25-6.44c1.06-1.08,2.43-1.65,3.91-1.94C69.88,61.62,70.6,61.63,71.33,61.64z"/>
		<path class="st13" d="M51.45,59.46c2.14,0,4.27,0,6.41,0.01c0.28,0,0.68-0.16,0.81,0.15c0.16,0.37-0.3,0.52-0.49,0.76
			c-0.61,0.79-1.61,1.25-1.96,2.28c-0.26,0-0.52,0-0.79,0c-1.97,0-3.95,0-5.92-0.01c-0.33,0-0.77,0.17-0.85-0.39
			C49.84,61.56,50.77,60.63,51.45,59.46z"/>
		<path class="st9" d="M51.45,59.46c-0.69,1.18-1.61,2.11-2.79,2.79c0.09-0.9-0.42-2.05,0.22-2.64
			C49.45,59.09,50.57,59.5,51.45,59.46z"/>
	</g>
</g>
</svg>
